G04 #@! TF.FileFunction,Soldermask,Top*
%FSLAX46Y46*%
G04 Gerber Fmt 4.6, Leading zero omitted, Abs format (unit mm)*
G04 Created by KiCad (PCBNEW 4.0.0-rc1-stable) date 2/9/2016 2:30:25 PM*
%MOMM*%
G01*
G04 APERTURE LIST*
%ADD10C,0.150000*%
%ADD11R,3.050000X2.250000*%
%ADD12R,3.050000X2.450000*%
%ADD13R,3.050000X3.050000*%
%ADD14C,1.950000*%
%ADD15C,2.129600*%
%ADD16R,0.504000X1.012000*%
%ADD17R,1.012000X0.504000*%
%ADD18R,3.249740X3.249740*%
%ADD19R,0.798640X1.448880*%
%ADD20R,1.800000X1.550000*%
%ADD21R,1.050000X1.000000*%
%ADD22R,1.000000X1.050000*%
%ADD23R,1.977200X2.282000*%
%ADD24O,1.977200X2.282000*%
%ADD25R,1.751140X1.250760*%
%ADD26R,3.249740X2.248980*%
%ADD27R,0.850000X0.750000*%
%ADD28R,0.750000X0.850000*%
%ADD29R,0.650000X0.850000*%
%ADD30R,0.850000X0.650000*%
%ADD31R,0.690000X0.450000*%
%ADD32R,0.450000X0.690000*%
%ADD33R,0.630000X0.630000*%
%ADD34R,0.850000X1.250000*%
%ADD35R,0.670000X0.950000*%
%ADD36R,0.648780X0.999300*%
%ADD37R,0.656400X0.910400*%
%ADD38R,1.250000X1.500000*%
%ADD39R,1.500000X1.250000*%
%ADD40C,1.248220*%
%ADD41R,2.050000X2.480000*%
%ADD42R,0.550000X0.750000*%
%ADD43R,1.130000X1.050000*%
%ADD44R,1.750000X4.250000*%
%ADD45R,1.000000X0.550000*%
%ADD46R,1.125000X0.975000*%
%ADD47R,2.050860X1.050100*%
%ADD48R,2.250000X4.314000*%
%ADD49R,1.774000X4.314000*%
%ADD50R,1.050100X2.050860*%
%ADD51C,3.750000*%
G04 APERTURE END LIST*
D10*
D11*
X39500000Y-3095000D03*
X39500000Y-295000D03*
D12*
X46700000Y-2195000D03*
X46700000Y-4995000D03*
D13*
X46700000Y7205000D03*
X42350000Y11305000D03*
D14*
X43100000Y-1095000D03*
X43100000Y5905000D03*
D15*
X35470000Y1625000D03*
X35470000Y-915000D03*
X35470000Y-3455000D03*
X35470000Y4165000D03*
D16*
X23349680Y7680640D03*
X22849300Y7680640D03*
X22348920Y7680640D03*
X23850060Y7680640D03*
D17*
X24599360Y8429940D03*
X24599360Y8930320D03*
X24599360Y9430700D03*
X24599360Y9931080D03*
X24599360Y10428920D03*
X24599360Y10929300D03*
X24599360Y11429680D03*
X24599360Y11930060D03*
D16*
X20349940Y12679360D03*
X23850060Y12679360D03*
X23349680Y12679360D03*
X22849300Y12679360D03*
X22348920Y12679360D03*
X21851080Y12679360D03*
X21350700Y12679360D03*
X20850320Y12679360D03*
D17*
X19600640Y11930060D03*
X19600640Y11429680D03*
X19600640Y10929300D03*
X19600640Y10428920D03*
X19600640Y9931080D03*
X19600640Y9430700D03*
X19600640Y8930320D03*
X19600640Y8429940D03*
D16*
X20349940Y7680640D03*
X20850320Y7680640D03*
X21350700Y7680640D03*
X21851080Y7680640D03*
D18*
X22100000Y10180000D03*
D10*
G36*
X31301412Y9033315D02*
X30346945Y9987782D01*
X31867168Y11508005D01*
X32821635Y10553538D01*
X31301412Y9033315D01*
X31301412Y9033315D01*
G37*
G36*
X33916462Y11648365D02*
X32961995Y12602832D01*
X34482218Y14123055D01*
X35436685Y13168588D01*
X33916462Y11648365D01*
X33916462Y11648365D01*
G37*
G36*
X32292832Y13271995D02*
X31338365Y14226462D01*
X32858588Y15746685D01*
X33813055Y14792218D01*
X32292832Y13271995D01*
X32292832Y13271995D01*
G37*
G36*
X29677782Y10656945D02*
X28723315Y11611412D01*
X30243538Y13131635D01*
X31198005Y12177168D01*
X29677782Y10656945D01*
X29677782Y10656945D01*
G37*
D19*
X42510040Y18777940D03*
X43460000Y18777940D03*
X44409960Y18777940D03*
X44409960Y16182060D03*
X43460000Y16182060D03*
X42510040Y16182060D03*
D20*
X13545000Y53500000D03*
X5595000Y53500000D03*
X5595000Y58000000D03*
X13545000Y58000000D03*
D21*
X11660000Y30940000D03*
X10160000Y30940000D03*
X17870000Y28470000D03*
X16370000Y28470000D03*
D22*
X24930000Y21010000D03*
X24930000Y19510000D03*
D21*
X10550000Y40790000D03*
X12050000Y40790000D03*
D22*
X20380000Y37590000D03*
X20380000Y39090000D03*
D21*
X7750000Y38400000D03*
X9250000Y38400000D03*
X16060000Y36090000D03*
X17560000Y36090000D03*
D22*
X11660000Y27600000D03*
X11660000Y29100000D03*
X18950000Y37600000D03*
X18950000Y36100000D03*
X26320000Y25260000D03*
X26320000Y26760000D03*
D21*
X23110000Y32670000D03*
X24610000Y32670000D03*
D23*
X25480000Y1780000D03*
D24*
X22940000Y1780000D03*
X20400000Y1780000D03*
X17860000Y1780000D03*
X15320000Y1780000D03*
X12780000Y1780000D03*
X10240000Y1780000D03*
X7700000Y1780000D03*
X5160000Y1780000D03*
X2620000Y1780000D03*
D21*
X38400000Y25930000D03*
X36900000Y25930000D03*
D25*
X10561660Y33618860D03*
X10561660Y35120000D03*
X10561660Y36621140D03*
D26*
X7610180Y35120000D03*
D10*
G36*
X8959650Y36245760D02*
X9958950Y35745380D01*
X9958950Y34494620D01*
X8959650Y33994240D01*
X8959650Y36245760D01*
X8959650Y36245760D01*
G37*
D25*
X18941660Y31498860D03*
X18941660Y33000000D03*
X18941660Y34501140D03*
D26*
X15990180Y33000000D03*
D10*
G36*
X17339650Y34125760D02*
X18338950Y33625380D01*
X18338950Y32374620D01*
X17339650Y31874240D01*
X17339650Y34125760D01*
X17339650Y34125760D01*
G37*
D25*
X26321660Y28268860D03*
X26321660Y29770000D03*
X26321660Y31271140D03*
D26*
X23370180Y29770000D03*
D10*
G36*
X24719650Y30895760D02*
X25718950Y30395380D01*
X25718950Y29144620D01*
X24719650Y28644240D01*
X24719650Y30895760D01*
X24719650Y30895760D01*
G37*
D27*
X25060000Y5190000D03*
X26160000Y5190000D03*
X25060000Y4040000D03*
X26160000Y4040000D03*
D28*
X16500000Y8430000D03*
X16500000Y7330000D03*
X15360000Y8430000D03*
X15360000Y7330000D03*
X29110000Y8280000D03*
X29110000Y7180000D03*
X30180000Y8280000D03*
X30180000Y7180000D03*
X14190000Y8430000D03*
X14190000Y7330000D03*
X12950000Y8430000D03*
X12950000Y7330000D03*
D10*
G36*
X32525736Y8735406D02*
X31995406Y9265736D01*
X32596446Y9866776D01*
X33126776Y9336446D01*
X32525736Y8735406D01*
X32525736Y8735406D01*
G37*
G36*
X33303554Y9513224D02*
X32773224Y10043554D01*
X33374264Y10644594D01*
X33904594Y10114264D01*
X33303554Y9513224D01*
X33303554Y9513224D01*
G37*
G36*
X31455736Y15035406D02*
X30925406Y15565736D01*
X31526446Y16166776D01*
X32056776Y15636446D01*
X31455736Y15035406D01*
X31455736Y15035406D01*
G37*
G36*
X32233554Y15813224D02*
X31703224Y16343554D01*
X32304264Y16944594D01*
X32834594Y16414264D01*
X32233554Y15813224D01*
X32233554Y15813224D01*
G37*
D27*
X21820000Y15510000D03*
X22920000Y15510000D03*
X21820000Y16460000D03*
X22920000Y16460000D03*
D28*
X18320000Y12680000D03*
X18320000Y13780000D03*
X17180000Y12680000D03*
X17180000Y13780000D03*
D27*
X20420000Y-510000D03*
X21520000Y-510000D03*
X29340000Y-6470000D03*
X28240000Y-6470000D03*
D22*
X24650000Y52720000D03*
X24650000Y54220000D03*
X11660000Y23080000D03*
X11660000Y24580000D03*
X16360000Y22640000D03*
X16360000Y24140000D03*
D21*
X22030000Y21010000D03*
X23530000Y21010000D03*
D27*
X24160000Y48075000D03*
X23060000Y48075000D03*
X7730000Y41070000D03*
X6630000Y41070000D03*
D28*
X20310000Y23520000D03*
X20310000Y24620000D03*
X39950000Y32120000D03*
X39950000Y33220000D03*
D27*
X23110000Y35180000D03*
X22010000Y35180000D03*
X47100000Y15120000D03*
X46000000Y15120000D03*
D22*
X8790000Y49560000D03*
X8790000Y51060000D03*
D27*
X11240000Y51050000D03*
X10140000Y51050000D03*
D28*
X46390000Y20260000D03*
X46390000Y19160000D03*
D27*
X37930000Y8450000D03*
X36830000Y8450000D03*
D28*
X21480000Y41450000D03*
X21480000Y42550000D03*
D27*
X14660000Y48440000D03*
X13560000Y48440000D03*
X19210000Y42570000D03*
X18110000Y42570000D03*
X41200000Y14180000D03*
X40100000Y14180000D03*
D22*
X35460000Y8000000D03*
X35460000Y6500000D03*
D29*
X18500000Y8430000D03*
X17600000Y8430000D03*
X43410000Y14640000D03*
X42510000Y14640000D03*
D30*
X41220000Y16190000D03*
X41220000Y15290000D03*
D29*
X44410000Y20260000D03*
X45310000Y20260000D03*
X7490000Y51050000D03*
X6590000Y51050000D03*
D30*
X46000000Y17080000D03*
X46000000Y16180000D03*
X47430000Y17090000D03*
X47430000Y17990000D03*
X36830000Y7410000D03*
X36830000Y6510000D03*
X42275000Y54605000D03*
X42275000Y53705000D03*
X45075000Y52105000D03*
X45075000Y53005000D03*
D31*
X23720000Y50820000D03*
X23720000Y50320000D03*
X23720000Y49820000D03*
D32*
X24150000Y49390000D03*
X24650000Y49390000D03*
X25150000Y49390000D03*
D31*
X25580000Y49820000D03*
X25580000Y50320000D03*
X25580000Y50820000D03*
D32*
X25150000Y51250000D03*
X24650000Y51250000D03*
X24150000Y51250000D03*
D33*
X24840000Y50130000D03*
X24840000Y50510000D03*
X24460000Y50130000D03*
X24460000Y50510000D03*
D31*
X20310000Y20660000D03*
X20310000Y21160000D03*
X20310000Y21660000D03*
D32*
X19880000Y22090000D03*
X19380000Y22090000D03*
X18880000Y22090000D03*
D31*
X18450000Y21660000D03*
X18450000Y21160000D03*
X18450000Y20660000D03*
D32*
X18880000Y20230000D03*
X19380000Y20230000D03*
X19880000Y20230000D03*
D33*
X19190000Y21350000D03*
X19190000Y20970000D03*
X19570000Y21350000D03*
X19570000Y20970000D03*
D27*
X9285000Y-515000D03*
X10385000Y-515000D03*
X14885000Y-515000D03*
X15985000Y-515000D03*
X3610000Y-515000D03*
X4710000Y-515000D03*
X11660000Y43330000D03*
X10560000Y43330000D03*
X22740000Y38730000D03*
X23840000Y38730000D03*
D21*
X27410000Y33960000D03*
X25910000Y33960000D03*
D34*
X21370000Y-1880000D03*
X20420000Y-1880000D03*
X19470000Y-1880000D03*
X19470000Y-4080000D03*
X20420000Y-4080000D03*
X21370000Y-4080000D03*
X15835000Y-1890000D03*
X14885000Y-1890000D03*
X13935000Y-1890000D03*
X13935000Y-4090000D03*
X14885000Y-4090000D03*
X15835000Y-4090000D03*
X10235000Y-1890000D03*
X9285000Y-1890000D03*
X8335000Y-1890000D03*
X8335000Y-4090000D03*
X9285000Y-4090000D03*
X10235000Y-4090000D03*
X4560000Y-1890000D03*
X3610000Y-1890000D03*
X2660000Y-1890000D03*
X2660000Y-4090000D03*
X3610000Y-4090000D03*
X4560000Y-4090000D03*
D30*
X22970000Y-3180000D03*
X22970000Y-4080000D03*
D29*
X12460000Y-4090000D03*
X11560000Y-4090000D03*
X18040000Y-4090000D03*
X17140000Y-4090000D03*
X6785000Y-4090000D03*
X5885000Y-4090000D03*
D35*
X19770000Y-7450000D03*
X20420000Y-7450000D03*
X21070000Y-7450000D03*
X21070000Y-5550000D03*
X20420000Y-5550000D03*
X19770000Y-5550000D03*
D27*
X28630000Y39900000D03*
X27530000Y39900000D03*
D36*
X28890240Y-3290040D03*
X28240000Y-3290040D03*
X27589760Y-3290040D03*
X27589760Y-5189960D03*
X28240000Y-5189960D03*
X28890240Y-5189960D03*
D37*
X7969600Y-7506000D03*
X9290400Y-7506000D03*
X8630000Y-7506000D03*
X9290400Y-5474000D03*
X7969600Y-5474000D03*
X13559600Y-7506000D03*
X14880400Y-7506000D03*
X14220000Y-7506000D03*
X14880400Y-5474000D03*
X13559600Y-5474000D03*
X2289600Y-7506000D03*
X3610400Y-7506000D03*
X2950000Y-7506000D03*
X3610400Y-5474000D03*
X2289600Y-5474000D03*
D21*
X28630000Y44610000D03*
X27130000Y44610000D03*
X20560000Y52290000D03*
X19060000Y52290000D03*
X15000000Y18805000D03*
X13500000Y18805000D03*
X13160000Y44580000D03*
X11660000Y44580000D03*
D22*
X22740000Y41460000D03*
X22740000Y39960000D03*
D21*
X14670000Y47160000D03*
X13170000Y47160000D03*
X16160000Y49750000D03*
X14660000Y49750000D03*
X17680000Y52300000D03*
X16180000Y52300000D03*
X20760000Y46990000D03*
X19260000Y46990000D03*
D27*
X7720000Y39880000D03*
X6620000Y39880000D03*
X16060000Y37270000D03*
X14960000Y37270000D03*
X23110000Y34030000D03*
X22010000Y34030000D03*
X16060000Y38420000D03*
X14960000Y38420000D03*
D21*
X16360000Y25540000D03*
X14860000Y25540000D03*
D27*
X11660000Y26220000D03*
X10560000Y26220000D03*
X7730000Y42200000D03*
X6630000Y42200000D03*
X16060000Y39540000D03*
X14960000Y39540000D03*
X23100000Y36180000D03*
X24200000Y36180000D03*
X13170000Y45860000D03*
X14270000Y45860000D03*
D38*
X26320000Y23590000D03*
X24320000Y23590000D03*
D27*
X16160000Y51050000D03*
X15060000Y51050000D03*
X19210000Y45770000D03*
X20310000Y45770000D03*
X30620000Y47650000D03*
X29520000Y47650000D03*
D22*
X20770000Y49910000D03*
X20770000Y48410000D03*
D21*
X27680000Y50320000D03*
X29180000Y50320000D03*
X12950000Y11430000D03*
X14450000Y11430000D03*
D27*
X27400000Y37490000D03*
X26300000Y37490000D03*
D28*
X10950000Y17030000D03*
X10950000Y18130000D03*
D27*
X9900000Y15005000D03*
X8800000Y15005000D03*
X11660000Y32150000D03*
X10560000Y32150000D03*
D21*
X16360000Y27050000D03*
X17860000Y27050000D03*
D27*
X17860000Y29820000D03*
X18960000Y29820000D03*
D28*
X10560000Y39510000D03*
X10560000Y38410000D03*
X26320000Y21010000D03*
X26320000Y22110000D03*
D27*
X11660000Y42130000D03*
X10560000Y42130000D03*
X22740000Y37600000D03*
X21640000Y37600000D03*
X27420000Y32670000D03*
X26320000Y32670000D03*
X19230000Y41450000D03*
X20330000Y41450000D03*
D39*
X28630000Y43220000D03*
X28630000Y41220000D03*
D28*
X19220000Y44720000D03*
X19220000Y43620000D03*
D38*
X30630000Y46160000D03*
X28630000Y46160000D03*
D28*
X11475000Y13305000D03*
X11475000Y14405000D03*
D30*
X9900000Y17030000D03*
X9900000Y16130000D03*
D40*
X51960000Y-6190000D03*
X2050000Y58160000D03*
D41*
X28090000Y15940000D03*
X25170000Y15940000D03*
D42*
X13000000Y13305000D03*
X13500000Y13305000D03*
X14000000Y13305000D03*
X14500000Y13305000D03*
X14500000Y15205000D03*
X14000000Y15205000D03*
X13500000Y15205000D03*
X13000000Y15205000D03*
D43*
X14190000Y14255000D03*
X13310000Y14255000D03*
D22*
X34700000Y44160000D03*
X34700000Y45660000D03*
D21*
X34700000Y47820000D03*
X36200000Y47820000D03*
X34700000Y42740000D03*
X36200000Y42740000D03*
X27500000Y52730000D03*
X26000000Y52730000D03*
D22*
X17860000Y17310000D03*
X17860000Y18810000D03*
D29*
X26010000Y54220000D03*
X26910000Y54220000D03*
D28*
X45560000Y32720000D03*
X45560000Y31620000D03*
D27*
X44480000Y28230000D03*
X43380000Y28230000D03*
D41*
X35490000Y28505000D03*
X38410000Y28505000D03*
D29*
X43380000Y29470000D03*
X44280000Y29470000D03*
X44280000Y30810000D03*
X43380000Y30810000D03*
D39*
X46360000Y36810000D03*
X46360000Y38810000D03*
X44280000Y36810000D03*
X44280000Y38810000D03*
D38*
X36400000Y32260000D03*
X38400000Y32260000D03*
D44*
X39950000Y36480000D03*
X36350000Y36480000D03*
D38*
X37400000Y20580000D03*
X35400000Y20580000D03*
D21*
X13500000Y17030000D03*
X12000000Y17030000D03*
D22*
X27400000Y36550000D03*
X27400000Y35050000D03*
D21*
X28730000Y38660000D03*
X27230000Y38660000D03*
D22*
X30620000Y50320000D03*
X30620000Y48820000D03*
D38*
X31080000Y3090000D03*
X29080000Y3090000D03*
D39*
X25200000Y-5180000D03*
X25200000Y-3180000D03*
D45*
X44280000Y32220000D03*
X44280000Y32720000D03*
X44280000Y33220000D03*
X44280000Y33720000D03*
X41380000Y33720000D03*
X41380000Y33220000D03*
X41380000Y32720000D03*
X41380000Y32220000D03*
D46*
X42392500Y33332500D03*
X42392500Y32607500D03*
X43267500Y33332500D03*
X43267500Y32607500D03*
D47*
X35398860Y24180000D03*
X35398860Y22280000D03*
X38401140Y23230000D03*
D48*
X21878000Y57240000D03*
X27402000Y57240000D03*
D49*
X24640000Y57240000D03*
D21*
X16850000Y11430000D03*
X18350000Y11430000D03*
D22*
X15650000Y9930000D03*
X15650000Y11430000D03*
D47*
X42698860Y45405000D03*
X42698860Y43505000D03*
X45701140Y44455000D03*
D50*
X42450000Y49103860D03*
X44350000Y49103860D03*
X43400000Y52106140D03*
X38975000Y51603860D03*
X40875000Y51603860D03*
X39925000Y54606140D03*
D30*
X40725000Y43505000D03*
X40725000Y44405000D03*
X27875000Y12530000D03*
X27875000Y13430000D03*
D29*
X44350000Y47230000D03*
X43450000Y47230000D03*
D30*
X40875000Y50005000D03*
X40875000Y49105000D03*
X45700000Y45605000D03*
X45700000Y46505000D03*
D15*
X50830000Y26680000D03*
X50830000Y29220000D03*
X50830000Y41920000D03*
X50830000Y44460000D03*
X50830000Y47000000D03*
X50830000Y49540000D03*
X50830000Y52080000D03*
X50830000Y54620000D03*
X2570000Y15250000D03*
X2570000Y49540000D03*
X2570000Y47000000D03*
X2570000Y44460000D03*
X2570000Y41920000D03*
X2570000Y39380000D03*
X2570000Y36840000D03*
X2570000Y33030000D03*
X2570000Y30490000D03*
X2570000Y27950000D03*
X2570000Y25410000D03*
X2570000Y22870000D03*
X2570000Y20330000D03*
X50830000Y31760000D03*
X50830000Y34300000D03*
X2570000Y17790000D03*
X50830000Y24140000D03*
X2570000Y54620000D03*
X2570000Y52080000D03*
X50830000Y36840000D03*
D51*
X2570000Y6360000D03*
X45755000Y57165000D03*
X17815000Y57160000D03*
X50830000Y5095000D03*
D15*
X2570000Y12710000D03*
X2570000Y10170000D03*
X50830000Y21600000D03*
X50830000Y19060000D03*
D30*
X26750000Y12530000D03*
X26750000Y13430000D03*
M02*
