G04 #@! TF.FileFunction,Soldermask,Bot*
%FSLAX46Y46*%
G04 Gerber Fmt 4.6, Leading zero omitted, Abs format (unit mm)*
G04 Created by KiCad (PCBNEW 4.0.0-rc1-stable) date 2/9/2016 2:30:25 PM*
%MOMM*%
G01*
G04 APERTURE LIST*
%ADD10C,0.150000*%
%ADD11C,1.950000*%
%ADD12C,2.129600*%
%ADD13R,1.977200X2.282000*%
%ADD14O,1.977200X2.282000*%
%ADD15R,2.250000X4.314000*%
%ADD16C,3.750000*%
G04 APERTURE END LIST*
D10*
D11*
X43100000Y-1095000D03*
X43100000Y5905000D03*
D12*
X35470000Y1625000D03*
X35470000Y-915000D03*
X35470000Y-3455000D03*
X35470000Y4165000D03*
D13*
X25480000Y1780000D03*
D14*
X22940000Y1780000D03*
X20400000Y1780000D03*
X17860000Y1780000D03*
X15320000Y1780000D03*
X12780000Y1780000D03*
X10240000Y1780000D03*
X7700000Y1780000D03*
X5160000Y1780000D03*
X2620000Y1780000D03*
D15*
X21878000Y57240000D03*
X27402000Y57240000D03*
D12*
X50830000Y26680000D03*
X50830000Y29220000D03*
X50830000Y41920000D03*
X50830000Y44460000D03*
X50830000Y47000000D03*
X50830000Y49540000D03*
X50830000Y52080000D03*
X50830000Y54620000D03*
X2570000Y15250000D03*
X2570000Y49540000D03*
X2570000Y47000000D03*
X2570000Y44460000D03*
X2570000Y41920000D03*
X2570000Y39380000D03*
X2570000Y36840000D03*
X2570000Y33030000D03*
X2570000Y30490000D03*
X2570000Y27950000D03*
X2570000Y25410000D03*
X2570000Y22870000D03*
X2570000Y20330000D03*
X50830000Y31760000D03*
X50830000Y34300000D03*
X2570000Y17790000D03*
X50830000Y24140000D03*
X2570000Y54620000D03*
X2570000Y52080000D03*
X50830000Y36840000D03*
D16*
X2570000Y6360000D03*
X45755000Y57165000D03*
X17815000Y57160000D03*
X50830000Y5095000D03*
D12*
X2570000Y12710000D03*
X2570000Y10170000D03*
X50830000Y21600000D03*
X50830000Y19060000D03*
M02*
