M48
;DRILL file {KiCad 4.0.0-rc1-stable} date 2/9/2016 2:34:30 PM
;FORMAT={2:4/ absolute / inch / keep zeros}
FMAT,2
INCH,TZ
T1C0.010
T2C0.040
T3C0.067
T4C0.138
%
G90
G05
M72
T1
X000531Y-000224
X000531Y-002606
X000551Y-001130
X000563Y-002157
X000567Y-001610
X000598Y-002957
X001053Y-000205
X001161Y-002622
X001811Y020307
X001890Y017866
X001900Y017177
X001969Y021882
X002126Y-002537
X002283Y016409
X002283Y015937
X002283Y-000746
X002287Y015390
X002293Y001941
X002323Y012128
X002323Y010701
X002323Y009283
X002323Y007630
X002323Y006094
X002323Y004205
X002323Y003181
X002362Y014520
X002362Y013102
X002520Y014087
X002520Y013535
X002520Y-002508
X002638Y017039
X002673Y-001252
X002795Y-002157
X002815Y-000146
X002866Y-002957
X002992Y019047
X002996Y013827
X003051Y017128
X003051Y006921
X003051Y005110
X003051Y003693
X003081Y002226
X003091Y010287
X003091Y008693
X003110Y011370
X003150Y021882
X003278Y-000205
X003386Y014638
X003386Y014165
X003386Y013496
X003386Y013102
X003386Y012752
X003465Y017709
X003524Y-002557
X003622Y011803
X003701Y017079
X003701Y016685
X003701Y016213
X003701Y015583
X003701Y010701
X003701Y009992
X003724Y013827
X003740Y004697
X003740Y003102
X003937Y018575
X004085Y005238
X004094Y017551
X004094Y011646
X004173Y021882
X004173Y019441
X004173Y010701
X004173Y009913
X004173Y008811
X004252Y008260
X004291Y-002783
X004331Y006055
X004417Y019205
X004508Y-000923
X004567Y014953
X004587Y-002705
X004646Y017945
X004646Y015583
X004724Y018575
X004724Y014402
X004724Y013850
X004724Y013220
X004744Y004835
X004803Y006213
X004803Y004106
X004906Y-001252
X004911Y-000274
X004941Y-002705
X004961Y019992
X004961Y016843
X004961Y007866
X005012Y-002157
X005035Y002433
X005039Y012878
X005039Y011965
X005039Y011488
X005039Y010858
X005039Y010474
X005039Y009598
X005039Y008890
X005098Y003713
X005197Y016291
X005197Y015819
X005276Y008417
X005354Y021882
X005354Y019756
X005512Y015346
X005512Y014874
X005512Y014386
X005591Y017315
X005591Y015898
X005669Y012118
X005669Y009126
X005720Y002445
X005748Y007866
X005748Y004874
X005827Y013220
X005827Y006921
X005827Y006370
X005831Y013602
X005906Y020543
X005906Y016370
X005906Y012748
X005984Y011508
X005984Y010622
X005984Y009598
X006063Y017866
X006114Y005665
X006142Y008417
X006181Y021016
X006220Y018654
X006220Y005425
X006295Y012992
X006299Y007079
X006329Y015907
X006339Y019205
X006378Y017394
X006378Y016370
X006378Y004992
X006457Y002504
X006526Y-002931
X006535Y006528
X006575Y017906
X006614Y012039
X006693Y013693
X006693Y013299
X006693Y012748
X006693Y007866
X006693Y003772
X006811Y015701
X006850Y014677
X006850Y009913
X006850Y009205
X006850Y008654
X006890Y015110
X006929Y-002902
X006984Y005728
X007016Y006406
X007018Y-000195
X007023Y012992
X007067Y002728
X007087Y018535
X007087Y017197
X007087Y016331
X007087Y010228
X007102Y-001252
X007126Y017787
X007165Y019244
X007165Y009520
X007215Y009156
X007283Y021016
X007299Y-002957
X007402Y015268
X007480Y010386
X007500Y011144
X007549Y009313
X007559Y009677
X007589Y-000136
X007598Y006754
X007630Y008331
X007717Y019283
X007756Y020031
X007795Y015898
X007795Y011673
X007894Y005819
X007992Y017591
X007992Y016764
X008031Y012433
X008228Y014244
X008228Y013772
X008228Y012984
X008268Y021055
X008386Y017984
X008413Y004280
X008413Y003709
X008425Y015898
X008425Y009677
X008465Y017276
X008504Y015268
X008528Y007583
X008583Y019205
X008583Y018575
X008591Y006898
X008591Y005484
X008622Y020031
X008642Y009303
X008661Y010937
X008701Y021252
X008730Y012866
X008740Y011961
X008740Y011488
X008752Y008787
X008819Y012433
X008898Y019362
X008933Y005728
X008937Y020701
X008937Y016764
X008937Y-002724
X008976Y009677
X009008Y004319
X009012Y003732
X009028Y006906
X009094Y017827
X009173Y018535
X009201Y011720
X009209Y-000437
X009217Y-000756
X009291Y010937
X009327Y007563
X009370Y017315
X009370Y016488
X009370Y-001809
X009398Y006957
X009402Y005378
X009409Y015622
X009409Y014559
X009417Y-001252
X009429Y-002724
X009528Y012433
X009557Y-000175
X009606Y011961
X009606Y011409
X009606Y008681
X009661Y018567
X009685Y013417
X009705Y019811
X009843Y010780
X009921Y016606
X009921Y015898
X009921Y014795
X009921Y009835
X009929Y011720
X009980Y018939
X010079Y017472
X010079Y004736
X010098Y005504
X010138Y003220
X010266Y003545
X010283Y020327
X010305Y018742
X010315Y015189
X010344Y002640
X010354Y014362
X010354Y013850
X010366Y007787
X010394Y015661
X010472Y-000136
X010551Y019441
X010630Y018811
X010630Y017079
X010630Y016213
X010669Y007146
X010685Y-002547
X010709Y018260
X010738Y002207
X010748Y001754
X010862Y-000756
X010935Y003821
X010941Y010693
X010945Y019283
X010949Y009902
X010965Y012165
X010988Y011382
X011051Y008579
X011102Y002522
X011122Y-001681
X011161Y007285
X011230Y004352
X011256Y014547
X011256Y013717
X011280Y013118
X011299Y021346
X011299Y011823
X011329Y010996
X011374Y-000732
X011378Y000287
X011575Y019283
X011594Y007010
X011646Y008087
X011663Y002394
X011760Y016067
X011776Y017150
X011801Y005730
X011854Y014925
X011870Y-002951
X011874Y020610
X011929Y007669
X012018Y021656
X012018Y000484
X012047Y022748
X012067Y009234
X012087Y010858
X012096Y013152
X012106Y013880
X012106Y012305
X012156Y002443
X012157Y017500
X012165Y011537
X012254Y-000815
X012274Y008014
X012313Y005091
X012421Y001734
X012453Y020035
X012476Y019150
X012492Y018646
X012575Y002650
X012583Y015591
X012598Y016701
X012598Y014559
X012707Y009963
X012803Y020598
X012844Y013053
X012953Y000071
X012953Y-000933
X012963Y004549
X012963Y001065
X012992Y002167
X013012Y003024
X013022Y006921
X013031Y012187
X013081Y013919
X013118Y018685
X013130Y008831
X013140Y015130
X013150Y016150
X013165Y019811
X013169Y010652
X013199Y011636
X013213Y017437
X013278Y008102
X013278Y007600
X013278Y-002941
X013280Y016740
X013514Y021636
X013573Y012758
X013593Y003791
X013622Y022748
X013642Y006764
X013740Y015701
X013776Y010319
X013839Y005750
X013858Y006228
X013868Y020514
X013967Y012049
X014104Y019323
X014144Y017453
X014252Y016213
X014262Y018309
X014291Y006262
X014366Y015563
X014498Y003900
X014685Y-001937
X014705Y012217
X014783Y002020
X014803Y022748
X014823Y020553
X014843Y019323
X014852Y004146
X014872Y021606
X015020Y006911
X015098Y014972
X015098Y014283
X015098Y013594
X015138Y005120
X015266Y008565
X015394Y018870
X015423Y005691
X015472Y017394
X015492Y012217
X015512Y004933
X015591Y016134
X015679Y007610
X015768Y005967
X015925Y003289
X015945Y-001976
X015974Y018555
X015984Y022748
X015994Y-002764
X016033Y017876
X016083Y011685
X016083Y009815
X016093Y010711
X016132Y008683
X016152Y011222
X016264Y012031
X016339Y006734
X016476Y014677
X016476Y013890
X016545Y020317
X016634Y015888
X016734Y013123
X016734Y012838
X016772Y021961
X016811Y016409
X016841Y008860
X016870Y014776
X016900Y-001612
X016990Y013123
X016990Y012838
X017008Y010012
X017362Y-001071
X017382Y017482
X017461Y016350
X017480Y005770
X017480Y-002764
X017500Y009530
X017657Y020002
X017677Y001547
X017815Y004352
X017835Y005238
X017972Y016862
X017972Y016055
X017992Y018673
X017992Y010366
X018031Y001291
X018031Y000622
X018041Y011518
X018071Y013929
X018179Y021193
X018337Y020868
X018337Y019333
X018337Y008585
X018642Y007974
X018661Y007551
X018770Y020002
X018819Y008811
X018882Y018972
X018882Y013972
X018886Y013020
X018886Y012114
X018898Y010829
X018917Y009618
X019035Y020967
X019055Y006252
X019055Y005307
X019055Y004362
X019055Y001331
X019055Y000543
X019154Y018083
X019370Y003063
X019390Y-002754
X019409Y006803
X019823Y015465
X019990Y-001159
X020039Y000543
X020118Y005740
X020118Y004835
X020118Y003693
X020118Y-000362
T2
X001012Y021504
X001012Y020504
X001012Y019504
X001012Y018504
X001012Y017504
X001012Y016504
X001012Y015504
X001012Y014504
X001012Y013004
X001012Y012004
X001012Y011004
X001012Y010004
X001012Y009004
X001012Y008004
X001012Y007004
X001012Y006004
X001012Y005004
X001012Y004004
X001031Y000701
X002031Y000701
X003031Y000701
X004031Y000701
X005031Y000701
X006031Y000701
X007031Y000701
X008031Y000701
X009031Y000701
X010031Y000701
X013965Y001640
X013965Y000640
X013965Y-000360
X013965Y-001360
X020012Y021504
X020012Y020504
X020012Y019504
X020012Y018504
X020012Y017504
X020012Y016504
X020012Y014504
X020012Y013504
X020012Y012504
X020012Y011504
X020012Y010504
X020012Y009504
X020012Y008504
X020012Y007504
T3
X016969Y002325
X016969Y-000431
T4
X001012Y002504
X007014Y022504
X018014Y022506
X020012Y002006
T0
M30
