G04 #@! TF.FileFunction,Copper,L4,Bot,Signal*
%FSLAX46Y46*%
G04 Gerber Fmt 4.6, Leading zero omitted, Abs format (unit mm)*
G04 Created by KiCad (PCBNEW 4.0.0-rc1-stable) date 2/9/2016 2:30:25 PM*
%MOMM*%
G01*
G04 APERTURE LIST*
%ADD10C,0.150000*%
%ADD11C,1.700000*%
%ADD12C,1.879600*%
%ADD13R,1.727200X2.032000*%
%ADD14O,1.727200X2.032000*%
%ADD15R,2.000000X4.064000*%
%ADD16C,0.558800*%
%ADD17C,0.750000*%
%ADD18C,0.203200*%
%ADD19C,0.599440*%
%ADD20C,0.314960*%
%ADD21C,0.248920*%
%ADD22C,0.200000*%
G04 APERTURE END LIST*
D10*
D11*
X43100000Y-1095000D03*
X43100000Y5905000D03*
D12*
X35470000Y1625000D03*
X35470000Y-915000D03*
X35470000Y-3455000D03*
X35470000Y4165000D03*
D13*
X25480000Y1780000D03*
D14*
X22940000Y1780000D03*
X20400000Y1780000D03*
X17860000Y1780000D03*
X15320000Y1780000D03*
X12780000Y1780000D03*
X10240000Y1780000D03*
X7700000Y1780000D03*
X5160000Y1780000D03*
X2620000Y1780000D03*
D15*
X21878000Y57240000D03*
X27402000Y57240000D03*
D12*
X50830000Y26680000D03*
X50830000Y29220000D03*
X50830000Y41920000D03*
X50830000Y44460000D03*
X50830000Y47000000D03*
X50830000Y49540000D03*
X50830000Y52080000D03*
X50830000Y54620000D03*
X2570000Y15250000D03*
X2570000Y49540000D03*
X2570000Y47000000D03*
X2570000Y44460000D03*
X2570000Y41920000D03*
X2570000Y39380000D03*
X2570000Y36840000D03*
X2570000Y33030000D03*
X2570000Y30490000D03*
X2570000Y27950000D03*
X2570000Y25410000D03*
X2570000Y22870000D03*
X2570000Y20330000D03*
X50830000Y31760000D03*
X50830000Y34300000D03*
X2570000Y17790000D03*
X50830000Y24140000D03*
X2570000Y54620000D03*
X2570000Y52080000D03*
X50830000Y36840000D03*
X2570000Y12710000D03*
X2570000Y10170000D03*
X50830000Y21600000D03*
X50830000Y19060000D03*
D16*
X45900000Y35380000D03*
X37300000Y-4920000D03*
X40500000Y-5020000D03*
X51100000Y-920000D03*
X50900000Y1380000D03*
X48400000Y1380000D03*
X45800000Y1580000D03*
X45800000Y3280000D03*
X48400000Y3380000D03*
X49200000Y7780000D03*
X51100000Y9380000D03*
X51100000Y12280000D03*
X51100000Y14580000D03*
X49300000Y17280000D03*
X43200000Y25430000D03*
X44450000Y24205000D03*
X48400000Y15880000D03*
X48400000Y13480000D03*
X48400000Y11080000D03*
X45250000Y11055000D03*
X45300000Y13305000D03*
X38150000Y17555000D03*
X41500000Y17105000D03*
X46575000Y21805000D03*
X42775000Y22505000D03*
X42925000Y-4095000D03*
X44400000Y-7020000D03*
X40625000Y-7020000D03*
X33725000Y-7470000D03*
X32900000Y-2370000D03*
X32900000Y180000D03*
X32925000Y2705000D03*
X33000000Y5505000D03*
X31550000Y4405000D03*
X49250000Y-6995000D03*
X50775000Y-2945000D03*
X44100000Y-2720000D03*
X36300000Y15905000D03*
X31275000Y12930000D03*
X35150000Y14605000D03*
X42250000Y40355000D03*
X39600000Y40980000D03*
X36200000Y41180000D03*
X34900000Y39880000D03*
X33375000Y38430000D03*
X32000000Y36980000D03*
X30750000Y35255000D03*
X30725000Y33405000D03*
X30750000Y31255000D03*
X28700000Y30030000D03*
X28775000Y27930000D03*
X30900000Y29305000D03*
X33100000Y30955000D03*
X33225000Y35355000D03*
X34475000Y32405000D03*
X32625000Y33155000D03*
X45650000Y42830000D03*
X44150000Y44405000D03*
X40575000Y47130000D03*
X39100000Y47930000D03*
X39300000Y44180000D03*
X36225000Y46505000D03*
X35925000Y44330000D03*
X46175000Y53830000D03*
X48350000Y53255000D03*
X47675000Y50805000D03*
X44850000Y50805000D03*
X48650000Y45930000D03*
X30525000Y55005000D03*
X34325000Y54955000D03*
X37775000Y54880000D03*
X37650000Y52205000D03*
X37700000Y49080000D03*
X35825000Y49080000D03*
X35225000Y52105000D03*
X26275000Y6705000D03*
X27775000Y9705000D03*
X29450000Y17805000D03*
X34650000Y17180000D03*
X33075000Y17580000D03*
X30300000Y19480000D03*
X30650000Y23455000D03*
X30700000Y27580000D03*
X17820000Y16270000D03*
X19300000Y17155000D03*
X20050000Y14780000D03*
X48000000Y27505000D03*
X48050000Y24430000D03*
X45700000Y26330000D03*
X45825000Y29255000D03*
X40850000Y29680000D03*
X40875000Y27205000D03*
X40850000Y24930000D03*
X40975000Y22055000D03*
X39825000Y19330000D03*
X38775000Y21755000D03*
X33725000Y19305000D03*
X31175000Y20355000D03*
X33350000Y22430000D03*
X32275000Y25305000D03*
X33450000Y27055000D03*
X33525000Y29555000D03*
X35475000Y30605000D03*
X45650000Y40780000D03*
X40450000Y8355000D03*
X37725000Y10530000D03*
X38450000Y13005000D03*
X39175000Y14455000D03*
X17600000Y-7370000D03*
X23950000Y-6920000D03*
X11650000Y-6870000D03*
X16575000Y-7445000D03*
X10900000Y-7070000D03*
X1400000Y-2870000D03*
X1350000Y-6620000D03*
X6400000Y-6370000D03*
X17000000Y9580000D03*
X1350000Y-570000D03*
X7150000Y-370000D03*
X17950000Y6930000D03*
X9500000Y11930000D03*
X9500000Y7880000D03*
X12200000Y10430000D03*
X12050000Y12280000D03*
X5900000Y30805000D03*
X5900000Y27180000D03*
X5900000Y23580000D03*
X5900000Y19380000D03*
X5900000Y15480000D03*
X5900000Y10680000D03*
X5900000Y8080000D03*
X5825000Y4930000D03*
X7825000Y5655000D03*
X7750000Y9380000D03*
X7750000Y12980000D03*
X7750000Y17580000D03*
X7850000Y22080000D03*
X7850000Y26130000D03*
X7900000Y28880000D03*
X30525000Y1230000D03*
X28900000Y730000D03*
X26600000Y-345000D03*
X31125000Y-2070000D03*
X28525000Y11055000D03*
X30875000Y6205000D03*
X29625000Y6080000D03*
X28200000Y6405000D03*
X27275000Y5605000D03*
X27300000Y4455000D03*
X24275000Y-445000D03*
X17825000Y-495000D03*
X11450000Y-2345000D03*
X5800000Y-1895000D03*
X28250000Y-4270000D03*
X23800000Y-4595000D03*
X30150000Y-7495000D03*
X5400000Y-6445000D03*
X33050000Y7680000D03*
X34525000Y9630000D03*
X32925000Y11555000D03*
X22890000Y9480000D03*
X30600000Y57780000D03*
X34600000Y57780000D03*
X37600000Y57780000D03*
X40600000Y57780000D03*
X42600000Y55780000D03*
X44350000Y41530000D03*
X30160000Y52350000D03*
X32520000Y52320000D03*
X33440000Y50320000D03*
X31630000Y50890000D03*
X31690000Y48640000D03*
X31730000Y47360000D03*
X32000000Y42420000D03*
X31960000Y39600000D03*
X33400000Y41020000D03*
X33730000Y42520000D03*
X33560000Y44290000D03*
X30880000Y44450000D03*
X29910000Y43560000D03*
X29870000Y40810000D03*
X30110000Y37910000D03*
X28590000Y36950000D03*
X28590000Y34840000D03*
X28650000Y33320000D03*
X27850000Y30900000D03*
X27910000Y28910000D03*
X27790000Y27160000D03*
X27810000Y25150000D03*
X28070000Y21790000D03*
X33320000Y47460000D03*
X7600000Y48380000D03*
X4800000Y45380000D03*
X21820000Y17520000D03*
X17740000Y14550000D03*
X23870000Y17670000D03*
X22690000Y14550000D03*
X22930000Y17540000D03*
X23690000Y19210000D03*
X12790000Y6180000D03*
X14530000Y6210000D03*
X16400000Y6360000D03*
X47970000Y30770000D03*
X47970000Y33070000D03*
X43155000Y33332500D03*
X43155000Y32607500D03*
X42505000Y33332500D03*
X41310000Y30560000D03*
X42505000Y32607500D03*
X50350000Y39280000D03*
X42850000Y37530000D03*
X41850000Y35280000D03*
X38350000Y34530000D03*
X38350000Y36280000D03*
X38350000Y38030000D03*
X41850000Y37280000D03*
X39350000Y31030000D03*
X37350000Y31030000D03*
X28700000Y54220000D03*
X26120000Y51630000D03*
X27100000Y18150000D03*
X34990000Y26210000D03*
X29580000Y20540000D03*
X26330000Y19780000D03*
X37550000Y5130000D03*
X22880000Y10970000D03*
X21370000Y10870000D03*
X21370000Y9420000D03*
X24400000Y22050000D03*
X21660000Y19260000D03*
X22230000Y22320000D03*
X19380000Y21160000D03*
X18200000Y24180000D03*
X19200000Y24580000D03*
X17400000Y21980000D03*
X17400000Y23380000D03*
X20400000Y31580000D03*
X19800000Y29650000D03*
X19050000Y28305000D03*
X19000000Y26380000D03*
X18000000Y25980000D03*
X17400000Y25180000D03*
X25000000Y27380000D03*
X25200000Y24980000D03*
X22800000Y24580000D03*
X21400000Y24580000D03*
X25219300Y29770000D03*
X24400000Y30380000D03*
X23370180Y29770000D03*
X24400000Y28980000D03*
X23600000Y27780000D03*
X22200000Y29180000D03*
X22000000Y27780000D03*
X22200000Y30380000D03*
X22400000Y31580000D03*
X24200000Y31580000D03*
X11000000Y15380000D03*
X12200000Y15780000D03*
X15530000Y14390000D03*
X16600000Y16580000D03*
X14800000Y16180000D03*
X14800000Y17580000D03*
X16000000Y17980000D03*
X8600000Y32390000D03*
X9200000Y29980000D03*
X10400000Y29580000D03*
X10600000Y27180000D03*
X9400000Y27180000D03*
X9400000Y25380000D03*
X10600000Y25180000D03*
X10600000Y22380000D03*
X10800000Y20980000D03*
X12600000Y19980000D03*
X14600000Y19980000D03*
X17000000Y19980000D03*
X16200000Y41580000D03*
X16200000Y44180000D03*
X15000000Y32380000D03*
X14400000Y30780000D03*
X16800000Y30580000D03*
X15200000Y29230000D03*
X15200000Y26980000D03*
X15200000Y24380000D03*
X14400000Y23180000D03*
X15600000Y21380000D03*
X13400000Y21380000D03*
X12800000Y22580000D03*
X12800000Y24380000D03*
X12800000Y26605000D03*
X12800000Y27580000D03*
X12800000Y29180000D03*
X12800000Y30390000D03*
X12800000Y32710000D03*
X12000000Y33580000D03*
X12000000Y35180000D03*
X12000000Y36580000D03*
X11600000Y37980000D03*
X11800000Y39580000D03*
X13200000Y40180000D03*
X13200000Y41380000D03*
X12600000Y42780000D03*
X14200000Y43980000D03*
X15400000Y45380000D03*
X15990180Y33000000D03*
X17000000Y32380000D03*
X17839300Y33000000D03*
X17000000Y33780000D03*
X17000000Y34780000D03*
X14800000Y33580000D03*
X14810000Y34550000D03*
X14000000Y36540000D03*
X14000000Y37780000D03*
X14000000Y38980000D03*
X14200000Y40380000D03*
X15000000Y41580000D03*
X8800000Y44980000D03*
X9400000Y39580000D03*
X9400000Y41180000D03*
X9400000Y42380000D03*
X9400000Y43380000D03*
X10400000Y44580000D03*
X11800000Y45580000D03*
X10000000Y47180000D03*
X12000000Y47180000D03*
X13600000Y50180000D03*
X10600000Y49380000D03*
X4600000Y51580000D03*
X10600000Y55580000D03*
X8000000Y55580000D03*
X5000000Y55580000D03*
X13600000Y55580000D03*
X12600000Y50780000D03*
X15000000Y52180000D03*
X15700000Y53380000D03*
X18500000Y53380000D03*
X21000000Y53480000D03*
X22700000Y52580000D03*
X21900000Y50880000D03*
X19700000Y50880000D03*
X19600000Y48980000D03*
X18200000Y48880000D03*
X16100000Y48780000D03*
X15800000Y47380000D03*
X18000000Y47080000D03*
X16700000Y45480000D03*
X18100000Y45180000D03*
X18000000Y43680000D03*
X18000000Y41480000D03*
X19800000Y40380000D03*
X17300000Y39880000D03*
X17400000Y37280000D03*
X17500000Y38380000D03*
X18800000Y38780000D03*
X21600000Y38780000D03*
X21400000Y40380000D03*
X21500000Y43880000D03*
X23800000Y43980000D03*
X25200000Y42180000D03*
X25200000Y40380000D03*
X23900000Y36980000D03*
X25200000Y37580000D03*
X26300000Y36480000D03*
X26300000Y35180000D03*
X24600000Y34080000D03*
X20900000Y32980000D03*
X20900000Y34980000D03*
X20900000Y36180000D03*
X23900000Y39680000D03*
X23800000Y41880000D03*
X22700000Y42580000D03*
X21800000Y47180000D03*
X23300000Y47080000D03*
X23100000Y45280000D03*
X21300000Y45680000D03*
X20300000Y44680000D03*
X20300000Y42580000D03*
X21800000Y48780000D03*
X22600000Y49180000D03*
X29400000Y48980000D03*
X27800000Y48980000D03*
X26800000Y49380000D03*
X27000000Y47780000D03*
X27200000Y46380000D03*
X25600000Y44380000D03*
X27000000Y43380000D03*
X27000000Y41180000D03*
X26400000Y39780000D03*
X26200000Y38580000D03*
X9459300Y35120000D03*
X8600000Y35980000D03*
X7610180Y35120000D03*
X8600000Y34280000D03*
X8600000Y33280000D03*
X6400000Y34380000D03*
X6000000Y33280000D03*
X6400000Y35780000D03*
X6000000Y36880000D03*
X8600000Y37180000D03*
X5810000Y39090000D03*
X5800000Y40480000D03*
X5800000Y41680000D03*
X6700000Y43280000D03*
X24650000Y50320000D03*
X14600000Y12380000D03*
X15800000Y13780000D03*
X22100000Y53980000D03*
D17*
X44400000Y14655000D03*
X40725000Y45405000D03*
X29975000Y14555000D03*
X12950000Y9430000D03*
X33725000Y20580000D03*
X27140000Y-6470000D03*
X12730000Y-5480000D03*
X7100000Y-5480000D03*
X1430000Y-5480000D03*
X31940000Y6730000D03*
X21820000Y13930000D03*
X16200000Y12680000D03*
X36825000Y9905000D03*
X10375000Y13305000D03*
X19275000Y-345000D03*
D16*
X40050000Y15155000D03*
X47350000Y20255000D03*
X39400000Y12530000D03*
X44900000Y3930000D03*
X11220000Y48780000D03*
X23880000Y13660000D03*
X35200000Y15820000D03*
X47400000Y19180000D03*
X25750000Y8180000D03*
X42025000Y51605000D03*
X46575000Y49105000D03*
X26075000Y9005000D03*
X25650000Y13980000D03*
X28350000Y18505000D03*
D17*
X47800000Y22380000D03*
X21950000Y23630000D03*
X41025000Y28505000D03*
X1440000Y-4090000D03*
X6790000Y-3180000D03*
X12460000Y-3180000D03*
X18040000Y-3180000D03*
X23920000Y-3180000D03*
X36490000Y39530000D03*
X24540000Y47160000D03*
X22175000Y32680000D03*
X12475000Y-695000D03*
X8325000Y-520000D03*
X16075000Y40405000D03*
X7750000Y43505000D03*
X2675000Y-520000D03*
D16*
X23390000Y-1110000D03*
X28890000Y-1860000D03*
X18540000Y-7510000D03*
X7280000Y-7510000D03*
X1520000Y-7510000D03*
X19175000Y23655000D03*
X12550000Y-6870000D03*
X2950000Y-6660000D03*
X23410000Y-1920000D03*
X27590000Y-1920000D03*
X22700000Y-6920000D03*
X18325000Y23255000D03*
X4825000Y43630000D03*
X25350000Y48105000D03*
X26175000Y47605000D03*
X8950000Y-6495000D03*
X47960000Y48190000D03*
X47960000Y35490000D03*
X25600000Y12030000D03*
X42700000Y41680000D03*
X45700000Y47430000D03*
X46575000Y53005000D03*
D18*
X45825000Y-6995000D02*
X42925000Y-4095000D01*
X49250000Y-6995000D02*
X45825000Y-6995000D01*
X44325000Y-2945000D02*
X50775000Y-2945000D01*
X44100000Y-2720000D02*
X44325000Y-2945000D01*
X34525000Y9155000D02*
X33050000Y7680000D01*
X34525000Y9630000D02*
X34525000Y9155000D01*
X27402000Y57240000D02*
X30060000Y57240000D01*
X30070000Y57250000D02*
X30600000Y57780000D01*
X34600000Y57780000D02*
X37600000Y57780000D01*
X40600000Y57780000D02*
X42600000Y55780000D01*
X30060000Y57240000D02*
X30070000Y57250000D01*
X32000000Y39640000D02*
X32000000Y42420000D01*
X31960000Y39600000D02*
X32000000Y39640000D01*
X33400000Y42190000D02*
X33400000Y41020000D01*
X33730000Y42520000D02*
X33400000Y42190000D01*
X31040000Y44290000D02*
X33560000Y44290000D01*
X30880000Y44450000D02*
X31040000Y44290000D01*
X29910000Y40850000D02*
X29910000Y43560000D01*
X29870000Y40810000D02*
X29910000Y40850000D01*
X29550000Y37910000D02*
X30110000Y37910000D01*
X28590000Y36950000D02*
X29550000Y37910000D01*
X28590000Y33380000D02*
X28590000Y34840000D01*
X28650000Y33320000D02*
X28590000Y33380000D01*
X27850000Y28970000D02*
X27850000Y30900000D01*
X27910000Y28910000D02*
X27850000Y28970000D01*
X27790000Y25170000D02*
X27790000Y27160000D01*
X27810000Y25150000D02*
X27790000Y25170000D01*
X28070000Y21520000D02*
X28070000Y21790000D01*
X26330000Y19780000D02*
X28070000Y21520000D01*
X22690000Y14550000D02*
X22730000Y14590000D01*
X22930000Y17540000D02*
X23690000Y18300000D01*
X23690000Y18300000D02*
X23690000Y19210000D01*
X12790000Y6180000D02*
X12700000Y6270000D01*
X16250000Y6210000D02*
X14530000Y6210000D01*
X16400000Y6360000D02*
X16250000Y6210000D01*
X47970000Y30770000D02*
X47970000Y33070000D01*
X43155000Y33332500D02*
X42505000Y33332500D01*
X43155000Y32607500D02*
X42505000Y32607500D01*
X42505000Y33332500D02*
X42505000Y32607500D01*
X41310000Y32250000D02*
X41310000Y30560000D01*
X42392500Y33332500D02*
X41310000Y32250000D01*
X42505000Y32607500D02*
X43972500Y32607500D01*
X43972500Y32607500D02*
X44370000Y32210000D01*
X50350000Y39280000D02*
X50600000Y39030000D01*
X50600000Y39030000D02*
X51850000Y39030000D01*
X51850000Y39030000D02*
X52600000Y38280000D01*
X52600000Y38280000D02*
X52600000Y34780000D01*
X52600000Y34780000D02*
X52110000Y34290000D01*
X52110000Y34290000D02*
X50800000Y34290000D01*
X44370000Y32230000D02*
X44370000Y32210000D01*
X28700000Y54210000D02*
X28700000Y54220000D01*
X26330000Y19780000D02*
X26330000Y18920000D01*
X26330000Y18920000D02*
X27100000Y18150000D01*
X21370000Y9520000D02*
X21370000Y9420000D01*
X21660000Y19260000D02*
X21660000Y21750000D01*
X21660000Y21750000D02*
X22230000Y22320000D01*
X17400000Y21980000D02*
X18560000Y21980000D01*
X18560000Y21980000D02*
X19380000Y21160000D01*
X18600000Y24580000D02*
X18200000Y24180000D01*
X19200000Y24580000D02*
X18600000Y24580000D01*
X17400000Y21980000D02*
X17400000Y23380000D01*
X19800000Y30980000D02*
X20400000Y31580000D01*
X19800000Y29650000D02*
X19800000Y30980000D01*
X19000000Y26380000D02*
X19050000Y28305000D01*
X18000000Y25780000D02*
X18000000Y25980000D01*
X17400000Y25180000D02*
X18000000Y25780000D01*
X25000000Y25180000D02*
X25000000Y27380000D01*
X25200000Y24980000D02*
X25000000Y25180000D01*
X21400000Y24580000D02*
X22800000Y24580000D01*
X25219300Y29770000D02*
X24609300Y30380000D01*
X24609300Y30380000D02*
X24400000Y30380000D01*
X23370180Y29770000D02*
X24160180Y28980000D01*
X24160180Y28980000D02*
X24400000Y28980000D01*
X23600000Y27780000D02*
X22200000Y29180000D01*
X22400000Y31580000D02*
X24200000Y31580000D01*
X11000000Y15380000D02*
X11400000Y15780000D01*
X11400000Y15780000D02*
X12200000Y15780000D01*
X14800000Y17580000D02*
X14800000Y16180000D01*
X8600000Y32390000D02*
X9200000Y31580000D01*
X9200000Y31580000D02*
X9200000Y29980000D01*
X10400000Y29580000D02*
X10600000Y29380000D01*
X10600000Y29380000D02*
X10600000Y27180000D01*
X9400000Y27180000D02*
X9400000Y25380000D01*
X10600000Y25180000D02*
X10600000Y22380000D01*
X10800000Y20980000D02*
X11800000Y19980000D01*
X11800000Y19980000D02*
X12600000Y19980000D01*
X14600000Y19980000D02*
X17000000Y19980000D01*
X16200000Y44180000D02*
X16200000Y41580000D01*
X15000000Y31380000D02*
X15000000Y32380000D01*
X14400000Y30780000D02*
X15000000Y31380000D01*
X16800000Y30380000D02*
X16800000Y30580000D01*
X15200000Y29230000D02*
X16800000Y30380000D01*
X15200000Y24380000D02*
X15200000Y26980000D01*
X14400000Y22580000D02*
X14400000Y23180000D01*
X15600000Y21380000D02*
X14400000Y22580000D01*
X13400000Y21980000D02*
X13400000Y21380000D01*
X12800000Y22580000D02*
X13400000Y21980000D01*
X12800000Y26605000D02*
X12800000Y24380000D01*
X12800000Y29180000D02*
X12800000Y27580000D01*
X12800000Y32710000D02*
X12800000Y30390000D01*
X12000000Y35180000D02*
X12000000Y33580000D01*
X12000000Y37580000D02*
X12000000Y36580000D01*
X11600000Y37980000D02*
X12000000Y37580000D01*
X12600000Y39580000D02*
X11800000Y39580000D01*
X13200000Y40180000D02*
X12600000Y39580000D01*
X13200000Y42180000D02*
X13200000Y41380000D01*
X12600000Y42780000D02*
X13200000Y42180000D01*
X14200000Y44180000D02*
X14200000Y43980000D01*
X15400000Y45380000D02*
X14200000Y44180000D01*
X15990180Y33000000D02*
X16610180Y32380000D01*
X16610180Y32380000D02*
X17000000Y32380000D01*
X17839300Y33000000D02*
X17059300Y33780000D01*
X17059300Y33780000D02*
X17000000Y33780000D01*
X17000000Y34780000D02*
X15800000Y33580000D01*
X15800000Y33580000D02*
X14800000Y33580000D01*
X14810000Y34550000D02*
X14000000Y35580000D01*
X14000000Y35580000D02*
X14000000Y36540000D01*
X14000000Y37780000D02*
X14000000Y38980000D01*
X14200000Y40380000D02*
X15000000Y41180000D01*
X15000000Y41180000D02*
X15000000Y41580000D01*
X9400000Y41180000D02*
X9400000Y39580000D01*
X9400000Y43380000D02*
X9400000Y42380000D01*
X10800000Y44580000D02*
X10400000Y44580000D01*
X11800000Y45580000D02*
X10800000Y44580000D01*
X12000000Y47180000D02*
X10000000Y47180000D01*
X10600000Y55580000D02*
X8000000Y55580000D01*
X5000000Y55580000D02*
X4600000Y55180000D01*
X4600000Y55180000D02*
X4600000Y51580000D01*
X17000000Y45180000D02*
X16700000Y45480000D01*
X18100000Y45180000D02*
X17000000Y45180000D01*
X18000000Y41480000D02*
X18000000Y43680000D01*
X19300000Y39880000D02*
X19800000Y40380000D01*
X17300000Y39880000D02*
X19300000Y39880000D01*
X17500000Y37380000D02*
X17400000Y37280000D01*
X17500000Y38380000D02*
X17500000Y37380000D01*
X21600000Y38780000D02*
X18800000Y38780000D01*
X21400000Y43780000D02*
X21400000Y40380000D01*
X21500000Y43880000D02*
X21400000Y43780000D01*
X23800000Y43580000D02*
X23800000Y43980000D01*
X25200000Y42180000D02*
X23800000Y43580000D01*
X25200000Y38280000D02*
X25200000Y40380000D01*
X23900000Y36980000D02*
X25200000Y38280000D01*
X26300000Y36480000D02*
X25200000Y37580000D01*
X25700000Y35180000D02*
X26300000Y35180000D01*
X24600000Y34080000D02*
X25700000Y35180000D01*
X20900000Y34980000D02*
X20900000Y32980000D01*
X20900000Y36680000D02*
X20900000Y36180000D01*
X23900000Y39680000D02*
X20900000Y36680000D01*
X23400000Y41880000D02*
X23800000Y41880000D01*
X22700000Y42580000D02*
X23400000Y41880000D01*
X21800000Y47180000D02*
X21900000Y47080000D01*
X21900000Y47080000D02*
X23300000Y47080000D01*
X23100000Y45280000D02*
X22700000Y45680000D01*
X22700000Y45680000D02*
X21300000Y45680000D01*
X20300000Y44680000D02*
X20300000Y42580000D01*
X27000000Y43380000D02*
X27000000Y41180000D01*
X26400000Y39780000D02*
X26200000Y39580000D01*
X26200000Y39580000D02*
X26200000Y38580000D01*
X9459300Y35120000D02*
X9459300Y35120700D01*
X9459300Y35120700D02*
X8600000Y35980000D01*
X7610180Y35120000D02*
X7760000Y35120000D01*
X7760000Y35120000D02*
X8600000Y34280000D01*
X8600000Y33280000D02*
X7500000Y33280000D01*
X7500000Y33280000D02*
X6400000Y34380000D01*
X6000000Y33280000D02*
X5700000Y33580000D01*
X5700000Y33580000D02*
X5700000Y35080000D01*
X5700000Y35080000D02*
X6400000Y35780000D01*
X6000000Y36880000D02*
X6300000Y37180000D01*
X6300000Y37180000D02*
X8600000Y37180000D01*
X5810000Y39090000D02*
X5800000Y40480000D01*
X5800000Y41680000D02*
X5800000Y42380000D01*
X5800000Y42380000D02*
X6700000Y43280000D01*
X14600000Y12580000D02*
X14600000Y12380000D01*
X15800000Y13780000D02*
X14600000Y12580000D01*
D19*
X25480000Y1780000D02*
X25480000Y-4810000D01*
X25480000Y-4810000D02*
X27140000Y-6470000D01*
D20*
X40050000Y15155000D02*
X40825000Y15155000D01*
X40825000Y15155000D02*
X45925000Y20255000D01*
X45925000Y20255000D02*
X47350000Y20255000D01*
X39400000Y5555000D02*
X39400000Y12530000D01*
X35470000Y1625000D02*
X39400000Y5555000D01*
D18*
X40055000Y-915000D02*
X35470000Y-915000D01*
X40055000Y-915000D02*
X44910000Y3940000D01*
X44900000Y3930000D02*
X44910000Y3940000D01*
X23880000Y13660000D02*
X24535000Y13005000D01*
X24535000Y13005000D02*
X30350000Y13005000D01*
X30350000Y13005000D02*
X31005000Y13660000D01*
X35200000Y15820000D02*
X40160000Y20780000D01*
X41210000Y41450000D02*
X41210000Y33360000D01*
X11220000Y48780000D02*
X12000000Y49560000D01*
X12000000Y49560000D02*
X18970000Y49560000D01*
X18970000Y49560000D02*
X19330000Y49920000D01*
X19330000Y49920000D02*
X23290000Y49920000D01*
X23290000Y49920000D02*
X23790000Y49420000D01*
X23790000Y49420000D02*
X25540000Y49420000D01*
X25540000Y49420000D02*
X26090000Y49970000D01*
X26090000Y49970000D02*
X32540000Y49970000D01*
X32540000Y49970000D02*
X34730000Y47780000D01*
X34730000Y47780000D02*
X37100000Y47780000D01*
X37100000Y47780000D02*
X41210000Y43670000D01*
X41210000Y43670000D02*
X41210000Y41450000D01*
X40160000Y32310000D02*
X40160000Y26360000D01*
X41210000Y33360000D02*
X40160000Y32310000D01*
X40160000Y20780000D02*
X40160000Y26360000D01*
X31005000Y13660000D02*
X33040000Y13660000D01*
X33040000Y13660000D02*
X35200000Y15820000D01*
X35190000Y15830000D02*
X35200000Y15820000D01*
X47400000Y19180000D02*
X48750000Y20530000D01*
X48750000Y20530000D02*
X48750000Y22030000D01*
X48750000Y44940000D02*
X48750000Y22030000D01*
X50800000Y46990000D02*
X48750000Y44940000D01*
X42025000Y51605000D02*
X45700000Y51605000D01*
X25750000Y8180000D02*
X26400000Y7530000D01*
X47225000Y23805000D02*
X47225000Y50080000D01*
X30950000Y7530000D02*
X47225000Y23805000D01*
X26400000Y7530000D02*
X30950000Y7530000D01*
X45700000Y51605000D02*
X47225000Y50080000D01*
X26075000Y9005000D02*
X27090000Y7990000D01*
X46575000Y49105000D02*
X46575000Y24030000D01*
X46575000Y24030000D02*
X30535000Y7990000D01*
X27090000Y7990000D02*
X30535000Y7990000D01*
X25650000Y13980000D02*
X28350000Y16680000D01*
X28350000Y16680000D02*
X28350000Y18505000D01*
X7280000Y-7510000D02*
X8015000Y-8245000D01*
X17805000Y-8245000D02*
X18540000Y-7510000D01*
X8015000Y-8245000D02*
X17805000Y-8245000D01*
X12780000Y1780000D02*
X12780000Y320000D01*
X14210000Y-1110000D02*
X23390000Y-1110000D01*
X12780000Y320000D02*
X14210000Y-1110000D01*
X29190000Y-7510000D02*
X28746138Y-7953862D01*
X29190000Y-7510000D02*
X30090000Y-6610000D01*
X30090000Y-6610000D02*
X30090000Y-3050000D01*
X30090000Y-3050000D02*
X28900000Y-1860000D01*
X28900000Y-1860000D02*
X28890000Y-1860000D01*
X18983862Y-7953862D02*
X18540000Y-7510000D01*
X28746138Y-7953862D02*
X18983862Y-7953862D01*
X1520000Y-7510000D02*
X7280000Y-7510000D01*
X11450000Y12666138D02*
X11450000Y4820000D01*
X11450000Y4820000D02*
X12780000Y3490000D01*
X11633862Y13353862D02*
X11633862Y12850000D01*
X11633862Y12850000D02*
X11450000Y12666138D01*
X20563862Y16443862D02*
X19356138Y15236138D01*
X19356138Y15236138D02*
X15816138Y15236138D01*
X15816138Y15236138D02*
X15580000Y15000000D01*
X15580000Y15000000D02*
X13280000Y15000000D01*
X13280000Y15000000D02*
X11633862Y13353862D01*
X20563862Y22266138D02*
X20563862Y16443862D01*
X19175000Y23655000D02*
X20563862Y22266138D01*
X12780000Y3490000D02*
X12780000Y1780000D01*
X12313862Y-7106138D02*
X11578862Y-7841138D01*
X3396138Y-7106138D02*
X6638862Y-7106138D01*
X6638862Y-7106138D02*
X6850000Y-6895000D01*
X6850000Y-6895000D02*
X7713862Y-6895000D01*
X7713862Y-6895000D02*
X7925000Y-7106138D01*
X12313862Y-7106138D02*
X12550000Y-6870000D01*
X2950000Y-6660000D02*
X3396138Y-7106138D01*
X8660000Y-7841138D02*
X7925000Y-7106138D01*
X11578862Y-7841138D02*
X8660000Y-7841138D01*
X10240000Y-160000D02*
X10240000Y1780000D01*
X12000000Y-1920000D02*
X10240000Y-160000D01*
X23410000Y-1920000D02*
X12000000Y-1920000D01*
X22700000Y-6920000D02*
X23330000Y-7550000D01*
X29660000Y-3990000D02*
X27590000Y-1920000D01*
X29660000Y-6468852D02*
X29660000Y-3990000D01*
X28578852Y-7550000D02*
X29660000Y-6468852D01*
X23330000Y-7550000D02*
X28578852Y-7550000D01*
X22440000Y-6660000D02*
X22700000Y-6920000D01*
X11000000Y7320000D02*
X11000000Y12820000D01*
X11000000Y12820000D02*
X11230000Y13050000D01*
X11230000Y13050000D02*
X11230000Y13560000D01*
X15610000Y15640000D02*
X15380000Y15410000D01*
X20120000Y16620000D02*
X19140000Y15640000D01*
X19140000Y15640000D02*
X15610000Y15640000D01*
X20120000Y16620000D02*
X20120000Y21460000D01*
X10240000Y1780000D02*
X10240000Y6560000D01*
X10240000Y6560000D02*
X11000000Y7320000D01*
X11230000Y13560000D02*
X13080000Y15410000D01*
X13080000Y15410000D02*
X15380000Y15410000D01*
X18325000Y23255000D02*
X20120000Y21460000D01*
X4825000Y43630000D02*
X4812500Y43642500D01*
X4812500Y43642500D02*
X4825000Y43630000D01*
X4825000Y43630000D02*
X4825000Y43655000D01*
D21*
X9275000Y48105000D02*
X25350000Y48105000D01*
X4825000Y43655000D02*
X9275000Y48105000D01*
D18*
X8375000Y-6220000D02*
X8650000Y-6495000D01*
X4300000Y41805000D02*
X4300000Y8705000D01*
X4300000Y8705000D02*
X6425000Y6580000D01*
X6425000Y6580000D02*
X6425000Y-1170000D01*
X6425000Y-1170000D02*
X8375000Y-3120000D01*
X8375000Y-3120000D02*
X8375000Y-6220000D01*
D21*
X5050000Y42555000D02*
X8875000Y46380000D01*
X8875000Y46380000D02*
X24950000Y46380000D01*
X24950000Y46380000D02*
X26175000Y47605000D01*
D18*
X5050000Y42555000D02*
X4300000Y41805000D01*
X8650000Y-6495000D02*
X8950000Y-6495000D01*
X25600000Y12030000D02*
X25900000Y12330000D01*
X25900000Y12330000D02*
X26750000Y12330000D01*
X26750000Y12330000D02*
X34025000Y12330000D01*
X42225000Y20530000D02*
X45075000Y23380000D01*
X34025000Y12330000D02*
X42225000Y20530000D01*
X45075000Y39305000D02*
X42700000Y41680000D01*
X45075000Y23380000D02*
X45075000Y39305000D01*
D22*
G36*
X16627000Y58941331D02*
X16035745Y58351107D01*
X15715366Y57579548D01*
X15714637Y56744117D01*
X16033669Y55972000D01*
X16623893Y55380745D01*
X17395452Y55060366D01*
X18230883Y55059637D01*
X19003000Y55378669D01*
X19594255Y55968893D01*
X19914634Y56740452D01*
X19914802Y56934000D01*
X20270000Y56934000D01*
X20270000Y55087062D01*
X20362562Y54863596D01*
X20533595Y54692563D01*
X20757061Y54600000D01*
X21572000Y54600000D01*
X21724000Y54752000D01*
X21724000Y57086000D01*
X22032000Y57086000D01*
X22032000Y54752000D01*
X22184000Y54600000D01*
X22998939Y54600000D01*
X23222405Y54692563D01*
X23393438Y54863596D01*
X23486000Y55087062D01*
X23486000Y56934000D01*
X25794000Y56934000D01*
X25794000Y55087062D01*
X25886562Y54863596D01*
X26057595Y54692563D01*
X26281061Y54600000D01*
X27096000Y54600000D01*
X27248000Y54752000D01*
X27248000Y57086000D01*
X27556000Y57086000D01*
X27556000Y54752000D01*
X27708000Y54600000D01*
X28522939Y54600000D01*
X28746405Y54692563D01*
X28917438Y54863596D01*
X29010000Y55087062D01*
X29010000Y56934000D01*
X28858000Y57086000D01*
X27556000Y57086000D01*
X27248000Y57086000D01*
X25946000Y57086000D01*
X25794000Y56934000D01*
X23486000Y56934000D01*
X23334000Y57086000D01*
X22032000Y57086000D01*
X21724000Y57086000D01*
X20422000Y57086000D01*
X20270000Y56934000D01*
X19914802Y56934000D01*
X19915363Y57575883D01*
X19596331Y58348000D01*
X19006107Y58939255D01*
X18523863Y59139500D01*
X20270000Y59139500D01*
X20270000Y57546000D01*
X20422000Y57394000D01*
X21724000Y57394000D01*
X21724000Y57414000D01*
X22032000Y57414000D01*
X22032000Y57394000D01*
X23334000Y57394000D01*
X23486000Y57546000D01*
X23486000Y59139500D01*
X25794000Y59139500D01*
X25794000Y57546000D01*
X25946000Y57394000D01*
X27248000Y57394000D01*
X27248000Y57414000D01*
X27556000Y57414000D01*
X27556000Y57394000D01*
X28858000Y57394000D01*
X29010000Y57546000D01*
X29010000Y59139500D01*
X45034505Y59139500D01*
X44567000Y58946331D01*
X43975745Y58356107D01*
X43655366Y57584548D01*
X43654637Y56749117D01*
X43973669Y55977000D01*
X44563893Y55385745D01*
X45335452Y55065366D01*
X46170883Y55064637D01*
X46943000Y55383669D01*
X47534255Y55973893D01*
X47854634Y56745452D01*
X47855363Y57580883D01*
X47536331Y58353000D01*
X46946107Y58944255D01*
X46475904Y59139500D01*
X48076118Y59139500D01*
X50467809Y56747808D01*
X50643160Y56630643D01*
X50850000Y56589500D01*
X52809500Y56589500D01*
X52809500Y5803394D01*
X52611331Y6283000D01*
X52021107Y6874255D01*
X51249548Y7194634D01*
X50414117Y7195363D01*
X49642000Y6876331D01*
X49050745Y6286107D01*
X48730366Y5514548D01*
X48729637Y4679117D01*
X49048669Y3907000D01*
X49638893Y3315745D01*
X50410452Y2995366D01*
X51245883Y2994637D01*
X52018000Y3313669D01*
X52609255Y3903893D01*
X52809500Y4386137D01*
X52809500Y-8354500D01*
X28943780Y-8354500D01*
X29065467Y-8273191D01*
X29509330Y-7829329D01*
X29509332Y-7829326D01*
X30409329Y-6929330D01*
X30507224Y-6782820D01*
X30519686Y-6720168D01*
X30541600Y-6610000D01*
X30541600Y-4566419D01*
X34576370Y-4566419D01*
X34671418Y-4816154D01*
X35253099Y-5018147D01*
X35867799Y-4982163D01*
X36268582Y-4816154D01*
X36363630Y-4566419D01*
X35470000Y-3672789D01*
X34576370Y-4566419D01*
X30541600Y-4566419D01*
X30541600Y-3238099D01*
X33906853Y-3238099D01*
X33942837Y-3852799D01*
X34108846Y-4253582D01*
X34358581Y-4348630D01*
X35252211Y-3455000D01*
X35687789Y-3455000D01*
X36581419Y-4348630D01*
X36831154Y-4253582D01*
X37033147Y-3671901D01*
X36997163Y-3057201D01*
X36831154Y-2656418D01*
X36581419Y-2561370D01*
X35687789Y-3455000D01*
X35252211Y-3455000D01*
X34358581Y-2561370D01*
X34108846Y-2656418D01*
X33906853Y-3238099D01*
X30541600Y-3238099D01*
X30541600Y-3050000D01*
X30507224Y-2877180D01*
X30456102Y-2800671D01*
X30409329Y-2730670D01*
X29519417Y-1840759D01*
X29519509Y-1735354D01*
X29423891Y-1503939D01*
X29246992Y-1326732D01*
X29015745Y-1230709D01*
X28765354Y-1230491D01*
X28533939Y-1326109D01*
X28356732Y-1503008D01*
X28260709Y-1734255D01*
X28260520Y-1951862D01*
X28219409Y-1910751D01*
X28219509Y-1795354D01*
X28123891Y-1563939D01*
X27946992Y-1386732D01*
X27715745Y-1290709D01*
X27465354Y-1290491D01*
X27233939Y-1386109D01*
X27056732Y-1563008D01*
X26960709Y-1794255D01*
X26960491Y-2044646D01*
X27056109Y-2276061D01*
X27233008Y-2453268D01*
X27464255Y-2549291D01*
X27580734Y-2549392D01*
X29208400Y-4177058D01*
X29208400Y-6281793D01*
X28391794Y-7098400D01*
X27528148Y-7098400D01*
X27552406Y-7088377D01*
X27757656Y-6883485D01*
X27868873Y-6615643D01*
X27869126Y-6325629D01*
X27758377Y-6057594D01*
X27553485Y-5852344D01*
X27371120Y-5776620D01*
X26133720Y-4539220D01*
X26133720Y403065D01*
X26343600Y403065D01*
X26474784Y427749D01*
X26595269Y505279D01*
X26676098Y623576D01*
X26704535Y764000D01*
X26704535Y2796000D01*
X26679851Y2927184D01*
X26602321Y3047669D01*
X26484024Y3128498D01*
X26343600Y3156935D01*
X24616400Y3156935D01*
X24485216Y3132251D01*
X24364731Y3054721D01*
X24283902Y2936424D01*
X24255465Y2796000D01*
X24255465Y764000D01*
X24280149Y632816D01*
X24357679Y512331D01*
X24475976Y431502D01*
X24616400Y403065D01*
X24826280Y403065D01*
X24826280Y-4810000D01*
X24876041Y-5060168D01*
X25017750Y-5272250D01*
X26446786Y-6701286D01*
X26521623Y-6882406D01*
X26726515Y-7087656D01*
X26752390Y-7098400D01*
X23517059Y-7098400D01*
X23329409Y-6910750D01*
X23329509Y-6795354D01*
X23233891Y-6563939D01*
X23056992Y-6386732D01*
X22825745Y-6290709D01*
X22684372Y-6290586D01*
X22612820Y-6242776D01*
X22440000Y-6208401D01*
X22267180Y-6242776D01*
X22120671Y-6340671D01*
X22022776Y-6487180D01*
X21988401Y-6660000D01*
X22022776Y-6832820D01*
X22070613Y-6904413D01*
X22070491Y-7044646D01*
X22166109Y-7276061D01*
X22343008Y-7453268D01*
X22460998Y-7502262D01*
X19170921Y-7502262D01*
X19169409Y-7500750D01*
X19169509Y-7385354D01*
X19073891Y-7153939D01*
X18896992Y-6976732D01*
X18665745Y-6880709D01*
X18415354Y-6880491D01*
X18183939Y-6976109D01*
X18006732Y-7153008D01*
X17910709Y-7384255D01*
X17910608Y-7500734D01*
X17617942Y-7793400D01*
X12265258Y-7793400D01*
X12559249Y-7499409D01*
X12674646Y-7499509D01*
X12906061Y-7403891D01*
X13083268Y-7226992D01*
X13179291Y-6995745D01*
X13179509Y-6745354D01*
X13083891Y-6513939D01*
X12906992Y-6336732D01*
X12675745Y-6240709D01*
X12425354Y-6240491D01*
X12193939Y-6336109D01*
X12016732Y-6513008D01*
X11920709Y-6744255D01*
X11920608Y-6860734D01*
X11391804Y-7389538D01*
X8847058Y-7389538D01*
X8244331Y-6786811D01*
X8244329Y-6786808D01*
X8033191Y-6575671D01*
X7886682Y-6477776D01*
X7713862Y-6443400D01*
X6850000Y-6443400D01*
X6677180Y-6477776D01*
X6530670Y-6575671D01*
X6451803Y-6654538D01*
X3583197Y-6654538D01*
X3579409Y-6650750D01*
X3579509Y-6535354D01*
X3483891Y-6303939D01*
X3306992Y-6126732D01*
X3075745Y-6030709D01*
X2825354Y-6030491D01*
X2593939Y-6126109D01*
X2416732Y-6303008D01*
X2320709Y-6534255D01*
X2320491Y-6784646D01*
X2416109Y-7016061D01*
X2458374Y-7058400D01*
X1958518Y-7058400D01*
X1876992Y-6976732D01*
X1645745Y-6880709D01*
X1395354Y-6880491D01*
X1163939Y-6976109D01*
X986732Y-7153008D01*
X890709Y-7384255D01*
X890491Y-7634646D01*
X986109Y-7866061D01*
X1163008Y-8043268D01*
X1394255Y-8139291D01*
X1644646Y-8139509D01*
X1876061Y-8043891D01*
X1958495Y-7961600D01*
X6841482Y-7961600D01*
X6923008Y-8043268D01*
X7154255Y-8139291D01*
X7270734Y-8139392D01*
X7485842Y-8354500D01*
X590500Y-8354500D01*
X590500Y-5624371D01*
X700874Y-5624371D01*
X811623Y-5892406D01*
X1016515Y-6097656D01*
X1284357Y-6208873D01*
X1574371Y-6209126D01*
X1842406Y-6098377D01*
X2047656Y-5893485D01*
X2158873Y-5625643D01*
X2158874Y-5624371D01*
X6370874Y-5624371D01*
X6481623Y-5892406D01*
X6686515Y-6097656D01*
X6954357Y-6208873D01*
X7244371Y-6209126D01*
X7512406Y-6098377D01*
X7717656Y-5893485D01*
X7828873Y-5625643D01*
X7829126Y-5335629D01*
X7718377Y-5067594D01*
X7513485Y-4862344D01*
X7245643Y-4751127D01*
X6955629Y-4750874D01*
X6687594Y-4861623D01*
X6482344Y-5066515D01*
X6371127Y-5334357D01*
X6370874Y-5624371D01*
X2158874Y-5624371D01*
X2159126Y-5335629D01*
X2048377Y-5067594D01*
X1843485Y-4862344D01*
X1662079Y-4787018D01*
X1852406Y-4708377D01*
X2057656Y-4503485D01*
X2168873Y-4235643D01*
X2169126Y-3945629D01*
X2058377Y-3677594D01*
X1853485Y-3472344D01*
X1585643Y-3361127D01*
X1295629Y-3360874D01*
X1027594Y-3471623D01*
X822344Y-3676515D01*
X711127Y-3944357D01*
X710874Y-4234371D01*
X821623Y-4502406D01*
X1026515Y-4707656D01*
X1207921Y-4782982D01*
X1017594Y-4861623D01*
X812344Y-5066515D01*
X701127Y-5334357D01*
X700874Y-5624371D01*
X590500Y-5624371D01*
X590500Y1395824D01*
X1166851Y1395824D01*
X1366162Y857371D01*
X1756359Y436178D01*
X2238951Y206189D01*
X2465998Y317016D01*
X2465998Y182421D01*
X2262594Y98377D01*
X2057344Y-106515D01*
X1946127Y-374357D01*
X1945874Y-664371D01*
X2056623Y-932406D01*
X2261515Y-1137656D01*
X2529357Y-1248873D01*
X2819371Y-1249126D01*
X3087406Y-1138377D01*
X3292656Y-933485D01*
X3403873Y-665643D01*
X3404126Y-375629D01*
X3293377Y-107594D01*
X3088485Y97656D01*
X2820643Y208873D01*
X2774002Y208914D01*
X2774002Y317016D01*
X3001049Y206189D01*
X3483641Y436178D01*
X3873838Y857371D01*
X4017230Y1244754D01*
X4038780Y1136413D01*
X4301855Y742693D01*
X4695575Y479618D01*
X5160000Y387238D01*
X5624425Y479618D01*
X5973400Y712795D01*
X5973400Y-1170000D01*
X6006169Y-1334742D01*
X6007776Y-1342820D01*
X6105671Y-1489329D01*
X7161076Y-2544734D01*
X6935643Y-2451127D01*
X6645629Y-2450874D01*
X6377594Y-2561623D01*
X6172344Y-2766515D01*
X6061127Y-3034357D01*
X6060874Y-3324371D01*
X6171623Y-3592406D01*
X6376515Y-3797656D01*
X6644357Y-3908873D01*
X6934371Y-3909126D01*
X7202406Y-3798377D01*
X7407656Y-3593485D01*
X7518873Y-3325643D01*
X7519126Y-3035629D01*
X7425587Y-2809246D01*
X7923400Y-3307059D01*
X7923400Y-6220000D01*
X7947403Y-6340671D01*
X7957776Y-6392820D01*
X8055671Y-6539329D01*
X8330671Y-6814330D01*
X8477137Y-6912195D01*
X8593008Y-7028268D01*
X8824255Y-7124291D01*
X9074646Y-7124509D01*
X9306061Y-7028891D01*
X9483268Y-6851992D01*
X9579291Y-6620745D01*
X9579509Y-6370354D01*
X9483891Y-6138939D01*
X9306992Y-5961732D01*
X9075745Y-5865709D01*
X8826600Y-5865492D01*
X8826600Y-5624371D01*
X12000874Y-5624371D01*
X12111623Y-5892406D01*
X12316515Y-6097656D01*
X12584357Y-6208873D01*
X12874371Y-6209126D01*
X13142406Y-6098377D01*
X13347656Y-5893485D01*
X13458873Y-5625643D01*
X13459126Y-5335629D01*
X13348377Y-5067594D01*
X13143485Y-4862344D01*
X12875643Y-4751127D01*
X12585629Y-4750874D01*
X12317594Y-4861623D01*
X12112344Y-5066515D01*
X12001127Y-5334357D01*
X12000874Y-5624371D01*
X8826600Y-5624371D01*
X8826600Y-3324371D01*
X11730874Y-3324371D01*
X11841623Y-3592406D01*
X12046515Y-3797656D01*
X12314357Y-3908873D01*
X12604371Y-3909126D01*
X12872406Y-3798377D01*
X13077656Y-3593485D01*
X13188873Y-3325643D01*
X13188874Y-3324371D01*
X17310874Y-3324371D01*
X17421623Y-3592406D01*
X17626515Y-3797656D01*
X17894357Y-3908873D01*
X18184371Y-3909126D01*
X18452406Y-3798377D01*
X18657656Y-3593485D01*
X18768873Y-3325643D01*
X18768874Y-3324371D01*
X23190874Y-3324371D01*
X23301623Y-3592406D01*
X23506515Y-3797656D01*
X23774357Y-3908873D01*
X24064371Y-3909126D01*
X24332406Y-3798377D01*
X24537656Y-3593485D01*
X24648873Y-3325643D01*
X24649126Y-3035629D01*
X24538377Y-2767594D01*
X24333485Y-2562344D01*
X24065643Y-2451127D01*
X23775629Y-2450874D01*
X23507594Y-2561623D01*
X23302344Y-2766515D01*
X23191127Y-3034357D01*
X23190874Y-3324371D01*
X18768874Y-3324371D01*
X18769126Y-3035629D01*
X18658377Y-2767594D01*
X18453485Y-2562344D01*
X18185643Y-2451127D01*
X17895629Y-2450874D01*
X17627594Y-2561623D01*
X17422344Y-2766515D01*
X17311127Y-3034357D01*
X17310874Y-3324371D01*
X13188874Y-3324371D01*
X13189126Y-3035629D01*
X13078377Y-2767594D01*
X12873485Y-2562344D01*
X12605643Y-2451127D01*
X12315629Y-2450874D01*
X12047594Y-2561623D01*
X11842344Y-2766515D01*
X11731127Y-3034357D01*
X11730874Y-3324371D01*
X8826600Y-3324371D01*
X8826600Y-3120000D01*
X8792224Y-2947180D01*
X8745451Y-2877180D01*
X8694329Y-2800670D01*
X6876600Y-982942D01*
X6876600Y-664371D01*
X7595874Y-664371D01*
X7706623Y-932406D01*
X7911515Y-1137656D01*
X8179357Y-1248873D01*
X8469371Y-1249126D01*
X8737406Y-1138377D01*
X8942656Y-933485D01*
X9053873Y-665643D01*
X9054126Y-375629D01*
X8943377Y-107594D01*
X8738485Y97656D01*
X8470643Y208873D01*
X8180629Y209126D01*
X7912594Y98377D01*
X7707344Y-106515D01*
X7596127Y-374357D01*
X7595874Y-664371D01*
X6876600Y-664371D01*
X6876600Y719477D01*
X7235575Y479618D01*
X7700000Y387238D01*
X8164425Y479618D01*
X8558145Y742693D01*
X8821220Y1136413D01*
X8913600Y1600838D01*
X8913600Y1959162D01*
X9026400Y1959162D01*
X9026400Y1600838D01*
X9118780Y1136413D01*
X9381855Y742693D01*
X9775575Y479618D01*
X9788400Y477067D01*
X9788400Y-160000D01*
X9822776Y-332820D01*
X9920671Y-479329D01*
X11680671Y-2239330D01*
X11788831Y-2311600D01*
X11827180Y-2337224D01*
X12000000Y-2371600D01*
X22971482Y-2371600D01*
X23053008Y-2453268D01*
X23284255Y-2549291D01*
X23534646Y-2549509D01*
X23766061Y-2453891D01*
X23943268Y-2276992D01*
X24039291Y-2045745D01*
X24039509Y-1795354D01*
X23943891Y-1563939D01*
X23885124Y-1505070D01*
X23923268Y-1466992D01*
X24019291Y-1235745D01*
X24019509Y-985354D01*
X23923891Y-753939D01*
X23746992Y-576732D01*
X23515745Y-480709D01*
X23265354Y-480491D01*
X23033939Y-576109D01*
X22951505Y-658400D01*
X19934215Y-658400D01*
X20003873Y-490643D01*
X20004126Y-200629D01*
X19893377Y67406D01*
X19688485Y272656D01*
X19420643Y383873D01*
X19130629Y384126D01*
X18862594Y273377D01*
X18657344Y68485D01*
X18546127Y-199357D01*
X18545874Y-489371D01*
X18615715Y-658400D01*
X14397059Y-658400D01*
X13253186Y485472D01*
X13638145Y742693D01*
X13901220Y1136413D01*
X13993600Y1600838D01*
X13993600Y1959162D01*
X14106400Y1959162D01*
X14106400Y1600838D01*
X14198780Y1136413D01*
X14461855Y742693D01*
X14855575Y479618D01*
X15320000Y387238D01*
X15784425Y479618D01*
X16178145Y742693D01*
X16441220Y1136413D01*
X16533600Y1600838D01*
X16533600Y1959162D01*
X16646400Y1959162D01*
X16646400Y1600838D01*
X16738780Y1136413D01*
X17001855Y742693D01*
X17395575Y479618D01*
X17860000Y387238D01*
X18324425Y479618D01*
X18718145Y742693D01*
X18981220Y1136413D01*
X19073600Y1600838D01*
X19073600Y1959162D01*
X19186400Y1959162D01*
X19186400Y1600838D01*
X19278780Y1136413D01*
X19541855Y742693D01*
X19935575Y479618D01*
X20400000Y387238D01*
X20864425Y479618D01*
X21258145Y742693D01*
X21521220Y1136413D01*
X21613600Y1600838D01*
X21613600Y1959162D01*
X21726400Y1959162D01*
X21726400Y1600838D01*
X21818780Y1136413D01*
X22081855Y742693D01*
X22475575Y479618D01*
X22940000Y387238D01*
X23404425Y479618D01*
X23798145Y742693D01*
X24061220Y1136413D01*
X24153600Y1600838D01*
X24153600Y1959162D01*
X24061220Y2423587D01*
X23798145Y2817307D01*
X23404425Y3080382D01*
X22940000Y3172762D01*
X22475575Y3080382D01*
X22081855Y2817307D01*
X21818780Y2423587D01*
X21726400Y1959162D01*
X21613600Y1959162D01*
X21521220Y2423587D01*
X21258145Y2817307D01*
X20864425Y3080382D01*
X20400000Y3172762D01*
X19935575Y3080382D01*
X19541855Y2817307D01*
X19278780Y2423587D01*
X19186400Y1959162D01*
X19073600Y1959162D01*
X18981220Y2423587D01*
X18718145Y2817307D01*
X18324425Y3080382D01*
X17860000Y3172762D01*
X17395575Y3080382D01*
X17001855Y2817307D01*
X16738780Y2423587D01*
X16646400Y1959162D01*
X16533600Y1959162D01*
X16441220Y2423587D01*
X16178145Y2817307D01*
X15784425Y3080382D01*
X15320000Y3172762D01*
X14855575Y3080382D01*
X14461855Y2817307D01*
X14198780Y2423587D01*
X14106400Y1959162D01*
X13993600Y1959162D01*
X13901220Y2423587D01*
X13638145Y2817307D01*
X13244425Y3080382D01*
X13231600Y3082933D01*
X13231600Y3490000D01*
X13197224Y3662820D01*
X13099329Y3809329D01*
X12999090Y3909568D01*
X34179976Y3909568D01*
X34375923Y3435341D01*
X34738433Y3072198D01*
X35165638Y2894807D01*
X34740341Y2719077D01*
X34377198Y2356567D01*
X34180424Y1882683D01*
X34179976Y1369568D01*
X34375923Y895341D01*
X34738433Y532198D01*
X35165638Y354807D01*
X34740341Y179077D01*
X34377198Y-183433D01*
X34180424Y-657317D01*
X34179976Y-1170432D01*
X34375923Y-1644659D01*
X34738433Y-2007802D01*
X34808703Y-2036981D01*
X34671418Y-2093846D01*
X34576370Y-2343581D01*
X35470000Y-3237211D01*
X36363630Y-2343581D01*
X36268582Y-2093846D01*
X36119660Y-2042132D01*
X36199659Y-2009077D01*
X36562802Y-1646567D01*
X36679055Y-1366600D01*
X40055000Y-1366600D01*
X40225693Y-1332647D01*
X41899793Y-1332647D01*
X42082097Y-1773857D01*
X42419367Y-2111717D01*
X42860258Y-2294791D01*
X43337647Y-2295207D01*
X43778857Y-2112903D01*
X44116717Y-1775633D01*
X44299791Y-1334742D01*
X44300207Y-857353D01*
X44117903Y-416143D01*
X43780633Y-78283D01*
X43339742Y104791D01*
X42862353Y105207D01*
X42421143Y-77097D01*
X42083283Y-414367D01*
X41900209Y-855258D01*
X41899793Y-1332647D01*
X40225693Y-1332647D01*
X40227820Y-1332224D01*
X40374329Y-1234329D01*
X44909250Y3300591D01*
X45024646Y3300491D01*
X45256061Y3396109D01*
X45433268Y3573008D01*
X45529291Y3804255D01*
X45529509Y4054646D01*
X45433891Y4286061D01*
X45256992Y4463268D01*
X45025745Y4559291D01*
X44775354Y4559509D01*
X44543939Y4463891D01*
X44366732Y4286992D01*
X44270709Y4055745D01*
X44270608Y3939267D01*
X39867942Y-463400D01*
X36678969Y-463400D01*
X36564077Y-185341D01*
X36201567Y177802D01*
X35774362Y355193D01*
X36199659Y530923D01*
X36562802Y893433D01*
X36759576Y1367317D01*
X36760024Y1880432D01*
X36667366Y2104680D01*
X39758840Y5196155D01*
X39758843Y5196157D01*
X39868850Y5360796D01*
X39907480Y5555000D01*
X39907480Y5667353D01*
X41899793Y5667353D01*
X42082097Y5226143D01*
X42419367Y4888283D01*
X42860258Y4705209D01*
X43337647Y4704793D01*
X43778857Y4887097D01*
X44116717Y5224367D01*
X44299791Y5665258D01*
X44300207Y6142647D01*
X44117903Y6583857D01*
X43780633Y6921717D01*
X43339742Y7104791D01*
X42862353Y7105207D01*
X42421143Y6922903D01*
X42083283Y6585633D01*
X41900209Y6144742D01*
X41899793Y5667353D01*
X39907480Y5667353D01*
X39907480Y12147265D01*
X39933268Y12173008D01*
X40029291Y12404255D01*
X40029509Y12654646D01*
X39933891Y12886061D01*
X39756992Y13063268D01*
X39525745Y13159291D01*
X39275354Y13159509D01*
X39043939Y13063891D01*
X38866732Y12886992D01*
X38770709Y12655745D01*
X38770491Y12405354D01*
X38866109Y12173939D01*
X38892520Y12147482D01*
X38892520Y5765205D01*
X36564261Y3436947D01*
X36759576Y3907317D01*
X36760024Y4420432D01*
X36564077Y4894659D01*
X36201567Y5257802D01*
X35727683Y5454576D01*
X35214568Y5455024D01*
X34740341Y5259077D01*
X34377198Y4896567D01*
X34180424Y4422683D01*
X34179976Y3909568D01*
X12999090Y3909568D01*
X11901600Y5007058D01*
X11901600Y6585629D01*
X31210874Y6585629D01*
X31321623Y6317594D01*
X31526515Y6112344D01*
X31794357Y6001127D01*
X32084371Y6000874D01*
X32352406Y6111623D01*
X32557656Y6316515D01*
X32668873Y6584357D01*
X32669126Y6874371D01*
X32558377Y7142406D01*
X32353485Y7347656D01*
X32085643Y7458873D01*
X31795629Y7459126D01*
X31527594Y7348377D01*
X31322344Y7143485D01*
X31211127Y6875643D01*
X31210874Y6585629D01*
X11901600Y6585629D01*
X11901600Y9285629D01*
X12220874Y9285629D01*
X12331623Y9017594D01*
X12536515Y8812344D01*
X12804357Y8701127D01*
X13094371Y8700874D01*
X13362406Y8811623D01*
X13567656Y9016515D01*
X13678873Y9284357D01*
X13679126Y9574371D01*
X13568377Y9842406D01*
X13363485Y10047656D01*
X13095643Y10158873D01*
X12805629Y10159126D01*
X12537594Y10048377D01*
X12332344Y9843485D01*
X12221127Y9575643D01*
X12220874Y9285629D01*
X11901600Y9285629D01*
X11901600Y12479079D01*
X11953191Y12530670D01*
X11956504Y12535629D01*
X15470874Y12535629D01*
X15581623Y12267594D01*
X15786515Y12062344D01*
X16054357Y11951127D01*
X16344371Y11950874D01*
X16612406Y12061623D01*
X16817656Y12266515D01*
X16928873Y12534357D01*
X16929126Y12824371D01*
X16818377Y13092406D01*
X16613485Y13297656D01*
X16345643Y13408873D01*
X16055629Y13409126D01*
X15787594Y13298377D01*
X15582344Y13093485D01*
X15471127Y12825643D01*
X15470874Y12535629D01*
X11956504Y12535629D01*
X12051086Y12677180D01*
X12053108Y12687344D01*
X12085462Y12850000D01*
X12085462Y13166804D01*
X12704287Y13785629D01*
X21090874Y13785629D01*
X21201623Y13517594D01*
X21406515Y13312344D01*
X21674357Y13201127D01*
X21964371Y13200874D01*
X22232406Y13311623D01*
X22437656Y13516515D01*
X22548873Y13784357D01*
X22549126Y14074371D01*
X22438377Y14342406D01*
X22233485Y14547656D01*
X21965643Y14658873D01*
X21675629Y14659126D01*
X21407594Y14548377D01*
X21202344Y14343485D01*
X21091127Y14075643D01*
X21090874Y13785629D01*
X12704287Y13785629D01*
X13467059Y14548400D01*
X15580000Y14548400D01*
X15752820Y14582776D01*
X15899329Y14680671D01*
X16003196Y14784538D01*
X19356138Y14784538D01*
X19528958Y14818914D01*
X19675467Y14916809D01*
X20883192Y16124533D01*
X20965171Y16247224D01*
X20981086Y16271042D01*
X21015462Y16443862D01*
X21015462Y20435629D01*
X32995874Y20435629D01*
X33106623Y20167594D01*
X33311515Y19962344D01*
X33579357Y19851127D01*
X33869371Y19850874D01*
X34137406Y19961623D01*
X34342656Y20166515D01*
X34453873Y20434357D01*
X34454126Y20724371D01*
X34343377Y20992406D01*
X34138485Y21197656D01*
X33870643Y21308873D01*
X33580629Y21309126D01*
X33312594Y21198377D01*
X33107344Y20993485D01*
X32996127Y20725643D01*
X32995874Y20435629D01*
X21015462Y20435629D01*
X21015462Y22266138D01*
X20981086Y22438958D01*
X20952593Y22481600D01*
X20883191Y22585468D01*
X19983030Y23485629D01*
X21220874Y23485629D01*
X21331623Y23217594D01*
X21536515Y23012344D01*
X21804357Y22901127D01*
X22094371Y22900874D01*
X22362406Y23011623D01*
X22567656Y23216515D01*
X22678873Y23484357D01*
X22679126Y23774371D01*
X22568377Y24042406D01*
X22363485Y24247656D01*
X22095643Y24358873D01*
X21805629Y24359126D01*
X21537594Y24248377D01*
X21332344Y24043485D01*
X21221127Y23775643D01*
X21220874Y23485629D01*
X19983030Y23485629D01*
X19804409Y23664250D01*
X19804509Y23779646D01*
X19708891Y24011061D01*
X19531992Y24188268D01*
X19300745Y24284291D01*
X19050354Y24284509D01*
X18818939Y24188891D01*
X18641732Y24011992D01*
X18568416Y23835429D01*
X18450745Y23884291D01*
X18200354Y23884509D01*
X17968939Y23788891D01*
X17791732Y23611992D01*
X17695709Y23380745D01*
X17695491Y23130354D01*
X17791109Y22898939D01*
X17968008Y22721732D01*
X18199255Y22625709D01*
X18315734Y22625608D01*
X19668400Y21272941D01*
X19668400Y16807059D01*
X18952942Y16091600D01*
X15610000Y16091600D01*
X15437180Y16057224D01*
X15290670Y15959329D01*
X15192941Y15861600D01*
X13080000Y15861600D01*
X12921136Y15830000D01*
X12907180Y15827224D01*
X12760671Y15729329D01*
X10910671Y13879329D01*
X10879021Y13831962D01*
X10788485Y13922656D01*
X10520643Y14033873D01*
X10230629Y14034126D01*
X9962594Y13923377D01*
X9757344Y13718485D01*
X9646127Y13450643D01*
X9645874Y13160629D01*
X9756623Y12892594D01*
X9961515Y12687344D01*
X10229357Y12576127D01*
X10519371Y12575874D01*
X10548400Y12587868D01*
X10548400Y7507059D01*
X9920671Y6879329D01*
X9822776Y6732820D01*
X9788400Y6560000D01*
X9788400Y3082933D01*
X9775575Y3080382D01*
X9381855Y2817307D01*
X9118780Y2423587D01*
X9026400Y1959162D01*
X8913600Y1959162D01*
X8821220Y2423587D01*
X8558145Y2817307D01*
X8164425Y3080382D01*
X7700000Y3172762D01*
X7235575Y3080382D01*
X6876600Y2840523D01*
X6876600Y6580000D01*
X6842224Y6752820D01*
X6824365Y6779548D01*
X6744330Y6899329D01*
X4751600Y8892058D01*
X4751600Y32535629D01*
X21445874Y32535629D01*
X21556623Y32267594D01*
X21761515Y32062344D01*
X22029357Y31951127D01*
X22319371Y31950874D01*
X22587406Y32061623D01*
X22792656Y32266515D01*
X22903873Y32534357D01*
X22904126Y32824371D01*
X22793377Y33092406D01*
X22588485Y33297656D01*
X22320643Y33408873D01*
X22030629Y33409126D01*
X21762594Y33298377D01*
X21557344Y33093485D01*
X21446127Y32825643D01*
X21445874Y32535629D01*
X4751600Y32535629D01*
X4751600Y39385629D01*
X35760874Y39385629D01*
X35871623Y39117594D01*
X36076515Y38912344D01*
X36344357Y38801127D01*
X36634371Y38800874D01*
X36902406Y38911623D01*
X37107656Y39116515D01*
X37218873Y39384357D01*
X37219126Y39674371D01*
X37108377Y39942406D01*
X36903485Y40147656D01*
X36635643Y40258873D01*
X36345629Y40259126D01*
X36077594Y40148377D01*
X35872344Y39943485D01*
X35761127Y39675643D01*
X35760874Y39385629D01*
X4751600Y39385629D01*
X4751600Y40260629D01*
X15345874Y40260629D01*
X15456623Y39992594D01*
X15661515Y39787344D01*
X15929357Y39676127D01*
X16219371Y39675874D01*
X16487406Y39786623D01*
X16692656Y39991515D01*
X16803873Y40259357D01*
X16804126Y40549371D01*
X16693377Y40817406D01*
X16488485Y41022656D01*
X16220643Y41133873D01*
X15930629Y41134126D01*
X15662594Y41023377D01*
X15457344Y40818485D01*
X15346127Y40550643D01*
X15345874Y40260629D01*
X4751600Y40260629D01*
X4751600Y41617942D01*
X5288065Y42154406D01*
X5385494Y42219506D01*
X6526617Y43360629D01*
X7020874Y43360629D01*
X7131623Y43092594D01*
X7336515Y42887344D01*
X7604357Y42776127D01*
X7894371Y42775874D01*
X8162406Y42886623D01*
X8367656Y43091515D01*
X8478873Y43359357D01*
X8479126Y43649371D01*
X8368377Y43917406D01*
X8163485Y44122656D01*
X7895643Y44233873D01*
X7605629Y44234126D01*
X7337594Y44123377D01*
X7132344Y43918485D01*
X7021127Y43650643D01*
X7020874Y43360629D01*
X6526617Y43360629D01*
X9071528Y45905540D01*
X24950000Y45905540D01*
X25131568Y45941656D01*
X25285494Y46044506D01*
X26216551Y46975563D01*
X26299646Y46975491D01*
X26531061Y47071109D01*
X26708268Y47248008D01*
X26804291Y47479255D01*
X26804509Y47729646D01*
X26708891Y47961061D01*
X26531992Y48138268D01*
X26300745Y48234291D01*
X26050354Y48234509D01*
X25979488Y48205228D01*
X25979509Y48229646D01*
X25883891Y48461061D01*
X25706992Y48638268D01*
X25475745Y48734291D01*
X25225354Y48734509D01*
X24993939Y48638891D01*
X24934405Y48579460D01*
X11818233Y48579460D01*
X11849291Y48654255D01*
X11849392Y48770734D01*
X12187059Y49108400D01*
X18970000Y49108400D01*
X19142820Y49142776D01*
X19289329Y49240671D01*
X19517059Y49468400D01*
X23102942Y49468400D01*
X23470671Y49100670D01*
X23617180Y49002776D01*
X23790000Y48968400D01*
X25540000Y48968400D01*
X25712820Y49002776D01*
X25859329Y49100671D01*
X26277059Y49518400D01*
X32352942Y49518400D01*
X34410671Y47460670D01*
X34490659Y47407224D01*
X34557180Y47362776D01*
X34730000Y47328400D01*
X36912942Y47328400D01*
X40758400Y43482941D01*
X40758400Y33547059D01*
X39840671Y32629329D01*
X39742776Y32482820D01*
X39708400Y32310000D01*
X39708400Y20967059D01*
X35190750Y16449409D01*
X35075354Y16449509D01*
X34843939Y16353891D01*
X34666732Y16176992D01*
X34570709Y15945745D01*
X34570608Y15829266D01*
X32852942Y14111600D01*
X31005000Y14111600D01*
X30832180Y14077224D01*
X30685671Y13979330D01*
X30162942Y13456600D01*
X26016570Y13456600D01*
X26183268Y13623008D01*
X26279291Y13854255D01*
X26279392Y13970734D01*
X26719287Y14410629D01*
X29245874Y14410629D01*
X29356623Y14142594D01*
X29561515Y13937344D01*
X29829357Y13826127D01*
X30119371Y13825874D01*
X30387406Y13936623D01*
X30592656Y14141515D01*
X30703873Y14409357D01*
X30704126Y14699371D01*
X30593377Y14967406D01*
X30388485Y15172656D01*
X30120643Y15283873D01*
X29830629Y15284126D01*
X29562594Y15173377D01*
X29357344Y14968485D01*
X29246127Y14700643D01*
X29245874Y14410629D01*
X26719287Y14410629D01*
X28669330Y16360671D01*
X28762410Y16499976D01*
X28767224Y16507180D01*
X28801600Y16680000D01*
X28801600Y18066482D01*
X28883268Y18148008D01*
X28979291Y18379255D01*
X28979509Y18629646D01*
X28883891Y18861061D01*
X28706992Y19038268D01*
X28475745Y19134291D01*
X28225354Y19134509D01*
X27993939Y19038891D01*
X27816732Y18861992D01*
X27720709Y18630745D01*
X27720491Y18380354D01*
X27816109Y18148939D01*
X27898400Y18066505D01*
X27898400Y16867059D01*
X25640750Y14609409D01*
X25525354Y14609509D01*
X25293939Y14513891D01*
X25116732Y14336992D01*
X25020709Y14105745D01*
X25020491Y13855354D01*
X25116109Y13623939D01*
X25283157Y13456600D01*
X24722059Y13456600D01*
X24509409Y13669250D01*
X24509509Y13784646D01*
X24413891Y14016061D01*
X24236992Y14193268D01*
X24005745Y14289291D01*
X23755354Y14289509D01*
X23523939Y14193891D01*
X23346732Y14016992D01*
X23250709Y13785745D01*
X23250491Y13535354D01*
X23346109Y13303939D01*
X23523008Y13126732D01*
X23754255Y13030709D01*
X23870734Y13030608D01*
X24215671Y12685670D01*
X24294833Y12632776D01*
X24362180Y12587776D01*
X24535000Y12553400D01*
X25233430Y12553400D01*
X25066732Y12386992D01*
X24970709Y12155745D01*
X24970491Y11905354D01*
X25066109Y11673939D01*
X25243008Y11496732D01*
X25474255Y11400709D01*
X25724646Y11400491D01*
X25956061Y11496109D01*
X26133268Y11673008D01*
X26218555Y11878400D01*
X33784742Y11878400D01*
X30347942Y8441600D01*
X27277059Y8441600D01*
X26704409Y9014250D01*
X26704509Y9129646D01*
X26608891Y9361061D01*
X26431992Y9538268D01*
X26200745Y9634291D01*
X25950354Y9634509D01*
X25718939Y9538891D01*
X25541732Y9361992D01*
X25445709Y9130745D01*
X25445491Y8880354D01*
X25496724Y8756360D01*
X25393939Y8713891D01*
X25216732Y8536992D01*
X25120709Y8305745D01*
X25120491Y8055354D01*
X25216109Y7823939D01*
X25393008Y7646732D01*
X25624255Y7550709D01*
X25740734Y7550608D01*
X26080671Y7210670D01*
X26227180Y7112776D01*
X26400000Y7078400D01*
X30950000Y7078400D01*
X31122820Y7112776D01*
X31269329Y7210671D01*
X33819287Y9760629D01*
X36095874Y9760629D01*
X36206623Y9492594D01*
X36411515Y9287344D01*
X36679357Y9176127D01*
X36969371Y9175874D01*
X37237406Y9286623D01*
X37442656Y9491515D01*
X37553873Y9759357D01*
X37554126Y10049371D01*
X37443377Y10317406D01*
X37238485Y10522656D01*
X36970643Y10633873D01*
X36680629Y10634126D01*
X36412594Y10523377D01*
X36207344Y10318485D01*
X36096127Y10050643D01*
X36095874Y9760629D01*
X33819287Y9760629D01*
X38569287Y14510629D01*
X43670874Y14510629D01*
X43781623Y14242594D01*
X43986515Y14037344D01*
X44254357Y13926127D01*
X44544371Y13925874D01*
X44812406Y14036623D01*
X45017656Y14241515D01*
X45128873Y14509357D01*
X45129126Y14799371D01*
X45018377Y15067406D01*
X44813485Y15272656D01*
X44545643Y15383873D01*
X44255629Y15384126D01*
X43987594Y15273377D01*
X43782344Y15068485D01*
X43671127Y14800643D01*
X43670874Y14510629D01*
X38569287Y14510629D01*
X39478444Y15419786D01*
X39420709Y15280745D01*
X39420491Y15030354D01*
X39516109Y14798939D01*
X39693008Y14621732D01*
X39924255Y14525709D01*
X40174646Y14525491D01*
X40406061Y14621109D01*
X40432518Y14647520D01*
X40824995Y14647520D01*
X40825000Y14647519D01*
X41019204Y14686150D01*
X41183843Y14796157D01*
X46135205Y19747520D01*
X46967265Y19747520D01*
X46993008Y19721732D01*
X47034524Y19704493D01*
X46866732Y19536992D01*
X46770709Y19305745D01*
X46770491Y19055354D01*
X46866109Y18823939D01*
X47043008Y18646732D01*
X47274255Y18550709D01*
X47524646Y18550491D01*
X47756061Y18646109D01*
X47933268Y18823008D01*
X48029291Y19054255D01*
X48029392Y19170734D01*
X49069329Y20210670D01*
X49167224Y20357180D01*
X49182828Y20435629D01*
X49201600Y20530000D01*
X49201600Y28964568D01*
X49539976Y28964568D01*
X49735923Y28490341D01*
X50098433Y28127198D01*
X50525638Y27949807D01*
X50100341Y27774077D01*
X49737198Y27411567D01*
X49540424Y26937683D01*
X49539976Y26424568D01*
X49735923Y25950341D01*
X50098433Y25587198D01*
X50525638Y25409807D01*
X50100341Y25234077D01*
X49737198Y24871567D01*
X49540424Y24397683D01*
X49539976Y23884568D01*
X49735923Y23410341D01*
X50098433Y23047198D01*
X50525638Y22869807D01*
X50100341Y22694077D01*
X49737198Y22331567D01*
X49540424Y21857683D01*
X49539976Y21344568D01*
X49735923Y20870341D01*
X50098433Y20507198D01*
X50525638Y20329807D01*
X50100341Y20154077D01*
X49737198Y19791567D01*
X49540424Y19317683D01*
X49539976Y18804568D01*
X49735923Y18330341D01*
X50098433Y17967198D01*
X50572317Y17770424D01*
X51085432Y17769976D01*
X51559659Y17965923D01*
X51922802Y18328433D01*
X52119576Y18802317D01*
X52120024Y19315432D01*
X51924077Y19789659D01*
X51561567Y20152802D01*
X51134362Y20330193D01*
X51559659Y20505923D01*
X51922802Y20868433D01*
X52119576Y21342317D01*
X52120024Y21855432D01*
X51924077Y22329659D01*
X51561567Y22692802D01*
X51134362Y22870193D01*
X51559659Y23045923D01*
X51922802Y23408433D01*
X52119576Y23882317D01*
X52120024Y24395432D01*
X51924077Y24869659D01*
X51561567Y25232802D01*
X51134362Y25410193D01*
X51559659Y25585923D01*
X51922802Y25948433D01*
X52119576Y26422317D01*
X52120024Y26935432D01*
X51924077Y27409659D01*
X51561567Y27772802D01*
X51134362Y27950193D01*
X51559659Y28125923D01*
X51922802Y28488433D01*
X52119576Y28962317D01*
X52120024Y29475432D01*
X51924077Y29949659D01*
X51561567Y30312802D01*
X51491297Y30341981D01*
X51628582Y30398846D01*
X51723630Y30648581D01*
X50830000Y31542211D01*
X49936370Y30648581D01*
X50031418Y30398846D01*
X50180340Y30347132D01*
X50100341Y30314077D01*
X49737198Y29951567D01*
X49540424Y29477683D01*
X49539976Y28964568D01*
X49201600Y28964568D01*
X49201600Y31976901D01*
X49266853Y31976901D01*
X49302837Y31362201D01*
X49468846Y30961418D01*
X49718581Y30866370D01*
X50612211Y31760000D01*
X51047789Y31760000D01*
X51941419Y30866370D01*
X52191154Y30961418D01*
X52393147Y31543099D01*
X52357163Y32157799D01*
X52191154Y32558582D01*
X51941419Y32653630D01*
X51047789Y31760000D01*
X50612211Y31760000D01*
X49718581Y32653630D01*
X49468846Y32558582D01*
X49266853Y31976901D01*
X49201600Y31976901D01*
X49201600Y33188581D01*
X49936370Y33188581D01*
X49996725Y33030000D01*
X49936370Y32871419D01*
X50830000Y31977789D01*
X51723630Y32871419D01*
X51663275Y33030000D01*
X51723630Y33188581D01*
X50830000Y34082211D01*
X49936370Y33188581D01*
X49201600Y33188581D01*
X49201600Y34516901D01*
X49266853Y34516901D01*
X49302837Y33902201D01*
X49468846Y33501418D01*
X49718581Y33406370D01*
X50612211Y34300000D01*
X51047789Y34300000D01*
X51941419Y33406370D01*
X52191154Y33501418D01*
X52393147Y34083099D01*
X52357163Y34697799D01*
X52191154Y35098582D01*
X51941419Y35193630D01*
X51047789Y34300000D01*
X50612211Y34300000D01*
X49718581Y35193630D01*
X49468846Y35098582D01*
X49266853Y34516901D01*
X49201600Y34516901D01*
X49201600Y36583776D01*
X49535976Y36583776D01*
X49732530Y36108079D01*
X50096164Y35743809D01*
X50163482Y35715856D01*
X50031418Y35661154D01*
X49936370Y35411419D01*
X50830000Y34517789D01*
X51723630Y35411419D01*
X51628582Y35661154D01*
X51485351Y35710892D01*
X51561921Y35742530D01*
X51926191Y36106164D01*
X52123575Y36581518D01*
X52124024Y37096224D01*
X51927470Y37571921D01*
X51563836Y37936191D01*
X51088482Y38133575D01*
X50573776Y38134024D01*
X50098079Y37937470D01*
X49733809Y37573836D01*
X49536425Y37098482D01*
X49535976Y36583776D01*
X49201600Y36583776D01*
X49201600Y44752942D01*
X50280327Y45831669D01*
X50525638Y45729807D01*
X50100341Y45554077D01*
X49737198Y45191567D01*
X49540424Y44717683D01*
X49539976Y44204568D01*
X49735923Y43730341D01*
X50098433Y43367198D01*
X50525638Y43189807D01*
X50100341Y43014077D01*
X49737198Y42651567D01*
X49540424Y42177683D01*
X49539976Y41664568D01*
X49735923Y41190341D01*
X50098433Y40827198D01*
X50572317Y40630424D01*
X51085432Y40629976D01*
X51559659Y40825923D01*
X51922802Y41188433D01*
X52119576Y41662317D01*
X52120024Y42175432D01*
X51924077Y42649659D01*
X51561567Y43012802D01*
X51134362Y43190193D01*
X51559659Y43365923D01*
X51922802Y43728433D01*
X52119576Y44202317D01*
X52120024Y44715432D01*
X51924077Y45189659D01*
X51561567Y45552802D01*
X51134362Y45730193D01*
X51559659Y45905923D01*
X51922802Y46268433D01*
X52119576Y46742317D01*
X52120024Y47255432D01*
X51924077Y47729659D01*
X51561567Y48092802D01*
X51134362Y48270193D01*
X51559659Y48445923D01*
X51922802Y48808433D01*
X52119576Y49282317D01*
X52120024Y49795432D01*
X51924077Y50269659D01*
X51561567Y50632802D01*
X51134362Y50810193D01*
X51559659Y50985923D01*
X51922802Y51348433D01*
X52119576Y51822317D01*
X52120024Y52335432D01*
X51924077Y52809659D01*
X51561567Y53172802D01*
X51134362Y53350193D01*
X51559659Y53525923D01*
X51922802Y53888433D01*
X52119576Y54362317D01*
X52120024Y54875432D01*
X51924077Y55349659D01*
X51561567Y55712802D01*
X51087683Y55909576D01*
X50574568Y55910024D01*
X50100341Y55714077D01*
X49737198Y55351567D01*
X49540424Y54877683D01*
X49539976Y54364568D01*
X49735923Y53890341D01*
X50098433Y53527198D01*
X50525638Y53349807D01*
X50100341Y53174077D01*
X49737198Y52811567D01*
X49540424Y52337683D01*
X49539976Y51824568D01*
X49735923Y51350341D01*
X50098433Y50987198D01*
X50525638Y50809807D01*
X50100341Y50634077D01*
X49737198Y50271567D01*
X49540424Y49797683D01*
X49539976Y49284568D01*
X49735923Y48810341D01*
X50098433Y48447198D01*
X50525638Y48269807D01*
X50100341Y48094077D01*
X49737198Y47731567D01*
X49540424Y47257683D01*
X49539976Y46744568D01*
X49649892Y46478551D01*
X48430671Y45259329D01*
X48332776Y45112820D01*
X48298400Y44940000D01*
X48298400Y36030988D01*
X48085745Y36119291D01*
X47835354Y36119509D01*
X47676600Y36053914D01*
X47676600Y47626174D01*
X47834255Y47560709D01*
X48084646Y47560491D01*
X48316061Y47656109D01*
X48493268Y47833008D01*
X48589291Y48064255D01*
X48589509Y48314646D01*
X48493891Y48546061D01*
X48316992Y48723268D01*
X48085745Y48819291D01*
X47835354Y48819509D01*
X47676600Y48753914D01*
X47676600Y50080000D01*
X47642224Y50252820D01*
X47544330Y50399329D01*
X46019329Y51924329D01*
X45872820Y52022224D01*
X45700000Y52056600D01*
X42463518Y52056600D01*
X42381992Y52138268D01*
X42150745Y52234291D01*
X41900354Y52234509D01*
X41668939Y52138891D01*
X41491732Y51961992D01*
X41395709Y51730745D01*
X41395491Y51480354D01*
X41491109Y51248939D01*
X41668008Y51071732D01*
X41899255Y50975709D01*
X42149646Y50975491D01*
X42381061Y51071109D01*
X42463495Y51153400D01*
X45512942Y51153400D01*
X46773400Y49892941D01*
X46773400Y49704122D01*
X46700745Y49734291D01*
X46450354Y49734509D01*
X46218939Y49638891D01*
X46041732Y49461992D01*
X45945709Y49230745D01*
X45945491Y48980354D01*
X46041109Y48748939D01*
X46123400Y48666505D01*
X46123400Y47896744D01*
X46056992Y47963268D01*
X45825745Y48059291D01*
X45575354Y48059509D01*
X45343939Y47963891D01*
X45166732Y47786992D01*
X45070709Y47555745D01*
X45070491Y47305354D01*
X45166109Y47073939D01*
X45343008Y46896732D01*
X45574255Y46800709D01*
X45824646Y46800491D01*
X46056061Y46896109D01*
X46123400Y46963331D01*
X46123400Y24217059D01*
X45526600Y23620259D01*
X45526600Y39305000D01*
X45492224Y39477820D01*
X45394329Y39624330D01*
X43329409Y41689250D01*
X43329509Y41804646D01*
X43233891Y42036061D01*
X43056992Y42213268D01*
X42825745Y42309291D01*
X42575354Y42309509D01*
X42343939Y42213891D01*
X42166732Y42036992D01*
X42070709Y41805745D01*
X42070491Y41555354D01*
X42166109Y41323939D01*
X42343008Y41146732D01*
X42574255Y41050709D01*
X42690734Y41050608D01*
X44623400Y39117941D01*
X44623400Y23567059D01*
X41905673Y20849331D01*
X41905670Y20849329D01*
X33837942Y12781600D01*
X30765258Y12781600D01*
X31192059Y13208400D01*
X33040000Y13208400D01*
X33212820Y13242776D01*
X33359329Y13340671D01*
X35209250Y15190591D01*
X35324646Y15190491D01*
X35556061Y15286109D01*
X35733268Y15463008D01*
X35829291Y15694255D01*
X35829392Y15810734D01*
X40479329Y20460670D01*
X40577224Y20607180D01*
X40578549Y20613843D01*
X40611600Y20780000D01*
X40611600Y27887309D01*
X40879357Y27776127D01*
X41169371Y27775874D01*
X41437406Y27886623D01*
X41642656Y28091515D01*
X41753873Y28359357D01*
X41754126Y28649371D01*
X41643377Y28917406D01*
X41438485Y29122656D01*
X41170643Y29233873D01*
X40880629Y29234126D01*
X40612594Y29123377D01*
X40611600Y29122385D01*
X40611600Y32122942D01*
X41529329Y33040670D01*
X41627224Y33187180D01*
X41627503Y33188581D01*
X41661600Y33360000D01*
X41661600Y43670000D01*
X41627224Y43842820D01*
X41576666Y43918485D01*
X41529330Y43989329D01*
X40842762Y44675897D01*
X40869371Y44675874D01*
X41137406Y44786623D01*
X41342656Y44991515D01*
X41453873Y45259357D01*
X41454126Y45549371D01*
X41343377Y45817406D01*
X41138485Y46022656D01*
X40870643Y46133873D01*
X40580629Y46134126D01*
X40312594Y46023377D01*
X40107344Y45818485D01*
X39996127Y45550643D01*
X39996102Y45522556D01*
X37419329Y48099329D01*
X37272820Y48197224D01*
X37100000Y48231600D01*
X34917059Y48231600D01*
X32859329Y50289329D01*
X32712820Y50387224D01*
X32540000Y50421600D01*
X26090000Y50421600D01*
X25917180Y50387224D01*
X25770670Y50289329D01*
X25352942Y49871600D01*
X23977059Y49871600D01*
X23609329Y50239329D01*
X23462820Y50337224D01*
X23290000Y50371600D01*
X19330000Y50371600D01*
X19157180Y50337224D01*
X19010671Y50239330D01*
X18782942Y50011600D01*
X12000000Y50011600D01*
X11827180Y49977224D01*
X11816369Y49970000D01*
X11680671Y49879330D01*
X11210750Y49409409D01*
X11095354Y49409509D01*
X10863939Y49313891D01*
X10686732Y49136992D01*
X10590709Y48905745D01*
X10590491Y48655354D01*
X10621850Y48579460D01*
X9275000Y48579460D01*
X9093432Y48543344D01*
X8939506Y48440494D01*
X4758470Y44259458D01*
X4700354Y44259509D01*
X4468939Y44163891D01*
X4291732Y43986992D01*
X4195709Y43755745D01*
X4195491Y43505354D01*
X4291109Y43273939D01*
X4468008Y43096732D01*
X4699255Y43000709D01*
X4824612Y43000600D01*
X4714506Y42890494D01*
X4649406Y42793065D01*
X3980671Y42124329D01*
X3882776Y41977820D01*
X3859750Y41862062D01*
X3860024Y42175432D01*
X3664077Y42649659D01*
X3301567Y43012802D01*
X2874362Y43190193D01*
X3299659Y43365923D01*
X3662802Y43728433D01*
X3859576Y44202317D01*
X3860024Y44715432D01*
X3664077Y45189659D01*
X3301567Y45552802D01*
X2874362Y45730193D01*
X3299659Y45905923D01*
X3662802Y46268433D01*
X3859576Y46742317D01*
X3860024Y47255432D01*
X3664077Y47729659D01*
X3301567Y48092802D01*
X2874362Y48270193D01*
X3299659Y48445923D01*
X3662802Y48808433D01*
X3859576Y49282317D01*
X3860024Y49795432D01*
X3664077Y50269659D01*
X3301567Y50632802D01*
X2874362Y50810193D01*
X3299659Y50985923D01*
X3662802Y51348433D01*
X3859576Y51822317D01*
X3860024Y52335432D01*
X3664077Y52809659D01*
X3593506Y52880354D01*
X45945491Y52880354D01*
X46041109Y52648939D01*
X46218008Y52471732D01*
X46449255Y52375709D01*
X46699646Y52375491D01*
X46931061Y52471109D01*
X47108268Y52648008D01*
X47204291Y52879255D01*
X47204509Y53129646D01*
X47108891Y53361061D01*
X46931992Y53538268D01*
X46700745Y53634291D01*
X46450354Y53634509D01*
X46218939Y53538891D01*
X46041732Y53361992D01*
X45945709Y53130745D01*
X45945491Y52880354D01*
X3593506Y52880354D01*
X3301567Y53172802D01*
X2874362Y53350193D01*
X3299659Y53525923D01*
X3662802Y53888433D01*
X3859576Y54362317D01*
X3860024Y54875432D01*
X3664077Y55349659D01*
X3301567Y55712802D01*
X2827683Y55909576D01*
X2314568Y55910024D01*
X1840341Y55714077D01*
X1477198Y55351567D01*
X1280424Y54877683D01*
X1279976Y54364568D01*
X1475923Y53890341D01*
X1838433Y53527198D01*
X2265638Y53349807D01*
X1840341Y53174077D01*
X1477198Y52811567D01*
X1280424Y52337683D01*
X1279976Y51824568D01*
X1475923Y51350341D01*
X1838433Y50987198D01*
X2265638Y50809807D01*
X1840341Y50634077D01*
X1477198Y50271567D01*
X1280424Y49797683D01*
X1279976Y49284568D01*
X1475923Y48810341D01*
X1838433Y48447198D01*
X2265638Y48269807D01*
X1840341Y48094077D01*
X1477198Y47731567D01*
X1280424Y47257683D01*
X1279976Y46744568D01*
X1475923Y46270341D01*
X1838433Y45907198D01*
X2265638Y45729807D01*
X1840341Y45554077D01*
X1477198Y45191567D01*
X1280424Y44717683D01*
X1279976Y44204568D01*
X1475923Y43730341D01*
X1838433Y43367198D01*
X2265638Y43189807D01*
X1840341Y43014077D01*
X1477198Y42651567D01*
X1280424Y42177683D01*
X1279976Y41664568D01*
X1475923Y41190341D01*
X1838433Y40827198D01*
X2265638Y40649807D01*
X1840341Y40474077D01*
X1477198Y40111567D01*
X1280424Y39637683D01*
X1279976Y39124568D01*
X1475923Y38650341D01*
X1838433Y38287198D01*
X2265638Y38109807D01*
X1840341Y37934077D01*
X1477198Y37571567D01*
X1280424Y37097683D01*
X1279976Y36584568D01*
X1475923Y36110341D01*
X1838433Y35747198D01*
X2312317Y35550424D01*
X2825432Y35549976D01*
X3299659Y35745923D01*
X3662802Y36108433D01*
X3848400Y36555402D01*
X3848400Y33313564D01*
X3664077Y33759659D01*
X3301567Y34122802D01*
X2827683Y34319576D01*
X2314568Y34320024D01*
X1840341Y34124077D01*
X1477198Y33761567D01*
X1280424Y33287683D01*
X1279976Y32774568D01*
X1475923Y32300341D01*
X1838433Y31937198D01*
X2265638Y31759807D01*
X1840341Y31584077D01*
X1477198Y31221567D01*
X1280424Y30747683D01*
X1279976Y30234568D01*
X1475923Y29760341D01*
X1838433Y29397198D01*
X2265638Y29219807D01*
X1840341Y29044077D01*
X1477198Y28681567D01*
X1280424Y28207683D01*
X1279976Y27694568D01*
X1475923Y27220341D01*
X1838433Y26857198D01*
X2265638Y26679807D01*
X1840341Y26504077D01*
X1477198Y26141567D01*
X1280424Y25667683D01*
X1279976Y25154568D01*
X1475923Y24680341D01*
X1838433Y24317198D01*
X2265638Y24139807D01*
X1840341Y23964077D01*
X1477198Y23601567D01*
X1280424Y23127683D01*
X1279976Y22614568D01*
X1475923Y22140341D01*
X1838433Y21777198D01*
X2265638Y21599807D01*
X1840341Y21424077D01*
X1477198Y21061567D01*
X1280424Y20587683D01*
X1279976Y20074568D01*
X1475923Y19600341D01*
X1838433Y19237198D01*
X2265638Y19059807D01*
X1840341Y18884077D01*
X1477198Y18521567D01*
X1280424Y18047683D01*
X1279976Y17534568D01*
X1475923Y17060341D01*
X1838433Y16697198D01*
X2265638Y16519807D01*
X1840341Y16344077D01*
X1477198Y15981567D01*
X1280424Y15507683D01*
X1279976Y14994568D01*
X1475923Y14520341D01*
X1838433Y14157198D01*
X2265638Y13979807D01*
X1840341Y13804077D01*
X1477198Y13441567D01*
X1280424Y12967683D01*
X1279976Y12454568D01*
X1475923Y11980341D01*
X1838433Y11617198D01*
X2265638Y11439807D01*
X1840341Y11264077D01*
X1477198Y10901567D01*
X1280424Y10427683D01*
X1279976Y9914568D01*
X1475923Y9440341D01*
X1838433Y9077198D01*
X2312317Y8880424D01*
X2825432Y8879976D01*
X3299659Y9075923D01*
X3662802Y9438433D01*
X3848400Y9885402D01*
X3848400Y8705000D01*
X3869838Y8597224D01*
X3882776Y8532180D01*
X3980671Y8385671D01*
X5973400Y6392941D01*
X5973400Y2847205D01*
X5624425Y3080382D01*
X5160000Y3172762D01*
X4695575Y3080382D01*
X4301855Y2817307D01*
X4038780Y2423587D01*
X4017230Y2315246D01*
X3873838Y2702629D01*
X3483641Y3123822D01*
X3001049Y3353811D01*
X2774000Y3242983D01*
X2774000Y1934000D01*
X2794000Y1934000D01*
X2794000Y1626000D01*
X2774000Y1626000D01*
X2774000Y1606000D01*
X2466000Y1606000D01*
X2466000Y1626000D01*
X1300484Y1626000D01*
X1166851Y1395824D01*
X590500Y1395824D01*
X590500Y2164176D01*
X1166851Y2164176D01*
X1300484Y1934000D01*
X2466000Y1934000D01*
X2466000Y3242983D01*
X2238951Y3353811D01*
X1756359Y3123822D01*
X1366162Y2702629D01*
X1166851Y2164176D01*
X590500Y2164176D01*
X590500Y5651606D01*
X788669Y5172000D01*
X1378893Y4580745D01*
X2150452Y4260366D01*
X2985883Y4259637D01*
X3758000Y4578669D01*
X4349255Y5168893D01*
X4669634Y5940452D01*
X4670363Y6775883D01*
X4351331Y7548000D01*
X3761107Y8139255D01*
X2989548Y8459634D01*
X2154117Y8460363D01*
X1382000Y8141331D01*
X790745Y7551107D01*
X590500Y7068863D01*
X590500Y59139500D01*
X17106606Y59139500D01*
X16627000Y58941331D01*
X16627000Y58941331D01*
G37*
X16627000Y58941331D02*
X16035745Y58351107D01*
X15715366Y57579548D01*
X15714637Y56744117D01*
X16033669Y55972000D01*
X16623893Y55380745D01*
X17395452Y55060366D01*
X18230883Y55059637D01*
X19003000Y55378669D01*
X19594255Y55968893D01*
X19914634Y56740452D01*
X19914802Y56934000D01*
X20270000Y56934000D01*
X20270000Y55087062D01*
X20362562Y54863596D01*
X20533595Y54692563D01*
X20757061Y54600000D01*
X21572000Y54600000D01*
X21724000Y54752000D01*
X21724000Y57086000D01*
X22032000Y57086000D01*
X22032000Y54752000D01*
X22184000Y54600000D01*
X22998939Y54600000D01*
X23222405Y54692563D01*
X23393438Y54863596D01*
X23486000Y55087062D01*
X23486000Y56934000D01*
X25794000Y56934000D01*
X25794000Y55087062D01*
X25886562Y54863596D01*
X26057595Y54692563D01*
X26281061Y54600000D01*
X27096000Y54600000D01*
X27248000Y54752000D01*
X27248000Y57086000D01*
X27556000Y57086000D01*
X27556000Y54752000D01*
X27708000Y54600000D01*
X28522939Y54600000D01*
X28746405Y54692563D01*
X28917438Y54863596D01*
X29010000Y55087062D01*
X29010000Y56934000D01*
X28858000Y57086000D01*
X27556000Y57086000D01*
X27248000Y57086000D01*
X25946000Y57086000D01*
X25794000Y56934000D01*
X23486000Y56934000D01*
X23334000Y57086000D01*
X22032000Y57086000D01*
X21724000Y57086000D01*
X20422000Y57086000D01*
X20270000Y56934000D01*
X19914802Y56934000D01*
X19915363Y57575883D01*
X19596331Y58348000D01*
X19006107Y58939255D01*
X18523863Y59139500D01*
X20270000Y59139500D01*
X20270000Y57546000D01*
X20422000Y57394000D01*
X21724000Y57394000D01*
X21724000Y57414000D01*
X22032000Y57414000D01*
X22032000Y57394000D01*
X23334000Y57394000D01*
X23486000Y57546000D01*
X23486000Y59139500D01*
X25794000Y59139500D01*
X25794000Y57546000D01*
X25946000Y57394000D01*
X27248000Y57394000D01*
X27248000Y57414000D01*
X27556000Y57414000D01*
X27556000Y57394000D01*
X28858000Y57394000D01*
X29010000Y57546000D01*
X29010000Y59139500D01*
X45034505Y59139500D01*
X44567000Y58946331D01*
X43975745Y58356107D01*
X43655366Y57584548D01*
X43654637Y56749117D01*
X43973669Y55977000D01*
X44563893Y55385745D01*
X45335452Y55065366D01*
X46170883Y55064637D01*
X46943000Y55383669D01*
X47534255Y55973893D01*
X47854634Y56745452D01*
X47855363Y57580883D01*
X47536331Y58353000D01*
X46946107Y58944255D01*
X46475904Y59139500D01*
X48076118Y59139500D01*
X50467809Y56747808D01*
X50643160Y56630643D01*
X50850000Y56589500D01*
X52809500Y56589500D01*
X52809500Y5803394D01*
X52611331Y6283000D01*
X52021107Y6874255D01*
X51249548Y7194634D01*
X50414117Y7195363D01*
X49642000Y6876331D01*
X49050745Y6286107D01*
X48730366Y5514548D01*
X48729637Y4679117D01*
X49048669Y3907000D01*
X49638893Y3315745D01*
X50410452Y2995366D01*
X51245883Y2994637D01*
X52018000Y3313669D01*
X52609255Y3903893D01*
X52809500Y4386137D01*
X52809500Y-8354500D01*
X28943780Y-8354500D01*
X29065467Y-8273191D01*
X29509330Y-7829329D01*
X29509332Y-7829326D01*
X30409329Y-6929330D01*
X30507224Y-6782820D01*
X30519686Y-6720168D01*
X30541600Y-6610000D01*
X30541600Y-4566419D01*
X34576370Y-4566419D01*
X34671418Y-4816154D01*
X35253099Y-5018147D01*
X35867799Y-4982163D01*
X36268582Y-4816154D01*
X36363630Y-4566419D01*
X35470000Y-3672789D01*
X34576370Y-4566419D01*
X30541600Y-4566419D01*
X30541600Y-3238099D01*
X33906853Y-3238099D01*
X33942837Y-3852799D01*
X34108846Y-4253582D01*
X34358581Y-4348630D01*
X35252211Y-3455000D01*
X35687789Y-3455000D01*
X36581419Y-4348630D01*
X36831154Y-4253582D01*
X37033147Y-3671901D01*
X36997163Y-3057201D01*
X36831154Y-2656418D01*
X36581419Y-2561370D01*
X35687789Y-3455000D01*
X35252211Y-3455000D01*
X34358581Y-2561370D01*
X34108846Y-2656418D01*
X33906853Y-3238099D01*
X30541600Y-3238099D01*
X30541600Y-3050000D01*
X30507224Y-2877180D01*
X30456102Y-2800671D01*
X30409329Y-2730670D01*
X29519417Y-1840759D01*
X29519509Y-1735354D01*
X29423891Y-1503939D01*
X29246992Y-1326732D01*
X29015745Y-1230709D01*
X28765354Y-1230491D01*
X28533939Y-1326109D01*
X28356732Y-1503008D01*
X28260709Y-1734255D01*
X28260520Y-1951862D01*
X28219409Y-1910751D01*
X28219509Y-1795354D01*
X28123891Y-1563939D01*
X27946992Y-1386732D01*
X27715745Y-1290709D01*
X27465354Y-1290491D01*
X27233939Y-1386109D01*
X27056732Y-1563008D01*
X26960709Y-1794255D01*
X26960491Y-2044646D01*
X27056109Y-2276061D01*
X27233008Y-2453268D01*
X27464255Y-2549291D01*
X27580734Y-2549392D01*
X29208400Y-4177058D01*
X29208400Y-6281793D01*
X28391794Y-7098400D01*
X27528148Y-7098400D01*
X27552406Y-7088377D01*
X27757656Y-6883485D01*
X27868873Y-6615643D01*
X27869126Y-6325629D01*
X27758377Y-6057594D01*
X27553485Y-5852344D01*
X27371120Y-5776620D01*
X26133720Y-4539220D01*
X26133720Y403065D01*
X26343600Y403065D01*
X26474784Y427749D01*
X26595269Y505279D01*
X26676098Y623576D01*
X26704535Y764000D01*
X26704535Y2796000D01*
X26679851Y2927184D01*
X26602321Y3047669D01*
X26484024Y3128498D01*
X26343600Y3156935D01*
X24616400Y3156935D01*
X24485216Y3132251D01*
X24364731Y3054721D01*
X24283902Y2936424D01*
X24255465Y2796000D01*
X24255465Y764000D01*
X24280149Y632816D01*
X24357679Y512331D01*
X24475976Y431502D01*
X24616400Y403065D01*
X24826280Y403065D01*
X24826280Y-4810000D01*
X24876041Y-5060168D01*
X25017750Y-5272250D01*
X26446786Y-6701286D01*
X26521623Y-6882406D01*
X26726515Y-7087656D01*
X26752390Y-7098400D01*
X23517059Y-7098400D01*
X23329409Y-6910750D01*
X23329509Y-6795354D01*
X23233891Y-6563939D01*
X23056992Y-6386732D01*
X22825745Y-6290709D01*
X22684372Y-6290586D01*
X22612820Y-6242776D01*
X22440000Y-6208401D01*
X22267180Y-6242776D01*
X22120671Y-6340671D01*
X22022776Y-6487180D01*
X21988401Y-6660000D01*
X22022776Y-6832820D01*
X22070613Y-6904413D01*
X22070491Y-7044646D01*
X22166109Y-7276061D01*
X22343008Y-7453268D01*
X22460998Y-7502262D01*
X19170921Y-7502262D01*
X19169409Y-7500750D01*
X19169509Y-7385354D01*
X19073891Y-7153939D01*
X18896992Y-6976732D01*
X18665745Y-6880709D01*
X18415354Y-6880491D01*
X18183939Y-6976109D01*
X18006732Y-7153008D01*
X17910709Y-7384255D01*
X17910608Y-7500734D01*
X17617942Y-7793400D01*
X12265258Y-7793400D01*
X12559249Y-7499409D01*
X12674646Y-7499509D01*
X12906061Y-7403891D01*
X13083268Y-7226992D01*
X13179291Y-6995745D01*
X13179509Y-6745354D01*
X13083891Y-6513939D01*
X12906992Y-6336732D01*
X12675745Y-6240709D01*
X12425354Y-6240491D01*
X12193939Y-6336109D01*
X12016732Y-6513008D01*
X11920709Y-6744255D01*
X11920608Y-6860734D01*
X11391804Y-7389538D01*
X8847058Y-7389538D01*
X8244331Y-6786811D01*
X8244329Y-6786808D01*
X8033191Y-6575671D01*
X7886682Y-6477776D01*
X7713862Y-6443400D01*
X6850000Y-6443400D01*
X6677180Y-6477776D01*
X6530670Y-6575671D01*
X6451803Y-6654538D01*
X3583197Y-6654538D01*
X3579409Y-6650750D01*
X3579509Y-6535354D01*
X3483891Y-6303939D01*
X3306992Y-6126732D01*
X3075745Y-6030709D01*
X2825354Y-6030491D01*
X2593939Y-6126109D01*
X2416732Y-6303008D01*
X2320709Y-6534255D01*
X2320491Y-6784646D01*
X2416109Y-7016061D01*
X2458374Y-7058400D01*
X1958518Y-7058400D01*
X1876992Y-6976732D01*
X1645745Y-6880709D01*
X1395354Y-6880491D01*
X1163939Y-6976109D01*
X986732Y-7153008D01*
X890709Y-7384255D01*
X890491Y-7634646D01*
X986109Y-7866061D01*
X1163008Y-8043268D01*
X1394255Y-8139291D01*
X1644646Y-8139509D01*
X1876061Y-8043891D01*
X1958495Y-7961600D01*
X6841482Y-7961600D01*
X6923008Y-8043268D01*
X7154255Y-8139291D01*
X7270734Y-8139392D01*
X7485842Y-8354500D01*
X590500Y-8354500D01*
X590500Y-5624371D01*
X700874Y-5624371D01*
X811623Y-5892406D01*
X1016515Y-6097656D01*
X1284357Y-6208873D01*
X1574371Y-6209126D01*
X1842406Y-6098377D01*
X2047656Y-5893485D01*
X2158873Y-5625643D01*
X2158874Y-5624371D01*
X6370874Y-5624371D01*
X6481623Y-5892406D01*
X6686515Y-6097656D01*
X6954357Y-6208873D01*
X7244371Y-6209126D01*
X7512406Y-6098377D01*
X7717656Y-5893485D01*
X7828873Y-5625643D01*
X7829126Y-5335629D01*
X7718377Y-5067594D01*
X7513485Y-4862344D01*
X7245643Y-4751127D01*
X6955629Y-4750874D01*
X6687594Y-4861623D01*
X6482344Y-5066515D01*
X6371127Y-5334357D01*
X6370874Y-5624371D01*
X2158874Y-5624371D01*
X2159126Y-5335629D01*
X2048377Y-5067594D01*
X1843485Y-4862344D01*
X1662079Y-4787018D01*
X1852406Y-4708377D01*
X2057656Y-4503485D01*
X2168873Y-4235643D01*
X2169126Y-3945629D01*
X2058377Y-3677594D01*
X1853485Y-3472344D01*
X1585643Y-3361127D01*
X1295629Y-3360874D01*
X1027594Y-3471623D01*
X822344Y-3676515D01*
X711127Y-3944357D01*
X710874Y-4234371D01*
X821623Y-4502406D01*
X1026515Y-4707656D01*
X1207921Y-4782982D01*
X1017594Y-4861623D01*
X812344Y-5066515D01*
X701127Y-5334357D01*
X700874Y-5624371D01*
X590500Y-5624371D01*
X590500Y1395824D01*
X1166851Y1395824D01*
X1366162Y857371D01*
X1756359Y436178D01*
X2238951Y206189D01*
X2465998Y317016D01*
X2465998Y182421D01*
X2262594Y98377D01*
X2057344Y-106515D01*
X1946127Y-374357D01*
X1945874Y-664371D01*
X2056623Y-932406D01*
X2261515Y-1137656D01*
X2529357Y-1248873D01*
X2819371Y-1249126D01*
X3087406Y-1138377D01*
X3292656Y-933485D01*
X3403873Y-665643D01*
X3404126Y-375629D01*
X3293377Y-107594D01*
X3088485Y97656D01*
X2820643Y208873D01*
X2774002Y208914D01*
X2774002Y317016D01*
X3001049Y206189D01*
X3483641Y436178D01*
X3873838Y857371D01*
X4017230Y1244754D01*
X4038780Y1136413D01*
X4301855Y742693D01*
X4695575Y479618D01*
X5160000Y387238D01*
X5624425Y479618D01*
X5973400Y712795D01*
X5973400Y-1170000D01*
X6006169Y-1334742D01*
X6007776Y-1342820D01*
X6105671Y-1489329D01*
X7161076Y-2544734D01*
X6935643Y-2451127D01*
X6645629Y-2450874D01*
X6377594Y-2561623D01*
X6172344Y-2766515D01*
X6061127Y-3034357D01*
X6060874Y-3324371D01*
X6171623Y-3592406D01*
X6376515Y-3797656D01*
X6644357Y-3908873D01*
X6934371Y-3909126D01*
X7202406Y-3798377D01*
X7407656Y-3593485D01*
X7518873Y-3325643D01*
X7519126Y-3035629D01*
X7425587Y-2809246D01*
X7923400Y-3307059D01*
X7923400Y-6220000D01*
X7947403Y-6340671D01*
X7957776Y-6392820D01*
X8055671Y-6539329D01*
X8330671Y-6814330D01*
X8477137Y-6912195D01*
X8593008Y-7028268D01*
X8824255Y-7124291D01*
X9074646Y-7124509D01*
X9306061Y-7028891D01*
X9483268Y-6851992D01*
X9579291Y-6620745D01*
X9579509Y-6370354D01*
X9483891Y-6138939D01*
X9306992Y-5961732D01*
X9075745Y-5865709D01*
X8826600Y-5865492D01*
X8826600Y-5624371D01*
X12000874Y-5624371D01*
X12111623Y-5892406D01*
X12316515Y-6097656D01*
X12584357Y-6208873D01*
X12874371Y-6209126D01*
X13142406Y-6098377D01*
X13347656Y-5893485D01*
X13458873Y-5625643D01*
X13459126Y-5335629D01*
X13348377Y-5067594D01*
X13143485Y-4862344D01*
X12875643Y-4751127D01*
X12585629Y-4750874D01*
X12317594Y-4861623D01*
X12112344Y-5066515D01*
X12001127Y-5334357D01*
X12000874Y-5624371D01*
X8826600Y-5624371D01*
X8826600Y-3324371D01*
X11730874Y-3324371D01*
X11841623Y-3592406D01*
X12046515Y-3797656D01*
X12314357Y-3908873D01*
X12604371Y-3909126D01*
X12872406Y-3798377D01*
X13077656Y-3593485D01*
X13188873Y-3325643D01*
X13188874Y-3324371D01*
X17310874Y-3324371D01*
X17421623Y-3592406D01*
X17626515Y-3797656D01*
X17894357Y-3908873D01*
X18184371Y-3909126D01*
X18452406Y-3798377D01*
X18657656Y-3593485D01*
X18768873Y-3325643D01*
X18768874Y-3324371D01*
X23190874Y-3324371D01*
X23301623Y-3592406D01*
X23506515Y-3797656D01*
X23774357Y-3908873D01*
X24064371Y-3909126D01*
X24332406Y-3798377D01*
X24537656Y-3593485D01*
X24648873Y-3325643D01*
X24649126Y-3035629D01*
X24538377Y-2767594D01*
X24333485Y-2562344D01*
X24065643Y-2451127D01*
X23775629Y-2450874D01*
X23507594Y-2561623D01*
X23302344Y-2766515D01*
X23191127Y-3034357D01*
X23190874Y-3324371D01*
X18768874Y-3324371D01*
X18769126Y-3035629D01*
X18658377Y-2767594D01*
X18453485Y-2562344D01*
X18185643Y-2451127D01*
X17895629Y-2450874D01*
X17627594Y-2561623D01*
X17422344Y-2766515D01*
X17311127Y-3034357D01*
X17310874Y-3324371D01*
X13188874Y-3324371D01*
X13189126Y-3035629D01*
X13078377Y-2767594D01*
X12873485Y-2562344D01*
X12605643Y-2451127D01*
X12315629Y-2450874D01*
X12047594Y-2561623D01*
X11842344Y-2766515D01*
X11731127Y-3034357D01*
X11730874Y-3324371D01*
X8826600Y-3324371D01*
X8826600Y-3120000D01*
X8792224Y-2947180D01*
X8745451Y-2877180D01*
X8694329Y-2800670D01*
X6876600Y-982942D01*
X6876600Y-664371D01*
X7595874Y-664371D01*
X7706623Y-932406D01*
X7911515Y-1137656D01*
X8179357Y-1248873D01*
X8469371Y-1249126D01*
X8737406Y-1138377D01*
X8942656Y-933485D01*
X9053873Y-665643D01*
X9054126Y-375629D01*
X8943377Y-107594D01*
X8738485Y97656D01*
X8470643Y208873D01*
X8180629Y209126D01*
X7912594Y98377D01*
X7707344Y-106515D01*
X7596127Y-374357D01*
X7595874Y-664371D01*
X6876600Y-664371D01*
X6876600Y719477D01*
X7235575Y479618D01*
X7700000Y387238D01*
X8164425Y479618D01*
X8558145Y742693D01*
X8821220Y1136413D01*
X8913600Y1600838D01*
X8913600Y1959162D01*
X9026400Y1959162D01*
X9026400Y1600838D01*
X9118780Y1136413D01*
X9381855Y742693D01*
X9775575Y479618D01*
X9788400Y477067D01*
X9788400Y-160000D01*
X9822776Y-332820D01*
X9920671Y-479329D01*
X11680671Y-2239330D01*
X11788831Y-2311600D01*
X11827180Y-2337224D01*
X12000000Y-2371600D01*
X22971482Y-2371600D01*
X23053008Y-2453268D01*
X23284255Y-2549291D01*
X23534646Y-2549509D01*
X23766061Y-2453891D01*
X23943268Y-2276992D01*
X24039291Y-2045745D01*
X24039509Y-1795354D01*
X23943891Y-1563939D01*
X23885124Y-1505070D01*
X23923268Y-1466992D01*
X24019291Y-1235745D01*
X24019509Y-985354D01*
X23923891Y-753939D01*
X23746992Y-576732D01*
X23515745Y-480709D01*
X23265354Y-480491D01*
X23033939Y-576109D01*
X22951505Y-658400D01*
X19934215Y-658400D01*
X20003873Y-490643D01*
X20004126Y-200629D01*
X19893377Y67406D01*
X19688485Y272656D01*
X19420643Y383873D01*
X19130629Y384126D01*
X18862594Y273377D01*
X18657344Y68485D01*
X18546127Y-199357D01*
X18545874Y-489371D01*
X18615715Y-658400D01*
X14397059Y-658400D01*
X13253186Y485472D01*
X13638145Y742693D01*
X13901220Y1136413D01*
X13993600Y1600838D01*
X13993600Y1959162D01*
X14106400Y1959162D01*
X14106400Y1600838D01*
X14198780Y1136413D01*
X14461855Y742693D01*
X14855575Y479618D01*
X15320000Y387238D01*
X15784425Y479618D01*
X16178145Y742693D01*
X16441220Y1136413D01*
X16533600Y1600838D01*
X16533600Y1959162D01*
X16646400Y1959162D01*
X16646400Y1600838D01*
X16738780Y1136413D01*
X17001855Y742693D01*
X17395575Y479618D01*
X17860000Y387238D01*
X18324425Y479618D01*
X18718145Y742693D01*
X18981220Y1136413D01*
X19073600Y1600838D01*
X19073600Y1959162D01*
X19186400Y1959162D01*
X19186400Y1600838D01*
X19278780Y1136413D01*
X19541855Y742693D01*
X19935575Y479618D01*
X20400000Y387238D01*
X20864425Y479618D01*
X21258145Y742693D01*
X21521220Y1136413D01*
X21613600Y1600838D01*
X21613600Y1959162D01*
X21726400Y1959162D01*
X21726400Y1600838D01*
X21818780Y1136413D01*
X22081855Y742693D01*
X22475575Y479618D01*
X22940000Y387238D01*
X23404425Y479618D01*
X23798145Y742693D01*
X24061220Y1136413D01*
X24153600Y1600838D01*
X24153600Y1959162D01*
X24061220Y2423587D01*
X23798145Y2817307D01*
X23404425Y3080382D01*
X22940000Y3172762D01*
X22475575Y3080382D01*
X22081855Y2817307D01*
X21818780Y2423587D01*
X21726400Y1959162D01*
X21613600Y1959162D01*
X21521220Y2423587D01*
X21258145Y2817307D01*
X20864425Y3080382D01*
X20400000Y3172762D01*
X19935575Y3080382D01*
X19541855Y2817307D01*
X19278780Y2423587D01*
X19186400Y1959162D01*
X19073600Y1959162D01*
X18981220Y2423587D01*
X18718145Y2817307D01*
X18324425Y3080382D01*
X17860000Y3172762D01*
X17395575Y3080382D01*
X17001855Y2817307D01*
X16738780Y2423587D01*
X16646400Y1959162D01*
X16533600Y1959162D01*
X16441220Y2423587D01*
X16178145Y2817307D01*
X15784425Y3080382D01*
X15320000Y3172762D01*
X14855575Y3080382D01*
X14461855Y2817307D01*
X14198780Y2423587D01*
X14106400Y1959162D01*
X13993600Y1959162D01*
X13901220Y2423587D01*
X13638145Y2817307D01*
X13244425Y3080382D01*
X13231600Y3082933D01*
X13231600Y3490000D01*
X13197224Y3662820D01*
X13099329Y3809329D01*
X12999090Y3909568D01*
X34179976Y3909568D01*
X34375923Y3435341D01*
X34738433Y3072198D01*
X35165638Y2894807D01*
X34740341Y2719077D01*
X34377198Y2356567D01*
X34180424Y1882683D01*
X34179976Y1369568D01*
X34375923Y895341D01*
X34738433Y532198D01*
X35165638Y354807D01*
X34740341Y179077D01*
X34377198Y-183433D01*
X34180424Y-657317D01*
X34179976Y-1170432D01*
X34375923Y-1644659D01*
X34738433Y-2007802D01*
X34808703Y-2036981D01*
X34671418Y-2093846D01*
X34576370Y-2343581D01*
X35470000Y-3237211D01*
X36363630Y-2343581D01*
X36268582Y-2093846D01*
X36119660Y-2042132D01*
X36199659Y-2009077D01*
X36562802Y-1646567D01*
X36679055Y-1366600D01*
X40055000Y-1366600D01*
X40225693Y-1332647D01*
X41899793Y-1332647D01*
X42082097Y-1773857D01*
X42419367Y-2111717D01*
X42860258Y-2294791D01*
X43337647Y-2295207D01*
X43778857Y-2112903D01*
X44116717Y-1775633D01*
X44299791Y-1334742D01*
X44300207Y-857353D01*
X44117903Y-416143D01*
X43780633Y-78283D01*
X43339742Y104791D01*
X42862353Y105207D01*
X42421143Y-77097D01*
X42083283Y-414367D01*
X41900209Y-855258D01*
X41899793Y-1332647D01*
X40225693Y-1332647D01*
X40227820Y-1332224D01*
X40374329Y-1234329D01*
X44909250Y3300591D01*
X45024646Y3300491D01*
X45256061Y3396109D01*
X45433268Y3573008D01*
X45529291Y3804255D01*
X45529509Y4054646D01*
X45433891Y4286061D01*
X45256992Y4463268D01*
X45025745Y4559291D01*
X44775354Y4559509D01*
X44543939Y4463891D01*
X44366732Y4286992D01*
X44270709Y4055745D01*
X44270608Y3939267D01*
X39867942Y-463400D01*
X36678969Y-463400D01*
X36564077Y-185341D01*
X36201567Y177802D01*
X35774362Y355193D01*
X36199659Y530923D01*
X36562802Y893433D01*
X36759576Y1367317D01*
X36760024Y1880432D01*
X36667366Y2104680D01*
X39758840Y5196155D01*
X39758843Y5196157D01*
X39868850Y5360796D01*
X39907480Y5555000D01*
X39907480Y5667353D01*
X41899793Y5667353D01*
X42082097Y5226143D01*
X42419367Y4888283D01*
X42860258Y4705209D01*
X43337647Y4704793D01*
X43778857Y4887097D01*
X44116717Y5224367D01*
X44299791Y5665258D01*
X44300207Y6142647D01*
X44117903Y6583857D01*
X43780633Y6921717D01*
X43339742Y7104791D01*
X42862353Y7105207D01*
X42421143Y6922903D01*
X42083283Y6585633D01*
X41900209Y6144742D01*
X41899793Y5667353D01*
X39907480Y5667353D01*
X39907480Y12147265D01*
X39933268Y12173008D01*
X40029291Y12404255D01*
X40029509Y12654646D01*
X39933891Y12886061D01*
X39756992Y13063268D01*
X39525745Y13159291D01*
X39275354Y13159509D01*
X39043939Y13063891D01*
X38866732Y12886992D01*
X38770709Y12655745D01*
X38770491Y12405354D01*
X38866109Y12173939D01*
X38892520Y12147482D01*
X38892520Y5765205D01*
X36564261Y3436947D01*
X36759576Y3907317D01*
X36760024Y4420432D01*
X36564077Y4894659D01*
X36201567Y5257802D01*
X35727683Y5454576D01*
X35214568Y5455024D01*
X34740341Y5259077D01*
X34377198Y4896567D01*
X34180424Y4422683D01*
X34179976Y3909568D01*
X12999090Y3909568D01*
X11901600Y5007058D01*
X11901600Y6585629D01*
X31210874Y6585629D01*
X31321623Y6317594D01*
X31526515Y6112344D01*
X31794357Y6001127D01*
X32084371Y6000874D01*
X32352406Y6111623D01*
X32557656Y6316515D01*
X32668873Y6584357D01*
X32669126Y6874371D01*
X32558377Y7142406D01*
X32353485Y7347656D01*
X32085643Y7458873D01*
X31795629Y7459126D01*
X31527594Y7348377D01*
X31322344Y7143485D01*
X31211127Y6875643D01*
X31210874Y6585629D01*
X11901600Y6585629D01*
X11901600Y9285629D01*
X12220874Y9285629D01*
X12331623Y9017594D01*
X12536515Y8812344D01*
X12804357Y8701127D01*
X13094371Y8700874D01*
X13362406Y8811623D01*
X13567656Y9016515D01*
X13678873Y9284357D01*
X13679126Y9574371D01*
X13568377Y9842406D01*
X13363485Y10047656D01*
X13095643Y10158873D01*
X12805629Y10159126D01*
X12537594Y10048377D01*
X12332344Y9843485D01*
X12221127Y9575643D01*
X12220874Y9285629D01*
X11901600Y9285629D01*
X11901600Y12479079D01*
X11953191Y12530670D01*
X11956504Y12535629D01*
X15470874Y12535629D01*
X15581623Y12267594D01*
X15786515Y12062344D01*
X16054357Y11951127D01*
X16344371Y11950874D01*
X16612406Y12061623D01*
X16817656Y12266515D01*
X16928873Y12534357D01*
X16929126Y12824371D01*
X16818377Y13092406D01*
X16613485Y13297656D01*
X16345643Y13408873D01*
X16055629Y13409126D01*
X15787594Y13298377D01*
X15582344Y13093485D01*
X15471127Y12825643D01*
X15470874Y12535629D01*
X11956504Y12535629D01*
X12051086Y12677180D01*
X12053108Y12687344D01*
X12085462Y12850000D01*
X12085462Y13166804D01*
X12704287Y13785629D01*
X21090874Y13785629D01*
X21201623Y13517594D01*
X21406515Y13312344D01*
X21674357Y13201127D01*
X21964371Y13200874D01*
X22232406Y13311623D01*
X22437656Y13516515D01*
X22548873Y13784357D01*
X22549126Y14074371D01*
X22438377Y14342406D01*
X22233485Y14547656D01*
X21965643Y14658873D01*
X21675629Y14659126D01*
X21407594Y14548377D01*
X21202344Y14343485D01*
X21091127Y14075643D01*
X21090874Y13785629D01*
X12704287Y13785629D01*
X13467059Y14548400D01*
X15580000Y14548400D01*
X15752820Y14582776D01*
X15899329Y14680671D01*
X16003196Y14784538D01*
X19356138Y14784538D01*
X19528958Y14818914D01*
X19675467Y14916809D01*
X20883192Y16124533D01*
X20965171Y16247224D01*
X20981086Y16271042D01*
X21015462Y16443862D01*
X21015462Y20435629D01*
X32995874Y20435629D01*
X33106623Y20167594D01*
X33311515Y19962344D01*
X33579357Y19851127D01*
X33869371Y19850874D01*
X34137406Y19961623D01*
X34342656Y20166515D01*
X34453873Y20434357D01*
X34454126Y20724371D01*
X34343377Y20992406D01*
X34138485Y21197656D01*
X33870643Y21308873D01*
X33580629Y21309126D01*
X33312594Y21198377D01*
X33107344Y20993485D01*
X32996127Y20725643D01*
X32995874Y20435629D01*
X21015462Y20435629D01*
X21015462Y22266138D01*
X20981086Y22438958D01*
X20952593Y22481600D01*
X20883191Y22585468D01*
X19983030Y23485629D01*
X21220874Y23485629D01*
X21331623Y23217594D01*
X21536515Y23012344D01*
X21804357Y22901127D01*
X22094371Y22900874D01*
X22362406Y23011623D01*
X22567656Y23216515D01*
X22678873Y23484357D01*
X22679126Y23774371D01*
X22568377Y24042406D01*
X22363485Y24247656D01*
X22095643Y24358873D01*
X21805629Y24359126D01*
X21537594Y24248377D01*
X21332344Y24043485D01*
X21221127Y23775643D01*
X21220874Y23485629D01*
X19983030Y23485629D01*
X19804409Y23664250D01*
X19804509Y23779646D01*
X19708891Y24011061D01*
X19531992Y24188268D01*
X19300745Y24284291D01*
X19050354Y24284509D01*
X18818939Y24188891D01*
X18641732Y24011992D01*
X18568416Y23835429D01*
X18450745Y23884291D01*
X18200354Y23884509D01*
X17968939Y23788891D01*
X17791732Y23611992D01*
X17695709Y23380745D01*
X17695491Y23130354D01*
X17791109Y22898939D01*
X17968008Y22721732D01*
X18199255Y22625709D01*
X18315734Y22625608D01*
X19668400Y21272941D01*
X19668400Y16807059D01*
X18952942Y16091600D01*
X15610000Y16091600D01*
X15437180Y16057224D01*
X15290670Y15959329D01*
X15192941Y15861600D01*
X13080000Y15861600D01*
X12921136Y15830000D01*
X12907180Y15827224D01*
X12760671Y15729329D01*
X10910671Y13879329D01*
X10879021Y13831962D01*
X10788485Y13922656D01*
X10520643Y14033873D01*
X10230629Y14034126D01*
X9962594Y13923377D01*
X9757344Y13718485D01*
X9646127Y13450643D01*
X9645874Y13160629D01*
X9756623Y12892594D01*
X9961515Y12687344D01*
X10229357Y12576127D01*
X10519371Y12575874D01*
X10548400Y12587868D01*
X10548400Y7507059D01*
X9920671Y6879329D01*
X9822776Y6732820D01*
X9788400Y6560000D01*
X9788400Y3082933D01*
X9775575Y3080382D01*
X9381855Y2817307D01*
X9118780Y2423587D01*
X9026400Y1959162D01*
X8913600Y1959162D01*
X8821220Y2423587D01*
X8558145Y2817307D01*
X8164425Y3080382D01*
X7700000Y3172762D01*
X7235575Y3080382D01*
X6876600Y2840523D01*
X6876600Y6580000D01*
X6842224Y6752820D01*
X6824365Y6779548D01*
X6744330Y6899329D01*
X4751600Y8892058D01*
X4751600Y32535629D01*
X21445874Y32535629D01*
X21556623Y32267594D01*
X21761515Y32062344D01*
X22029357Y31951127D01*
X22319371Y31950874D01*
X22587406Y32061623D01*
X22792656Y32266515D01*
X22903873Y32534357D01*
X22904126Y32824371D01*
X22793377Y33092406D01*
X22588485Y33297656D01*
X22320643Y33408873D01*
X22030629Y33409126D01*
X21762594Y33298377D01*
X21557344Y33093485D01*
X21446127Y32825643D01*
X21445874Y32535629D01*
X4751600Y32535629D01*
X4751600Y39385629D01*
X35760874Y39385629D01*
X35871623Y39117594D01*
X36076515Y38912344D01*
X36344357Y38801127D01*
X36634371Y38800874D01*
X36902406Y38911623D01*
X37107656Y39116515D01*
X37218873Y39384357D01*
X37219126Y39674371D01*
X37108377Y39942406D01*
X36903485Y40147656D01*
X36635643Y40258873D01*
X36345629Y40259126D01*
X36077594Y40148377D01*
X35872344Y39943485D01*
X35761127Y39675643D01*
X35760874Y39385629D01*
X4751600Y39385629D01*
X4751600Y40260629D01*
X15345874Y40260629D01*
X15456623Y39992594D01*
X15661515Y39787344D01*
X15929357Y39676127D01*
X16219371Y39675874D01*
X16487406Y39786623D01*
X16692656Y39991515D01*
X16803873Y40259357D01*
X16804126Y40549371D01*
X16693377Y40817406D01*
X16488485Y41022656D01*
X16220643Y41133873D01*
X15930629Y41134126D01*
X15662594Y41023377D01*
X15457344Y40818485D01*
X15346127Y40550643D01*
X15345874Y40260629D01*
X4751600Y40260629D01*
X4751600Y41617942D01*
X5288065Y42154406D01*
X5385494Y42219506D01*
X6526617Y43360629D01*
X7020874Y43360629D01*
X7131623Y43092594D01*
X7336515Y42887344D01*
X7604357Y42776127D01*
X7894371Y42775874D01*
X8162406Y42886623D01*
X8367656Y43091515D01*
X8478873Y43359357D01*
X8479126Y43649371D01*
X8368377Y43917406D01*
X8163485Y44122656D01*
X7895643Y44233873D01*
X7605629Y44234126D01*
X7337594Y44123377D01*
X7132344Y43918485D01*
X7021127Y43650643D01*
X7020874Y43360629D01*
X6526617Y43360629D01*
X9071528Y45905540D01*
X24950000Y45905540D01*
X25131568Y45941656D01*
X25285494Y46044506D01*
X26216551Y46975563D01*
X26299646Y46975491D01*
X26531061Y47071109D01*
X26708268Y47248008D01*
X26804291Y47479255D01*
X26804509Y47729646D01*
X26708891Y47961061D01*
X26531992Y48138268D01*
X26300745Y48234291D01*
X26050354Y48234509D01*
X25979488Y48205228D01*
X25979509Y48229646D01*
X25883891Y48461061D01*
X25706992Y48638268D01*
X25475745Y48734291D01*
X25225354Y48734509D01*
X24993939Y48638891D01*
X24934405Y48579460D01*
X11818233Y48579460D01*
X11849291Y48654255D01*
X11849392Y48770734D01*
X12187059Y49108400D01*
X18970000Y49108400D01*
X19142820Y49142776D01*
X19289329Y49240671D01*
X19517059Y49468400D01*
X23102942Y49468400D01*
X23470671Y49100670D01*
X23617180Y49002776D01*
X23790000Y48968400D01*
X25540000Y48968400D01*
X25712820Y49002776D01*
X25859329Y49100671D01*
X26277059Y49518400D01*
X32352942Y49518400D01*
X34410671Y47460670D01*
X34490659Y47407224D01*
X34557180Y47362776D01*
X34730000Y47328400D01*
X36912942Y47328400D01*
X40758400Y43482941D01*
X40758400Y33547059D01*
X39840671Y32629329D01*
X39742776Y32482820D01*
X39708400Y32310000D01*
X39708400Y20967059D01*
X35190750Y16449409D01*
X35075354Y16449509D01*
X34843939Y16353891D01*
X34666732Y16176992D01*
X34570709Y15945745D01*
X34570608Y15829266D01*
X32852942Y14111600D01*
X31005000Y14111600D01*
X30832180Y14077224D01*
X30685671Y13979330D01*
X30162942Y13456600D01*
X26016570Y13456600D01*
X26183268Y13623008D01*
X26279291Y13854255D01*
X26279392Y13970734D01*
X26719287Y14410629D01*
X29245874Y14410629D01*
X29356623Y14142594D01*
X29561515Y13937344D01*
X29829357Y13826127D01*
X30119371Y13825874D01*
X30387406Y13936623D01*
X30592656Y14141515D01*
X30703873Y14409357D01*
X30704126Y14699371D01*
X30593377Y14967406D01*
X30388485Y15172656D01*
X30120643Y15283873D01*
X29830629Y15284126D01*
X29562594Y15173377D01*
X29357344Y14968485D01*
X29246127Y14700643D01*
X29245874Y14410629D01*
X26719287Y14410629D01*
X28669330Y16360671D01*
X28762410Y16499976D01*
X28767224Y16507180D01*
X28801600Y16680000D01*
X28801600Y18066482D01*
X28883268Y18148008D01*
X28979291Y18379255D01*
X28979509Y18629646D01*
X28883891Y18861061D01*
X28706992Y19038268D01*
X28475745Y19134291D01*
X28225354Y19134509D01*
X27993939Y19038891D01*
X27816732Y18861992D01*
X27720709Y18630745D01*
X27720491Y18380354D01*
X27816109Y18148939D01*
X27898400Y18066505D01*
X27898400Y16867059D01*
X25640750Y14609409D01*
X25525354Y14609509D01*
X25293939Y14513891D01*
X25116732Y14336992D01*
X25020709Y14105745D01*
X25020491Y13855354D01*
X25116109Y13623939D01*
X25283157Y13456600D01*
X24722059Y13456600D01*
X24509409Y13669250D01*
X24509509Y13784646D01*
X24413891Y14016061D01*
X24236992Y14193268D01*
X24005745Y14289291D01*
X23755354Y14289509D01*
X23523939Y14193891D01*
X23346732Y14016992D01*
X23250709Y13785745D01*
X23250491Y13535354D01*
X23346109Y13303939D01*
X23523008Y13126732D01*
X23754255Y13030709D01*
X23870734Y13030608D01*
X24215671Y12685670D01*
X24294833Y12632776D01*
X24362180Y12587776D01*
X24535000Y12553400D01*
X25233430Y12553400D01*
X25066732Y12386992D01*
X24970709Y12155745D01*
X24970491Y11905354D01*
X25066109Y11673939D01*
X25243008Y11496732D01*
X25474255Y11400709D01*
X25724646Y11400491D01*
X25956061Y11496109D01*
X26133268Y11673008D01*
X26218555Y11878400D01*
X33784742Y11878400D01*
X30347942Y8441600D01*
X27277059Y8441600D01*
X26704409Y9014250D01*
X26704509Y9129646D01*
X26608891Y9361061D01*
X26431992Y9538268D01*
X26200745Y9634291D01*
X25950354Y9634509D01*
X25718939Y9538891D01*
X25541732Y9361992D01*
X25445709Y9130745D01*
X25445491Y8880354D01*
X25496724Y8756360D01*
X25393939Y8713891D01*
X25216732Y8536992D01*
X25120709Y8305745D01*
X25120491Y8055354D01*
X25216109Y7823939D01*
X25393008Y7646732D01*
X25624255Y7550709D01*
X25740734Y7550608D01*
X26080671Y7210670D01*
X26227180Y7112776D01*
X26400000Y7078400D01*
X30950000Y7078400D01*
X31122820Y7112776D01*
X31269329Y7210671D01*
X33819287Y9760629D01*
X36095874Y9760629D01*
X36206623Y9492594D01*
X36411515Y9287344D01*
X36679357Y9176127D01*
X36969371Y9175874D01*
X37237406Y9286623D01*
X37442656Y9491515D01*
X37553873Y9759357D01*
X37554126Y10049371D01*
X37443377Y10317406D01*
X37238485Y10522656D01*
X36970643Y10633873D01*
X36680629Y10634126D01*
X36412594Y10523377D01*
X36207344Y10318485D01*
X36096127Y10050643D01*
X36095874Y9760629D01*
X33819287Y9760629D01*
X38569287Y14510629D01*
X43670874Y14510629D01*
X43781623Y14242594D01*
X43986515Y14037344D01*
X44254357Y13926127D01*
X44544371Y13925874D01*
X44812406Y14036623D01*
X45017656Y14241515D01*
X45128873Y14509357D01*
X45129126Y14799371D01*
X45018377Y15067406D01*
X44813485Y15272656D01*
X44545643Y15383873D01*
X44255629Y15384126D01*
X43987594Y15273377D01*
X43782344Y15068485D01*
X43671127Y14800643D01*
X43670874Y14510629D01*
X38569287Y14510629D01*
X39478444Y15419786D01*
X39420709Y15280745D01*
X39420491Y15030354D01*
X39516109Y14798939D01*
X39693008Y14621732D01*
X39924255Y14525709D01*
X40174646Y14525491D01*
X40406061Y14621109D01*
X40432518Y14647520D01*
X40824995Y14647520D01*
X40825000Y14647519D01*
X41019204Y14686150D01*
X41183843Y14796157D01*
X46135205Y19747520D01*
X46967265Y19747520D01*
X46993008Y19721732D01*
X47034524Y19704493D01*
X46866732Y19536992D01*
X46770709Y19305745D01*
X46770491Y19055354D01*
X46866109Y18823939D01*
X47043008Y18646732D01*
X47274255Y18550709D01*
X47524646Y18550491D01*
X47756061Y18646109D01*
X47933268Y18823008D01*
X48029291Y19054255D01*
X48029392Y19170734D01*
X49069329Y20210670D01*
X49167224Y20357180D01*
X49182828Y20435629D01*
X49201600Y20530000D01*
X49201600Y28964568D01*
X49539976Y28964568D01*
X49735923Y28490341D01*
X50098433Y28127198D01*
X50525638Y27949807D01*
X50100341Y27774077D01*
X49737198Y27411567D01*
X49540424Y26937683D01*
X49539976Y26424568D01*
X49735923Y25950341D01*
X50098433Y25587198D01*
X50525638Y25409807D01*
X50100341Y25234077D01*
X49737198Y24871567D01*
X49540424Y24397683D01*
X49539976Y23884568D01*
X49735923Y23410341D01*
X50098433Y23047198D01*
X50525638Y22869807D01*
X50100341Y22694077D01*
X49737198Y22331567D01*
X49540424Y21857683D01*
X49539976Y21344568D01*
X49735923Y20870341D01*
X50098433Y20507198D01*
X50525638Y20329807D01*
X50100341Y20154077D01*
X49737198Y19791567D01*
X49540424Y19317683D01*
X49539976Y18804568D01*
X49735923Y18330341D01*
X50098433Y17967198D01*
X50572317Y17770424D01*
X51085432Y17769976D01*
X51559659Y17965923D01*
X51922802Y18328433D01*
X52119576Y18802317D01*
X52120024Y19315432D01*
X51924077Y19789659D01*
X51561567Y20152802D01*
X51134362Y20330193D01*
X51559659Y20505923D01*
X51922802Y20868433D01*
X52119576Y21342317D01*
X52120024Y21855432D01*
X51924077Y22329659D01*
X51561567Y22692802D01*
X51134362Y22870193D01*
X51559659Y23045923D01*
X51922802Y23408433D01*
X52119576Y23882317D01*
X52120024Y24395432D01*
X51924077Y24869659D01*
X51561567Y25232802D01*
X51134362Y25410193D01*
X51559659Y25585923D01*
X51922802Y25948433D01*
X52119576Y26422317D01*
X52120024Y26935432D01*
X51924077Y27409659D01*
X51561567Y27772802D01*
X51134362Y27950193D01*
X51559659Y28125923D01*
X51922802Y28488433D01*
X52119576Y28962317D01*
X52120024Y29475432D01*
X51924077Y29949659D01*
X51561567Y30312802D01*
X51491297Y30341981D01*
X51628582Y30398846D01*
X51723630Y30648581D01*
X50830000Y31542211D01*
X49936370Y30648581D01*
X50031418Y30398846D01*
X50180340Y30347132D01*
X50100341Y30314077D01*
X49737198Y29951567D01*
X49540424Y29477683D01*
X49539976Y28964568D01*
X49201600Y28964568D01*
X49201600Y31976901D01*
X49266853Y31976901D01*
X49302837Y31362201D01*
X49468846Y30961418D01*
X49718581Y30866370D01*
X50612211Y31760000D01*
X51047789Y31760000D01*
X51941419Y30866370D01*
X52191154Y30961418D01*
X52393147Y31543099D01*
X52357163Y32157799D01*
X52191154Y32558582D01*
X51941419Y32653630D01*
X51047789Y31760000D01*
X50612211Y31760000D01*
X49718581Y32653630D01*
X49468846Y32558582D01*
X49266853Y31976901D01*
X49201600Y31976901D01*
X49201600Y33188581D01*
X49936370Y33188581D01*
X49996725Y33030000D01*
X49936370Y32871419D01*
X50830000Y31977789D01*
X51723630Y32871419D01*
X51663275Y33030000D01*
X51723630Y33188581D01*
X50830000Y34082211D01*
X49936370Y33188581D01*
X49201600Y33188581D01*
X49201600Y34516901D01*
X49266853Y34516901D01*
X49302837Y33902201D01*
X49468846Y33501418D01*
X49718581Y33406370D01*
X50612211Y34300000D01*
X51047789Y34300000D01*
X51941419Y33406370D01*
X52191154Y33501418D01*
X52393147Y34083099D01*
X52357163Y34697799D01*
X52191154Y35098582D01*
X51941419Y35193630D01*
X51047789Y34300000D01*
X50612211Y34300000D01*
X49718581Y35193630D01*
X49468846Y35098582D01*
X49266853Y34516901D01*
X49201600Y34516901D01*
X49201600Y36583776D01*
X49535976Y36583776D01*
X49732530Y36108079D01*
X50096164Y35743809D01*
X50163482Y35715856D01*
X50031418Y35661154D01*
X49936370Y35411419D01*
X50830000Y34517789D01*
X51723630Y35411419D01*
X51628582Y35661154D01*
X51485351Y35710892D01*
X51561921Y35742530D01*
X51926191Y36106164D01*
X52123575Y36581518D01*
X52124024Y37096224D01*
X51927470Y37571921D01*
X51563836Y37936191D01*
X51088482Y38133575D01*
X50573776Y38134024D01*
X50098079Y37937470D01*
X49733809Y37573836D01*
X49536425Y37098482D01*
X49535976Y36583776D01*
X49201600Y36583776D01*
X49201600Y44752942D01*
X50280327Y45831669D01*
X50525638Y45729807D01*
X50100341Y45554077D01*
X49737198Y45191567D01*
X49540424Y44717683D01*
X49539976Y44204568D01*
X49735923Y43730341D01*
X50098433Y43367198D01*
X50525638Y43189807D01*
X50100341Y43014077D01*
X49737198Y42651567D01*
X49540424Y42177683D01*
X49539976Y41664568D01*
X49735923Y41190341D01*
X50098433Y40827198D01*
X50572317Y40630424D01*
X51085432Y40629976D01*
X51559659Y40825923D01*
X51922802Y41188433D01*
X52119576Y41662317D01*
X52120024Y42175432D01*
X51924077Y42649659D01*
X51561567Y43012802D01*
X51134362Y43190193D01*
X51559659Y43365923D01*
X51922802Y43728433D01*
X52119576Y44202317D01*
X52120024Y44715432D01*
X51924077Y45189659D01*
X51561567Y45552802D01*
X51134362Y45730193D01*
X51559659Y45905923D01*
X51922802Y46268433D01*
X52119576Y46742317D01*
X52120024Y47255432D01*
X51924077Y47729659D01*
X51561567Y48092802D01*
X51134362Y48270193D01*
X51559659Y48445923D01*
X51922802Y48808433D01*
X52119576Y49282317D01*
X52120024Y49795432D01*
X51924077Y50269659D01*
X51561567Y50632802D01*
X51134362Y50810193D01*
X51559659Y50985923D01*
X51922802Y51348433D01*
X52119576Y51822317D01*
X52120024Y52335432D01*
X51924077Y52809659D01*
X51561567Y53172802D01*
X51134362Y53350193D01*
X51559659Y53525923D01*
X51922802Y53888433D01*
X52119576Y54362317D01*
X52120024Y54875432D01*
X51924077Y55349659D01*
X51561567Y55712802D01*
X51087683Y55909576D01*
X50574568Y55910024D01*
X50100341Y55714077D01*
X49737198Y55351567D01*
X49540424Y54877683D01*
X49539976Y54364568D01*
X49735923Y53890341D01*
X50098433Y53527198D01*
X50525638Y53349807D01*
X50100341Y53174077D01*
X49737198Y52811567D01*
X49540424Y52337683D01*
X49539976Y51824568D01*
X49735923Y51350341D01*
X50098433Y50987198D01*
X50525638Y50809807D01*
X50100341Y50634077D01*
X49737198Y50271567D01*
X49540424Y49797683D01*
X49539976Y49284568D01*
X49735923Y48810341D01*
X50098433Y48447198D01*
X50525638Y48269807D01*
X50100341Y48094077D01*
X49737198Y47731567D01*
X49540424Y47257683D01*
X49539976Y46744568D01*
X49649892Y46478551D01*
X48430671Y45259329D01*
X48332776Y45112820D01*
X48298400Y44940000D01*
X48298400Y36030988D01*
X48085745Y36119291D01*
X47835354Y36119509D01*
X47676600Y36053914D01*
X47676600Y47626174D01*
X47834255Y47560709D01*
X48084646Y47560491D01*
X48316061Y47656109D01*
X48493268Y47833008D01*
X48589291Y48064255D01*
X48589509Y48314646D01*
X48493891Y48546061D01*
X48316992Y48723268D01*
X48085745Y48819291D01*
X47835354Y48819509D01*
X47676600Y48753914D01*
X47676600Y50080000D01*
X47642224Y50252820D01*
X47544330Y50399329D01*
X46019329Y51924329D01*
X45872820Y52022224D01*
X45700000Y52056600D01*
X42463518Y52056600D01*
X42381992Y52138268D01*
X42150745Y52234291D01*
X41900354Y52234509D01*
X41668939Y52138891D01*
X41491732Y51961992D01*
X41395709Y51730745D01*
X41395491Y51480354D01*
X41491109Y51248939D01*
X41668008Y51071732D01*
X41899255Y50975709D01*
X42149646Y50975491D01*
X42381061Y51071109D01*
X42463495Y51153400D01*
X45512942Y51153400D01*
X46773400Y49892941D01*
X46773400Y49704122D01*
X46700745Y49734291D01*
X46450354Y49734509D01*
X46218939Y49638891D01*
X46041732Y49461992D01*
X45945709Y49230745D01*
X45945491Y48980354D01*
X46041109Y48748939D01*
X46123400Y48666505D01*
X46123400Y47896744D01*
X46056992Y47963268D01*
X45825745Y48059291D01*
X45575354Y48059509D01*
X45343939Y47963891D01*
X45166732Y47786992D01*
X45070709Y47555745D01*
X45070491Y47305354D01*
X45166109Y47073939D01*
X45343008Y46896732D01*
X45574255Y46800709D01*
X45824646Y46800491D01*
X46056061Y46896109D01*
X46123400Y46963331D01*
X46123400Y24217059D01*
X45526600Y23620259D01*
X45526600Y39305000D01*
X45492224Y39477820D01*
X45394329Y39624330D01*
X43329409Y41689250D01*
X43329509Y41804646D01*
X43233891Y42036061D01*
X43056992Y42213268D01*
X42825745Y42309291D01*
X42575354Y42309509D01*
X42343939Y42213891D01*
X42166732Y42036992D01*
X42070709Y41805745D01*
X42070491Y41555354D01*
X42166109Y41323939D01*
X42343008Y41146732D01*
X42574255Y41050709D01*
X42690734Y41050608D01*
X44623400Y39117941D01*
X44623400Y23567059D01*
X41905673Y20849331D01*
X41905670Y20849329D01*
X33837942Y12781600D01*
X30765258Y12781600D01*
X31192059Y13208400D01*
X33040000Y13208400D01*
X33212820Y13242776D01*
X33359329Y13340671D01*
X35209250Y15190591D01*
X35324646Y15190491D01*
X35556061Y15286109D01*
X35733268Y15463008D01*
X35829291Y15694255D01*
X35829392Y15810734D01*
X40479329Y20460670D01*
X40577224Y20607180D01*
X40578549Y20613843D01*
X40611600Y20780000D01*
X40611600Y27887309D01*
X40879357Y27776127D01*
X41169371Y27775874D01*
X41437406Y27886623D01*
X41642656Y28091515D01*
X41753873Y28359357D01*
X41754126Y28649371D01*
X41643377Y28917406D01*
X41438485Y29122656D01*
X41170643Y29233873D01*
X40880629Y29234126D01*
X40612594Y29123377D01*
X40611600Y29122385D01*
X40611600Y32122942D01*
X41529329Y33040670D01*
X41627224Y33187180D01*
X41627503Y33188581D01*
X41661600Y33360000D01*
X41661600Y43670000D01*
X41627224Y43842820D01*
X41576666Y43918485D01*
X41529330Y43989329D01*
X40842762Y44675897D01*
X40869371Y44675874D01*
X41137406Y44786623D01*
X41342656Y44991515D01*
X41453873Y45259357D01*
X41454126Y45549371D01*
X41343377Y45817406D01*
X41138485Y46022656D01*
X40870643Y46133873D01*
X40580629Y46134126D01*
X40312594Y46023377D01*
X40107344Y45818485D01*
X39996127Y45550643D01*
X39996102Y45522556D01*
X37419329Y48099329D01*
X37272820Y48197224D01*
X37100000Y48231600D01*
X34917059Y48231600D01*
X32859329Y50289329D01*
X32712820Y50387224D01*
X32540000Y50421600D01*
X26090000Y50421600D01*
X25917180Y50387224D01*
X25770670Y50289329D01*
X25352942Y49871600D01*
X23977059Y49871600D01*
X23609329Y50239329D01*
X23462820Y50337224D01*
X23290000Y50371600D01*
X19330000Y50371600D01*
X19157180Y50337224D01*
X19010671Y50239330D01*
X18782942Y50011600D01*
X12000000Y50011600D01*
X11827180Y49977224D01*
X11816369Y49970000D01*
X11680671Y49879330D01*
X11210750Y49409409D01*
X11095354Y49409509D01*
X10863939Y49313891D01*
X10686732Y49136992D01*
X10590709Y48905745D01*
X10590491Y48655354D01*
X10621850Y48579460D01*
X9275000Y48579460D01*
X9093432Y48543344D01*
X8939506Y48440494D01*
X4758470Y44259458D01*
X4700354Y44259509D01*
X4468939Y44163891D01*
X4291732Y43986992D01*
X4195709Y43755745D01*
X4195491Y43505354D01*
X4291109Y43273939D01*
X4468008Y43096732D01*
X4699255Y43000709D01*
X4824612Y43000600D01*
X4714506Y42890494D01*
X4649406Y42793065D01*
X3980671Y42124329D01*
X3882776Y41977820D01*
X3859750Y41862062D01*
X3860024Y42175432D01*
X3664077Y42649659D01*
X3301567Y43012802D01*
X2874362Y43190193D01*
X3299659Y43365923D01*
X3662802Y43728433D01*
X3859576Y44202317D01*
X3860024Y44715432D01*
X3664077Y45189659D01*
X3301567Y45552802D01*
X2874362Y45730193D01*
X3299659Y45905923D01*
X3662802Y46268433D01*
X3859576Y46742317D01*
X3860024Y47255432D01*
X3664077Y47729659D01*
X3301567Y48092802D01*
X2874362Y48270193D01*
X3299659Y48445923D01*
X3662802Y48808433D01*
X3859576Y49282317D01*
X3860024Y49795432D01*
X3664077Y50269659D01*
X3301567Y50632802D01*
X2874362Y50810193D01*
X3299659Y50985923D01*
X3662802Y51348433D01*
X3859576Y51822317D01*
X3860024Y52335432D01*
X3664077Y52809659D01*
X3593506Y52880354D01*
X45945491Y52880354D01*
X46041109Y52648939D01*
X46218008Y52471732D01*
X46449255Y52375709D01*
X46699646Y52375491D01*
X46931061Y52471109D01*
X47108268Y52648008D01*
X47204291Y52879255D01*
X47204509Y53129646D01*
X47108891Y53361061D01*
X46931992Y53538268D01*
X46700745Y53634291D01*
X46450354Y53634509D01*
X46218939Y53538891D01*
X46041732Y53361992D01*
X45945709Y53130745D01*
X45945491Y52880354D01*
X3593506Y52880354D01*
X3301567Y53172802D01*
X2874362Y53350193D01*
X3299659Y53525923D01*
X3662802Y53888433D01*
X3859576Y54362317D01*
X3860024Y54875432D01*
X3664077Y55349659D01*
X3301567Y55712802D01*
X2827683Y55909576D01*
X2314568Y55910024D01*
X1840341Y55714077D01*
X1477198Y55351567D01*
X1280424Y54877683D01*
X1279976Y54364568D01*
X1475923Y53890341D01*
X1838433Y53527198D01*
X2265638Y53349807D01*
X1840341Y53174077D01*
X1477198Y52811567D01*
X1280424Y52337683D01*
X1279976Y51824568D01*
X1475923Y51350341D01*
X1838433Y50987198D01*
X2265638Y50809807D01*
X1840341Y50634077D01*
X1477198Y50271567D01*
X1280424Y49797683D01*
X1279976Y49284568D01*
X1475923Y48810341D01*
X1838433Y48447198D01*
X2265638Y48269807D01*
X1840341Y48094077D01*
X1477198Y47731567D01*
X1280424Y47257683D01*
X1279976Y46744568D01*
X1475923Y46270341D01*
X1838433Y45907198D01*
X2265638Y45729807D01*
X1840341Y45554077D01*
X1477198Y45191567D01*
X1280424Y44717683D01*
X1279976Y44204568D01*
X1475923Y43730341D01*
X1838433Y43367198D01*
X2265638Y43189807D01*
X1840341Y43014077D01*
X1477198Y42651567D01*
X1280424Y42177683D01*
X1279976Y41664568D01*
X1475923Y41190341D01*
X1838433Y40827198D01*
X2265638Y40649807D01*
X1840341Y40474077D01*
X1477198Y40111567D01*
X1280424Y39637683D01*
X1279976Y39124568D01*
X1475923Y38650341D01*
X1838433Y38287198D01*
X2265638Y38109807D01*
X1840341Y37934077D01*
X1477198Y37571567D01*
X1280424Y37097683D01*
X1279976Y36584568D01*
X1475923Y36110341D01*
X1838433Y35747198D01*
X2312317Y35550424D01*
X2825432Y35549976D01*
X3299659Y35745923D01*
X3662802Y36108433D01*
X3848400Y36555402D01*
X3848400Y33313564D01*
X3664077Y33759659D01*
X3301567Y34122802D01*
X2827683Y34319576D01*
X2314568Y34320024D01*
X1840341Y34124077D01*
X1477198Y33761567D01*
X1280424Y33287683D01*
X1279976Y32774568D01*
X1475923Y32300341D01*
X1838433Y31937198D01*
X2265638Y31759807D01*
X1840341Y31584077D01*
X1477198Y31221567D01*
X1280424Y30747683D01*
X1279976Y30234568D01*
X1475923Y29760341D01*
X1838433Y29397198D01*
X2265638Y29219807D01*
X1840341Y29044077D01*
X1477198Y28681567D01*
X1280424Y28207683D01*
X1279976Y27694568D01*
X1475923Y27220341D01*
X1838433Y26857198D01*
X2265638Y26679807D01*
X1840341Y26504077D01*
X1477198Y26141567D01*
X1280424Y25667683D01*
X1279976Y25154568D01*
X1475923Y24680341D01*
X1838433Y24317198D01*
X2265638Y24139807D01*
X1840341Y23964077D01*
X1477198Y23601567D01*
X1280424Y23127683D01*
X1279976Y22614568D01*
X1475923Y22140341D01*
X1838433Y21777198D01*
X2265638Y21599807D01*
X1840341Y21424077D01*
X1477198Y21061567D01*
X1280424Y20587683D01*
X1279976Y20074568D01*
X1475923Y19600341D01*
X1838433Y19237198D01*
X2265638Y19059807D01*
X1840341Y18884077D01*
X1477198Y18521567D01*
X1280424Y18047683D01*
X1279976Y17534568D01*
X1475923Y17060341D01*
X1838433Y16697198D01*
X2265638Y16519807D01*
X1840341Y16344077D01*
X1477198Y15981567D01*
X1280424Y15507683D01*
X1279976Y14994568D01*
X1475923Y14520341D01*
X1838433Y14157198D01*
X2265638Y13979807D01*
X1840341Y13804077D01*
X1477198Y13441567D01*
X1280424Y12967683D01*
X1279976Y12454568D01*
X1475923Y11980341D01*
X1838433Y11617198D01*
X2265638Y11439807D01*
X1840341Y11264077D01*
X1477198Y10901567D01*
X1280424Y10427683D01*
X1279976Y9914568D01*
X1475923Y9440341D01*
X1838433Y9077198D01*
X2312317Y8880424D01*
X2825432Y8879976D01*
X3299659Y9075923D01*
X3662802Y9438433D01*
X3848400Y9885402D01*
X3848400Y8705000D01*
X3869838Y8597224D01*
X3882776Y8532180D01*
X3980671Y8385671D01*
X5973400Y6392941D01*
X5973400Y2847205D01*
X5624425Y3080382D01*
X5160000Y3172762D01*
X4695575Y3080382D01*
X4301855Y2817307D01*
X4038780Y2423587D01*
X4017230Y2315246D01*
X3873838Y2702629D01*
X3483641Y3123822D01*
X3001049Y3353811D01*
X2774000Y3242983D01*
X2774000Y1934000D01*
X2794000Y1934000D01*
X2794000Y1626000D01*
X2774000Y1626000D01*
X2774000Y1606000D01*
X2466000Y1606000D01*
X2466000Y1626000D01*
X1300484Y1626000D01*
X1166851Y1395824D01*
X590500Y1395824D01*
X590500Y2164176D01*
X1166851Y2164176D01*
X1300484Y1934000D01*
X2466000Y1934000D01*
X2466000Y3242983D01*
X2238951Y3353811D01*
X1756359Y3123822D01*
X1366162Y2702629D01*
X1166851Y2164176D01*
X590500Y2164176D01*
X590500Y5651606D01*
X788669Y5172000D01*
X1378893Y4580745D01*
X2150452Y4260366D01*
X2985883Y4259637D01*
X3758000Y4578669D01*
X4349255Y5168893D01*
X4669634Y5940452D01*
X4670363Y6775883D01*
X4351331Y7548000D01*
X3761107Y8139255D01*
X2989548Y8459634D01*
X2154117Y8460363D01*
X1382000Y8141331D01*
X790745Y7551107D01*
X590500Y7068863D01*
X590500Y59139500D01*
X17106606Y59139500D01*
X16627000Y58941331D01*
G36*
X48298400Y22912593D02*
X48213485Y22997656D01*
X47945643Y23108873D01*
X47655629Y23109126D01*
X47387594Y22998377D01*
X47182344Y22793485D01*
X47071127Y22525643D01*
X47070874Y22235629D01*
X47181623Y21967594D01*
X47386515Y21762344D01*
X47654357Y21651127D01*
X47944371Y21650874D01*
X48212406Y21761623D01*
X48298400Y21847467D01*
X48298400Y20717059D01*
X47974094Y20392752D01*
X47883891Y20611061D01*
X47706992Y20788268D01*
X47475745Y20884291D01*
X47225354Y20884509D01*
X46993939Y20788891D01*
X46967482Y20762480D01*
X45925005Y20762480D01*
X45925000Y20762481D01*
X45739810Y20725643D01*
X45730796Y20723850D01*
X45566157Y20613843D01*
X45566155Y20613840D01*
X40614794Y15662480D01*
X40432735Y15662480D01*
X40406992Y15688268D01*
X40175745Y15784291D01*
X39925354Y15784509D01*
X39785298Y15726639D01*
X47544330Y23485671D01*
X47642224Y23632180D01*
X47676600Y23805000D01*
X47676600Y34926174D01*
X47834255Y34860709D01*
X48084646Y34860491D01*
X48298400Y34948812D01*
X48298400Y22912593D01*
X48298400Y22912593D01*
G37*
X48298400Y22912593D02*
X48213485Y22997656D01*
X47945643Y23108873D01*
X47655629Y23109126D01*
X47387594Y22998377D01*
X47182344Y22793485D01*
X47071127Y22525643D01*
X47070874Y22235629D01*
X47181623Y21967594D01*
X47386515Y21762344D01*
X47654357Y21651127D01*
X47944371Y21650874D01*
X48212406Y21761623D01*
X48298400Y21847467D01*
X48298400Y20717059D01*
X47974094Y20392752D01*
X47883891Y20611061D01*
X47706992Y20788268D01*
X47475745Y20884291D01*
X47225354Y20884509D01*
X46993939Y20788891D01*
X46967482Y20762480D01*
X45925005Y20762480D01*
X45925000Y20762481D01*
X45739810Y20725643D01*
X45730796Y20723850D01*
X45566157Y20613843D01*
X45566155Y20613840D01*
X40614794Y15662480D01*
X40432735Y15662480D01*
X40406992Y15688268D01*
X40175745Y15784291D01*
X39925354Y15784509D01*
X39785298Y15726639D01*
X47544330Y23485671D01*
X47642224Y23632180D01*
X47676600Y23805000D01*
X47676600Y34926174D01*
X47834255Y34860709D01*
X48084646Y34860491D01*
X48298400Y34948812D01*
X48298400Y22912593D01*
G36*
X23922344Y47573485D02*
X23811127Y47305643D01*
X23810874Y47015629D01*
X23877467Y46854460D01*
X8875000Y46854460D01*
X8693432Y46818344D01*
X8590666Y46749678D01*
X9471528Y47630540D01*
X23979499Y47630540D01*
X23922344Y47573485D01*
X23922344Y47573485D01*
G37*
X23922344Y47573485D02*
X23811127Y47305643D01*
X23810874Y47015629D01*
X23877467Y46854460D01*
X8875000Y46854460D01*
X8693432Y46818344D01*
X8590666Y46749678D01*
X9471528Y47630540D01*
X23979499Y47630540D01*
X23922344Y47573485D01*
M02*
