G04 #@! TF.FileFunction,Paste,Top*
%FSLAX46Y46*%
G04 Gerber Fmt 4.6, Leading zero omitted, Abs format (unit mm)*
G04 Created by KiCad (PCBNEW 4.0.0-rc1-stable) date 2/9/2016 2:30:25 PM*
%MOMM*%
G01*
G04 APERTURE LIST*
%ADD10C,0.150000*%
%ADD11R,2.800000X2.000000*%
%ADD12R,2.800000X2.200000*%
%ADD13R,2.800000X2.800000*%
%ADD14C,1.879600*%
%ADD15R,0.254000X0.762000*%
%ADD16R,0.762000X0.254000*%
%ADD17R,2.999740X2.999740*%
%ADD18R,0.548640X1.198880*%
%ADD19R,1.550000X1.300000*%
%ADD20R,0.800000X0.750000*%
%ADD21R,0.750000X0.800000*%
%ADD22R,1.501140X1.000760*%
%ADD23R,2.999740X1.998980*%
%ADD24R,0.600000X0.500000*%
%ADD25R,0.500000X0.600000*%
%ADD26R,0.400000X0.600000*%
%ADD27R,0.600000X0.400000*%
%ADD28R,0.440000X0.200000*%
%ADD29R,0.200000X0.440000*%
%ADD30R,0.228000X0.228000*%
%ADD31R,0.600000X1.000000*%
%ADD32R,0.420000X0.700000*%
%ADD33R,0.398780X0.749300*%
%ADD34R,0.406400X0.660400*%
%ADD35R,1.000000X1.250000*%
%ADD36R,1.250000X1.000000*%
%ADD37C,0.998220*%
%ADD38R,1.800000X2.230000*%
%ADD39R,0.300000X0.500000*%
%ADD40R,0.528000X0.480000*%
%ADD41R,1.500000X4.000000*%
%ADD42R,0.750000X0.300000*%
%ADD43R,0.525000X0.435000*%
%ADD44R,1.800860X0.800100*%
%ADD45R,2.000000X4.064000*%
%ADD46R,1.524000X4.064000*%
%ADD47R,0.800100X1.800860*%
G04 APERTURE END LIST*
D10*
D11*
X39500000Y-3095000D03*
X39500000Y-295000D03*
D12*
X46700000Y-2195000D03*
X46700000Y-4995000D03*
D13*
X46700000Y7205000D03*
X42350000Y11305000D03*
D14*
X35470000Y1625000D03*
X35470000Y-915000D03*
X35470000Y-3455000D03*
X35470000Y4165000D03*
D15*
X23349680Y7680640D03*
X22849300Y7680640D03*
X22348920Y7680640D03*
X23850060Y7680640D03*
D16*
X24599360Y8429940D03*
X24599360Y8930320D03*
X24599360Y9430700D03*
X24599360Y9931080D03*
X24599360Y10428920D03*
X24599360Y10929300D03*
X24599360Y11429680D03*
X24599360Y11930060D03*
D15*
X20349940Y12679360D03*
X23850060Y12679360D03*
X23349680Y12679360D03*
X22849300Y12679360D03*
X22348920Y12679360D03*
X21851080Y12679360D03*
X21350700Y12679360D03*
X20850320Y12679360D03*
D16*
X19600640Y11930060D03*
X19600640Y11429680D03*
X19600640Y10929300D03*
X19600640Y10428920D03*
X19600640Y9931080D03*
X19600640Y9430700D03*
X19600640Y8930320D03*
X19600640Y8429940D03*
D15*
X20349940Y7680640D03*
X20850320Y7680640D03*
X21350700Y7680640D03*
X21851080Y7680640D03*
D17*
X22100000Y10180000D03*
D10*
G36*
X31301412Y9210092D02*
X30523722Y9987782D01*
X31867168Y11331228D01*
X32644858Y10553538D01*
X31301412Y9210092D01*
X31301412Y9210092D01*
G37*
G36*
X33916462Y11825142D02*
X33138772Y12602832D01*
X34482218Y13946278D01*
X35259908Y13168588D01*
X33916462Y11825142D01*
X33916462Y11825142D01*
G37*
G36*
X32292832Y13448772D02*
X31515142Y14226462D01*
X32858588Y15569908D01*
X33636278Y14792218D01*
X32292832Y13448772D01*
X32292832Y13448772D01*
G37*
G36*
X29677782Y10833722D02*
X28900092Y11611412D01*
X30243538Y12954858D01*
X31021228Y12177168D01*
X29677782Y10833722D01*
X29677782Y10833722D01*
G37*
D18*
X42510040Y18777940D03*
X43460000Y18777940D03*
X44409960Y18777940D03*
X44409960Y16182060D03*
X43460000Y16182060D03*
X42510040Y16182060D03*
D19*
X13545000Y53500000D03*
X5595000Y53500000D03*
X5595000Y58000000D03*
X13545000Y58000000D03*
D20*
X11660000Y30940000D03*
X10160000Y30940000D03*
X17870000Y28470000D03*
X16370000Y28470000D03*
D21*
X24930000Y21010000D03*
X24930000Y19510000D03*
D20*
X10550000Y40790000D03*
X12050000Y40790000D03*
D21*
X20380000Y37590000D03*
X20380000Y39090000D03*
D20*
X7750000Y38400000D03*
X9250000Y38400000D03*
X16060000Y36090000D03*
X17560000Y36090000D03*
D21*
X11660000Y27600000D03*
X11660000Y29100000D03*
X18950000Y37600000D03*
X18950000Y36100000D03*
X26320000Y25260000D03*
X26320000Y26760000D03*
D20*
X23110000Y32670000D03*
X24610000Y32670000D03*
X38400000Y25930000D03*
X36900000Y25930000D03*
D22*
X10561660Y33618860D03*
X10561660Y35120000D03*
X10561660Y36621140D03*
D23*
X7610180Y35120000D03*
D10*
G36*
X9084650Y36120760D02*
X9833950Y35620380D01*
X9833950Y34619620D01*
X9084650Y34119240D01*
X9084650Y36120760D01*
X9084650Y36120760D01*
G37*
D22*
X18941660Y31498860D03*
X18941660Y33000000D03*
X18941660Y34501140D03*
D23*
X15990180Y33000000D03*
D10*
G36*
X17464650Y34000760D02*
X18213950Y33500380D01*
X18213950Y32499620D01*
X17464650Y31999240D01*
X17464650Y34000760D01*
X17464650Y34000760D01*
G37*
D22*
X26321660Y28268860D03*
X26321660Y29770000D03*
X26321660Y31271140D03*
D23*
X23370180Y29770000D03*
D10*
G36*
X24844650Y30770760D02*
X25593950Y30270380D01*
X25593950Y29269620D01*
X24844650Y28769240D01*
X24844650Y30770760D01*
X24844650Y30770760D01*
G37*
D24*
X25060000Y5190000D03*
X26160000Y5190000D03*
X25060000Y4040000D03*
X26160000Y4040000D03*
D25*
X16500000Y8430000D03*
X16500000Y7330000D03*
X15360000Y8430000D03*
X15360000Y7330000D03*
X29110000Y8280000D03*
X29110000Y7180000D03*
X30180000Y8280000D03*
X30180000Y7180000D03*
X14190000Y8430000D03*
X14190000Y7330000D03*
X12950000Y8430000D03*
X12950000Y7330000D03*
D10*
G36*
X32525736Y8912182D02*
X32172182Y9265736D01*
X32596446Y9690000D01*
X32950000Y9336446D01*
X32525736Y8912182D01*
X32525736Y8912182D01*
G37*
G36*
X33303554Y9690000D02*
X32950000Y10043554D01*
X33374264Y10467818D01*
X33727818Y10114264D01*
X33303554Y9690000D01*
X33303554Y9690000D01*
G37*
G36*
X31455736Y15212182D02*
X31102182Y15565736D01*
X31526446Y15990000D01*
X31880000Y15636446D01*
X31455736Y15212182D01*
X31455736Y15212182D01*
G37*
G36*
X32233554Y15990000D02*
X31880000Y16343554D01*
X32304264Y16767818D01*
X32657818Y16414264D01*
X32233554Y15990000D01*
X32233554Y15990000D01*
G37*
D24*
X21820000Y15510000D03*
X22920000Y15510000D03*
X21820000Y16460000D03*
X22920000Y16460000D03*
D25*
X18320000Y12680000D03*
X18320000Y13780000D03*
X17180000Y12680000D03*
X17180000Y13780000D03*
D24*
X20420000Y-510000D03*
X21520000Y-510000D03*
X29340000Y-6470000D03*
X28240000Y-6470000D03*
D21*
X24650000Y52720000D03*
X24650000Y54220000D03*
X11660000Y23080000D03*
X11660000Y24580000D03*
X16360000Y22640000D03*
X16360000Y24140000D03*
D20*
X22030000Y21010000D03*
X23530000Y21010000D03*
D24*
X24160000Y48075000D03*
X23060000Y48075000D03*
X7730000Y41070000D03*
X6630000Y41070000D03*
D25*
X20310000Y23520000D03*
X20310000Y24620000D03*
X39950000Y32120000D03*
X39950000Y33220000D03*
D24*
X23110000Y35180000D03*
X22010000Y35180000D03*
X47100000Y15120000D03*
X46000000Y15120000D03*
D21*
X8790000Y49560000D03*
X8790000Y51060000D03*
D24*
X11240000Y51050000D03*
X10140000Y51050000D03*
D25*
X46390000Y20260000D03*
X46390000Y19160000D03*
D24*
X37930000Y8450000D03*
X36830000Y8450000D03*
D25*
X21480000Y41450000D03*
X21480000Y42550000D03*
D24*
X14660000Y48440000D03*
X13560000Y48440000D03*
X19210000Y42570000D03*
X18110000Y42570000D03*
X41200000Y14180000D03*
X40100000Y14180000D03*
D21*
X35460000Y8000000D03*
X35460000Y6500000D03*
D26*
X18500000Y8430000D03*
X17600000Y8430000D03*
X43410000Y14640000D03*
X42510000Y14640000D03*
D27*
X41220000Y16190000D03*
X41220000Y15290000D03*
D26*
X44410000Y20260000D03*
X45310000Y20260000D03*
X7490000Y51050000D03*
X6590000Y51050000D03*
D27*
X46000000Y17080000D03*
X46000000Y16180000D03*
X47430000Y17090000D03*
X47430000Y17990000D03*
X36830000Y7410000D03*
X36830000Y6510000D03*
X42275000Y54605000D03*
X42275000Y53705000D03*
X45075000Y52105000D03*
X45075000Y53005000D03*
D28*
X23720000Y50820000D03*
X23720000Y50320000D03*
X23720000Y49820000D03*
D29*
X24150000Y49390000D03*
X24650000Y49390000D03*
X25150000Y49390000D03*
D28*
X25580000Y49820000D03*
X25580000Y50320000D03*
X25580000Y50820000D03*
D29*
X25150000Y51250000D03*
X24650000Y51250000D03*
X24150000Y51250000D03*
D30*
X24840000Y50130000D03*
X24840000Y50510000D03*
X24460000Y50130000D03*
X24460000Y50510000D03*
D28*
X20310000Y20660000D03*
X20310000Y21160000D03*
X20310000Y21660000D03*
D29*
X19880000Y22090000D03*
X19380000Y22090000D03*
X18880000Y22090000D03*
D28*
X18450000Y21660000D03*
X18450000Y21160000D03*
X18450000Y20660000D03*
D29*
X18880000Y20230000D03*
X19380000Y20230000D03*
X19880000Y20230000D03*
D30*
X19190000Y21350000D03*
X19190000Y20970000D03*
X19570000Y21350000D03*
X19570000Y20970000D03*
D24*
X9285000Y-515000D03*
X10385000Y-515000D03*
X14885000Y-515000D03*
X15985000Y-515000D03*
X3610000Y-515000D03*
X4710000Y-515000D03*
X11660000Y43330000D03*
X10560000Y43330000D03*
X22740000Y38730000D03*
X23840000Y38730000D03*
D20*
X27410000Y33960000D03*
X25910000Y33960000D03*
D31*
X21370000Y-1880000D03*
X20420000Y-1880000D03*
X19470000Y-1880000D03*
X19470000Y-4080000D03*
X20420000Y-4080000D03*
X21370000Y-4080000D03*
X15835000Y-1890000D03*
X14885000Y-1890000D03*
X13935000Y-1890000D03*
X13935000Y-4090000D03*
X14885000Y-4090000D03*
X15835000Y-4090000D03*
X10235000Y-1890000D03*
X9285000Y-1890000D03*
X8335000Y-1890000D03*
X8335000Y-4090000D03*
X9285000Y-4090000D03*
X10235000Y-4090000D03*
X4560000Y-1890000D03*
X3610000Y-1890000D03*
X2660000Y-1890000D03*
X2660000Y-4090000D03*
X3610000Y-4090000D03*
X4560000Y-4090000D03*
D27*
X22970000Y-3180000D03*
X22970000Y-4080000D03*
D26*
X12460000Y-4090000D03*
X11560000Y-4090000D03*
X18040000Y-4090000D03*
X17140000Y-4090000D03*
X6785000Y-4090000D03*
X5885000Y-4090000D03*
D32*
X19770000Y-7450000D03*
X20420000Y-7450000D03*
X21070000Y-7450000D03*
X21070000Y-5550000D03*
X20420000Y-5550000D03*
X19770000Y-5550000D03*
D24*
X28630000Y39900000D03*
X27530000Y39900000D03*
D33*
X28890240Y-3290040D03*
X28240000Y-3290040D03*
X27589760Y-3290040D03*
X27589760Y-5189960D03*
X28240000Y-5189960D03*
X28890240Y-5189960D03*
D34*
X7969600Y-7506000D03*
X9290400Y-7506000D03*
X8630000Y-7506000D03*
X9290400Y-5474000D03*
X7969600Y-5474000D03*
X13559600Y-7506000D03*
X14880400Y-7506000D03*
X14220000Y-7506000D03*
X14880400Y-5474000D03*
X13559600Y-5474000D03*
X2289600Y-7506000D03*
X3610400Y-7506000D03*
X2950000Y-7506000D03*
X3610400Y-5474000D03*
X2289600Y-5474000D03*
D20*
X28630000Y44610000D03*
X27130000Y44610000D03*
X20560000Y52290000D03*
X19060000Y52290000D03*
X15000000Y18805000D03*
X13500000Y18805000D03*
X13160000Y44580000D03*
X11660000Y44580000D03*
D21*
X22740000Y41460000D03*
X22740000Y39960000D03*
D20*
X14670000Y47160000D03*
X13170000Y47160000D03*
X16160000Y49750000D03*
X14660000Y49750000D03*
X17680000Y52300000D03*
X16180000Y52300000D03*
X20760000Y46990000D03*
X19260000Y46990000D03*
D24*
X7720000Y39880000D03*
X6620000Y39880000D03*
X16060000Y37270000D03*
X14960000Y37270000D03*
X23110000Y34030000D03*
X22010000Y34030000D03*
X16060000Y38420000D03*
X14960000Y38420000D03*
D20*
X16360000Y25540000D03*
X14860000Y25540000D03*
D24*
X11660000Y26220000D03*
X10560000Y26220000D03*
X7730000Y42200000D03*
X6630000Y42200000D03*
X16060000Y39540000D03*
X14960000Y39540000D03*
X23100000Y36180000D03*
X24200000Y36180000D03*
X13170000Y45860000D03*
X14270000Y45860000D03*
D35*
X26320000Y23590000D03*
X24320000Y23590000D03*
D24*
X16160000Y51050000D03*
X15060000Y51050000D03*
X19210000Y45770000D03*
X20310000Y45770000D03*
X30620000Y47650000D03*
X29520000Y47650000D03*
D21*
X20770000Y49910000D03*
X20770000Y48410000D03*
D20*
X27680000Y50320000D03*
X29180000Y50320000D03*
X12950000Y11430000D03*
X14450000Y11430000D03*
D24*
X27400000Y37490000D03*
X26300000Y37490000D03*
D25*
X10950000Y17030000D03*
X10950000Y18130000D03*
D24*
X9900000Y15005000D03*
X8800000Y15005000D03*
X11660000Y32150000D03*
X10560000Y32150000D03*
D20*
X16360000Y27050000D03*
X17860000Y27050000D03*
D24*
X17860000Y29820000D03*
X18960000Y29820000D03*
D25*
X10560000Y39510000D03*
X10560000Y38410000D03*
X26320000Y21010000D03*
X26320000Y22110000D03*
D24*
X11660000Y42130000D03*
X10560000Y42130000D03*
X22740000Y37600000D03*
X21640000Y37600000D03*
X27420000Y32670000D03*
X26320000Y32670000D03*
X19230000Y41450000D03*
X20330000Y41450000D03*
D36*
X28630000Y43220000D03*
X28630000Y41220000D03*
D25*
X19220000Y44720000D03*
X19220000Y43620000D03*
D35*
X30630000Y46160000D03*
X28630000Y46160000D03*
D25*
X11475000Y13305000D03*
X11475000Y14405000D03*
D27*
X9900000Y17030000D03*
X9900000Y16130000D03*
D37*
X51960000Y-6190000D03*
X2050000Y58160000D03*
D38*
X28090000Y15940000D03*
X25170000Y15940000D03*
D39*
X13000000Y13305000D03*
X13500000Y13305000D03*
X14000000Y13305000D03*
X14500000Y13305000D03*
X14500000Y15205000D03*
X14000000Y15205000D03*
X13500000Y15205000D03*
X13000000Y15205000D03*
D40*
X14190000Y14255000D03*
X13310000Y14255000D03*
D21*
X34700000Y44160000D03*
X34700000Y45660000D03*
D20*
X34700000Y47820000D03*
X36200000Y47820000D03*
X34700000Y42740000D03*
X36200000Y42740000D03*
X27500000Y52730000D03*
X26000000Y52730000D03*
D21*
X17860000Y17310000D03*
X17860000Y18810000D03*
D26*
X26010000Y54220000D03*
X26910000Y54220000D03*
D25*
X45560000Y32720000D03*
X45560000Y31620000D03*
D24*
X44480000Y28230000D03*
X43380000Y28230000D03*
D38*
X35490000Y28505000D03*
X38410000Y28505000D03*
D26*
X43380000Y29470000D03*
X44280000Y29470000D03*
X44280000Y30810000D03*
X43380000Y30810000D03*
D36*
X46360000Y36810000D03*
X46360000Y38810000D03*
X44280000Y36810000D03*
X44280000Y38810000D03*
D35*
X36400000Y32260000D03*
X38400000Y32260000D03*
D41*
X39950000Y36480000D03*
X36350000Y36480000D03*
D35*
X37400000Y20580000D03*
X35400000Y20580000D03*
D20*
X13500000Y17030000D03*
X12000000Y17030000D03*
D21*
X27400000Y36550000D03*
X27400000Y35050000D03*
D20*
X28730000Y38660000D03*
X27230000Y38660000D03*
D21*
X30620000Y50320000D03*
X30620000Y48820000D03*
D35*
X31080000Y3090000D03*
X29080000Y3090000D03*
D36*
X25200000Y-5180000D03*
X25200000Y-3180000D03*
D42*
X44280000Y32220000D03*
X44280000Y32720000D03*
X44280000Y33220000D03*
X44280000Y33720000D03*
X41380000Y33720000D03*
X41380000Y33220000D03*
X41380000Y32720000D03*
X41380000Y32220000D03*
D43*
X42392500Y33332500D03*
X42392500Y32607500D03*
X43267500Y33332500D03*
X43267500Y32607500D03*
D44*
X35398860Y24180000D03*
X35398860Y22280000D03*
X38401140Y23230000D03*
D45*
X21878000Y57240000D03*
X27402000Y57240000D03*
D46*
X24640000Y57240000D03*
D20*
X16850000Y11430000D03*
X18350000Y11430000D03*
D21*
X15650000Y9930000D03*
X15650000Y11430000D03*
D44*
X42698860Y45405000D03*
X42698860Y43505000D03*
X45701140Y44455000D03*
D47*
X42450000Y49103860D03*
X44350000Y49103860D03*
X43400000Y52106140D03*
X38975000Y51603860D03*
X40875000Y51603860D03*
X39925000Y54606140D03*
D27*
X40725000Y43505000D03*
X40725000Y44405000D03*
X27875000Y12530000D03*
X27875000Y13430000D03*
D26*
X44350000Y47230000D03*
X43450000Y47230000D03*
D27*
X40875000Y50005000D03*
X40875000Y49105000D03*
X45700000Y45605000D03*
X45700000Y46505000D03*
D14*
X50830000Y26680000D03*
X50830000Y29220000D03*
X50830000Y41920000D03*
X50830000Y44460000D03*
X50830000Y47000000D03*
X50830000Y49540000D03*
X50830000Y52080000D03*
X50830000Y54620000D03*
X2570000Y15250000D03*
X2570000Y49540000D03*
X2570000Y47000000D03*
X2570000Y44460000D03*
X2570000Y41920000D03*
X2570000Y39380000D03*
X2570000Y36840000D03*
X2570000Y33030000D03*
X2570000Y30490000D03*
X2570000Y27950000D03*
X2570000Y25410000D03*
X2570000Y22870000D03*
X2570000Y20330000D03*
X50830000Y31760000D03*
X50830000Y34300000D03*
X2570000Y17790000D03*
X50830000Y24140000D03*
X2570000Y54620000D03*
X2570000Y52080000D03*
X50830000Y36840000D03*
X2570000Y12710000D03*
X2570000Y10170000D03*
X50830000Y21600000D03*
X50830000Y19060000D03*
D27*
X26750000Y12530000D03*
X26750000Y13430000D03*
M02*
