G04 #@! TF.FileFunction,Legend,Top*
%FSLAX46Y46*%
G04 Gerber Fmt 4.6, Leading zero omitted, Abs format (unit mm)*
G04 Created by KiCad (PCBNEW 4.0.0-rc1-stable) date 2/9/2016 2:30:25 PM*
%MOMM*%
G01*
G04 APERTURE LIST*
%ADD10C,0.150000*%
%ADD11C,0.187500*%
%ADD12C,0.381000*%
%ADD13C,0.203200*%
%ADD14C,0.152400*%
%ADD15C,0.101600*%
%ADD16C,0.635000*%
%ADD17C,0.063500*%
%ADD18C,0.127000*%
%ADD19C,0.254000*%
%ADD20C,0.125000*%
%ADD21R,3.050000X2.250000*%
%ADD22R,3.050000X2.450000*%
%ADD23R,3.050000X3.050000*%
%ADD24C,1.950000*%
%ADD25C,2.129600*%
%ADD26R,0.504000X1.012000*%
%ADD27R,1.012000X0.504000*%
%ADD28R,3.249740X3.249740*%
%ADD29R,0.798640X1.448880*%
%ADD30R,1.800000X1.550000*%
%ADD31R,1.050000X1.000000*%
%ADD32R,1.000000X1.050000*%
%ADD33R,1.977200X2.282000*%
%ADD34O,1.977200X2.282000*%
%ADD35R,1.751140X1.250760*%
%ADD36R,3.249740X2.248980*%
%ADD37R,0.850000X0.750000*%
%ADD38R,0.750000X0.850000*%
%ADD39R,0.650000X0.850000*%
%ADD40R,0.850000X0.650000*%
%ADD41R,0.690000X0.450000*%
%ADD42R,0.450000X0.690000*%
%ADD43R,0.630000X0.630000*%
%ADD44R,0.850000X1.250000*%
%ADD45R,0.670000X0.950000*%
%ADD46R,0.648780X0.999300*%
%ADD47R,0.656400X0.910400*%
%ADD48R,1.250000X1.500000*%
%ADD49R,1.500000X1.250000*%
%ADD50C,1.248220*%
%ADD51R,2.050000X2.480000*%
%ADD52R,0.550000X0.750000*%
%ADD53R,1.130000X1.050000*%
%ADD54R,1.750000X4.250000*%
%ADD55R,1.000000X0.550000*%
%ADD56R,1.125000X0.975000*%
%ADD57R,2.050860X1.050100*%
%ADD58R,2.250000X4.314000*%
%ADD59R,1.774000X4.314000*%
%ADD60R,1.050100X2.050860*%
%ADD61C,3.750000*%
G04 APERTURE END LIST*
D10*
D11*
X47532143Y44540714D02*
X47532143Y44040714D01*
X47532143Y44469286D02*
X47567858Y44505000D01*
X47639286Y44540714D01*
X47746429Y44540714D01*
X47817858Y44505000D01*
X47853572Y44433571D01*
X47853572Y44040714D01*
X48639286Y44112143D02*
X48603572Y44076429D01*
X48496429Y44040714D01*
X48425000Y44040714D01*
X48317857Y44076429D01*
X48246429Y44147857D01*
X48210714Y44219286D01*
X48175000Y44362143D01*
X48175000Y44469286D01*
X48210714Y44612143D01*
X48246429Y44683571D01*
X48317857Y44755000D01*
X48425000Y44790714D01*
X48496429Y44790714D01*
X48603572Y44755000D01*
X48639286Y44719286D01*
X48925000Y44076429D02*
X49032143Y44040714D01*
X49210714Y44040714D01*
X49282143Y44076429D01*
X49317857Y44112143D01*
X49353572Y44183571D01*
X49353572Y44255000D01*
X49317857Y44326429D01*
X49282143Y44362143D01*
X49210714Y44397857D01*
X49067857Y44433571D01*
X48996429Y44469286D01*
X48960714Y44505000D01*
X48925000Y44576429D01*
X48925000Y44647857D01*
X48960714Y44719286D01*
X48996429Y44755000D01*
X49067857Y44790714D01*
X49246429Y44790714D01*
X49353572Y44755000D01*
X23001429Y4190714D02*
X23072857Y4190714D01*
X23144286Y4155000D01*
X23180000Y4119286D01*
X23215714Y4047857D01*
X23251429Y3905000D01*
X23251429Y3726429D01*
X23215714Y3583571D01*
X23180000Y3512143D01*
X23144286Y3476429D01*
X23072857Y3440714D01*
X23001429Y3440714D01*
X22930000Y3476429D01*
X22894286Y3512143D01*
X22858571Y3583571D01*
X22822857Y3726429D01*
X22822857Y3905000D01*
X22858571Y4047857D01*
X22894286Y4119286D01*
X22930000Y4155000D01*
X23001429Y4190714D01*
X20631429Y3440714D02*
X20202857Y3440714D01*
X20417143Y3440714D02*
X20417143Y4190714D01*
X20345714Y4083571D01*
X20274286Y4012143D01*
X20202857Y3976429D01*
X17742857Y4119286D02*
X17778571Y4155000D01*
X17850000Y4190714D01*
X18028571Y4190714D01*
X18100000Y4155000D01*
X18135714Y4119286D01*
X18171429Y4047857D01*
X18171429Y3976429D01*
X18135714Y3869286D01*
X17707143Y3440714D01*
X18171429Y3440714D01*
X15247143Y4190714D02*
X15711429Y4190714D01*
X15461429Y3905000D01*
X15568571Y3905000D01*
X15640000Y3869286D01*
X15675714Y3833571D01*
X15711429Y3762143D01*
X15711429Y3583571D01*
X15675714Y3512143D01*
X15640000Y3476429D01*
X15568571Y3440714D01*
X15354286Y3440714D01*
X15282857Y3476429D01*
X15247143Y3512143D01*
X13320000Y3940714D02*
X13320000Y3440714D01*
X13141429Y4226429D02*
X12962857Y3690714D01*
X13427143Y3690714D01*
X10735714Y4190714D02*
X10378571Y4190714D01*
X10342857Y3833571D01*
X10378571Y3869286D01*
X10450000Y3905000D01*
X10628571Y3905000D01*
X10700000Y3869286D01*
X10735714Y3833571D01*
X10771429Y3762143D01*
X10771429Y3583571D01*
X10735714Y3512143D01*
X10700000Y3476429D01*
X10628571Y3440714D01*
X10450000Y3440714D01*
X10378571Y3476429D01*
X10342857Y3512143D01*
X7960000Y4190714D02*
X7817143Y4190714D01*
X7745714Y4155000D01*
X7710000Y4119286D01*
X7638571Y4012143D01*
X7602857Y3869286D01*
X7602857Y3583571D01*
X7638571Y3512143D01*
X7674286Y3476429D01*
X7745714Y3440714D01*
X7888571Y3440714D01*
X7960000Y3476429D01*
X7995714Y3512143D01*
X8031429Y3583571D01*
X8031429Y3762143D01*
X7995714Y3833571D01*
X7960000Y3869286D01*
X7888571Y3905000D01*
X7745714Y3905000D01*
X7674286Y3869286D01*
X7638571Y3833571D01*
X7602857Y3762143D01*
X4937143Y4190714D02*
X5437143Y4190714D01*
X5115714Y3440714D01*
X28180714Y2728571D02*
X27430714Y2478571D01*
X28180714Y2228571D01*
X27502143Y1550000D02*
X27466429Y1585714D01*
X27430714Y1692857D01*
X27430714Y1764286D01*
X27466429Y1871429D01*
X27537857Y1942857D01*
X27609286Y1978572D01*
X27752143Y2014286D01*
X27859286Y2014286D01*
X28002143Y1978572D01*
X28073571Y1942857D01*
X28145000Y1871429D01*
X28180714Y1764286D01*
X28180714Y1692857D01*
X28145000Y1585714D01*
X28109286Y1550000D01*
X27502143Y800000D02*
X27466429Y835714D01*
X27430714Y942857D01*
X27430714Y1014286D01*
X27466429Y1121429D01*
X27537857Y1192857D01*
X27609286Y1228572D01*
X27752143Y1264286D01*
X27859286Y1264286D01*
X28002143Y1228572D01*
X28073571Y1192857D01*
X28145000Y1121429D01*
X28180714Y1014286D01*
X28180714Y942857D01*
X28145000Y835714D01*
X28109286Y800000D01*
X46430714Y46726429D02*
X46537857Y46690714D01*
X46716428Y46690714D01*
X46787857Y46726429D01*
X46823571Y46762143D01*
X46859286Y46833571D01*
X46859286Y46905000D01*
X46823571Y46976429D01*
X46787857Y47012143D01*
X46716428Y47047857D01*
X46573571Y47083571D01*
X46502143Y47119286D01*
X46466428Y47155000D01*
X46430714Y47226429D01*
X46430714Y47297857D01*
X46466428Y47369286D01*
X46502143Y47405000D01*
X46573571Y47440714D01*
X46752143Y47440714D01*
X46859286Y47405000D01*
X47180714Y46690714D02*
X47180714Y47440714D01*
X47466429Y47440714D01*
X47537857Y47405000D01*
X47573572Y47369286D01*
X47609286Y47297857D01*
X47609286Y47190714D01*
X47573572Y47119286D01*
X47537857Y47083571D01*
X47466429Y47047857D01*
X47180714Y47047857D01*
X47930714Y46690714D02*
X47930714Y47440714D01*
X48359286Y46690714D02*
X48037857Y47119286D01*
X48359286Y47440714D02*
X47930714Y47012143D01*
X49109286Y46690714D02*
X48859286Y47047857D01*
X48680714Y46690714D02*
X48680714Y47440714D01*
X48966429Y47440714D01*
X49037857Y47405000D01*
X49073572Y47369286D01*
X49109286Y47297857D01*
X49109286Y47190714D01*
X49073572Y47119286D01*
X49037857Y47083571D01*
X48966429Y47047857D01*
X48680714Y47047857D01*
X32278572Y-3120000D02*
X32207143Y-3084286D01*
X32100000Y-3084286D01*
X31992857Y-3120000D01*
X31921429Y-3191429D01*
X31885714Y-3262857D01*
X31850000Y-3405714D01*
X31850000Y-3512857D01*
X31885714Y-3655714D01*
X31921429Y-3727143D01*
X31992857Y-3798571D01*
X32100000Y-3834286D01*
X32171429Y-3834286D01*
X32278572Y-3798571D01*
X32314286Y-3762857D01*
X32314286Y-3512857D01*
X32171429Y-3512857D01*
X32635714Y-3834286D02*
X32635714Y-3084286D01*
X33064286Y-3834286D01*
X33064286Y-3084286D01*
X33421428Y-3834286D02*
X33421428Y-3084286D01*
X33600000Y-3084286D01*
X33707143Y-3120000D01*
X33778571Y-3191429D01*
X33814286Y-3262857D01*
X33850000Y-3405714D01*
X33850000Y-3512857D01*
X33814286Y-3655714D01*
X33778571Y-3727143D01*
X33707143Y-3798571D01*
X33600000Y-3834286D01*
X33421428Y-3834286D01*
X32232143Y-1234286D02*
X31875000Y-1234286D01*
X31875000Y-484286D01*
X32767858Y-1198571D02*
X32696429Y-1234286D01*
X32553572Y-1234286D01*
X32482143Y-1198571D01*
X32446429Y-1127143D01*
X32446429Y-841429D01*
X32482143Y-770000D01*
X32553572Y-734286D01*
X32696429Y-734286D01*
X32767858Y-770000D01*
X32803572Y-841429D01*
X32803572Y-912857D01*
X32446429Y-984286D01*
X33017858Y-734286D02*
X33303572Y-734286D01*
X33125000Y-1234286D02*
X33125000Y-591429D01*
X33160715Y-520000D01*
X33232143Y-484286D01*
X33303572Y-484286D01*
X33446429Y-734286D02*
X33732143Y-734286D01*
X33553571Y-484286D02*
X33553571Y-1127143D01*
X33589286Y-1198571D01*
X33660714Y-1234286D01*
X33732143Y-1234286D01*
X31510715Y1265714D02*
X31260715Y1622857D01*
X31082143Y1265714D02*
X31082143Y2015714D01*
X31367858Y2015714D01*
X31439286Y1980000D01*
X31475001Y1944286D01*
X31510715Y1872857D01*
X31510715Y1765714D01*
X31475001Y1694286D01*
X31439286Y1658571D01*
X31367858Y1622857D01*
X31082143Y1622857D01*
X31832143Y1265714D02*
X31832143Y1765714D01*
X31832143Y2015714D02*
X31796429Y1980000D01*
X31832143Y1944286D01*
X31867858Y1980000D01*
X31832143Y2015714D01*
X31832143Y1944286D01*
X32510715Y1765714D02*
X32510715Y1158571D01*
X32475001Y1087143D01*
X32439286Y1051429D01*
X32367858Y1015714D01*
X32260715Y1015714D01*
X32189286Y1051429D01*
X32510715Y1301429D02*
X32439286Y1265714D01*
X32296429Y1265714D01*
X32225001Y1301429D01*
X32189286Y1337143D01*
X32153572Y1408571D01*
X32153572Y1622857D01*
X32189286Y1694286D01*
X32225001Y1730000D01*
X32296429Y1765714D01*
X32439286Y1765714D01*
X32510715Y1730000D01*
X32867857Y1265714D02*
X32867857Y2015714D01*
X33189286Y1265714D02*
X33189286Y1658571D01*
X33153572Y1730000D01*
X33082143Y1765714D01*
X32975000Y1765714D01*
X32903572Y1730000D01*
X32867857Y1694286D01*
X33439286Y1765714D02*
X33725000Y1765714D01*
X33546428Y2015714D02*
X33546428Y1372857D01*
X33582143Y1301429D01*
X33653571Y1265714D01*
X33725000Y1265714D01*
X32096428Y3815714D02*
X32096428Y4565714D01*
X32346428Y4030000D01*
X32596428Y4565714D01*
X32596428Y3815714D01*
X32953571Y3815714D02*
X32953571Y4565714D01*
X33739286Y3887143D02*
X33703572Y3851429D01*
X33596429Y3815714D01*
X33525000Y3815714D01*
X33417857Y3851429D01*
X33346429Y3922857D01*
X33310714Y3994286D01*
X33275000Y4137143D01*
X33275000Y4244286D01*
X33310714Y4387143D01*
X33346429Y4458571D01*
X33417857Y4530000D01*
X33525000Y4565714D01*
X33596429Y4565714D01*
X33703572Y4530000D01*
X33739286Y4494286D01*
X4114286Y49251429D02*
X4221429Y49215714D01*
X4400000Y49215714D01*
X4471429Y49251429D01*
X4507143Y49287143D01*
X4542858Y49358571D01*
X4542858Y49430000D01*
X4507143Y49501429D01*
X4471429Y49537143D01*
X4400000Y49572857D01*
X4257143Y49608571D01*
X4185715Y49644286D01*
X4150000Y49680000D01*
X4114286Y49751429D01*
X4114286Y49822857D01*
X4150000Y49894286D01*
X4185715Y49930000D01*
X4257143Y49965714D01*
X4435715Y49965714D01*
X4542858Y49930000D01*
X4792858Y49715714D02*
X4935715Y49215714D01*
X5078572Y49572857D01*
X5221429Y49215714D01*
X5364286Y49715714D01*
X5650000Y49215714D02*
X5650000Y49715714D01*
X5650000Y49965714D02*
X5614286Y49930000D01*
X5650000Y49894286D01*
X5685715Y49930000D01*
X5650000Y49965714D01*
X5650000Y49894286D01*
X5900001Y49715714D02*
X6185715Y49715714D01*
X6007143Y49965714D02*
X6007143Y49322857D01*
X6042858Y49251429D01*
X6114286Y49215714D01*
X6185715Y49215714D01*
X6757143Y49251429D02*
X6685714Y49215714D01*
X6542857Y49215714D01*
X6471429Y49251429D01*
X6435714Y49287143D01*
X6400000Y49358571D01*
X6400000Y49572857D01*
X6435714Y49644286D01*
X6471429Y49680000D01*
X6542857Y49715714D01*
X6685714Y49715714D01*
X6757143Y49680000D01*
X7078571Y49215714D02*
X7078571Y49965714D01*
X7400000Y49215714D02*
X7400000Y49608571D01*
X7364286Y49680000D01*
X7292857Y49715714D01*
X7185714Y49715714D01*
X7114286Y49680000D01*
X7078571Y49644286D01*
X4221428Y46815714D02*
X4221428Y47565714D01*
X4471428Y47030000D01*
X4721428Y47565714D01*
X4721428Y46815714D01*
X5078571Y46815714D02*
X5078571Y47565714D01*
X5864286Y46887143D02*
X5828572Y46851429D01*
X5721429Y46815714D01*
X5650000Y46815714D01*
X5542857Y46851429D01*
X5471429Y46922857D01*
X5435714Y46994286D01*
X5400000Y47137143D01*
X5400000Y47244286D01*
X5435714Y47387143D01*
X5471429Y47458571D01*
X5542857Y47530000D01*
X5650000Y47565714D01*
X5721429Y47565714D01*
X5828572Y47530000D01*
X5864286Y47494286D01*
X47989286Y49190714D02*
X47739286Y49547857D01*
X47560714Y49190714D02*
X47560714Y49940714D01*
X47846429Y49940714D01*
X47917857Y49905000D01*
X47953572Y49869286D01*
X47989286Y49797857D01*
X47989286Y49690714D01*
X47953572Y49619286D01*
X47917857Y49583571D01*
X47846429Y49547857D01*
X47560714Y49547857D01*
X48275000Y49226429D02*
X48382143Y49190714D01*
X48560714Y49190714D01*
X48632143Y49226429D01*
X48667857Y49262143D01*
X48703572Y49333571D01*
X48703572Y49405000D01*
X48667857Y49476429D01*
X48632143Y49512143D01*
X48560714Y49547857D01*
X48417857Y49583571D01*
X48346429Y49619286D01*
X48310714Y49655000D01*
X48275000Y49726429D01*
X48275000Y49797857D01*
X48310714Y49869286D01*
X48346429Y49905000D01*
X48417857Y49940714D01*
X48596429Y49940714D01*
X48703572Y49905000D01*
X48917858Y49940714D02*
X49346429Y49940714D01*
X49132143Y49190714D02*
X49132143Y49940714D01*
X47478572Y34455000D02*
X47407143Y34490714D01*
X47300000Y34490714D01*
X47192857Y34455000D01*
X47121429Y34383571D01*
X47085714Y34312143D01*
X47050000Y34169286D01*
X47050000Y34062143D01*
X47085714Y33919286D01*
X47121429Y33847857D01*
X47192857Y33776429D01*
X47300000Y33740714D01*
X47371429Y33740714D01*
X47478572Y33776429D01*
X47514286Y33812143D01*
X47514286Y34062143D01*
X47371429Y34062143D01*
X47835714Y33740714D02*
X47835714Y34490714D01*
X48264286Y33740714D01*
X48264286Y34490714D01*
X48621428Y33740714D02*
X48621428Y34490714D01*
X48800000Y34490714D01*
X48907143Y34455000D01*
X48978571Y34383571D01*
X49014286Y34312143D01*
X49050000Y34169286D01*
X49050000Y34062143D01*
X49014286Y33919286D01*
X48978571Y33847857D01*
X48907143Y33776429D01*
X48800000Y33740714D01*
X48621428Y33740714D01*
X47528572Y31955000D02*
X47457143Y31990714D01*
X47350000Y31990714D01*
X47242857Y31955000D01*
X47171429Y31883571D01*
X47135714Y31812143D01*
X47100000Y31669286D01*
X47100000Y31562143D01*
X47135714Y31419286D01*
X47171429Y31347857D01*
X47242857Y31276429D01*
X47350000Y31240714D01*
X47421429Y31240714D01*
X47528572Y31276429D01*
X47564286Y31312143D01*
X47564286Y31562143D01*
X47421429Y31562143D01*
X47885714Y31240714D02*
X47885714Y31990714D01*
X48314286Y31240714D01*
X48314286Y31990714D01*
X48671428Y31240714D02*
X48671428Y31990714D01*
X48850000Y31990714D01*
X48957143Y31955000D01*
X49028571Y31883571D01*
X49064286Y31812143D01*
X49100000Y31669286D01*
X49100000Y31562143D01*
X49064286Y31419286D01*
X49028571Y31347857D01*
X48957143Y31276429D01*
X48850000Y31240714D01*
X48671428Y31240714D01*
X47753572Y37265714D02*
X48003572Y36515714D01*
X48253572Y37265714D01*
X48503571Y36515714D02*
X48503571Y37265714D01*
X48860714Y36515714D02*
X48860714Y37265714D01*
X49289286Y36515714D01*
X49289286Y37265714D01*
X47646428Y51740714D02*
X47646428Y52490714D01*
X47825000Y52490714D01*
X47932143Y52455000D01*
X48003571Y52383571D01*
X48039286Y52312143D01*
X48075000Y52169286D01*
X48075000Y52062143D01*
X48039286Y51919286D01*
X48003571Y51847857D01*
X47932143Y51776429D01*
X47825000Y51740714D01*
X47646428Y51740714D01*
X48360714Y51955000D02*
X48717857Y51955000D01*
X48289286Y51740714D02*
X48539286Y52490714D01*
X48789286Y51740714D01*
X48932143Y52490714D02*
X49360714Y52490714D01*
X49146428Y51740714D02*
X49146428Y52490714D01*
X47953572Y54337143D02*
X47917858Y54301429D01*
X47810715Y54265714D01*
X47739286Y54265714D01*
X47632143Y54301429D01*
X47560715Y54372857D01*
X47525000Y54444286D01*
X47489286Y54587143D01*
X47489286Y54694286D01*
X47525000Y54837143D01*
X47560715Y54908571D01*
X47632143Y54980000D01*
X47739286Y55015714D01*
X47810715Y55015714D01*
X47917858Y54980000D01*
X47953572Y54944286D01*
X48632143Y54265714D02*
X48275000Y54265714D01*
X48275000Y55015714D01*
X48882143Y54265714D02*
X48882143Y55015714D01*
X49310715Y54265714D02*
X48989286Y54694286D01*
X49310715Y55015714D02*
X48882143Y54587143D01*
X1095000Y2308571D02*
X1130714Y2380000D01*
X1130714Y2487143D01*
X1095000Y2594286D01*
X1023571Y2665714D01*
X952143Y2701429D01*
X809286Y2737143D01*
X702143Y2737143D01*
X559286Y2701429D01*
X487857Y2665714D01*
X416429Y2594286D01*
X380714Y2487143D01*
X380714Y2415714D01*
X416429Y2308571D01*
X452143Y2272857D01*
X702143Y2272857D01*
X702143Y2415714D01*
X380714Y1951429D02*
X1130714Y1951429D01*
X380714Y1522857D01*
X1130714Y1522857D01*
X380714Y1165715D02*
X1130714Y1165715D01*
X1130714Y987143D01*
X1095000Y880000D01*
X1023571Y808572D01*
X952143Y772857D01*
X809286Y737143D01*
X702143Y737143D01*
X559286Y772857D01*
X487857Y808572D01*
X416429Y880000D01*
X380714Y987143D01*
X380714Y1165715D01*
D12*
X46800000Y9855000D02*
X39400000Y9855000D01*
X39400000Y9855000D02*
X39400000Y-7770000D01*
X39400000Y-7770000D02*
X46800000Y-7820000D01*
X46800000Y-7820000D02*
X46800000Y9855000D01*
D13*
X36740000Y-2820000D02*
X36740000Y-4090000D01*
X36740000Y-4090000D02*
X36105000Y-4725000D01*
X34835000Y-4725000D02*
X34200000Y-4090000D01*
X36105000Y355000D02*
X36740000Y-280000D01*
X36740000Y-280000D02*
X36740000Y-1550000D01*
X36740000Y-1550000D02*
X36105000Y-2185000D01*
X34835000Y-2185000D02*
X34200000Y-1550000D01*
X34200000Y-1550000D02*
X34200000Y-280000D01*
X34200000Y-280000D02*
X34835000Y355000D01*
X36740000Y-2820000D02*
X36105000Y-2185000D01*
X34835000Y-2185000D02*
X34200000Y-2820000D01*
X34200000Y-4090000D02*
X34200000Y-2820000D01*
X36740000Y4800000D02*
X36740000Y3530000D01*
X36740000Y3530000D02*
X36105000Y2895000D01*
X34835000Y2895000D02*
X34200000Y3530000D01*
X36105000Y2895000D02*
X36740000Y2260000D01*
X36740000Y2260000D02*
X36740000Y990000D01*
X36740000Y990000D02*
X36105000Y355000D01*
X34835000Y355000D02*
X34200000Y990000D01*
X34200000Y990000D02*
X34200000Y2260000D01*
X34200000Y2260000D02*
X34835000Y2895000D01*
X36105000Y5435000D02*
X34835000Y5435000D01*
X36740000Y4800000D02*
X36105000Y5435000D01*
X34835000Y5435000D02*
X34200000Y4800000D01*
X34200000Y3530000D02*
X34200000Y4800000D01*
X36105000Y-4725000D02*
X34835000Y-4725000D01*
D14*
X24195500Y7132000D02*
X20004500Y7132000D01*
X20004500Y7132000D02*
X19052000Y7132000D01*
X19052000Y7132000D02*
X19052000Y13228000D01*
X19052000Y13228000D02*
X25148000Y13228000D01*
X25148000Y13228000D02*
X25148000Y8084500D01*
X25148000Y8084500D02*
X24195500Y7132000D01*
D13*
X30526416Y13095848D02*
X31374152Y13943584D01*
X33635380Y14369248D02*
X34059248Y13945380D01*
X33633584Y11684152D02*
X32785848Y10836416D01*
X30100752Y10834620D02*
X30524620Y10410752D01*
X42037600Y16669740D02*
X42037600Y18290260D01*
X44882400Y18290260D02*
X44882400Y16669740D01*
X44785880Y18290260D02*
X44882400Y18290260D01*
X42037600Y18290260D02*
X42134120Y18290260D01*
X42134120Y16669740D02*
X42037600Y16669740D01*
X44882400Y16669740D02*
X44785880Y16669740D01*
D14*
X44495345Y18011000D02*
G75*
G03X44495345Y18011000I-25145J0D01*
G01*
D10*
X14470000Y52650000D02*
X14470000Y58850000D01*
X14470000Y58850000D02*
X4670000Y58850000D01*
X4670000Y58850000D02*
X4670000Y52650000D01*
X4670000Y52650000D02*
X14470000Y52650000D01*
X11260000Y30340000D02*
X10560000Y30340000D01*
X10560000Y31540000D02*
X11260000Y31540000D01*
X17470000Y27870000D02*
X16770000Y27870000D01*
X16770000Y29070000D02*
X17470000Y29070000D01*
X25530000Y20610000D02*
X25530000Y19910000D01*
X24330000Y19910000D02*
X24330000Y20610000D01*
X10950000Y41390000D02*
X11650000Y41390000D01*
X11650000Y40190000D02*
X10950000Y40190000D01*
X19780000Y37990000D02*
X19780000Y38690000D01*
X20980000Y38690000D02*
X20980000Y37990000D01*
X8150000Y39000000D02*
X8850000Y39000000D01*
X8850000Y37800000D02*
X8150000Y37800000D01*
X16460000Y36690000D02*
X17160000Y36690000D01*
X17160000Y35490000D02*
X16460000Y35490000D01*
X11060000Y28000000D02*
X11060000Y28700000D01*
X12260000Y28700000D02*
X12260000Y28000000D01*
X19550000Y37200000D02*
X19550000Y36500000D01*
X18350000Y36500000D02*
X18350000Y37200000D01*
X25720000Y25660000D02*
X25720000Y26360000D01*
X26920000Y26360000D02*
X26920000Y25660000D01*
X23510000Y33270000D02*
X24210000Y33270000D01*
X24210000Y32070000D02*
X23510000Y32070000D01*
X24210000Y510000D02*
X1350000Y510000D01*
X1350000Y510000D02*
X1350000Y3050000D01*
X1350000Y3050000D02*
X24210000Y3050000D01*
X27030000Y230000D02*
X25480000Y230000D01*
X24210000Y510000D02*
X24210000Y3050000D01*
X25480000Y3330000D02*
X27030000Y3330000D01*
X27030000Y3330000D02*
X27030000Y230000D01*
X38000000Y25330000D02*
X37300000Y25330000D01*
X37300000Y26530000D02*
X38000000Y26530000D01*
X8910660Y33220080D02*
X8610940Y33469000D01*
X8610940Y33469000D02*
X8461080Y33570600D01*
X8461080Y33570600D02*
X9309440Y33570600D01*
X7409520Y32869560D02*
X9210380Y32869560D01*
X7409520Y32869560D02*
X7409520Y33519800D01*
X7409520Y37370440D02*
X9210380Y37370440D01*
X7409520Y37370440D02*
X7409520Y36720200D01*
X17290660Y31100080D02*
X16990940Y31349000D01*
X16990940Y31349000D02*
X16841080Y31450600D01*
X16841080Y31450600D02*
X17689440Y31450600D01*
X15789520Y30749560D02*
X17590380Y30749560D01*
X15789520Y30749560D02*
X15789520Y31399800D01*
X15789520Y35250440D02*
X17590380Y35250440D01*
X15789520Y35250440D02*
X15789520Y34600200D01*
X24670660Y27870080D02*
X24370940Y28119000D01*
X24370940Y28119000D02*
X24221080Y28220600D01*
X24221080Y28220600D02*
X25069440Y28220600D01*
X23169520Y27519560D02*
X24970380Y27519560D01*
X23169520Y27519560D02*
X23169520Y28169800D01*
X23169520Y32020440D02*
X24970380Y32020440D01*
X23169520Y32020440D02*
X23169520Y31370200D01*
X25860000Y5665000D02*
X25360000Y5665000D01*
X25360000Y4715000D02*
X25860000Y4715000D01*
X25860000Y4515000D02*
X25360000Y4515000D01*
X25360000Y3565000D02*
X25860000Y3565000D01*
X16975000Y7630000D02*
X16975000Y8130000D01*
X16025000Y8130000D02*
X16025000Y7630000D01*
X15835000Y7630000D02*
X15835000Y8130000D01*
X14885000Y8130000D02*
X14885000Y7630000D01*
X29585000Y7480000D02*
X29585000Y7980000D01*
X28635000Y7980000D02*
X28635000Y7480000D01*
X30655000Y7480000D02*
X30655000Y7980000D01*
X29705000Y7980000D02*
X29705000Y7480000D01*
X14665000Y7630000D02*
X14665000Y8130000D01*
X13715000Y8130000D02*
X13715000Y7630000D01*
X13425000Y7630000D02*
X13425000Y8130000D01*
X12475000Y8130000D02*
X12475000Y7630000D01*
X32790901Y10202652D02*
X32437348Y9849099D01*
X33109099Y9177348D02*
X33462652Y9530901D01*
X31720901Y16502652D02*
X31367348Y16149099D01*
X32039099Y15477348D02*
X32392652Y15830901D01*
X22620000Y15985000D02*
X22120000Y15985000D01*
X22120000Y15035000D02*
X22620000Y15035000D01*
X22620000Y16935000D02*
X22120000Y16935000D01*
X22120000Y15985000D02*
X22620000Y15985000D01*
X17845000Y13480000D02*
X17845000Y12980000D01*
X18795000Y12980000D02*
X18795000Y13480000D01*
X16705000Y13480000D02*
X16705000Y12980000D01*
X17655000Y12980000D02*
X17655000Y13480000D01*
X21220000Y-35000D02*
X20720000Y-35000D01*
X20720000Y-985000D02*
X21220000Y-985000D01*
X28540000Y-6945000D02*
X29040000Y-6945000D01*
X29040000Y-5995000D02*
X28540000Y-5995000D01*
X24050000Y53120000D02*
X24050000Y53820000D01*
X25250000Y53820000D02*
X25250000Y53120000D01*
X11060000Y23480000D02*
X11060000Y24180000D01*
X12260000Y24180000D02*
X12260000Y23480000D01*
X15760000Y23040000D02*
X15760000Y23740000D01*
X16960000Y23740000D02*
X16960000Y23040000D01*
X22430000Y21610000D02*
X23130000Y21610000D01*
X23130000Y20410000D02*
X22430000Y20410000D01*
X23360000Y47600000D02*
X23860000Y47600000D01*
X23860000Y48550000D02*
X23360000Y48550000D01*
X6930000Y40595000D02*
X7430000Y40595000D01*
X7430000Y41545000D02*
X6930000Y41545000D01*
X19835000Y24320000D02*
X19835000Y23820000D01*
X20785000Y23820000D02*
X20785000Y24320000D01*
X39475000Y32920000D02*
X39475000Y32420000D01*
X40425000Y32420000D02*
X40425000Y32920000D01*
X22310000Y34705000D02*
X22810000Y34705000D01*
X22810000Y35655000D02*
X22310000Y35655000D01*
X46300000Y14645000D02*
X46800000Y14645000D01*
X46800000Y15595000D02*
X46300000Y15595000D01*
X8190000Y49960000D02*
X8190000Y50660000D01*
X9390000Y50660000D02*
X9390000Y49960000D01*
X10440000Y50575000D02*
X10940000Y50575000D01*
X10940000Y51525000D02*
X10440000Y51525000D01*
X46865000Y19460000D02*
X46865000Y19960000D01*
X45915000Y19960000D02*
X45915000Y19460000D01*
X37130000Y7975000D02*
X37630000Y7975000D01*
X37630000Y8925000D02*
X37130000Y8925000D01*
X21005000Y42250000D02*
X21005000Y41750000D01*
X21955000Y41750000D02*
X21955000Y42250000D01*
X13860000Y47965000D02*
X14360000Y47965000D01*
X14360000Y48915000D02*
X13860000Y48915000D01*
X18410000Y42095000D02*
X18910000Y42095000D01*
X18910000Y43045000D02*
X18410000Y43045000D01*
X40400000Y13705000D02*
X40900000Y13705000D01*
X40900000Y14655000D02*
X40400000Y14655000D01*
X36060000Y7600000D02*
X36060000Y6900000D01*
X34860000Y6900000D02*
X34860000Y7600000D01*
X17800000Y7905000D02*
X18300000Y7905000D01*
X18300000Y8955000D02*
X17800000Y8955000D01*
X42710000Y14115000D02*
X43210000Y14115000D01*
X43210000Y15165000D02*
X42710000Y15165000D01*
X41745000Y15490000D02*
X41745000Y15990000D01*
X40695000Y15990000D02*
X40695000Y15490000D01*
X45110000Y20785000D02*
X44610000Y20785000D01*
X44610000Y19735000D02*
X45110000Y19735000D01*
X6790000Y50525000D02*
X7290000Y50525000D01*
X7290000Y51575000D02*
X6790000Y51575000D01*
X46525000Y16380000D02*
X46525000Y16880000D01*
X45475000Y16880000D02*
X45475000Y16380000D01*
X46905000Y17790000D02*
X46905000Y17290000D01*
X47955000Y17290000D02*
X47955000Y17790000D01*
X37355000Y6710000D02*
X37355000Y7210000D01*
X36305000Y7210000D02*
X36305000Y6710000D01*
X42800000Y53905000D02*
X42800000Y54405000D01*
X41750000Y54405000D02*
X41750000Y53905000D01*
X44550000Y52805000D02*
X44550000Y52305000D01*
X45600000Y52305000D02*
X45600000Y52805000D01*
X26125000Y51795000D02*
X26125000Y51020000D01*
X23175000Y48845000D02*
X23175000Y49620000D01*
X26125080Y48850000D02*
X26125080Y49625000D01*
X23245000Y51785000D02*
X24020000Y51785000D01*
X23175000Y48845000D02*
X23950000Y48845000D01*
X26125000Y48844920D02*
X25350000Y48844920D01*
X26125000Y51795000D02*
X25350000Y51795000D01*
X17905000Y19685000D02*
X17905000Y20460000D01*
X20855000Y22635000D02*
X20855000Y21860000D01*
X17904920Y22630000D02*
X17904920Y21855000D01*
X20785000Y19695000D02*
X20010000Y19695000D01*
X20855000Y22635000D02*
X20080000Y22635000D01*
X17905000Y22635080D02*
X18680000Y22635080D01*
X17905000Y19685000D02*
X18680000Y19685000D01*
X10085000Y-40000D02*
X9585000Y-40000D01*
X9585000Y-990000D02*
X10085000Y-990000D01*
X15685000Y-40000D02*
X15185000Y-40000D01*
X15185000Y-990000D02*
X15685000Y-990000D01*
X4410000Y-40000D02*
X3910000Y-40000D01*
X3910000Y-990000D02*
X4410000Y-990000D01*
X10860000Y42855000D02*
X11360000Y42855000D01*
X11360000Y43805000D02*
X10860000Y43805000D01*
X23540000Y39205000D02*
X23040000Y39205000D01*
X23040000Y38255000D02*
X23540000Y38255000D01*
X27010000Y33360000D02*
X26310000Y33360000D01*
X26310000Y34560000D02*
X27010000Y34560000D01*
D13*
X22068880Y-2182440D02*
X22068880Y-3777560D01*
X18741120Y-2212440D02*
X18741120Y-3807560D01*
D15*
X22044647Y-2101500D02*
G75*
G03X22044647Y-2101500I-96987J0D01*
G01*
D13*
X16533880Y-2192440D02*
X16533880Y-3787560D01*
X13206120Y-2222440D02*
X13206120Y-3817560D01*
D15*
X16509647Y-2111500D02*
G75*
G03X16509647Y-2111500I-96987J0D01*
G01*
D13*
X10933880Y-2192440D02*
X10933880Y-3787560D01*
X7606120Y-2222440D02*
X7606120Y-3817560D01*
D15*
X10909647Y-2111500D02*
G75*
G03X10909647Y-2111500I-96987J0D01*
G01*
D13*
X5258880Y-2192440D02*
X5258880Y-3787560D01*
X1931120Y-2222440D02*
X1931120Y-3817560D01*
D15*
X5234647Y-2111500D02*
G75*
G03X5234647Y-2111500I-96987J0D01*
G01*
D10*
X23495000Y-3880000D02*
X23495000Y-3380000D01*
X22445000Y-3380000D02*
X22445000Y-3880000D01*
X11760000Y-4615000D02*
X12260000Y-4615000D01*
X12260000Y-3565000D02*
X11760000Y-3565000D01*
X17340000Y-4615000D02*
X17840000Y-4615000D01*
X17840000Y-3565000D02*
X17340000Y-3565000D01*
X6085000Y-4615000D02*
X6585000Y-4615000D01*
X6585000Y-3565000D02*
X6085000Y-3565000D01*
D13*
X19221120Y-7297560D02*
X19221120Y-5702440D01*
X21618880Y-7297560D02*
X21618880Y-5702440D01*
D15*
X18989327Y-7378500D02*
G75*
G03X18989327Y-7378500I-96987J0D01*
G01*
D10*
X27830000Y39425000D02*
X28330000Y39425000D01*
X28330000Y40375000D02*
X27830000Y40375000D01*
X29570960Y-3079220D02*
X29570960Y-2469620D01*
X29570960Y-2469620D02*
X29139160Y-2459460D01*
X7530000Y-6790000D02*
X7830000Y-6790000D01*
X7830000Y-6790000D02*
X7830000Y-7090000D01*
X9730000Y-5890000D02*
X7530000Y-5890000D01*
X7530000Y-5890000D02*
X7530000Y-7090000D01*
X7530000Y-7090000D02*
X9730000Y-7090000D01*
X9730000Y-7090000D02*
X9730000Y-5890000D01*
X13120000Y-6790000D02*
X13420000Y-6790000D01*
X13420000Y-6790000D02*
X13420000Y-7090000D01*
X15320000Y-5890000D02*
X13120000Y-5890000D01*
X13120000Y-5890000D02*
X13120000Y-7090000D01*
X13120000Y-7090000D02*
X15320000Y-7090000D01*
X15320000Y-7090000D02*
X15320000Y-5890000D01*
X1850000Y-6790000D02*
X2150000Y-6790000D01*
X2150000Y-6790000D02*
X2150000Y-7090000D01*
X4050000Y-5890000D02*
X1850000Y-5890000D01*
X1850000Y-5890000D02*
X1850000Y-7090000D01*
X1850000Y-7090000D02*
X4050000Y-7090000D01*
X4050000Y-7090000D02*
X4050000Y-5890000D01*
X28230000Y44010000D02*
X27530000Y44010000D01*
X27530000Y45210000D02*
X28230000Y45210000D01*
X20160000Y51690000D02*
X19460000Y51690000D01*
X19460000Y52890000D02*
X20160000Y52890000D01*
X14600000Y18205000D02*
X13900000Y18205000D01*
X13900000Y19405000D02*
X14600000Y19405000D01*
X12760000Y43980000D02*
X12060000Y43980000D01*
X12060000Y45180000D02*
X12760000Y45180000D01*
X23340000Y41060000D02*
X23340000Y40360000D01*
X22140000Y40360000D02*
X22140000Y41060000D01*
X14270000Y46560000D02*
X13570000Y46560000D01*
X13570000Y47760000D02*
X14270000Y47760000D01*
X15760000Y49150000D02*
X15060000Y49150000D01*
X15060000Y50350000D02*
X15760000Y50350000D01*
X17280000Y51700000D02*
X16580000Y51700000D01*
X16580000Y52900000D02*
X17280000Y52900000D01*
X20360000Y46390000D02*
X19660000Y46390000D01*
X19660000Y47590000D02*
X20360000Y47590000D01*
X6920000Y39405000D02*
X7420000Y39405000D01*
X7420000Y40355000D02*
X6920000Y40355000D01*
X15260000Y36795000D02*
X15760000Y36795000D01*
X15760000Y37745000D02*
X15260000Y37745000D01*
X22310000Y33555000D02*
X22810000Y33555000D01*
X22810000Y34505000D02*
X22310000Y34505000D01*
X15260000Y37945000D02*
X15760000Y37945000D01*
X15760000Y38895000D02*
X15260000Y38895000D01*
X15960000Y24940000D02*
X15260000Y24940000D01*
X15260000Y26140000D02*
X15960000Y26140000D01*
X10860000Y25745000D02*
X11360000Y25745000D01*
X11360000Y26695000D02*
X10860000Y26695000D01*
X6930000Y41725000D02*
X7430000Y41725000D01*
X7430000Y42675000D02*
X6930000Y42675000D01*
X15260000Y39065000D02*
X15760000Y39065000D01*
X15760000Y40015000D02*
X15260000Y40015000D01*
X23900000Y36655000D02*
X23400000Y36655000D01*
X23400000Y35705000D02*
X23900000Y35705000D01*
X13970000Y46335000D02*
X13470000Y46335000D01*
X13470000Y45385000D02*
X13970000Y45385000D01*
X24820000Y22740000D02*
X25820000Y22740000D01*
X25820000Y24440000D02*
X24820000Y24440000D01*
X15360000Y50575000D02*
X15860000Y50575000D01*
X15860000Y51525000D02*
X15360000Y51525000D01*
X20010000Y46245000D02*
X19510000Y46245000D01*
X19510000Y45295000D02*
X20010000Y45295000D01*
X29820000Y47175000D02*
X30320000Y47175000D01*
X30320000Y48125000D02*
X29820000Y48125000D01*
X21370000Y49510000D02*
X21370000Y48810000D01*
X20170000Y48810000D02*
X20170000Y49510000D01*
X28080000Y50920000D02*
X28780000Y50920000D01*
X28780000Y49720000D02*
X28080000Y49720000D01*
X13350000Y12030000D02*
X14050000Y12030000D01*
X14050000Y10830000D02*
X13350000Y10830000D01*
X26600000Y37015000D02*
X27100000Y37015000D01*
X27100000Y37965000D02*
X26600000Y37965000D01*
X10475000Y17830000D02*
X10475000Y17330000D01*
X11425000Y17330000D02*
X11425000Y17830000D01*
X9100000Y14530000D02*
X9600000Y14530000D01*
X9600000Y15480000D02*
X9100000Y15480000D01*
X10860000Y31675000D02*
X11360000Y31675000D01*
X11360000Y32625000D02*
X10860000Y32625000D01*
X16760000Y27650000D02*
X17460000Y27650000D01*
X17460000Y26450000D02*
X16760000Y26450000D01*
X18660000Y30295000D02*
X18160000Y30295000D01*
X18160000Y29345000D02*
X18660000Y29345000D01*
X11035000Y38710000D02*
X11035000Y39210000D01*
X10085000Y39210000D02*
X10085000Y38710000D01*
X25845000Y21810000D02*
X25845000Y21310000D01*
X26795000Y21310000D02*
X26795000Y21810000D01*
X10860000Y41655000D02*
X11360000Y41655000D01*
X11360000Y42605000D02*
X10860000Y42605000D01*
X21940000Y37125000D02*
X22440000Y37125000D01*
X22440000Y38075000D02*
X21940000Y38075000D01*
X26620000Y32195000D02*
X27120000Y32195000D01*
X27120000Y33145000D02*
X26620000Y33145000D01*
X20030000Y41925000D02*
X19530000Y41925000D01*
X19530000Y40975000D02*
X20030000Y40975000D01*
X29480000Y41720000D02*
X29480000Y42720000D01*
X27780000Y42720000D02*
X27780000Y41720000D01*
X19695000Y43920000D02*
X19695000Y44420000D01*
X18745000Y44420000D02*
X18745000Y43920000D01*
X29130000Y45310000D02*
X30130000Y45310000D01*
X30130000Y47010000D02*
X29130000Y47010000D01*
X11000000Y14105000D02*
X11000000Y13605000D01*
X11950000Y13605000D02*
X11950000Y14105000D01*
X10425000Y16330000D02*
X10425000Y16830000D01*
X9375000Y16830000D02*
X9375000Y16330000D01*
D16*
X52595802Y-6190000D02*
G75*
G03X52595802Y-6190000I-635802J0D01*
G01*
X2685802Y58160000D02*
G75*
G03X2685802Y58160000I-635802J0D01*
G01*
D10*
X23810000Y13750000D02*
X23810000Y14500000D01*
X23370000Y14130000D02*
X24270000Y14130000D01*
X28430000Y14440000D02*
X24330000Y14440000D01*
X28430000Y17440000D02*
X24330000Y17440000D01*
X13016023Y12665000D02*
G75*
G03X13016023Y12665000I-86023J0D01*
G01*
X14900000Y13605000D02*
X14900000Y14905000D01*
X12600000Y13030000D02*
X12600000Y14905000D01*
X34100000Y44560000D02*
X34100000Y45260000D01*
X35300000Y45260000D02*
X35300000Y44560000D01*
X35100000Y48420000D02*
X35800000Y48420000D01*
X35800000Y47220000D02*
X35100000Y47220000D01*
X35100000Y43340000D02*
X35800000Y43340000D01*
X35800000Y42140000D02*
X35100000Y42140000D01*
X27100000Y52130000D02*
X26400000Y52130000D01*
X26400000Y53330000D02*
X27100000Y53330000D01*
X17260000Y17710000D02*
X17260000Y18410000D01*
X18460000Y18410000D02*
X18460000Y17710000D01*
X26710000Y54745000D02*
X26210000Y54745000D01*
X26210000Y53695000D02*
X26710000Y53695000D01*
X46035000Y31920000D02*
X46035000Y32420000D01*
X45085000Y32420000D02*
X45085000Y31920000D01*
X43680000Y27755000D02*
X44180000Y27755000D01*
X44180000Y28705000D02*
X43680000Y28705000D01*
X39770000Y30695000D02*
X39770000Y29945000D01*
X40210000Y30315000D02*
X39310000Y30315000D01*
X35150000Y30005000D02*
X39250000Y30005000D01*
X35150000Y27005000D02*
X39250000Y27005000D01*
X44080000Y29995000D02*
X43580000Y29995000D01*
X43580000Y28945000D02*
X44080000Y28945000D01*
X43580000Y30285000D02*
X44080000Y30285000D01*
X44080000Y31335000D02*
X43580000Y31335000D01*
X45510000Y38310000D02*
X45510000Y37310000D01*
X47210000Y37310000D02*
X47210000Y38310000D01*
X43430000Y38310000D02*
X43430000Y37310000D01*
X45130000Y37310000D02*
X45130000Y38310000D01*
X37900000Y33110000D02*
X36900000Y33110000D01*
X36900000Y31410000D02*
X37900000Y31410000D01*
X40900000Y34230000D02*
X35400000Y34230000D01*
X35400000Y34230000D02*
X35400000Y38730000D01*
X35400000Y38730000D02*
X40900000Y38730000D01*
X40900000Y38730000D02*
X40900000Y34230000D01*
X35900000Y19730000D02*
X36900000Y19730000D01*
X36900000Y21430000D02*
X35900000Y21430000D01*
X13100000Y16430000D02*
X12400000Y16430000D01*
X12400000Y17630000D02*
X13100000Y17630000D01*
X28000000Y36150000D02*
X28000000Y35450000D01*
X26800000Y35450000D02*
X26800000Y36150000D01*
X28330000Y38060000D02*
X27630000Y38060000D01*
X27630000Y39260000D02*
X28330000Y39260000D01*
X31220000Y49920000D02*
X31220000Y49220000D01*
X30020000Y49220000D02*
X30020000Y49920000D01*
X29580000Y2240000D02*
X30580000Y2240000D01*
X30580000Y3940000D02*
X29580000Y3940000D01*
X24350000Y-3680000D02*
X24350000Y-4680000D01*
X26050000Y-4680000D02*
X26050000Y-3680000D01*
X43905000Y34095000D02*
X41755000Y34095000D01*
X44730000Y31845000D02*
X41755000Y31845000D01*
X36849200Y24729820D02*
X37550240Y24729820D01*
X37550240Y24729820D02*
X37550240Y24480900D01*
X37550240Y21930840D02*
X37550240Y21730180D01*
X37550240Y21730180D02*
X36849200Y21730180D01*
X17250000Y12030000D02*
X17950000Y12030000D01*
X17950000Y10830000D02*
X17250000Y10830000D01*
X15050000Y10330000D02*
X15050000Y11030000D01*
X16250000Y11030000D02*
X16250000Y10330000D01*
X44149200Y45954820D02*
X44850240Y45954820D01*
X44850240Y45954820D02*
X44850240Y45705900D01*
X44850240Y43155840D02*
X44850240Y42955180D01*
X44850240Y42955180D02*
X44149200Y42955180D01*
X41900180Y50554200D02*
X41900180Y51255240D01*
X41900180Y51255240D02*
X42149100Y51255240D01*
X44699160Y51255240D02*
X44899820Y51255240D01*
X44899820Y51255240D02*
X44899820Y50554200D01*
X38425180Y53054200D02*
X38425180Y53755240D01*
X38425180Y53755240D02*
X38674100Y53755240D01*
X41224160Y53755240D02*
X41424820Y53755240D01*
X41424820Y53755240D02*
X41424820Y53054200D01*
X40200000Y44205000D02*
X40200000Y43705000D01*
X41250000Y43705000D02*
X41250000Y44205000D01*
X27350000Y13230000D02*
X27350000Y12730000D01*
X28400000Y12730000D02*
X28400000Y13230000D01*
X43650000Y46705000D02*
X44150000Y46705000D01*
X44150000Y47755000D02*
X43650000Y47755000D01*
X41400000Y49305000D02*
X41400000Y49805000D01*
X40350000Y49805000D02*
X40350000Y49305000D01*
X45175000Y46305000D02*
X45175000Y45805000D01*
X46225000Y45805000D02*
X46225000Y46305000D01*
D17*
X19167038Y57160000D02*
G75*
G03X19167038Y57160000I-1347038J0D01*
G01*
X19167038Y57160000D02*
G75*
G03X19167038Y57160000I-1347038J0D01*
G01*
D18*
X18987433Y57160000D02*
G75*
G03X18987433Y57160000I-1167433J0D01*
G01*
X16169000Y57160000D02*
X19471000Y57160000D01*
X17820000Y55509000D02*
X17820000Y58811000D01*
X50840000Y3439000D02*
X50840000Y6741000D01*
X49189000Y5090000D02*
X52491000Y5090000D01*
X52007433Y5090000D02*
G75*
G03X52007433Y5090000I-1167433J0D01*
G01*
D17*
X52187038Y5090000D02*
G75*
G03X52187038Y5090000I-1347038J0D01*
G01*
X52187038Y5090000D02*
G75*
G03X52187038Y5090000I-1347038J0D01*
G01*
D19*
X30000Y-8880000D02*
X53370000Y-8880000D01*
X53370000Y57160000D02*
X50830000Y57160000D01*
X50830000Y57160000D02*
X48290000Y59700000D01*
X30000Y59700000D02*
X30000Y-8880000D01*
X48290000Y59700000D02*
X30000Y59700000D01*
X53370000Y-8880000D02*
X53370000Y57160000D01*
D18*
X1300000Y55890000D02*
X3840000Y55890000D01*
X3840000Y55890000D02*
X3840000Y35570000D01*
X3840000Y35570000D02*
X1300000Y35570000D01*
X1300000Y35570000D02*
X1300000Y55890000D01*
X1300000Y34300000D02*
X3840000Y34300000D01*
X3840000Y34300000D02*
X3840000Y8900000D01*
X3840000Y8900000D02*
X1300000Y8900000D01*
X1300000Y8900000D02*
X1300000Y34300000D01*
X49560000Y17790000D02*
X52100000Y17790000D01*
X52100000Y17790000D02*
X52100000Y38110000D01*
X52100000Y38110000D02*
X49560000Y38110000D01*
X49560000Y38110000D02*
X49560000Y17790000D01*
X52100000Y40650000D02*
X49560000Y40650000D01*
X49560000Y40650000D02*
X49560000Y55890000D01*
X49560000Y55890000D02*
X52100000Y55890000D01*
X52100000Y55890000D02*
X52100000Y40650000D01*
D17*
X3917038Y6360000D02*
G75*
G03X3917038Y6360000I-1347038J0D01*
G01*
X3917038Y6360000D02*
G75*
G03X3917038Y6360000I-1347038J0D01*
G01*
X47097038Y57160000D02*
G75*
G03X47097038Y57160000I-1347038J0D01*
G01*
X47097038Y57160000D02*
G75*
G03X47097038Y57160000I-1347038J0D01*
G01*
D18*
X46917433Y57160000D02*
G75*
G03X46917433Y57160000I-1167433J0D01*
G01*
X44099000Y57160000D02*
X47401000Y57160000D01*
X45750000Y55509000D02*
X45750000Y58811000D01*
X3737433Y6360000D02*
G75*
G03X3737433Y6360000I-1167433J0D01*
G01*
X919000Y6360000D02*
X4221000Y6360000D01*
X2570000Y4709000D02*
X2570000Y8011000D01*
D10*
X26225000Y13230000D02*
X26225000Y12730000D01*
X27275000Y12730000D02*
X27275000Y13230000D01*
X43875000Y-1095000D02*
G75*
G03X43875000Y-1095000I-775000J0D01*
G01*
X43875000Y5905000D02*
G75*
G03X43875000Y5905000I-775000J0D01*
G01*
X22151400Y1932400D02*
X22151400Y1627600D01*
X23728600Y1932400D02*
X23728600Y1627600D01*
X22151400Y1627600D02*
G75*
G03X23728600Y1627600I788600J0D01*
G01*
X23728600Y1932400D02*
G75*
G03X22151400Y1932400I-788600J0D01*
G01*
X19611400Y1932400D02*
X19611400Y1627600D01*
X21188600Y1932400D02*
X21188600Y1627600D01*
X19611400Y1627600D02*
G75*
G03X21188600Y1627600I788600J0D01*
G01*
X21188600Y1932400D02*
G75*
G03X19611400Y1932400I-788600J0D01*
G01*
X17071400Y1932400D02*
X17071400Y1627600D01*
X18648600Y1932400D02*
X18648600Y1627600D01*
X17071400Y1627600D02*
G75*
G03X18648600Y1627600I788600J0D01*
G01*
X18648600Y1932400D02*
G75*
G03X17071400Y1932400I-788600J0D01*
G01*
X14531400Y1932400D02*
X14531400Y1627600D01*
X16108600Y1932400D02*
X16108600Y1627600D01*
X14531400Y1627600D02*
G75*
G03X16108600Y1627600I788600J0D01*
G01*
X16108600Y1932400D02*
G75*
G03X14531400Y1932400I-788600J0D01*
G01*
X11991400Y1932400D02*
X11991400Y1627600D01*
X13568600Y1932400D02*
X13568600Y1627600D01*
X11991400Y1627600D02*
G75*
G03X13568600Y1627600I788600J0D01*
G01*
X13568600Y1932400D02*
G75*
G03X11991400Y1932400I-788600J0D01*
G01*
X9451400Y1932400D02*
X9451400Y1627600D01*
X11028600Y1932400D02*
X11028600Y1627600D01*
X9451400Y1627600D02*
G75*
G03X11028600Y1627600I788600J0D01*
G01*
X11028600Y1932400D02*
G75*
G03X9451400Y1932400I-788600J0D01*
G01*
X6911400Y1932400D02*
X6911400Y1627600D01*
X8488600Y1932400D02*
X8488600Y1627600D01*
X6911400Y1627600D02*
G75*
G03X8488600Y1627600I788600J0D01*
G01*
X8488600Y1932400D02*
G75*
G03X6911400Y1932400I-788600J0D01*
G01*
X4371400Y1932400D02*
X4371400Y1627600D01*
X5948600Y1932400D02*
X5948600Y1627600D01*
X4371400Y1627600D02*
G75*
G03X5948600Y1627600I788600J0D01*
G01*
X5948600Y1932400D02*
G75*
G03X4371400Y1932400I-788600J0D01*
G01*
X1831400Y1932400D02*
X1831400Y1627600D01*
X3408600Y1932400D02*
X3408600Y1627600D01*
X1831400Y1627600D02*
G75*
G03X3408600Y1627600I788600J0D01*
G01*
X3408600Y1932400D02*
G75*
G03X1831400Y1932400I-788600J0D01*
G01*
X51694800Y26680000D02*
G75*
G03X51694800Y26680000I-864800J0D01*
G01*
X51694800Y29220000D02*
G75*
G03X51694800Y29220000I-864800J0D01*
G01*
X51694800Y41920000D02*
G75*
G03X51694800Y41920000I-864800J0D01*
G01*
X51694800Y44460000D02*
G75*
G03X51694800Y44460000I-864800J0D01*
G01*
X51694800Y47000000D02*
G75*
G03X51694800Y47000000I-864800J0D01*
G01*
X51694800Y49540000D02*
G75*
G03X51694800Y49540000I-864800J0D01*
G01*
X51694800Y52080000D02*
G75*
G03X51694800Y52080000I-864800J0D01*
G01*
X51694800Y54620000D02*
G75*
G03X51694800Y54620000I-864800J0D01*
G01*
X3434800Y15250000D02*
G75*
G03X3434800Y15250000I-864800J0D01*
G01*
X3434800Y49540000D02*
G75*
G03X3434800Y49540000I-864800J0D01*
G01*
X3434800Y47000000D02*
G75*
G03X3434800Y47000000I-864800J0D01*
G01*
X3434800Y44460000D02*
G75*
G03X3434800Y44460000I-864800J0D01*
G01*
X3434800Y41920000D02*
G75*
G03X3434800Y41920000I-864800J0D01*
G01*
X3434800Y39380000D02*
G75*
G03X3434800Y39380000I-864800J0D01*
G01*
X3434800Y36840000D02*
G75*
G03X3434800Y36840000I-864800J0D01*
G01*
X3434800Y33030000D02*
G75*
G03X3434800Y33030000I-864800J0D01*
G01*
X3434800Y30490000D02*
G75*
G03X3434800Y30490000I-864800J0D01*
G01*
X3434800Y27950000D02*
G75*
G03X3434800Y27950000I-864800J0D01*
G01*
X3434800Y25410000D02*
G75*
G03X3434800Y25410000I-864800J0D01*
G01*
X3434800Y22870000D02*
G75*
G03X3434800Y22870000I-864800J0D01*
G01*
X3434800Y20330000D02*
G75*
G03X3434800Y20330000I-864800J0D01*
G01*
X51694800Y31760000D02*
G75*
G03X51694800Y31760000I-864800J0D01*
G01*
X51694800Y34300000D02*
G75*
G03X51694800Y34300000I-864800J0D01*
G01*
X3434800Y17790000D02*
G75*
G03X3434800Y17790000I-864800J0D01*
G01*
X51694800Y24140000D02*
G75*
G03X51694800Y24140000I-864800J0D01*
G01*
X3434800Y54620000D02*
G75*
G03X3434800Y54620000I-864800J0D01*
G01*
X3434800Y52080000D02*
G75*
G03X3434800Y52080000I-864800J0D01*
G01*
X51694800Y36840000D02*
G75*
G03X51694800Y36840000I-864800J0D01*
G01*
X4245000Y6360000D02*
G75*
G03X4245000Y6360000I-1675000J0D01*
G01*
X47430000Y57165000D02*
G75*
G03X47430000Y57165000I-1675000J0D01*
G01*
X19490000Y57160000D02*
G75*
G03X19490000Y57160000I-1675000J0D01*
G01*
X52505000Y5095000D02*
G75*
G03X52505000Y5095000I-1675000J0D01*
G01*
X3434800Y12710000D02*
G75*
G03X3434800Y12710000I-864800J0D01*
G01*
X3434800Y10170000D02*
G75*
G03X3434800Y10170000I-864800J0D01*
G01*
X51694800Y21600000D02*
G75*
G03X51694800Y21600000I-864800J0D01*
G01*
X51694800Y19060000D02*
G75*
G03X51694800Y19060000I-864800J0D01*
G01*
D20*
X46533334Y10653810D02*
X46533334Y10296667D01*
X46509524Y10225238D01*
X46461905Y10177619D01*
X46390477Y10153810D01*
X46342858Y10153810D01*
X46747619Y10606190D02*
X46771429Y10630000D01*
X46819048Y10653810D01*
X46938095Y10653810D01*
X46985714Y10630000D01*
X47009524Y10606190D01*
X47033333Y10558571D01*
X47033333Y10510952D01*
X47009524Y10439524D01*
X46723810Y10153810D01*
X47033333Y10153810D01*
X19244048Y6903810D02*
X19244048Y6499048D01*
X19267857Y6451429D01*
X19291667Y6427619D01*
X19339286Y6403810D01*
X19434524Y6403810D01*
X19482143Y6427619D01*
X19505952Y6451429D01*
X19529762Y6499048D01*
X19529762Y6903810D01*
X20029762Y6403810D02*
X19744048Y6403810D01*
X19886905Y6403810D02*
X19886905Y6903810D01*
X19839286Y6832381D01*
X19791667Y6784762D01*
X19744048Y6760952D01*
X29205612Y12813423D02*
X29373971Y12645065D01*
X28902566Y12880767D02*
X29205612Y12813423D01*
X29138268Y13116469D01*
X29794867Y13065961D02*
X29592836Y12863930D01*
X29693852Y12964946D02*
X29340298Y13318499D01*
X29357134Y13234319D01*
X29357134Y13166976D01*
X29340299Y13116468D01*
X41376190Y18274048D02*
X41780952Y18274048D01*
X41828571Y18297857D01*
X41852381Y18321667D01*
X41876190Y18369286D01*
X41876190Y18464524D01*
X41852381Y18512143D01*
X41828571Y18535952D01*
X41780952Y18559762D01*
X41376190Y18559762D01*
X41376190Y18750239D02*
X41376190Y19059762D01*
X41566667Y18893096D01*
X41566667Y18964524D01*
X41590476Y19012143D01*
X41614286Y19035953D01*
X41661905Y19059762D01*
X41780952Y19059762D01*
X41828571Y19035953D01*
X41852381Y19012143D01*
X41876190Y18964524D01*
X41876190Y18821667D01*
X41852381Y18774048D01*
X41828571Y18750239D01*
X15372381Y58219048D02*
X15396190Y58290477D01*
X15396190Y58409524D01*
X15372381Y58457143D01*
X15348571Y58480953D01*
X15300952Y58504762D01*
X15253333Y58504762D01*
X15205714Y58480953D01*
X15181905Y58457143D01*
X15158095Y58409524D01*
X15134286Y58314286D01*
X15110476Y58266667D01*
X15086667Y58242858D01*
X15039048Y58219048D01*
X14991429Y58219048D01*
X14943810Y58242858D01*
X14920000Y58266667D01*
X14896190Y58314286D01*
X14896190Y58433334D01*
X14920000Y58504762D01*
X15396190Y58980952D02*
X15396190Y58695238D01*
X15396190Y58838095D02*
X14896190Y58838095D01*
X14967619Y58790476D01*
X15015238Y58742857D01*
X15039048Y58695238D01*
X8278572Y30801429D02*
X8254762Y30777619D01*
X8183334Y30753810D01*
X8135715Y30753810D01*
X8064286Y30777619D01*
X8016667Y30825238D01*
X7992858Y30872857D01*
X7969048Y30968095D01*
X7969048Y31039524D01*
X7992858Y31134762D01*
X8016667Y31182381D01*
X8064286Y31230000D01*
X8135715Y31253810D01*
X8183334Y31253810D01*
X8254762Y31230000D01*
X8278572Y31206190D01*
X8445239Y31253810D02*
X8754762Y31253810D01*
X8588096Y31063333D01*
X8659524Y31063333D01*
X8707143Y31039524D01*
X8730953Y31015714D01*
X8754762Y30968095D01*
X8754762Y30849048D01*
X8730953Y30801429D01*
X8707143Y30777619D01*
X8659524Y30753810D01*
X8516667Y30753810D01*
X8469048Y30777619D01*
X8445239Y30801429D01*
X9040476Y31039524D02*
X8992857Y31063333D01*
X8969048Y31087143D01*
X8945238Y31134762D01*
X8945238Y31158571D01*
X8969048Y31206190D01*
X8992857Y31230000D01*
X9040476Y31253810D01*
X9135714Y31253810D01*
X9183333Y31230000D01*
X9207143Y31206190D01*
X9230952Y31158571D01*
X9230952Y31134762D01*
X9207143Y31087143D01*
X9183333Y31063333D01*
X9135714Y31039524D01*
X9040476Y31039524D01*
X8992857Y31015714D01*
X8969048Y30991905D01*
X8945238Y30944286D01*
X8945238Y30849048D01*
X8969048Y30801429D01*
X8992857Y30777619D01*
X9040476Y30753810D01*
X9135714Y30753810D01*
X9183333Y30777619D01*
X9207143Y30801429D01*
X9230952Y30849048D01*
X9230952Y30944286D01*
X9207143Y30991905D01*
X9183333Y31015714D01*
X9135714Y31039524D01*
X14678572Y28276429D02*
X14654762Y28252619D01*
X14583334Y28228810D01*
X14535715Y28228810D01*
X14464286Y28252619D01*
X14416667Y28300238D01*
X14392858Y28347857D01*
X14369048Y28443095D01*
X14369048Y28514524D01*
X14392858Y28609762D01*
X14416667Y28657381D01*
X14464286Y28705000D01*
X14535715Y28728810D01*
X14583334Y28728810D01*
X14654762Y28705000D01*
X14678572Y28681190D01*
X15107143Y28562143D02*
X15107143Y28228810D01*
X14988096Y28752619D02*
X14869048Y28395476D01*
X15178572Y28395476D01*
X15583333Y28562143D02*
X15583333Y28228810D01*
X15464286Y28752619D02*
X15345238Y28395476D01*
X15654762Y28395476D01*
X24603572Y18326429D02*
X24579762Y18302619D01*
X24508334Y18278810D01*
X24460715Y18278810D01*
X24389286Y18302619D01*
X24341667Y18350238D01*
X24317858Y18397857D01*
X24294048Y18493095D01*
X24294048Y18564524D01*
X24317858Y18659762D01*
X24341667Y18707381D01*
X24389286Y18755000D01*
X24460715Y18778810D01*
X24508334Y18778810D01*
X24579762Y18755000D01*
X24603572Y18731190D01*
X25032143Y18612143D02*
X25032143Y18278810D01*
X24913096Y18802619D02*
X24794048Y18445476D01*
X25103572Y18445476D01*
X25317857Y18278810D02*
X25413095Y18278810D01*
X25460714Y18302619D01*
X25484524Y18326429D01*
X25532143Y18397857D01*
X25555952Y18493095D01*
X25555952Y18683571D01*
X25532143Y18731190D01*
X25508333Y18755000D01*
X25460714Y18778810D01*
X25365476Y18778810D01*
X25317857Y18755000D01*
X25294048Y18731190D01*
X25270238Y18683571D01*
X25270238Y18564524D01*
X25294048Y18516905D01*
X25317857Y18493095D01*
X25365476Y18469286D01*
X25460714Y18469286D01*
X25508333Y18493095D01*
X25532143Y18516905D01*
X25555952Y18564524D01*
X13078572Y40651429D02*
X13054762Y40627619D01*
X12983334Y40603810D01*
X12935715Y40603810D01*
X12864286Y40627619D01*
X12816667Y40675238D01*
X12792858Y40722857D01*
X12769048Y40818095D01*
X12769048Y40889524D01*
X12792858Y40984762D01*
X12816667Y41032381D01*
X12864286Y41080000D01*
X12935715Y41103810D01*
X12983334Y41103810D01*
X13054762Y41080000D01*
X13078572Y41056190D01*
X13530953Y41103810D02*
X13292858Y41103810D01*
X13269048Y40865714D01*
X13292858Y40889524D01*
X13340477Y40913333D01*
X13459524Y40913333D01*
X13507143Y40889524D01*
X13530953Y40865714D01*
X13554762Y40818095D01*
X13554762Y40699048D01*
X13530953Y40651429D01*
X13507143Y40627619D01*
X13459524Y40603810D01*
X13340477Y40603810D01*
X13292858Y40627619D01*
X13269048Y40651429D01*
X13745238Y41056190D02*
X13769048Y41080000D01*
X13816667Y41103810D01*
X13935714Y41103810D01*
X13983333Y41080000D01*
X14007143Y41056190D01*
X14030952Y41008571D01*
X14030952Y40960952D01*
X14007143Y40889524D01*
X13721429Y40603810D01*
X14030952Y40603810D01*
X19678571Y39133572D02*
X19702381Y39109762D01*
X19726190Y39038334D01*
X19726190Y38990715D01*
X19702381Y38919286D01*
X19654762Y38871667D01*
X19607143Y38847858D01*
X19511905Y38824048D01*
X19440476Y38824048D01*
X19345238Y38847858D01*
X19297619Y38871667D01*
X19250000Y38919286D01*
X19226190Y38990715D01*
X19226190Y39038334D01*
X19250000Y39109762D01*
X19273810Y39133572D01*
X19226190Y39585953D02*
X19226190Y39347858D01*
X19464286Y39324048D01*
X19440476Y39347858D01*
X19416667Y39395477D01*
X19416667Y39514524D01*
X19440476Y39562143D01*
X19464286Y39585953D01*
X19511905Y39609762D01*
X19630952Y39609762D01*
X19678571Y39585953D01*
X19702381Y39562143D01*
X19726190Y39514524D01*
X19726190Y39395477D01*
X19702381Y39347858D01*
X19678571Y39324048D01*
X19392857Y40038333D02*
X19726190Y40038333D01*
X19202381Y39919286D02*
X19559524Y39800238D01*
X19559524Y40109762D01*
X6541667Y38153810D02*
X6303572Y38153810D01*
X6303572Y38653810D01*
X6922619Y38653810D02*
X6827381Y38653810D01*
X6779762Y38630000D01*
X6755953Y38606190D01*
X6708334Y38534762D01*
X6684524Y38439524D01*
X6684524Y38249048D01*
X6708334Y38201429D01*
X6732143Y38177619D01*
X6779762Y38153810D01*
X6875000Y38153810D01*
X6922619Y38177619D01*
X6946429Y38201429D01*
X6970238Y38249048D01*
X6970238Y38368095D01*
X6946429Y38415714D01*
X6922619Y38439524D01*
X6875000Y38463333D01*
X6779762Y38463333D01*
X6732143Y38439524D01*
X6708334Y38415714D01*
X6684524Y38368095D01*
X14791667Y35903810D02*
X14553572Y35903810D01*
X14553572Y36403810D01*
X14910715Y36403810D02*
X15244048Y36403810D01*
X15029762Y35903810D01*
X10776190Y28058572D02*
X10776190Y27820477D01*
X10276190Y27820477D01*
X10776190Y28487143D02*
X10776190Y28201429D01*
X10776190Y28344286D02*
X10276190Y28344286D01*
X10347619Y28296667D01*
X10395238Y28249048D01*
X10419048Y28201429D01*
X10276190Y28796667D02*
X10276190Y28844286D01*
X10300000Y28891905D01*
X10323810Y28915714D01*
X10371429Y28939524D01*
X10466667Y28963333D01*
X10585714Y28963333D01*
X10680952Y28939524D01*
X10728571Y28915714D01*
X10752381Y28891905D01*
X10776190Y28844286D01*
X10776190Y28796667D01*
X10752381Y28749048D01*
X10728571Y28725238D01*
X10680952Y28701429D01*
X10585714Y28677619D01*
X10466667Y28677619D01*
X10371429Y28701429D01*
X10323810Y28725238D01*
X10300000Y28749048D01*
X10276190Y28796667D01*
X20251190Y35733572D02*
X20251190Y35495477D01*
X19751190Y35495477D01*
X20251190Y36162143D02*
X20251190Y35876429D01*
X20251190Y36019286D02*
X19751190Y36019286D01*
X19822619Y35971667D01*
X19870238Y35924048D01*
X19894048Y35876429D01*
X20251190Y36638333D02*
X20251190Y36352619D01*
X20251190Y36495476D02*
X19751190Y36495476D01*
X19822619Y36447857D01*
X19870238Y36400238D01*
X19894048Y36352619D01*
X25451190Y25658572D02*
X25451190Y25420477D01*
X24951190Y25420477D01*
X25451190Y26087143D02*
X25451190Y25801429D01*
X25451190Y25944286D02*
X24951190Y25944286D01*
X25022619Y25896667D01*
X25070238Y25849048D01*
X25094048Y25801429D01*
X24951190Y26253810D02*
X24951190Y26563333D01*
X25141667Y26396667D01*
X25141667Y26468095D01*
X25165476Y26515714D01*
X25189286Y26539524D01*
X25236905Y26563333D01*
X25355952Y26563333D01*
X25403571Y26539524D01*
X25427381Y26515714D01*
X25451190Y26468095D01*
X25451190Y26325238D01*
X25427381Y26277619D01*
X25403571Y26253810D01*
X21328572Y31728810D02*
X21090477Y31728810D01*
X21090477Y32228810D01*
X21757143Y31728810D02*
X21471429Y31728810D01*
X21614286Y31728810D02*
X21614286Y32228810D01*
X21566667Y32157381D01*
X21519048Y32109762D01*
X21471429Y32085952D01*
X22209524Y32228810D02*
X21971429Y32228810D01*
X21947619Y31990714D01*
X21971429Y32014524D01*
X22019048Y32038333D01*
X22138095Y32038333D01*
X22185714Y32014524D01*
X22209524Y31990714D01*
X22233333Y31943095D01*
X22233333Y31824048D01*
X22209524Y31776429D01*
X22185714Y31752619D01*
X22138095Y31728810D01*
X22019048Y31728810D01*
X21971429Y31752619D01*
X21947619Y31776429D01*
X27230953Y-146190D02*
X27230953Y353810D01*
X27421429Y353810D01*
X27469048Y330000D01*
X27492857Y306190D01*
X27516667Y258571D01*
X27516667Y187143D01*
X27492857Y139524D01*
X27469048Y115714D01*
X27421429Y91905D01*
X27230953Y91905D01*
X27992857Y-146190D02*
X27707143Y-146190D01*
X27850000Y-146190D02*
X27850000Y353810D01*
X27802381Y282381D01*
X27754762Y234762D01*
X27707143Y210952D01*
X36053571Y25608572D02*
X36077381Y25584762D01*
X36101190Y25513334D01*
X36101190Y25465715D01*
X36077381Y25394286D01*
X36029762Y25346667D01*
X35982143Y25322858D01*
X35886905Y25299048D01*
X35815476Y25299048D01*
X35720238Y25322858D01*
X35672619Y25346667D01*
X35625000Y25394286D01*
X35601190Y25465715D01*
X35601190Y25513334D01*
X35625000Y25584762D01*
X35648810Y25608572D01*
X35648810Y25799048D02*
X35625000Y25822858D01*
X35601190Y25870477D01*
X35601190Y25989524D01*
X35625000Y26037143D01*
X35648810Y26060953D01*
X35696429Y26084762D01*
X35744048Y26084762D01*
X35815476Y26060953D01*
X36101190Y25775239D01*
X36101190Y26084762D01*
X35601190Y26394286D02*
X35601190Y26441905D01*
X35625000Y26489524D01*
X35648810Y26513333D01*
X35696429Y26537143D01*
X35791667Y26560952D01*
X35910714Y26560952D01*
X36005952Y26537143D01*
X36053571Y26513333D01*
X36077381Y26489524D01*
X36101190Y26441905D01*
X36101190Y26394286D01*
X36077381Y26346667D01*
X36053571Y26322857D01*
X36005952Y26299048D01*
X35910714Y26275238D01*
X35791667Y26275238D01*
X35696429Y26299048D01*
X35648810Y26322857D01*
X35625000Y26346667D01*
X35601190Y26394286D01*
X6651190Y32524048D02*
X7055952Y32524048D01*
X7103571Y32547857D01*
X7127381Y32571667D01*
X7151190Y32619286D01*
X7151190Y32714524D01*
X7127381Y32762143D01*
X7103571Y32785952D01*
X7055952Y32809762D01*
X6651190Y32809762D01*
X6651190Y33000239D02*
X6651190Y33333572D01*
X7151190Y33119286D01*
X15051190Y30374048D02*
X15455952Y30374048D01*
X15503571Y30397857D01*
X15527381Y30421667D01*
X15551190Y30469286D01*
X15551190Y30564524D01*
X15527381Y30612143D01*
X15503571Y30635952D01*
X15455952Y30659762D01*
X15051190Y30659762D01*
X15265476Y30969286D02*
X15241667Y30921667D01*
X15217857Y30897858D01*
X15170238Y30874048D01*
X15146429Y30874048D01*
X15098810Y30897858D01*
X15075000Y30921667D01*
X15051190Y30969286D01*
X15051190Y31064524D01*
X15075000Y31112143D01*
X15098810Y31135953D01*
X15146429Y31159762D01*
X15170238Y31159762D01*
X15217857Y31135953D01*
X15241667Y31112143D01*
X15265476Y31064524D01*
X15265476Y30969286D01*
X15289286Y30921667D01*
X15313095Y30897858D01*
X15360714Y30874048D01*
X15455952Y30874048D01*
X15503571Y30897858D01*
X15527381Y30921667D01*
X15551190Y30969286D01*
X15551190Y31064524D01*
X15527381Y31112143D01*
X15503571Y31135953D01*
X15455952Y31159762D01*
X15360714Y31159762D01*
X15313095Y31135953D01*
X15289286Y31112143D01*
X15265476Y31064524D01*
X22451190Y27374048D02*
X22855952Y27374048D01*
X22903571Y27397857D01*
X22927381Y27421667D01*
X22951190Y27469286D01*
X22951190Y27564524D01*
X22927381Y27612143D01*
X22903571Y27635952D01*
X22855952Y27659762D01*
X22451190Y27659762D01*
X22951190Y27921667D02*
X22951190Y28016905D01*
X22927381Y28064524D01*
X22903571Y28088334D01*
X22832143Y28135953D01*
X22736905Y28159762D01*
X22546429Y28159762D01*
X22498810Y28135953D01*
X22475000Y28112143D01*
X22451190Y28064524D01*
X22451190Y27969286D01*
X22475000Y27921667D01*
X22498810Y27897858D01*
X22546429Y27874048D01*
X22665476Y27874048D01*
X22713095Y27897858D01*
X22736905Y27921667D01*
X22760714Y27969286D01*
X22760714Y28064524D01*
X22736905Y28112143D01*
X22713095Y28135953D01*
X22665476Y28159762D01*
X23891667Y4941429D02*
X23867857Y4917619D01*
X23796429Y4893810D01*
X23748810Y4893810D01*
X23677381Y4917619D01*
X23629762Y4965238D01*
X23605953Y5012857D01*
X23582143Y5108095D01*
X23582143Y5179524D01*
X23605953Y5274762D01*
X23629762Y5322381D01*
X23677381Y5370000D01*
X23748810Y5393810D01*
X23796429Y5393810D01*
X23867857Y5370000D01*
X23891667Y5346190D01*
X24367857Y4893810D02*
X24082143Y4893810D01*
X24225000Y4893810D02*
X24225000Y5393810D01*
X24177381Y5322381D01*
X24129762Y5274762D01*
X24082143Y5250952D01*
X23866667Y3881429D02*
X23842857Y3857619D01*
X23771429Y3833810D01*
X23723810Y3833810D01*
X23652381Y3857619D01*
X23604762Y3905238D01*
X23580953Y3952857D01*
X23557143Y4048095D01*
X23557143Y4119524D01*
X23580953Y4214762D01*
X23604762Y4262381D01*
X23652381Y4310000D01*
X23723810Y4333810D01*
X23771429Y4333810D01*
X23842857Y4310000D01*
X23866667Y4286190D01*
X24057143Y4286190D02*
X24080953Y4310000D01*
X24128572Y4333810D01*
X24247619Y4333810D01*
X24295238Y4310000D01*
X24319048Y4286190D01*
X24342857Y4238571D01*
X24342857Y4190952D01*
X24319048Y4119524D01*
X24033334Y3833810D01*
X24342857Y3833810D01*
X17228571Y6196667D02*
X17252381Y6172857D01*
X17276190Y6101429D01*
X17276190Y6053810D01*
X17252381Y5982381D01*
X17204762Y5934762D01*
X17157143Y5910953D01*
X17061905Y5887143D01*
X16990476Y5887143D01*
X16895238Y5910953D01*
X16847619Y5934762D01*
X16800000Y5982381D01*
X16776190Y6053810D01*
X16776190Y6101429D01*
X16800000Y6172857D01*
X16823810Y6196667D01*
X16776190Y6363334D02*
X16776190Y6672857D01*
X16966667Y6506191D01*
X16966667Y6577619D01*
X16990476Y6625238D01*
X17014286Y6649048D01*
X17061905Y6672857D01*
X17180952Y6672857D01*
X17228571Y6649048D01*
X17252381Y6625238D01*
X17276190Y6577619D01*
X17276190Y6434762D01*
X17252381Y6387143D01*
X17228571Y6363334D01*
X15553571Y6196667D02*
X15577381Y6172857D01*
X15601190Y6101429D01*
X15601190Y6053810D01*
X15577381Y5982381D01*
X15529762Y5934762D01*
X15482143Y5910953D01*
X15386905Y5887143D01*
X15315476Y5887143D01*
X15220238Y5910953D01*
X15172619Y5934762D01*
X15125000Y5982381D01*
X15101190Y6053810D01*
X15101190Y6101429D01*
X15125000Y6172857D01*
X15148810Y6196667D01*
X15267857Y6625238D02*
X15601190Y6625238D01*
X15077381Y6506191D02*
X15434524Y6387143D01*
X15434524Y6696667D01*
X29278571Y9266667D02*
X29302381Y9242857D01*
X29326190Y9171429D01*
X29326190Y9123810D01*
X29302381Y9052381D01*
X29254762Y9004762D01*
X29207143Y8980953D01*
X29111905Y8957143D01*
X29040476Y8957143D01*
X28945238Y8980953D01*
X28897619Y9004762D01*
X28850000Y9052381D01*
X28826190Y9123810D01*
X28826190Y9171429D01*
X28850000Y9242857D01*
X28873810Y9266667D01*
X28826190Y9719048D02*
X28826190Y9480953D01*
X29064286Y9457143D01*
X29040476Y9480953D01*
X29016667Y9528572D01*
X29016667Y9647619D01*
X29040476Y9695238D01*
X29064286Y9719048D01*
X29111905Y9742857D01*
X29230952Y9742857D01*
X29278571Y9719048D01*
X29302381Y9695238D01*
X29326190Y9647619D01*
X29326190Y9528572D01*
X29302381Y9480953D01*
X29278571Y9457143D01*
X30388571Y9256667D02*
X30412381Y9232857D01*
X30436190Y9161429D01*
X30436190Y9113810D01*
X30412381Y9042381D01*
X30364762Y8994762D01*
X30317143Y8970953D01*
X30221905Y8947143D01*
X30150476Y8947143D01*
X30055238Y8970953D01*
X30007619Y8994762D01*
X29960000Y9042381D01*
X29936190Y9113810D01*
X29936190Y9161429D01*
X29960000Y9232857D01*
X29983810Y9256667D01*
X29936190Y9685238D02*
X29936190Y9590000D01*
X29960000Y9542381D01*
X29983810Y9518572D01*
X30055238Y9470953D01*
X30150476Y9447143D01*
X30340952Y9447143D01*
X30388571Y9470953D01*
X30412381Y9494762D01*
X30436190Y9542381D01*
X30436190Y9637619D01*
X30412381Y9685238D01*
X30388571Y9709048D01*
X30340952Y9732857D01*
X30221905Y9732857D01*
X30174286Y9709048D01*
X30150476Y9685238D01*
X30126667Y9637619D01*
X30126667Y9542381D01*
X30150476Y9494762D01*
X30174286Y9470953D01*
X30221905Y9447143D01*
X14128571Y6256667D02*
X14152381Y6232857D01*
X14176190Y6161429D01*
X14176190Y6113810D01*
X14152381Y6042381D01*
X14104762Y5994762D01*
X14057143Y5970953D01*
X13961905Y5947143D01*
X13890476Y5947143D01*
X13795238Y5970953D01*
X13747619Y5994762D01*
X13700000Y6042381D01*
X13676190Y6113810D01*
X13676190Y6161429D01*
X13700000Y6232857D01*
X13723810Y6256667D01*
X13676190Y6423334D02*
X13676190Y6756667D01*
X14176190Y6542381D01*
X12258571Y7796667D02*
X12282381Y7772857D01*
X12306190Y7701429D01*
X12306190Y7653810D01*
X12282381Y7582381D01*
X12234762Y7534762D01*
X12187143Y7510953D01*
X12091905Y7487143D01*
X12020476Y7487143D01*
X11925238Y7510953D01*
X11877619Y7534762D01*
X11830000Y7582381D01*
X11806190Y7653810D01*
X11806190Y7701429D01*
X11830000Y7772857D01*
X11853810Y7796667D01*
X12020476Y8082381D02*
X11996667Y8034762D01*
X11972857Y8010953D01*
X11925238Y7987143D01*
X11901429Y7987143D01*
X11853810Y8010953D01*
X11830000Y8034762D01*
X11806190Y8082381D01*
X11806190Y8177619D01*
X11830000Y8225238D01*
X11853810Y8249048D01*
X11901429Y8272857D01*
X11925238Y8272857D01*
X11972857Y8249048D01*
X11996667Y8225238D01*
X12020476Y8177619D01*
X12020476Y8082381D01*
X12044286Y8034762D01*
X12068095Y8010953D01*
X12115714Y7987143D01*
X12210952Y7987143D01*
X12258571Y8010953D01*
X12282381Y8034762D01*
X12306190Y8082381D01*
X12306190Y8177619D01*
X12282381Y8225238D01*
X12258571Y8249048D01*
X12210952Y8272857D01*
X12115714Y8272857D01*
X12068095Y8249048D01*
X12044286Y8225238D01*
X12020476Y8177619D01*
X33707343Y8904806D02*
X33707343Y8871133D01*
X33673672Y8803791D01*
X33640000Y8770119D01*
X33572657Y8736447D01*
X33505313Y8736447D01*
X33454806Y8753283D01*
X33370626Y8803790D01*
X33320118Y8854298D01*
X33269611Y8938478D01*
X33252775Y8988985D01*
X33252775Y9056328D01*
X33286447Y9123672D01*
X33320118Y9157344D01*
X33387462Y9191015D01*
X33421134Y9191015D01*
X33909374Y9039493D02*
X33976717Y9106836D01*
X33993553Y9157343D01*
X33993553Y9191016D01*
X33976718Y9275195D01*
X33926210Y9359374D01*
X33791523Y9494061D01*
X33741016Y9510897D01*
X33707343Y9510897D01*
X33656836Y9494061D01*
X33589492Y9426718D01*
X33572657Y9376210D01*
X33572657Y9342538D01*
X33589493Y9292030D01*
X33673672Y9207851D01*
X33724180Y9191016D01*
X33757851Y9191015D01*
X33808359Y9207851D01*
X33875702Y9275195D01*
X33892538Y9325702D01*
X33892538Y9359374D01*
X33875702Y9409882D01*
X31103698Y16304663D02*
X31103698Y16270991D01*
X31070026Y16203648D01*
X31036354Y16169976D01*
X30969011Y16136304D01*
X30901668Y16136304D01*
X30851160Y16153140D01*
X30766981Y16203647D01*
X30716473Y16254155D01*
X30665966Y16338335D01*
X30649129Y16388842D01*
X30649129Y16456186D01*
X30682801Y16523530D01*
X30716473Y16557202D01*
X30783816Y16590873D01*
X30817489Y16590873D01*
X31474087Y16607709D02*
X31272056Y16405678D01*
X31373072Y16506694D02*
X31019518Y16860247D01*
X31036354Y16776067D01*
X31036354Y16708724D01*
X31019519Y16658216D01*
X31339400Y17180129D02*
X31373072Y17213800D01*
X31423580Y17230636D01*
X31457251Y17230635D01*
X31507759Y17213800D01*
X31591938Y17163292D01*
X31676117Y17079113D01*
X31726625Y16994934D01*
X31743460Y16944426D01*
X31743461Y16910754D01*
X31726625Y16860247D01*
X31692953Y16826575D01*
X31642446Y16809739D01*
X31608774Y16809739D01*
X31558266Y16826575D01*
X31474087Y16877083D01*
X31389908Y16961261D01*
X31339401Y17045441D01*
X31322564Y17095948D01*
X31322564Y17129621D01*
X31339400Y17180129D01*
X20053572Y15321429D02*
X20029762Y15297619D01*
X19958334Y15273810D01*
X19910715Y15273810D01*
X19839286Y15297619D01*
X19791667Y15345238D01*
X19767858Y15392857D01*
X19744048Y15488095D01*
X19744048Y15559524D01*
X19767858Y15654762D01*
X19791667Y15702381D01*
X19839286Y15750000D01*
X19910715Y15773810D01*
X19958334Y15773810D01*
X20029762Y15750000D01*
X20053572Y15726190D01*
X20529762Y15273810D02*
X20244048Y15273810D01*
X20386905Y15273810D02*
X20386905Y15773810D01*
X20339286Y15702381D01*
X20291667Y15654762D01*
X20244048Y15630952D01*
X20720238Y15726190D02*
X20744048Y15750000D01*
X20791667Y15773810D01*
X20910714Y15773810D01*
X20958333Y15750000D01*
X20982143Y15726190D01*
X21005952Y15678571D01*
X21005952Y15630952D01*
X20982143Y15559524D01*
X20696429Y15273810D01*
X21005952Y15273810D01*
X20128572Y16296429D02*
X20104762Y16272619D01*
X20033334Y16248810D01*
X19985715Y16248810D01*
X19914286Y16272619D01*
X19866667Y16320238D01*
X19842858Y16367857D01*
X19819048Y16463095D01*
X19819048Y16534524D01*
X19842858Y16629762D01*
X19866667Y16677381D01*
X19914286Y16725000D01*
X19985715Y16748810D01*
X20033334Y16748810D01*
X20104762Y16725000D01*
X20128572Y16701190D01*
X20604762Y16248810D02*
X20319048Y16248810D01*
X20461905Y16248810D02*
X20461905Y16748810D01*
X20414286Y16677381D01*
X20366667Y16629762D01*
X20319048Y16605952D01*
X20771429Y16748810D02*
X21080952Y16748810D01*
X20914286Y16558333D01*
X20985714Y16558333D01*
X21033333Y16534524D01*
X21057143Y16510714D01*
X21080952Y16463095D01*
X21080952Y16344048D01*
X21057143Y16296429D01*
X21033333Y16272619D01*
X20985714Y16248810D01*
X20842857Y16248810D01*
X20795238Y16272619D01*
X20771429Y16296429D01*
X18638571Y14728572D02*
X18662381Y14704762D01*
X18686190Y14633334D01*
X18686190Y14585715D01*
X18662381Y14514286D01*
X18614762Y14466667D01*
X18567143Y14442858D01*
X18471905Y14419048D01*
X18400476Y14419048D01*
X18305238Y14442858D01*
X18257619Y14466667D01*
X18210000Y14514286D01*
X18186190Y14585715D01*
X18186190Y14633334D01*
X18210000Y14704762D01*
X18233810Y14728572D01*
X18686190Y15204762D02*
X18686190Y14919048D01*
X18686190Y15061905D02*
X18186190Y15061905D01*
X18257619Y15014286D01*
X18305238Y14966667D01*
X18329048Y14919048D01*
X18352857Y15633333D02*
X18686190Y15633333D01*
X18162381Y15514286D02*
X18519524Y15395238D01*
X18519524Y15704762D01*
X17128571Y14678572D02*
X17152381Y14654762D01*
X17176190Y14583334D01*
X17176190Y14535715D01*
X17152381Y14464286D01*
X17104762Y14416667D01*
X17057143Y14392858D01*
X16961905Y14369048D01*
X16890476Y14369048D01*
X16795238Y14392858D01*
X16747619Y14416667D01*
X16700000Y14464286D01*
X16676190Y14535715D01*
X16676190Y14583334D01*
X16700000Y14654762D01*
X16723810Y14678572D01*
X17176190Y15154762D02*
X17176190Y14869048D01*
X17176190Y15011905D02*
X16676190Y15011905D01*
X16747619Y14964286D01*
X16795238Y14916667D01*
X16819048Y14869048D01*
X16676190Y15607143D02*
X16676190Y15369048D01*
X16914286Y15345238D01*
X16890476Y15369048D01*
X16866667Y15416667D01*
X16866667Y15535714D01*
X16890476Y15583333D01*
X16914286Y15607143D01*
X16961905Y15630952D01*
X17080952Y15630952D01*
X17128571Y15607143D01*
X17152381Y15583333D01*
X17176190Y15535714D01*
X17176190Y15416667D01*
X17152381Y15369048D01*
X17128571Y15345238D01*
X22503572Y-648571D02*
X22479762Y-672381D01*
X22408334Y-696190D01*
X22360715Y-696190D01*
X22289286Y-672381D01*
X22241667Y-624762D01*
X22217858Y-577143D01*
X22194048Y-481905D01*
X22194048Y-410476D01*
X22217858Y-315238D01*
X22241667Y-267619D01*
X22289286Y-220000D01*
X22360715Y-196190D01*
X22408334Y-196190D01*
X22479762Y-220000D01*
X22503572Y-243810D01*
X22979762Y-696190D02*
X22694048Y-696190D01*
X22836905Y-696190D02*
X22836905Y-196190D01*
X22789286Y-267619D01*
X22741667Y-315238D01*
X22694048Y-339048D01*
X23408333Y-196190D02*
X23313095Y-196190D01*
X23265476Y-220000D01*
X23241667Y-243810D01*
X23194048Y-315238D01*
X23170238Y-410476D01*
X23170238Y-600952D01*
X23194048Y-648571D01*
X23217857Y-672381D01*
X23265476Y-696190D01*
X23360714Y-696190D01*
X23408333Y-672381D01*
X23432143Y-648571D01*
X23455952Y-600952D01*
X23455952Y-481905D01*
X23432143Y-434286D01*
X23408333Y-410476D01*
X23360714Y-386667D01*
X23265476Y-386667D01*
X23217857Y-410476D01*
X23194048Y-434286D01*
X23170238Y-481905D01*
X28468572Y-7618571D02*
X28444762Y-7642381D01*
X28373334Y-7666190D01*
X28325715Y-7666190D01*
X28254286Y-7642381D01*
X28206667Y-7594762D01*
X28182858Y-7547143D01*
X28159048Y-7451905D01*
X28159048Y-7380476D01*
X28182858Y-7285238D01*
X28206667Y-7237619D01*
X28254286Y-7190000D01*
X28325715Y-7166190D01*
X28373334Y-7166190D01*
X28444762Y-7190000D01*
X28468572Y-7213810D01*
X28944762Y-7666190D02*
X28659048Y-7666190D01*
X28801905Y-7666190D02*
X28801905Y-7166190D01*
X28754286Y-7237619D01*
X28706667Y-7285238D01*
X28659048Y-7309048D01*
X29111429Y-7166190D02*
X29444762Y-7166190D01*
X29230476Y-7666190D01*
X23803571Y53108572D02*
X23827381Y53084762D01*
X23851190Y53013334D01*
X23851190Y52965715D01*
X23827381Y52894286D01*
X23779762Y52846667D01*
X23732143Y52822858D01*
X23636905Y52799048D01*
X23565476Y52799048D01*
X23470238Y52822858D01*
X23422619Y52846667D01*
X23375000Y52894286D01*
X23351190Y52965715D01*
X23351190Y53013334D01*
X23375000Y53084762D01*
X23398810Y53108572D01*
X23851190Y53584762D02*
X23851190Y53299048D01*
X23851190Y53441905D02*
X23351190Y53441905D01*
X23422619Y53394286D01*
X23470238Y53346667D01*
X23494048Y53299048D01*
X23851190Y53822857D02*
X23851190Y53918095D01*
X23827381Y53965714D01*
X23803571Y53989524D01*
X23732143Y54037143D01*
X23636905Y54060952D01*
X23446429Y54060952D01*
X23398810Y54037143D01*
X23375000Y54013333D01*
X23351190Y53965714D01*
X23351190Y53870476D01*
X23375000Y53822857D01*
X23398810Y53799048D01*
X23446429Y53775238D01*
X23565476Y53775238D01*
X23613095Y53799048D01*
X23636905Y53822857D01*
X23660714Y53870476D01*
X23660714Y53965714D01*
X23636905Y54013333D01*
X23613095Y54037143D01*
X23565476Y54060952D01*
X10778571Y23508572D02*
X10802381Y23484762D01*
X10826190Y23413334D01*
X10826190Y23365715D01*
X10802381Y23294286D01*
X10754762Y23246667D01*
X10707143Y23222858D01*
X10611905Y23199048D01*
X10540476Y23199048D01*
X10445238Y23222858D01*
X10397619Y23246667D01*
X10350000Y23294286D01*
X10326190Y23365715D01*
X10326190Y23413334D01*
X10350000Y23484762D01*
X10373810Y23508572D01*
X10373810Y23699048D02*
X10350000Y23722858D01*
X10326190Y23770477D01*
X10326190Y23889524D01*
X10350000Y23937143D01*
X10373810Y23960953D01*
X10421429Y23984762D01*
X10469048Y23984762D01*
X10540476Y23960953D01*
X10826190Y23675239D01*
X10826190Y23984762D01*
X10326190Y24151429D02*
X10326190Y24460952D01*
X10516667Y24294286D01*
X10516667Y24365714D01*
X10540476Y24413333D01*
X10564286Y24437143D01*
X10611905Y24460952D01*
X10730952Y24460952D01*
X10778571Y24437143D01*
X10802381Y24413333D01*
X10826190Y24365714D01*
X10826190Y24222857D01*
X10802381Y24175238D01*
X10778571Y24151429D01*
X15553571Y23033572D02*
X15577381Y23009762D01*
X15601190Y22938334D01*
X15601190Y22890715D01*
X15577381Y22819286D01*
X15529762Y22771667D01*
X15482143Y22747858D01*
X15386905Y22724048D01*
X15315476Y22724048D01*
X15220238Y22747858D01*
X15172619Y22771667D01*
X15125000Y22819286D01*
X15101190Y22890715D01*
X15101190Y22938334D01*
X15125000Y23009762D01*
X15148810Y23033572D01*
X15148810Y23224048D02*
X15125000Y23247858D01*
X15101190Y23295477D01*
X15101190Y23414524D01*
X15125000Y23462143D01*
X15148810Y23485953D01*
X15196429Y23509762D01*
X15244048Y23509762D01*
X15315476Y23485953D01*
X15601190Y23200239D01*
X15601190Y23509762D01*
X15267857Y23938333D02*
X15601190Y23938333D01*
X15077381Y23819286D02*
X15434524Y23700238D01*
X15434524Y24009762D01*
X22453572Y19726429D02*
X22429762Y19702619D01*
X22358334Y19678810D01*
X22310715Y19678810D01*
X22239286Y19702619D01*
X22191667Y19750238D01*
X22167858Y19797857D01*
X22144048Y19893095D01*
X22144048Y19964524D01*
X22167858Y20059762D01*
X22191667Y20107381D01*
X22239286Y20155000D01*
X22310715Y20178810D01*
X22358334Y20178810D01*
X22429762Y20155000D01*
X22453572Y20131190D01*
X22644048Y20131190D02*
X22667858Y20155000D01*
X22715477Y20178810D01*
X22834524Y20178810D01*
X22882143Y20155000D01*
X22905953Y20131190D01*
X22929762Y20083571D01*
X22929762Y20035952D01*
X22905953Y19964524D01*
X22620239Y19678810D01*
X22929762Y19678810D01*
X23382143Y20178810D02*
X23144048Y20178810D01*
X23120238Y19940714D01*
X23144048Y19964524D01*
X23191667Y19988333D01*
X23310714Y19988333D01*
X23358333Y19964524D01*
X23382143Y19940714D01*
X23405952Y19893095D01*
X23405952Y19774048D01*
X23382143Y19726429D01*
X23358333Y19702619D01*
X23310714Y19678810D01*
X23191667Y19678810D01*
X23144048Y19702619D01*
X23120238Y19726429D01*
X22778571Y46558572D02*
X22802381Y46534762D01*
X22826190Y46463334D01*
X22826190Y46415715D01*
X22802381Y46344286D01*
X22754762Y46296667D01*
X22707143Y46272858D01*
X22611905Y46249048D01*
X22540476Y46249048D01*
X22445238Y46272858D01*
X22397619Y46296667D01*
X22350000Y46344286D01*
X22326190Y46415715D01*
X22326190Y46463334D01*
X22350000Y46534762D01*
X22373810Y46558572D01*
X22326190Y46725239D02*
X22326190Y47034762D01*
X22516667Y46868096D01*
X22516667Y46939524D01*
X22540476Y46987143D01*
X22564286Y47010953D01*
X22611905Y47034762D01*
X22730952Y47034762D01*
X22778571Y47010953D01*
X22802381Y46987143D01*
X22826190Y46939524D01*
X22826190Y46796667D01*
X22802381Y46749048D01*
X22778571Y46725239D01*
X22826190Y47510952D02*
X22826190Y47225238D01*
X22826190Y47368095D02*
X22326190Y47368095D01*
X22397619Y47320476D01*
X22445238Y47272857D01*
X22469048Y47225238D01*
X5003572Y40901429D02*
X4979762Y40877619D01*
X4908334Y40853810D01*
X4860715Y40853810D01*
X4789286Y40877619D01*
X4741667Y40925238D01*
X4717858Y40972857D01*
X4694048Y41068095D01*
X4694048Y41139524D01*
X4717858Y41234762D01*
X4741667Y41282381D01*
X4789286Y41330000D01*
X4860715Y41353810D01*
X4908334Y41353810D01*
X4979762Y41330000D01*
X5003572Y41306190D01*
X5170239Y41353810D02*
X5479762Y41353810D01*
X5313096Y41163333D01*
X5384524Y41163333D01*
X5432143Y41139524D01*
X5455953Y41115714D01*
X5479762Y41068095D01*
X5479762Y40949048D01*
X5455953Y40901429D01*
X5432143Y40877619D01*
X5384524Y40853810D01*
X5241667Y40853810D01*
X5194048Y40877619D01*
X5170239Y40901429D01*
X5670238Y41306190D02*
X5694048Y41330000D01*
X5741667Y41353810D01*
X5860714Y41353810D01*
X5908333Y41330000D01*
X5932143Y41306190D01*
X5955952Y41258571D01*
X5955952Y41210952D01*
X5932143Y41139524D01*
X5646429Y40853810D01*
X5955952Y40853810D01*
X20028572Y25276429D02*
X20004762Y25252619D01*
X19933334Y25228810D01*
X19885715Y25228810D01*
X19814286Y25252619D01*
X19766667Y25300238D01*
X19742858Y25347857D01*
X19719048Y25443095D01*
X19719048Y25514524D01*
X19742858Y25609762D01*
X19766667Y25657381D01*
X19814286Y25705000D01*
X19885715Y25728810D01*
X19933334Y25728810D01*
X20004762Y25705000D01*
X20028572Y25681190D01*
X20195239Y25728810D02*
X20504762Y25728810D01*
X20338096Y25538333D01*
X20409524Y25538333D01*
X20457143Y25514524D01*
X20480953Y25490714D01*
X20504762Y25443095D01*
X20504762Y25324048D01*
X20480953Y25276429D01*
X20457143Y25252619D01*
X20409524Y25228810D01*
X20266667Y25228810D01*
X20219048Y25252619D01*
X20195239Y25276429D01*
X20957143Y25728810D02*
X20719048Y25728810D01*
X20695238Y25490714D01*
X20719048Y25514524D01*
X20766667Y25538333D01*
X20885714Y25538333D01*
X20933333Y25514524D01*
X20957143Y25490714D01*
X20980952Y25443095D01*
X20980952Y25324048D01*
X20957143Y25276429D01*
X20933333Y25252619D01*
X20885714Y25228810D01*
X20766667Y25228810D01*
X20719048Y25252619D01*
X20695238Y25276429D01*
X39908572Y30981429D02*
X39884762Y30957619D01*
X39813334Y30933810D01*
X39765715Y30933810D01*
X39694286Y30957619D01*
X39646667Y31005238D01*
X39622858Y31052857D01*
X39599048Y31148095D01*
X39599048Y31219524D01*
X39622858Y31314762D01*
X39646667Y31362381D01*
X39694286Y31410000D01*
X39765715Y31433810D01*
X39813334Y31433810D01*
X39884762Y31410000D01*
X39908572Y31386190D01*
X40075239Y31433810D02*
X40384762Y31433810D01*
X40218096Y31243333D01*
X40289524Y31243333D01*
X40337143Y31219524D01*
X40360953Y31195714D01*
X40384762Y31148095D01*
X40384762Y31029048D01*
X40360953Y30981429D01*
X40337143Y30957619D01*
X40289524Y30933810D01*
X40146667Y30933810D01*
X40099048Y30957619D01*
X40075239Y30981429D01*
X40813333Y31433810D02*
X40718095Y31433810D01*
X40670476Y31410000D01*
X40646667Y31386190D01*
X40599048Y31314762D01*
X40575238Y31219524D01*
X40575238Y31029048D01*
X40599048Y30981429D01*
X40622857Y30957619D01*
X40670476Y30933810D01*
X40765714Y30933810D01*
X40813333Y30957619D01*
X40837143Y30981429D01*
X40860952Y31029048D01*
X40860952Y31148095D01*
X40837143Y31195714D01*
X40813333Y31219524D01*
X40765714Y31243333D01*
X40670476Y31243333D01*
X40622857Y31219524D01*
X40599048Y31195714D01*
X40575238Y31148095D01*
X24153572Y35006429D02*
X24129762Y34982619D01*
X24058334Y34958810D01*
X24010715Y34958810D01*
X23939286Y34982619D01*
X23891667Y35030238D01*
X23867858Y35077857D01*
X23844048Y35173095D01*
X23844048Y35244524D01*
X23867858Y35339762D01*
X23891667Y35387381D01*
X23939286Y35435000D01*
X24010715Y35458810D01*
X24058334Y35458810D01*
X24129762Y35435000D01*
X24153572Y35411190D01*
X24320239Y35458810D02*
X24629762Y35458810D01*
X24463096Y35268333D01*
X24534524Y35268333D01*
X24582143Y35244524D01*
X24605953Y35220714D01*
X24629762Y35173095D01*
X24629762Y35054048D01*
X24605953Y35006429D01*
X24582143Y34982619D01*
X24534524Y34958810D01*
X24391667Y34958810D01*
X24344048Y34982619D01*
X24320239Y35006429D01*
X24796429Y35458810D02*
X25129762Y35458810D01*
X24915476Y34958810D01*
X46928572Y13926429D02*
X46904762Y13902619D01*
X46833334Y13878810D01*
X46785715Y13878810D01*
X46714286Y13902619D01*
X46666667Y13950238D01*
X46642858Y13997857D01*
X46619048Y14093095D01*
X46619048Y14164524D01*
X46642858Y14259762D01*
X46666667Y14307381D01*
X46714286Y14355000D01*
X46785715Y14378810D01*
X46833334Y14378810D01*
X46904762Y14355000D01*
X46928572Y14331190D01*
X47095239Y14378810D02*
X47404762Y14378810D01*
X47238096Y14188333D01*
X47309524Y14188333D01*
X47357143Y14164524D01*
X47380953Y14140714D01*
X47404762Y14093095D01*
X47404762Y13974048D01*
X47380953Y13926429D01*
X47357143Y13902619D01*
X47309524Y13878810D01*
X47166667Y13878810D01*
X47119048Y13902619D01*
X47095239Y13926429D01*
X47642857Y13878810D02*
X47738095Y13878810D01*
X47785714Y13902619D01*
X47809524Y13926429D01*
X47857143Y13997857D01*
X47880952Y14093095D01*
X47880952Y14283571D01*
X47857143Y14331190D01*
X47833333Y14355000D01*
X47785714Y14378810D01*
X47690476Y14378810D01*
X47642857Y14355000D01*
X47619048Y14331190D01*
X47595238Y14283571D01*
X47595238Y14164524D01*
X47619048Y14116905D01*
X47642857Y14093095D01*
X47690476Y14069286D01*
X47785714Y14069286D01*
X47833333Y14093095D01*
X47857143Y14116905D01*
X47880952Y14164524D01*
X8978572Y48326429D02*
X8954762Y48302619D01*
X8883334Y48278810D01*
X8835715Y48278810D01*
X8764286Y48302619D01*
X8716667Y48350238D01*
X8692858Y48397857D01*
X8669048Y48493095D01*
X8669048Y48564524D01*
X8692858Y48659762D01*
X8716667Y48707381D01*
X8764286Y48755000D01*
X8835715Y48778810D01*
X8883334Y48778810D01*
X8954762Y48755000D01*
X8978572Y48731190D01*
X9407143Y48612143D02*
X9407143Y48278810D01*
X9288096Y48802619D02*
X9169048Y48445476D01*
X9478572Y48445476D01*
X9764286Y48778810D02*
X9811905Y48778810D01*
X9859524Y48755000D01*
X9883333Y48731190D01*
X9907143Y48683571D01*
X9930952Y48588333D01*
X9930952Y48469286D01*
X9907143Y48374048D01*
X9883333Y48326429D01*
X9859524Y48302619D01*
X9811905Y48278810D01*
X9764286Y48278810D01*
X9716667Y48302619D01*
X9692857Y48326429D01*
X9669048Y48374048D01*
X9645238Y48469286D01*
X9645238Y48588333D01*
X9669048Y48683571D01*
X9692857Y48731190D01*
X9716667Y48755000D01*
X9764286Y48778810D01*
X11528572Y49926429D02*
X11504762Y49902619D01*
X11433334Y49878810D01*
X11385715Y49878810D01*
X11314286Y49902619D01*
X11266667Y49950238D01*
X11242858Y49997857D01*
X11219048Y50093095D01*
X11219048Y50164524D01*
X11242858Y50259762D01*
X11266667Y50307381D01*
X11314286Y50355000D01*
X11385715Y50378810D01*
X11433334Y50378810D01*
X11504762Y50355000D01*
X11528572Y50331190D01*
X11957143Y50212143D02*
X11957143Y49878810D01*
X11838096Y50402619D02*
X11719048Y50045476D01*
X12028572Y50045476D01*
X12480952Y49878810D02*
X12195238Y49878810D01*
X12338095Y49878810D02*
X12338095Y50378810D01*
X12290476Y50307381D01*
X12242857Y50259762D01*
X12195238Y50235952D01*
X46278572Y21001429D02*
X46254762Y20977619D01*
X46183334Y20953810D01*
X46135715Y20953810D01*
X46064286Y20977619D01*
X46016667Y21025238D01*
X45992858Y21072857D01*
X45969048Y21168095D01*
X45969048Y21239524D01*
X45992858Y21334762D01*
X46016667Y21382381D01*
X46064286Y21430000D01*
X46135715Y21453810D01*
X46183334Y21453810D01*
X46254762Y21430000D01*
X46278572Y21406190D01*
X46707143Y21287143D02*
X46707143Y20953810D01*
X46588096Y21477619D02*
X46469048Y21120476D01*
X46778572Y21120476D01*
X46945238Y21406190D02*
X46969048Y21430000D01*
X47016667Y21453810D01*
X47135714Y21453810D01*
X47183333Y21430000D01*
X47207143Y21406190D01*
X47230952Y21358571D01*
X47230952Y21310952D01*
X47207143Y21239524D01*
X46921429Y20953810D01*
X47230952Y20953810D01*
X37078572Y9221429D02*
X37054762Y9197619D01*
X36983334Y9173810D01*
X36935715Y9173810D01*
X36864286Y9197619D01*
X36816667Y9245238D01*
X36792858Y9292857D01*
X36769048Y9388095D01*
X36769048Y9459524D01*
X36792858Y9554762D01*
X36816667Y9602381D01*
X36864286Y9650000D01*
X36935715Y9673810D01*
X36983334Y9673810D01*
X37054762Y9650000D01*
X37078572Y9626190D01*
X37507143Y9507143D02*
X37507143Y9173810D01*
X37388096Y9697619D02*
X37269048Y9340476D01*
X37578572Y9340476D01*
X37721429Y9673810D02*
X38030952Y9673810D01*
X37864286Y9483333D01*
X37935714Y9483333D01*
X37983333Y9459524D01*
X38007143Y9435714D01*
X38030952Y9388095D01*
X38030952Y9269048D01*
X38007143Y9221429D01*
X37983333Y9197619D01*
X37935714Y9173810D01*
X37792857Y9173810D01*
X37745238Y9197619D01*
X37721429Y9221429D01*
X22578571Y43183572D02*
X22602381Y43159762D01*
X22626190Y43088334D01*
X22626190Y43040715D01*
X22602381Y42969286D01*
X22554762Y42921667D01*
X22507143Y42897858D01*
X22411905Y42874048D01*
X22340476Y42874048D01*
X22245238Y42897858D01*
X22197619Y42921667D01*
X22150000Y42969286D01*
X22126190Y43040715D01*
X22126190Y43088334D01*
X22150000Y43159762D01*
X22173810Y43183572D01*
X22126190Y43635953D02*
X22126190Y43397858D01*
X22364286Y43374048D01*
X22340476Y43397858D01*
X22316667Y43445477D01*
X22316667Y43564524D01*
X22340476Y43612143D01*
X22364286Y43635953D01*
X22411905Y43659762D01*
X22530952Y43659762D01*
X22578571Y43635953D01*
X22602381Y43612143D01*
X22626190Y43564524D01*
X22626190Y43445477D01*
X22602381Y43397858D01*
X22578571Y43374048D01*
X22126190Y44088333D02*
X22126190Y43993095D01*
X22150000Y43945476D01*
X22173810Y43921667D01*
X22245238Y43874048D01*
X22340476Y43850238D01*
X22530952Y43850238D01*
X22578571Y43874048D01*
X22602381Y43897857D01*
X22626190Y43945476D01*
X22626190Y44040714D01*
X22602381Y44088333D01*
X22578571Y44112143D01*
X22530952Y44135952D01*
X22411905Y44135952D01*
X22364286Y44112143D01*
X22340476Y44088333D01*
X22316667Y44040714D01*
X22316667Y43945476D01*
X22340476Y43897857D01*
X22364286Y43874048D01*
X22411905Y43850238D01*
X11878572Y48251429D02*
X11854762Y48227619D01*
X11783334Y48203810D01*
X11735715Y48203810D01*
X11664286Y48227619D01*
X11616667Y48275238D01*
X11592858Y48322857D01*
X11569048Y48418095D01*
X11569048Y48489524D01*
X11592858Y48584762D01*
X11616667Y48632381D01*
X11664286Y48680000D01*
X11735715Y48703810D01*
X11783334Y48703810D01*
X11854762Y48680000D01*
X11878572Y48656190D01*
X12330953Y48703810D02*
X12092858Y48703810D01*
X12069048Y48465714D01*
X12092858Y48489524D01*
X12140477Y48513333D01*
X12259524Y48513333D01*
X12307143Y48489524D01*
X12330953Y48465714D01*
X12354762Y48418095D01*
X12354762Y48299048D01*
X12330953Y48251429D01*
X12307143Y48227619D01*
X12259524Y48203810D01*
X12140477Y48203810D01*
X12092858Y48227619D01*
X12069048Y48251429D01*
X12592857Y48203810D02*
X12688095Y48203810D01*
X12735714Y48227619D01*
X12759524Y48251429D01*
X12807143Y48322857D01*
X12830952Y48418095D01*
X12830952Y48608571D01*
X12807143Y48656190D01*
X12783333Y48680000D01*
X12735714Y48703810D01*
X12640476Y48703810D01*
X12592857Y48680000D01*
X12569048Y48656190D01*
X12545238Y48608571D01*
X12545238Y48489524D01*
X12569048Y48441905D01*
X12592857Y48418095D01*
X12640476Y48394286D01*
X12735714Y48394286D01*
X12783333Y48418095D01*
X12807143Y48441905D01*
X12830952Y48489524D01*
X16403572Y42351429D02*
X16379762Y42327619D01*
X16308334Y42303810D01*
X16260715Y42303810D01*
X16189286Y42327619D01*
X16141667Y42375238D01*
X16117858Y42422857D01*
X16094048Y42518095D01*
X16094048Y42589524D01*
X16117858Y42684762D01*
X16141667Y42732381D01*
X16189286Y42780000D01*
X16260715Y42803810D01*
X16308334Y42803810D01*
X16379762Y42780000D01*
X16403572Y42756190D01*
X16832143Y42803810D02*
X16736905Y42803810D01*
X16689286Y42780000D01*
X16665477Y42756190D01*
X16617858Y42684762D01*
X16594048Y42589524D01*
X16594048Y42399048D01*
X16617858Y42351429D01*
X16641667Y42327619D01*
X16689286Y42303810D01*
X16784524Y42303810D01*
X16832143Y42327619D01*
X16855953Y42351429D01*
X16879762Y42399048D01*
X16879762Y42518095D01*
X16855953Y42565714D01*
X16832143Y42589524D01*
X16784524Y42613333D01*
X16689286Y42613333D01*
X16641667Y42589524D01*
X16617858Y42565714D01*
X16594048Y42518095D01*
X17189286Y42803810D02*
X17236905Y42803810D01*
X17284524Y42780000D01*
X17308333Y42756190D01*
X17332143Y42708571D01*
X17355952Y42613333D01*
X17355952Y42494286D01*
X17332143Y42399048D01*
X17308333Y42351429D01*
X17284524Y42327619D01*
X17236905Y42303810D01*
X17189286Y42303810D01*
X17141667Y42327619D01*
X17117857Y42351429D01*
X17094048Y42399048D01*
X17070238Y42494286D01*
X17070238Y42613333D01*
X17094048Y42708571D01*
X17117857Y42756190D01*
X17141667Y42780000D01*
X17189286Y42803810D01*
X39578572Y13051429D02*
X39554762Y13027619D01*
X39483334Y13003810D01*
X39435715Y13003810D01*
X39364286Y13027619D01*
X39316667Y13075238D01*
X39292858Y13122857D01*
X39269048Y13218095D01*
X39269048Y13289524D01*
X39292858Y13384762D01*
X39316667Y13432381D01*
X39364286Y13480000D01*
X39435715Y13503810D01*
X39483334Y13503810D01*
X39554762Y13480000D01*
X39578572Y13456190D01*
X39816667Y13003810D02*
X39911905Y13003810D01*
X39959524Y13027619D01*
X39983334Y13051429D01*
X40030953Y13122857D01*
X40054762Y13218095D01*
X40054762Y13408571D01*
X40030953Y13456190D01*
X40007143Y13480000D01*
X39959524Y13503810D01*
X39864286Y13503810D01*
X39816667Y13480000D01*
X39792858Y13456190D01*
X39769048Y13408571D01*
X39769048Y13289524D01*
X39792858Y13241905D01*
X39816667Y13218095D01*
X39864286Y13194286D01*
X39959524Y13194286D01*
X40007143Y13218095D01*
X40030953Y13241905D01*
X40054762Y13289524D01*
X40221429Y13503810D02*
X40530952Y13503810D01*
X40364286Y13313333D01*
X40435714Y13313333D01*
X40483333Y13289524D01*
X40507143Y13265714D01*
X40530952Y13218095D01*
X40530952Y13099048D01*
X40507143Y13051429D01*
X40483333Y13027619D01*
X40435714Y13003810D01*
X40292857Y13003810D01*
X40245238Y13027619D01*
X40221429Y13051429D01*
X34588571Y6148572D02*
X34612381Y6124762D01*
X34636190Y6053334D01*
X34636190Y6005715D01*
X34612381Y5934286D01*
X34564762Y5886667D01*
X34517143Y5862858D01*
X34421905Y5839048D01*
X34350476Y5839048D01*
X34255238Y5862858D01*
X34207619Y5886667D01*
X34160000Y5934286D01*
X34136190Y6005715D01*
X34136190Y6053334D01*
X34160000Y6124762D01*
X34183810Y6148572D01*
X34636190Y6386667D02*
X34636190Y6481905D01*
X34612381Y6529524D01*
X34588571Y6553334D01*
X34517143Y6600953D01*
X34421905Y6624762D01*
X34231429Y6624762D01*
X34183810Y6600953D01*
X34160000Y6577143D01*
X34136190Y6529524D01*
X34136190Y6434286D01*
X34160000Y6386667D01*
X34183810Y6362858D01*
X34231429Y6339048D01*
X34350476Y6339048D01*
X34398095Y6362858D01*
X34421905Y6386667D01*
X34445714Y6434286D01*
X34445714Y6529524D01*
X34421905Y6577143D01*
X34398095Y6600953D01*
X34350476Y6624762D01*
X34302857Y7053333D02*
X34636190Y7053333D01*
X34112381Y6934286D02*
X34469524Y6815238D01*
X34469524Y7124762D01*
X17991667Y9153810D02*
X17825000Y9391905D01*
X17705953Y9153810D02*
X17705953Y9653810D01*
X17896429Y9653810D01*
X17944048Y9630000D01*
X17967857Y9606190D01*
X17991667Y9558571D01*
X17991667Y9487143D01*
X17967857Y9439524D01*
X17944048Y9415714D01*
X17896429Y9391905D01*
X17705953Y9391905D01*
X18158334Y9653810D02*
X18467857Y9653810D01*
X18301191Y9463333D01*
X18372619Y9463333D01*
X18420238Y9439524D01*
X18444048Y9415714D01*
X18467857Y9368095D01*
X18467857Y9249048D01*
X18444048Y9201429D01*
X18420238Y9177619D01*
X18372619Y9153810D01*
X18229762Y9153810D01*
X18182143Y9177619D01*
X18158334Y9201429D01*
X42678572Y13428810D02*
X42511905Y13666905D01*
X42392858Y13428810D02*
X42392858Y13928810D01*
X42583334Y13928810D01*
X42630953Y13905000D01*
X42654762Y13881190D01*
X42678572Y13833571D01*
X42678572Y13762143D01*
X42654762Y13714524D01*
X42630953Y13690714D01*
X42583334Y13666905D01*
X42392858Y13666905D01*
X43154762Y13428810D02*
X42869048Y13428810D01*
X43011905Y13428810D02*
X43011905Y13928810D01*
X42964286Y13857381D01*
X42916667Y13809762D01*
X42869048Y13785952D01*
X43345238Y13881190D02*
X43369048Y13905000D01*
X43416667Y13928810D01*
X43535714Y13928810D01*
X43583333Y13905000D01*
X43607143Y13881190D01*
X43630952Y13833571D01*
X43630952Y13785952D01*
X43607143Y13714524D01*
X43321429Y13428810D01*
X43630952Y13428810D01*
X40476190Y16108572D02*
X40238095Y15941905D01*
X40476190Y15822858D02*
X39976190Y15822858D01*
X39976190Y16013334D01*
X40000000Y16060953D01*
X40023810Y16084762D01*
X40071429Y16108572D01*
X40142857Y16108572D01*
X40190476Y16084762D01*
X40214286Y16060953D01*
X40238095Y16013334D01*
X40238095Y15822858D01*
X40476190Y16584762D02*
X40476190Y16299048D01*
X40476190Y16441905D02*
X39976190Y16441905D01*
X40047619Y16394286D01*
X40095238Y16346667D01*
X40119048Y16299048D01*
X39976190Y16751429D02*
X39976190Y17060952D01*
X40166667Y16894286D01*
X40166667Y16965714D01*
X40190476Y17013333D01*
X40214286Y17037143D01*
X40261905Y17060952D01*
X40380952Y17060952D01*
X40428571Y17037143D01*
X40452381Y17013333D01*
X40476190Y16965714D01*
X40476190Y16822857D01*
X40452381Y16775238D01*
X40428571Y16751429D01*
X44578572Y21003810D02*
X44411905Y21241905D01*
X44292858Y21003810D02*
X44292858Y21503810D01*
X44483334Y21503810D01*
X44530953Y21480000D01*
X44554762Y21456190D01*
X44578572Y21408571D01*
X44578572Y21337143D01*
X44554762Y21289524D01*
X44530953Y21265714D01*
X44483334Y21241905D01*
X44292858Y21241905D01*
X44769048Y21456190D02*
X44792858Y21480000D01*
X44840477Y21503810D01*
X44959524Y21503810D01*
X45007143Y21480000D01*
X45030953Y21456190D01*
X45054762Y21408571D01*
X45054762Y21360952D01*
X45030953Y21289524D01*
X44745239Y21003810D01*
X45054762Y21003810D01*
X45221429Y21503810D02*
X45530952Y21503810D01*
X45364286Y21313333D01*
X45435714Y21313333D01*
X45483333Y21289524D01*
X45507143Y21265714D01*
X45530952Y21218095D01*
X45530952Y21099048D01*
X45507143Y21051429D01*
X45483333Y21027619D01*
X45435714Y21003810D01*
X45292857Y21003810D01*
X45245238Y21027619D01*
X45221429Y21051429D01*
X6728572Y51778810D02*
X6561905Y52016905D01*
X6442858Y51778810D02*
X6442858Y52278810D01*
X6633334Y52278810D01*
X6680953Y52255000D01*
X6704762Y52231190D01*
X6728572Y52183571D01*
X6728572Y52112143D01*
X6704762Y52064524D01*
X6680953Y52040714D01*
X6633334Y52016905D01*
X6442858Y52016905D01*
X6919048Y52231190D02*
X6942858Y52255000D01*
X6990477Y52278810D01*
X7109524Y52278810D01*
X7157143Y52255000D01*
X7180953Y52231190D01*
X7204762Y52183571D01*
X7204762Y52135952D01*
X7180953Y52064524D01*
X6895239Y51778810D01*
X7204762Y51778810D01*
X7633333Y52112143D02*
X7633333Y51778810D01*
X7514286Y52302619D02*
X7395238Y51945476D01*
X7704762Y51945476D01*
X47078572Y15828810D02*
X46911905Y16066905D01*
X46792858Y15828810D02*
X46792858Y16328810D01*
X46983334Y16328810D01*
X47030953Y16305000D01*
X47054762Y16281190D01*
X47078572Y16233571D01*
X47078572Y16162143D01*
X47054762Y16114524D01*
X47030953Y16090714D01*
X46983334Y16066905D01*
X46792858Y16066905D01*
X47269048Y16281190D02*
X47292858Y16305000D01*
X47340477Y16328810D01*
X47459524Y16328810D01*
X47507143Y16305000D01*
X47530953Y16281190D01*
X47554762Y16233571D01*
X47554762Y16185952D01*
X47530953Y16114524D01*
X47245239Y15828810D01*
X47554762Y15828810D01*
X47721429Y16328810D02*
X48054762Y16328810D01*
X47840476Y15828810D01*
X48601190Y17158572D02*
X48363095Y16991905D01*
X48601190Y16872858D02*
X48101190Y16872858D01*
X48101190Y17063334D01*
X48125000Y17110953D01*
X48148810Y17134762D01*
X48196429Y17158572D01*
X48267857Y17158572D01*
X48315476Y17134762D01*
X48339286Y17110953D01*
X48363095Y17063334D01*
X48363095Y16872858D01*
X48148810Y17349048D02*
X48125000Y17372858D01*
X48101190Y17420477D01*
X48101190Y17539524D01*
X48125000Y17587143D01*
X48148810Y17610953D01*
X48196429Y17634762D01*
X48244048Y17634762D01*
X48315476Y17610953D01*
X48601190Y17325239D01*
X48601190Y17634762D01*
X48315476Y17920476D02*
X48291667Y17872857D01*
X48267857Y17849048D01*
X48220238Y17825238D01*
X48196429Y17825238D01*
X48148810Y17849048D01*
X48125000Y17872857D01*
X48101190Y17920476D01*
X48101190Y18015714D01*
X48125000Y18063333D01*
X48148810Y18087143D01*
X48196429Y18110952D01*
X48220238Y18110952D01*
X48267857Y18087143D01*
X48291667Y18063333D01*
X48315476Y18015714D01*
X48315476Y17920476D01*
X48339286Y17872857D01*
X48363095Y17849048D01*
X48410714Y17825238D01*
X48505952Y17825238D01*
X48553571Y17849048D01*
X48577381Y17872857D01*
X48601190Y17920476D01*
X48601190Y18015714D01*
X48577381Y18063333D01*
X48553571Y18087143D01*
X48505952Y18110952D01*
X48410714Y18110952D01*
X48363095Y18087143D01*
X48339286Y18063333D01*
X48315476Y18015714D01*
X38096190Y6638572D02*
X37858095Y6471905D01*
X38096190Y6352858D02*
X37596190Y6352858D01*
X37596190Y6543334D01*
X37620000Y6590953D01*
X37643810Y6614762D01*
X37691429Y6638572D01*
X37762857Y6638572D01*
X37810476Y6614762D01*
X37834286Y6590953D01*
X37858095Y6543334D01*
X37858095Y6352858D01*
X37596190Y6805239D02*
X37596190Y7114762D01*
X37786667Y6948096D01*
X37786667Y7019524D01*
X37810476Y7067143D01*
X37834286Y7090953D01*
X37881905Y7114762D01*
X38000952Y7114762D01*
X38048571Y7090953D01*
X38072381Y7067143D01*
X38096190Y7019524D01*
X38096190Y6876667D01*
X38072381Y6829048D01*
X38048571Y6805239D01*
X38096190Y7590952D02*
X38096190Y7305238D01*
X38096190Y7448095D02*
X37596190Y7448095D01*
X37667619Y7400476D01*
X37715238Y7352857D01*
X37739048Y7305238D01*
X43526190Y53958572D02*
X43288095Y53791905D01*
X43526190Y53672858D02*
X43026190Y53672858D01*
X43026190Y53863334D01*
X43050000Y53910953D01*
X43073810Y53934762D01*
X43121429Y53958572D01*
X43192857Y53958572D01*
X43240476Y53934762D01*
X43264286Y53910953D01*
X43288095Y53863334D01*
X43288095Y53672858D01*
X43026190Y54125239D02*
X43026190Y54434762D01*
X43216667Y54268096D01*
X43216667Y54339524D01*
X43240476Y54387143D01*
X43264286Y54410953D01*
X43311905Y54434762D01*
X43430952Y54434762D01*
X43478571Y54410953D01*
X43502381Y54387143D01*
X43526190Y54339524D01*
X43526190Y54196667D01*
X43502381Y54149048D01*
X43478571Y54125239D01*
X43026190Y54863333D02*
X43026190Y54768095D01*
X43050000Y54720476D01*
X43073810Y54696667D01*
X43145238Y54649048D01*
X43240476Y54625238D01*
X43430952Y54625238D01*
X43478571Y54649048D01*
X43502381Y54672857D01*
X43526190Y54720476D01*
X43526190Y54815714D01*
X43502381Y54863333D01*
X43478571Y54887143D01*
X43430952Y54910952D01*
X43311905Y54910952D01*
X43264286Y54887143D01*
X43240476Y54863333D01*
X43216667Y54815714D01*
X43216667Y54720476D01*
X43240476Y54672857D01*
X43264286Y54649048D01*
X43311905Y54625238D01*
X46326190Y52208572D02*
X46088095Y52041905D01*
X46326190Y51922858D02*
X45826190Y51922858D01*
X45826190Y52113334D01*
X45850000Y52160953D01*
X45873810Y52184762D01*
X45921429Y52208572D01*
X45992857Y52208572D01*
X46040476Y52184762D01*
X46064286Y52160953D01*
X46088095Y52113334D01*
X46088095Y51922858D01*
X45826190Y52375239D02*
X45826190Y52684762D01*
X46016667Y52518096D01*
X46016667Y52589524D01*
X46040476Y52637143D01*
X46064286Y52660953D01*
X46111905Y52684762D01*
X46230952Y52684762D01*
X46278571Y52660953D01*
X46302381Y52637143D01*
X46326190Y52589524D01*
X46326190Y52446667D01*
X46302381Y52399048D01*
X46278571Y52375239D01*
X45826190Y52851429D02*
X45826190Y53184762D01*
X46326190Y52970476D01*
X26336190Y49990953D02*
X26740952Y49990953D01*
X26788571Y50014762D01*
X26812381Y50038572D01*
X26836190Y50086191D01*
X26836190Y50181429D01*
X26812381Y50229048D01*
X26788571Y50252857D01*
X26740952Y50276667D01*
X26336190Y50276667D01*
X26836190Y50776667D02*
X26836190Y50490953D01*
X26836190Y50633810D02*
X26336190Y50633810D01*
X26407619Y50586191D01*
X26455238Y50538572D01*
X26479048Y50490953D01*
X26336190Y51086191D02*
X26336190Y51133810D01*
X26360000Y51181429D01*
X26383810Y51205238D01*
X26431429Y51229048D01*
X26526667Y51252857D01*
X26645714Y51252857D01*
X26740952Y51229048D01*
X26788571Y51205238D01*
X26812381Y51181429D01*
X26836190Y51133810D01*
X26836190Y51086191D01*
X26812381Y51038572D01*
X26788571Y51014762D01*
X26740952Y50990953D01*
X26645714Y50967143D01*
X26526667Y50967143D01*
X26431429Y50990953D01*
X26383810Y51014762D01*
X26360000Y51038572D01*
X26336190Y51086191D01*
X18760953Y19193810D02*
X18760953Y18789048D01*
X18784762Y18741429D01*
X18808572Y18717619D01*
X18856191Y18693810D01*
X18951429Y18693810D01*
X18999048Y18717619D01*
X19022857Y18741429D01*
X19046667Y18789048D01*
X19046667Y19193810D01*
X19546667Y18693810D02*
X19260953Y18693810D01*
X19403810Y18693810D02*
X19403810Y19193810D01*
X19356191Y19122381D01*
X19308572Y19074762D01*
X19260953Y19050952D01*
X20022857Y18693810D02*
X19737143Y18693810D01*
X19880000Y18693810D02*
X19880000Y19193810D01*
X19832381Y19122381D01*
X19784762Y19074762D01*
X19737143Y19050952D01*
X11463571Y-1006428D02*
X11487381Y-1030238D01*
X11511190Y-1101666D01*
X11511190Y-1149285D01*
X11487381Y-1220714D01*
X11439762Y-1268333D01*
X11392143Y-1292142D01*
X11296905Y-1315952D01*
X11225476Y-1315952D01*
X11130238Y-1292142D01*
X11082619Y-1268333D01*
X11035000Y-1220714D01*
X11011190Y-1149285D01*
X11011190Y-1101666D01*
X11035000Y-1030238D01*
X11058810Y-1006428D01*
X11177857Y-577857D02*
X11511190Y-577857D01*
X10987381Y-696904D02*
X11344524Y-815952D01*
X11344524Y-506428D01*
X11011190Y-363571D02*
X11011190Y-30238D01*
X11511190Y-244524D01*
X17073571Y-1006428D02*
X17097381Y-1030238D01*
X17121190Y-1101666D01*
X17121190Y-1149285D01*
X17097381Y-1220714D01*
X17049762Y-1268333D01*
X17002143Y-1292142D01*
X16906905Y-1315952D01*
X16835476Y-1315952D01*
X16740238Y-1292142D01*
X16692619Y-1268333D01*
X16645000Y-1220714D01*
X16621190Y-1149285D01*
X16621190Y-1101666D01*
X16645000Y-1030238D01*
X16668810Y-1006428D01*
X16787857Y-577857D02*
X17121190Y-577857D01*
X16597381Y-696904D02*
X16954524Y-815952D01*
X16954524Y-506428D01*
X16835476Y-244524D02*
X16811667Y-292143D01*
X16787857Y-315952D01*
X16740238Y-339762D01*
X16716429Y-339762D01*
X16668810Y-315952D01*
X16645000Y-292143D01*
X16621190Y-244524D01*
X16621190Y-149286D01*
X16645000Y-101667D01*
X16668810Y-77857D01*
X16716429Y-54048D01*
X16740238Y-54048D01*
X16787857Y-77857D01*
X16811667Y-101667D01*
X16835476Y-149286D01*
X16835476Y-244524D01*
X16859286Y-292143D01*
X16883095Y-315952D01*
X16930714Y-339762D01*
X17025952Y-339762D01*
X17073571Y-315952D01*
X17097381Y-292143D01*
X17121190Y-244524D01*
X17121190Y-149286D01*
X17097381Y-101667D01*
X17073571Y-77857D01*
X17025952Y-54048D01*
X16930714Y-54048D01*
X16883095Y-77857D01*
X16859286Y-101667D01*
X16835476Y-149286D01*
X5808571Y-1006428D02*
X5832381Y-1030238D01*
X5856190Y-1101666D01*
X5856190Y-1149285D01*
X5832381Y-1220714D01*
X5784762Y-1268333D01*
X5737143Y-1292142D01*
X5641905Y-1315952D01*
X5570476Y-1315952D01*
X5475238Y-1292142D01*
X5427619Y-1268333D01*
X5380000Y-1220714D01*
X5356190Y-1149285D01*
X5356190Y-1101666D01*
X5380000Y-1030238D01*
X5403810Y-1006428D01*
X5356190Y-554047D02*
X5356190Y-792142D01*
X5594286Y-815952D01*
X5570476Y-792142D01*
X5546667Y-744523D01*
X5546667Y-625476D01*
X5570476Y-577857D01*
X5594286Y-554047D01*
X5641905Y-530238D01*
X5760952Y-530238D01*
X5808571Y-554047D01*
X5832381Y-577857D01*
X5856190Y-625476D01*
X5856190Y-744523D01*
X5832381Y-792142D01*
X5808571Y-815952D01*
X5356190Y-77857D02*
X5356190Y-315952D01*
X5594286Y-339762D01*
X5570476Y-315952D01*
X5546667Y-268333D01*
X5546667Y-149286D01*
X5570476Y-101667D01*
X5594286Y-77857D01*
X5641905Y-54048D01*
X5760952Y-54048D01*
X5808571Y-77857D01*
X5832381Y-101667D01*
X5856190Y-149286D01*
X5856190Y-268333D01*
X5832381Y-315952D01*
X5808571Y-339762D01*
X12628572Y43151429D02*
X12604762Y43127619D01*
X12533334Y43103810D01*
X12485715Y43103810D01*
X12414286Y43127619D01*
X12366667Y43175238D01*
X12342858Y43222857D01*
X12319048Y43318095D01*
X12319048Y43389524D01*
X12342858Y43484762D01*
X12366667Y43532381D01*
X12414286Y43580000D01*
X12485715Y43603810D01*
X12533334Y43603810D01*
X12604762Y43580000D01*
X12628572Y43556190D01*
X13057143Y43603810D02*
X12961905Y43603810D01*
X12914286Y43580000D01*
X12890477Y43556190D01*
X12842858Y43484762D01*
X12819048Y43389524D01*
X12819048Y43199048D01*
X12842858Y43151429D01*
X12866667Y43127619D01*
X12914286Y43103810D01*
X13009524Y43103810D01*
X13057143Y43127619D01*
X13080953Y43151429D01*
X13104762Y43199048D01*
X13104762Y43318095D01*
X13080953Y43365714D01*
X13057143Y43389524D01*
X13009524Y43413333D01*
X12914286Y43413333D01*
X12866667Y43389524D01*
X12842858Y43365714D01*
X12819048Y43318095D01*
X13533333Y43437143D02*
X13533333Y43103810D01*
X13414286Y43627619D02*
X13295238Y43270476D01*
X13604762Y43270476D01*
X24778572Y38601429D02*
X24754762Y38577619D01*
X24683334Y38553810D01*
X24635715Y38553810D01*
X24564286Y38577619D01*
X24516667Y38625238D01*
X24492858Y38672857D01*
X24469048Y38768095D01*
X24469048Y38839524D01*
X24492858Y38934762D01*
X24516667Y38982381D01*
X24564286Y39030000D01*
X24635715Y39053810D01*
X24683334Y39053810D01*
X24754762Y39030000D01*
X24778572Y39006190D01*
X25207143Y39053810D02*
X25111905Y39053810D01*
X25064286Y39030000D01*
X25040477Y39006190D01*
X24992858Y38934762D01*
X24969048Y38839524D01*
X24969048Y38649048D01*
X24992858Y38601429D01*
X25016667Y38577619D01*
X25064286Y38553810D01*
X25159524Y38553810D01*
X25207143Y38577619D01*
X25230953Y38601429D01*
X25254762Y38649048D01*
X25254762Y38768095D01*
X25230953Y38815714D01*
X25207143Y38839524D01*
X25159524Y38863333D01*
X25064286Y38863333D01*
X25016667Y38839524D01*
X24992858Y38815714D01*
X24969048Y38768095D01*
X25707143Y39053810D02*
X25469048Y39053810D01*
X25445238Y38815714D01*
X25469048Y38839524D01*
X25516667Y38863333D01*
X25635714Y38863333D01*
X25683333Y38839524D01*
X25707143Y38815714D01*
X25730952Y38768095D01*
X25730952Y38649048D01*
X25707143Y38601429D01*
X25683333Y38577619D01*
X25635714Y38553810D01*
X25516667Y38553810D01*
X25469048Y38577619D01*
X25445238Y38601429D01*
X28428572Y33826429D02*
X28404762Y33802619D01*
X28333334Y33778810D01*
X28285715Y33778810D01*
X28214286Y33802619D01*
X28166667Y33850238D01*
X28142858Y33897857D01*
X28119048Y33993095D01*
X28119048Y34064524D01*
X28142858Y34159762D01*
X28166667Y34207381D01*
X28214286Y34255000D01*
X28285715Y34278810D01*
X28333334Y34278810D01*
X28404762Y34255000D01*
X28428572Y34231190D01*
X28857143Y34278810D02*
X28761905Y34278810D01*
X28714286Y34255000D01*
X28690477Y34231190D01*
X28642858Y34159762D01*
X28619048Y34064524D01*
X28619048Y33874048D01*
X28642858Y33826429D01*
X28666667Y33802619D01*
X28714286Y33778810D01*
X28809524Y33778810D01*
X28857143Y33802619D01*
X28880953Y33826429D01*
X28904762Y33874048D01*
X28904762Y33993095D01*
X28880953Y34040714D01*
X28857143Y34064524D01*
X28809524Y34088333D01*
X28714286Y34088333D01*
X28666667Y34064524D01*
X28642858Y34040714D01*
X28619048Y33993095D01*
X29142857Y33778810D02*
X29238095Y33778810D01*
X29285714Y33802619D01*
X29309524Y33826429D01*
X29357143Y33897857D01*
X29380952Y33993095D01*
X29380952Y34183571D01*
X29357143Y34231190D01*
X29333333Y34255000D01*
X29285714Y34278810D01*
X29190476Y34278810D01*
X29142857Y34255000D01*
X29119048Y34231190D01*
X29095238Y34183571D01*
X29095238Y34064524D01*
X29119048Y34016905D01*
X29142857Y33993095D01*
X29190476Y33969286D01*
X29285714Y33969286D01*
X29333333Y33993095D01*
X29357143Y34016905D01*
X29380952Y34064524D01*
X18798810Y-1677619D02*
X18775000Y-1725238D01*
X18727381Y-1772857D01*
X18655952Y-1844286D01*
X18632143Y-1891905D01*
X18632143Y-1939524D01*
X18751190Y-1915714D02*
X18727381Y-1963333D01*
X18679762Y-2010952D01*
X18584524Y-2034762D01*
X18417857Y-2034762D01*
X18322619Y-2010952D01*
X18275000Y-1963333D01*
X18251190Y-1915714D01*
X18251190Y-1820476D01*
X18275000Y-1772857D01*
X18322619Y-1725238D01*
X18417857Y-1701429D01*
X18584524Y-1701429D01*
X18679762Y-1725238D01*
X18727381Y-1772857D01*
X18751190Y-1820476D01*
X18751190Y-1915714D01*
X18751190Y-1225238D02*
X18751190Y-1510952D01*
X18751190Y-1368095D02*
X18251190Y-1368095D01*
X18322619Y-1415714D01*
X18370238Y-1463333D01*
X18394048Y-1510952D01*
X13008810Y-1762619D02*
X12985000Y-1810238D01*
X12937381Y-1857857D01*
X12865952Y-1929286D01*
X12842143Y-1976905D01*
X12842143Y-2024524D01*
X12961190Y-2000714D02*
X12937381Y-2048333D01*
X12889762Y-2095952D01*
X12794524Y-2119762D01*
X12627857Y-2119762D01*
X12532619Y-2095952D01*
X12485000Y-2048333D01*
X12461190Y-2000714D01*
X12461190Y-1905476D01*
X12485000Y-1857857D01*
X12532619Y-1810238D01*
X12627857Y-1786429D01*
X12794524Y-1786429D01*
X12889762Y-1810238D01*
X12937381Y-1857857D01*
X12961190Y-1905476D01*
X12961190Y-2000714D01*
X12508810Y-1595952D02*
X12485000Y-1572142D01*
X12461190Y-1524523D01*
X12461190Y-1405476D01*
X12485000Y-1357857D01*
X12508810Y-1334047D01*
X12556429Y-1310238D01*
X12604048Y-1310238D01*
X12675476Y-1334047D01*
X12961190Y-1619761D01*
X12961190Y-1310238D01*
X7558810Y-1687619D02*
X7535000Y-1735238D01*
X7487381Y-1782857D01*
X7415952Y-1854286D01*
X7392143Y-1901905D01*
X7392143Y-1949524D01*
X7511190Y-1925714D02*
X7487381Y-1973333D01*
X7439762Y-2020952D01*
X7344524Y-2044762D01*
X7177857Y-2044762D01*
X7082619Y-2020952D01*
X7035000Y-1973333D01*
X7011190Y-1925714D01*
X7011190Y-1830476D01*
X7035000Y-1782857D01*
X7082619Y-1735238D01*
X7177857Y-1711429D01*
X7344524Y-1711429D01*
X7439762Y-1735238D01*
X7487381Y-1782857D01*
X7511190Y-1830476D01*
X7511190Y-1925714D01*
X7011190Y-1544761D02*
X7011190Y-1235238D01*
X7201667Y-1401904D01*
X7201667Y-1330476D01*
X7225476Y-1282857D01*
X7249286Y-1259047D01*
X7296905Y-1235238D01*
X7415952Y-1235238D01*
X7463571Y-1259047D01*
X7487381Y-1282857D01*
X7511190Y-1330476D01*
X7511190Y-1473333D01*
X7487381Y-1520952D01*
X7463571Y-1544761D01*
X1773810Y-1822619D02*
X1750000Y-1870238D01*
X1702381Y-1917857D01*
X1630952Y-1989286D01*
X1607143Y-2036905D01*
X1607143Y-2084524D01*
X1726190Y-2060714D02*
X1702381Y-2108333D01*
X1654762Y-2155952D01*
X1559524Y-2179762D01*
X1392857Y-2179762D01*
X1297619Y-2155952D01*
X1250000Y-2108333D01*
X1226190Y-2060714D01*
X1226190Y-1965476D01*
X1250000Y-1917857D01*
X1297619Y-1870238D01*
X1392857Y-1846429D01*
X1559524Y-1846429D01*
X1654762Y-1870238D01*
X1702381Y-1917857D01*
X1726190Y-1965476D01*
X1726190Y-2060714D01*
X1392857Y-1417857D02*
X1726190Y-1417857D01*
X1202381Y-1536904D02*
X1559524Y-1655952D01*
X1559524Y-1346428D01*
X22906667Y-5126190D02*
X22740000Y-4888095D01*
X22620953Y-5126190D02*
X22620953Y-4626190D01*
X22811429Y-4626190D01*
X22859048Y-4650000D01*
X22882857Y-4673810D01*
X22906667Y-4721429D01*
X22906667Y-4792857D01*
X22882857Y-4840476D01*
X22859048Y-4864286D01*
X22811429Y-4888095D01*
X22620953Y-4888095D01*
X23335238Y-4792857D02*
X23335238Y-5126190D01*
X23216191Y-4602381D02*
X23097143Y-4959524D01*
X23406667Y-4959524D01*
X11201667Y-5216190D02*
X11035000Y-4978095D01*
X10915953Y-5216190D02*
X10915953Y-4716190D01*
X11106429Y-4716190D01*
X11154048Y-4740000D01*
X11177857Y-4763810D01*
X11201667Y-4811429D01*
X11201667Y-4882857D01*
X11177857Y-4930476D01*
X11154048Y-4954286D01*
X11106429Y-4978095D01*
X10915953Y-4978095D01*
X11654048Y-4716190D02*
X11415953Y-4716190D01*
X11392143Y-4954286D01*
X11415953Y-4930476D01*
X11463572Y-4906667D01*
X11582619Y-4906667D01*
X11630238Y-4930476D01*
X11654048Y-4954286D01*
X11677857Y-5001905D01*
X11677857Y-5120952D01*
X11654048Y-5168571D01*
X11630238Y-5192381D01*
X11582619Y-5216190D01*
X11463572Y-5216190D01*
X11415953Y-5192381D01*
X11392143Y-5168571D01*
X16806667Y-5266190D02*
X16640000Y-5028095D01*
X16520953Y-5266190D02*
X16520953Y-4766190D01*
X16711429Y-4766190D01*
X16759048Y-4790000D01*
X16782857Y-4813810D01*
X16806667Y-4861429D01*
X16806667Y-4932857D01*
X16782857Y-4980476D01*
X16759048Y-5004286D01*
X16711429Y-5028095D01*
X16520953Y-5028095D01*
X17235238Y-4766190D02*
X17140000Y-4766190D01*
X17092381Y-4790000D01*
X17068572Y-4813810D01*
X17020953Y-4885238D01*
X16997143Y-4980476D01*
X16997143Y-5170952D01*
X17020953Y-5218571D01*
X17044762Y-5242381D01*
X17092381Y-5266190D01*
X17187619Y-5266190D01*
X17235238Y-5242381D01*
X17259048Y-5218571D01*
X17282857Y-5170952D01*
X17282857Y-5051905D01*
X17259048Y-5004286D01*
X17235238Y-4980476D01*
X17187619Y-4956667D01*
X17092381Y-4956667D01*
X17044762Y-4980476D01*
X17020953Y-5004286D01*
X16997143Y-5051905D01*
X6156667Y-5326190D02*
X5990000Y-5088095D01*
X5870953Y-5326190D02*
X5870953Y-4826190D01*
X6061429Y-4826190D01*
X6109048Y-4850000D01*
X6132857Y-4873810D01*
X6156667Y-4921429D01*
X6156667Y-4992857D01*
X6132857Y-5040476D01*
X6109048Y-5064286D01*
X6061429Y-5088095D01*
X5870953Y-5088095D01*
X6323334Y-4826190D02*
X6656667Y-4826190D01*
X6442381Y-5326190D01*
X22351190Y-6924047D02*
X21851190Y-6924047D01*
X21851190Y-6805000D01*
X21875000Y-6733571D01*
X21922619Y-6685952D01*
X21970238Y-6662143D01*
X22065476Y-6638333D01*
X22136905Y-6638333D01*
X22232143Y-6662143D01*
X22279762Y-6685952D01*
X22327381Y-6733571D01*
X22351190Y-6805000D01*
X22351190Y-6924047D01*
X22351190Y-6162143D02*
X22351190Y-6447857D01*
X22351190Y-6305000D02*
X21851190Y-6305000D01*
X21922619Y-6352619D01*
X21970238Y-6400238D01*
X21994048Y-6447857D01*
X29608572Y39756429D02*
X29584762Y39732619D01*
X29513334Y39708810D01*
X29465715Y39708810D01*
X29394286Y39732619D01*
X29346667Y39780238D01*
X29322858Y39827857D01*
X29299048Y39923095D01*
X29299048Y39994524D01*
X29322858Y40089762D01*
X29346667Y40137381D01*
X29394286Y40185000D01*
X29465715Y40208810D01*
X29513334Y40208810D01*
X29584762Y40185000D01*
X29608572Y40161190D01*
X30060953Y40208810D02*
X29822858Y40208810D01*
X29799048Y39970714D01*
X29822858Y39994524D01*
X29870477Y40018333D01*
X29989524Y40018333D01*
X30037143Y39994524D01*
X30060953Y39970714D01*
X30084762Y39923095D01*
X30084762Y39804048D01*
X30060953Y39756429D01*
X30037143Y39732619D01*
X29989524Y39708810D01*
X29870477Y39708810D01*
X29822858Y39732619D01*
X29799048Y39756429D01*
X30370476Y39994524D02*
X30322857Y40018333D01*
X30299048Y40042143D01*
X30275238Y40089762D01*
X30275238Y40113571D01*
X30299048Y40161190D01*
X30322857Y40185000D01*
X30370476Y40208810D01*
X30465714Y40208810D01*
X30513333Y40185000D01*
X30537143Y40161190D01*
X30560952Y40113571D01*
X30560952Y40089762D01*
X30537143Y40042143D01*
X30513333Y40018333D01*
X30465714Y39994524D01*
X30370476Y39994524D01*
X30322857Y39970714D01*
X30299048Y39946905D01*
X30275238Y39899286D01*
X30275238Y39804048D01*
X30299048Y39756429D01*
X30322857Y39732619D01*
X30370476Y39708810D01*
X30465714Y39708810D01*
X30513333Y39732619D01*
X30537143Y39756429D01*
X30560952Y39804048D01*
X30560952Y39899286D01*
X30537143Y39946905D01*
X30513333Y39970714D01*
X30465714Y39994524D01*
X26611190Y-4314047D02*
X27015952Y-4314047D01*
X27063571Y-4290238D01*
X27087381Y-4266428D01*
X27111190Y-4218809D01*
X27111190Y-4123571D01*
X27087381Y-4075952D01*
X27063571Y-4052143D01*
X27015952Y-4028333D01*
X26611190Y-4028333D01*
X27111190Y-3528333D02*
X27111190Y-3814047D01*
X27111190Y-3671190D02*
X26611190Y-3671190D01*
X26682619Y-3718809D01*
X26730238Y-3766428D01*
X26754048Y-3814047D01*
X26658810Y-3337857D02*
X26635000Y-3314047D01*
X26611190Y-3266428D01*
X26611190Y-3147381D01*
X26635000Y-3099762D01*
X26658810Y-3075952D01*
X26706429Y-3052143D01*
X26754048Y-3052143D01*
X26825476Y-3075952D01*
X27111190Y-3361666D01*
X27111190Y-3052143D01*
X9901190Y-7139047D02*
X10305952Y-7139047D01*
X10353571Y-7115238D01*
X10377381Y-7091428D01*
X10401190Y-7043809D01*
X10401190Y-6948571D01*
X10377381Y-6900952D01*
X10353571Y-6877143D01*
X10305952Y-6853333D01*
X9901190Y-6853333D01*
X10401190Y-6353333D02*
X10401190Y-6639047D01*
X10401190Y-6496190D02*
X9901190Y-6496190D01*
X9972619Y-6543809D01*
X10020238Y-6591428D01*
X10044048Y-6639047D01*
X9901190Y-6186666D02*
X9901190Y-5877143D01*
X10091667Y-6043809D01*
X10091667Y-5972381D01*
X10115476Y-5924762D01*
X10139286Y-5900952D01*
X10186905Y-5877143D01*
X10305952Y-5877143D01*
X10353571Y-5900952D01*
X10377381Y-5924762D01*
X10401190Y-5972381D01*
X10401190Y-6115238D01*
X10377381Y-6162857D01*
X10353571Y-6186666D01*
X15496190Y-7164047D02*
X15900952Y-7164047D01*
X15948571Y-7140238D01*
X15972381Y-7116428D01*
X15996190Y-7068809D01*
X15996190Y-6973571D01*
X15972381Y-6925952D01*
X15948571Y-6902143D01*
X15900952Y-6878333D01*
X15496190Y-6878333D01*
X15996190Y-6378333D02*
X15996190Y-6664047D01*
X15996190Y-6521190D02*
X15496190Y-6521190D01*
X15567619Y-6568809D01*
X15615238Y-6616428D01*
X15639048Y-6664047D01*
X15662857Y-5949762D02*
X15996190Y-5949762D01*
X15472381Y-6068809D02*
X15829524Y-6187857D01*
X15829524Y-5878333D01*
X4301190Y-7099047D02*
X4705952Y-7099047D01*
X4753571Y-7075238D01*
X4777381Y-7051428D01*
X4801190Y-7003809D01*
X4801190Y-6908571D01*
X4777381Y-6860952D01*
X4753571Y-6837143D01*
X4705952Y-6813333D01*
X4301190Y-6813333D01*
X4801190Y-6313333D02*
X4801190Y-6599047D01*
X4801190Y-6456190D02*
X4301190Y-6456190D01*
X4372619Y-6503809D01*
X4420238Y-6551428D01*
X4444048Y-6599047D01*
X4301190Y-5860952D02*
X4301190Y-6099047D01*
X4539286Y-6122857D01*
X4515476Y-6099047D01*
X4491667Y-6051428D01*
X4491667Y-5932381D01*
X4515476Y-5884762D01*
X4539286Y-5860952D01*
X4586905Y-5837143D01*
X4705952Y-5837143D01*
X4753571Y-5860952D01*
X4777381Y-5884762D01*
X4801190Y-5932381D01*
X4801190Y-6051428D01*
X4777381Y-6099047D01*
X4753571Y-6122857D01*
X25518572Y45036429D02*
X25494762Y45012619D01*
X25423334Y44988810D01*
X25375715Y44988810D01*
X25304286Y45012619D01*
X25256667Y45060238D01*
X25232858Y45107857D01*
X25209048Y45203095D01*
X25209048Y45274524D01*
X25232858Y45369762D01*
X25256667Y45417381D01*
X25304286Y45465000D01*
X25375715Y45488810D01*
X25423334Y45488810D01*
X25494762Y45465000D01*
X25518572Y45441190D01*
X25947143Y45488810D02*
X25851905Y45488810D01*
X25804286Y45465000D01*
X25780477Y45441190D01*
X25732858Y45369762D01*
X25709048Y45274524D01*
X25709048Y45084048D01*
X25732858Y45036429D01*
X25756667Y45012619D01*
X25804286Y44988810D01*
X25899524Y44988810D01*
X25947143Y45012619D01*
X25970953Y45036429D01*
X25994762Y45084048D01*
X25994762Y45203095D01*
X25970953Y45250714D01*
X25947143Y45274524D01*
X25899524Y45298333D01*
X25804286Y45298333D01*
X25756667Y45274524D01*
X25732858Y45250714D01*
X25709048Y45203095D01*
X26470952Y44988810D02*
X26185238Y44988810D01*
X26328095Y44988810D02*
X26328095Y45488810D01*
X26280476Y45417381D01*
X26232857Y45369762D01*
X26185238Y45345952D01*
X19478572Y53151429D02*
X19454762Y53127619D01*
X19383334Y53103810D01*
X19335715Y53103810D01*
X19264286Y53127619D01*
X19216667Y53175238D01*
X19192858Y53222857D01*
X19169048Y53318095D01*
X19169048Y53389524D01*
X19192858Y53484762D01*
X19216667Y53532381D01*
X19264286Y53580000D01*
X19335715Y53603810D01*
X19383334Y53603810D01*
X19454762Y53580000D01*
X19478572Y53556190D01*
X19907143Y53603810D02*
X19811905Y53603810D01*
X19764286Y53580000D01*
X19740477Y53556190D01*
X19692858Y53484762D01*
X19669048Y53389524D01*
X19669048Y53199048D01*
X19692858Y53151429D01*
X19716667Y53127619D01*
X19764286Y53103810D01*
X19859524Y53103810D01*
X19907143Y53127619D01*
X19930953Y53151429D01*
X19954762Y53199048D01*
X19954762Y53318095D01*
X19930953Y53365714D01*
X19907143Y53389524D01*
X19859524Y53413333D01*
X19764286Y53413333D01*
X19716667Y53389524D01*
X19692858Y53365714D01*
X19669048Y53318095D01*
X20121429Y53603810D02*
X20454762Y53603810D01*
X20240476Y53103810D01*
X16028572Y18651429D02*
X16004762Y18627619D01*
X15933334Y18603810D01*
X15885715Y18603810D01*
X15814286Y18627619D01*
X15766667Y18675238D01*
X15742858Y18722857D01*
X15719048Y18818095D01*
X15719048Y18889524D01*
X15742858Y18984762D01*
X15766667Y19032381D01*
X15814286Y19080000D01*
X15885715Y19103810D01*
X15933334Y19103810D01*
X16004762Y19080000D01*
X16028572Y19056190D01*
X16195239Y19103810D02*
X16528572Y19103810D01*
X16314286Y18603810D01*
X16671429Y19103810D02*
X16980952Y19103810D01*
X16814286Y18913333D01*
X16885714Y18913333D01*
X16933333Y18889524D01*
X16957143Y18865714D01*
X16980952Y18818095D01*
X16980952Y18699048D01*
X16957143Y18651429D01*
X16933333Y18627619D01*
X16885714Y18603810D01*
X16742857Y18603810D01*
X16695238Y18627619D01*
X16671429Y18651429D01*
X14128572Y44428810D02*
X13890477Y44428810D01*
X13890477Y44928810D01*
X14557143Y44428810D02*
X14271429Y44428810D01*
X14414286Y44428810D02*
X14414286Y44928810D01*
X14366667Y44857381D01*
X14319048Y44809762D01*
X14271429Y44785952D01*
X14842857Y44714524D02*
X14795238Y44738333D01*
X14771429Y44762143D01*
X14747619Y44809762D01*
X14747619Y44833571D01*
X14771429Y44881190D01*
X14795238Y44905000D01*
X14842857Y44928810D01*
X14938095Y44928810D01*
X14985714Y44905000D01*
X15009524Y44881190D01*
X15033333Y44833571D01*
X15033333Y44809762D01*
X15009524Y44762143D01*
X14985714Y44738333D01*
X14938095Y44714524D01*
X14842857Y44714524D01*
X14795238Y44690714D01*
X14771429Y44666905D01*
X14747619Y44619286D01*
X14747619Y44524048D01*
X14771429Y44476429D01*
X14795238Y44452619D01*
X14842857Y44428810D01*
X14938095Y44428810D01*
X14985714Y44452619D01*
X15009524Y44476429D01*
X15033333Y44524048D01*
X15033333Y44619286D01*
X15009524Y44666905D01*
X14985714Y44690714D01*
X14938095Y44714524D01*
X24051190Y40458572D02*
X24051190Y40220477D01*
X23551190Y40220477D01*
X24051190Y40887143D02*
X24051190Y40601429D01*
X24051190Y40744286D02*
X23551190Y40744286D01*
X23622619Y40696667D01*
X23670238Y40649048D01*
X23694048Y40601429D01*
X24051190Y41125238D02*
X24051190Y41220476D01*
X24027381Y41268095D01*
X24003571Y41291905D01*
X23932143Y41339524D01*
X23836905Y41363333D01*
X23646429Y41363333D01*
X23598810Y41339524D01*
X23575000Y41315714D01*
X23551190Y41268095D01*
X23551190Y41172857D01*
X23575000Y41125238D01*
X23598810Y41101429D01*
X23646429Y41077619D01*
X23765476Y41077619D01*
X23813095Y41101429D01*
X23836905Y41125238D01*
X23860714Y41172857D01*
X23860714Y41268095D01*
X23836905Y41315714D01*
X23813095Y41339524D01*
X23765476Y41363333D01*
X15753572Y46978810D02*
X15515477Y46978810D01*
X15515477Y47478810D01*
X15896429Y47431190D02*
X15920239Y47455000D01*
X15967858Y47478810D01*
X16086905Y47478810D01*
X16134524Y47455000D01*
X16158334Y47431190D01*
X16182143Y47383571D01*
X16182143Y47335952D01*
X16158334Y47264524D01*
X15872620Y46978810D01*
X16182143Y46978810D01*
X16658333Y46978810D02*
X16372619Y46978810D01*
X16515476Y46978810D02*
X16515476Y47478810D01*
X16467857Y47407381D01*
X16420238Y47359762D01*
X16372619Y47335952D01*
X17203572Y49553810D02*
X16965477Y49553810D01*
X16965477Y50053810D01*
X17346429Y50006190D02*
X17370239Y50030000D01*
X17417858Y50053810D01*
X17536905Y50053810D01*
X17584524Y50030000D01*
X17608334Y50006190D01*
X17632143Y49958571D01*
X17632143Y49910952D01*
X17608334Y49839524D01*
X17322620Y49553810D01*
X17632143Y49553810D01*
X18060714Y49887143D02*
X18060714Y49553810D01*
X17941667Y50077619D02*
X17822619Y49720476D01*
X18132143Y49720476D01*
X16603572Y53103810D02*
X16365477Y53103810D01*
X16365477Y53603810D01*
X16746429Y53556190D02*
X16770239Y53580000D01*
X16817858Y53603810D01*
X16936905Y53603810D01*
X16984524Y53580000D01*
X17008334Y53556190D01*
X17032143Y53508571D01*
X17032143Y53460952D01*
X17008334Y53389524D01*
X16722620Y53103810D01*
X17032143Y53103810D01*
X17198810Y53603810D02*
X17532143Y53603810D01*
X17317857Y53103810D01*
X17603572Y47403810D02*
X17365477Y47403810D01*
X17365477Y47903810D01*
X17746429Y47856190D02*
X17770239Y47880000D01*
X17817858Y47903810D01*
X17936905Y47903810D01*
X17984524Y47880000D01*
X18008334Y47856190D01*
X18032143Y47808571D01*
X18032143Y47760952D01*
X18008334Y47689524D01*
X17722620Y47403810D01*
X18032143Y47403810D01*
X18317857Y47689524D02*
X18270238Y47713333D01*
X18246429Y47737143D01*
X18222619Y47784762D01*
X18222619Y47808571D01*
X18246429Y47856190D01*
X18270238Y47880000D01*
X18317857Y47903810D01*
X18413095Y47903810D01*
X18460714Y47880000D01*
X18484524Y47856190D01*
X18508333Y47808571D01*
X18508333Y47784762D01*
X18484524Y47737143D01*
X18460714Y47713333D01*
X18413095Y47689524D01*
X18317857Y47689524D01*
X18270238Y47665714D01*
X18246429Y47641905D01*
X18222619Y47594286D01*
X18222619Y47499048D01*
X18246429Y47451429D01*
X18270238Y47427619D01*
X18317857Y47403810D01*
X18413095Y47403810D01*
X18460714Y47427619D01*
X18484524Y47451429D01*
X18508333Y47499048D01*
X18508333Y47594286D01*
X18484524Y47641905D01*
X18460714Y47665714D01*
X18413095Y47689524D01*
X4968572Y39686429D02*
X4944762Y39662619D01*
X4873334Y39638810D01*
X4825715Y39638810D01*
X4754286Y39662619D01*
X4706667Y39710238D01*
X4682858Y39757857D01*
X4659048Y39853095D01*
X4659048Y39924524D01*
X4682858Y40019762D01*
X4706667Y40067381D01*
X4754286Y40115000D01*
X4825715Y40138810D01*
X4873334Y40138810D01*
X4944762Y40115000D01*
X4968572Y40091190D01*
X5159048Y40091190D02*
X5182858Y40115000D01*
X5230477Y40138810D01*
X5349524Y40138810D01*
X5397143Y40115000D01*
X5420953Y40091190D01*
X5444762Y40043571D01*
X5444762Y39995952D01*
X5420953Y39924524D01*
X5135239Y39638810D01*
X5444762Y39638810D01*
X5873333Y40138810D02*
X5778095Y40138810D01*
X5730476Y40115000D01*
X5706667Y40091190D01*
X5659048Y40019762D01*
X5635238Y39924524D01*
X5635238Y39734048D01*
X5659048Y39686429D01*
X5682857Y39662619D01*
X5730476Y39638810D01*
X5825714Y39638810D01*
X5873333Y39662619D01*
X5897143Y39686429D01*
X5920952Y39734048D01*
X5920952Y39853095D01*
X5897143Y39900714D01*
X5873333Y39924524D01*
X5825714Y39948333D01*
X5730476Y39948333D01*
X5682857Y39924524D01*
X5659048Y39900714D01*
X5635238Y39853095D01*
X13353572Y37001429D02*
X13329762Y36977619D01*
X13258334Y36953810D01*
X13210715Y36953810D01*
X13139286Y36977619D01*
X13091667Y37025238D01*
X13067858Y37072857D01*
X13044048Y37168095D01*
X13044048Y37239524D01*
X13067858Y37334762D01*
X13091667Y37382381D01*
X13139286Y37430000D01*
X13210715Y37453810D01*
X13258334Y37453810D01*
X13329762Y37430000D01*
X13353572Y37406190D01*
X13544048Y37406190D02*
X13567858Y37430000D01*
X13615477Y37453810D01*
X13734524Y37453810D01*
X13782143Y37430000D01*
X13805953Y37406190D01*
X13829762Y37358571D01*
X13829762Y37310952D01*
X13805953Y37239524D01*
X13520239Y36953810D01*
X13829762Y36953810D01*
X13996429Y37453810D02*
X14329762Y37453810D01*
X14115476Y36953810D01*
X20453572Y33851429D02*
X20429762Y33827619D01*
X20358334Y33803810D01*
X20310715Y33803810D01*
X20239286Y33827619D01*
X20191667Y33875238D01*
X20167858Y33922857D01*
X20144048Y34018095D01*
X20144048Y34089524D01*
X20167858Y34184762D01*
X20191667Y34232381D01*
X20239286Y34280000D01*
X20310715Y34303810D01*
X20358334Y34303810D01*
X20429762Y34280000D01*
X20453572Y34256190D01*
X20620239Y34303810D02*
X20929762Y34303810D01*
X20763096Y34113333D01*
X20834524Y34113333D01*
X20882143Y34089524D01*
X20905953Y34065714D01*
X20929762Y34018095D01*
X20929762Y33899048D01*
X20905953Y33851429D01*
X20882143Y33827619D01*
X20834524Y33803810D01*
X20691667Y33803810D01*
X20644048Y33827619D01*
X20620239Y33851429D01*
X21239286Y34303810D02*
X21286905Y34303810D01*
X21334524Y34280000D01*
X21358333Y34256190D01*
X21382143Y34208571D01*
X21405952Y34113333D01*
X21405952Y33994286D01*
X21382143Y33899048D01*
X21358333Y33851429D01*
X21334524Y33827619D01*
X21286905Y33803810D01*
X21239286Y33803810D01*
X21191667Y33827619D01*
X21167857Y33851429D01*
X21144048Y33899048D01*
X21120238Y33994286D01*
X21120238Y34113333D01*
X21144048Y34208571D01*
X21167857Y34256190D01*
X21191667Y34280000D01*
X21239286Y34303810D01*
X13278572Y38251429D02*
X13254762Y38227619D01*
X13183334Y38203810D01*
X13135715Y38203810D01*
X13064286Y38227619D01*
X13016667Y38275238D01*
X12992858Y38322857D01*
X12969048Y38418095D01*
X12969048Y38489524D01*
X12992858Y38584762D01*
X13016667Y38632381D01*
X13064286Y38680000D01*
X13135715Y38703810D01*
X13183334Y38703810D01*
X13254762Y38680000D01*
X13278572Y38656190D01*
X13445239Y38703810D02*
X13754762Y38703810D01*
X13588096Y38513333D01*
X13659524Y38513333D01*
X13707143Y38489524D01*
X13730953Y38465714D01*
X13754762Y38418095D01*
X13754762Y38299048D01*
X13730953Y38251429D01*
X13707143Y38227619D01*
X13659524Y38203810D01*
X13516667Y38203810D01*
X13469048Y38227619D01*
X13445239Y38251429D01*
X13921429Y38703810D02*
X14230952Y38703810D01*
X14064286Y38513333D01*
X14135714Y38513333D01*
X14183333Y38489524D01*
X14207143Y38465714D01*
X14230952Y38418095D01*
X14230952Y38299048D01*
X14207143Y38251429D01*
X14183333Y38227619D01*
X14135714Y38203810D01*
X13992857Y38203810D01*
X13945238Y38227619D01*
X13921429Y38251429D01*
X13103572Y25351429D02*
X13079762Y25327619D01*
X13008334Y25303810D01*
X12960715Y25303810D01*
X12889286Y25327619D01*
X12841667Y25375238D01*
X12817858Y25422857D01*
X12794048Y25518095D01*
X12794048Y25589524D01*
X12817858Y25684762D01*
X12841667Y25732381D01*
X12889286Y25780000D01*
X12960715Y25803810D01*
X13008334Y25803810D01*
X13079762Y25780000D01*
X13103572Y25756190D01*
X13270239Y25803810D02*
X13579762Y25803810D01*
X13413096Y25613333D01*
X13484524Y25613333D01*
X13532143Y25589524D01*
X13555953Y25565714D01*
X13579762Y25518095D01*
X13579762Y25399048D01*
X13555953Y25351429D01*
X13532143Y25327619D01*
X13484524Y25303810D01*
X13341667Y25303810D01*
X13294048Y25327619D01*
X13270239Y25351429D01*
X14008333Y25637143D02*
X14008333Y25303810D01*
X13889286Y25827619D02*
X13770238Y25470476D01*
X14079762Y25470476D01*
X8828572Y26026429D02*
X8804762Y26002619D01*
X8733334Y25978810D01*
X8685715Y25978810D01*
X8614286Y26002619D01*
X8566667Y26050238D01*
X8542858Y26097857D01*
X8519048Y26193095D01*
X8519048Y26264524D01*
X8542858Y26359762D01*
X8566667Y26407381D01*
X8614286Y26455000D01*
X8685715Y26478810D01*
X8733334Y26478810D01*
X8804762Y26455000D01*
X8828572Y26431190D01*
X9257143Y26312143D02*
X9257143Y25978810D01*
X9138096Y26502619D02*
X9019048Y26145476D01*
X9328572Y26145476D01*
X9757143Y26478810D02*
X9519048Y26478810D01*
X9495238Y26240714D01*
X9519048Y26264524D01*
X9566667Y26288333D01*
X9685714Y26288333D01*
X9733333Y26264524D01*
X9757143Y26240714D01*
X9780952Y26193095D01*
X9780952Y26074048D01*
X9757143Y26026429D01*
X9733333Y26002619D01*
X9685714Y25978810D01*
X9566667Y25978810D01*
X9519048Y26002619D01*
X9495238Y26026429D01*
X5078572Y42026429D02*
X5054762Y42002619D01*
X4983334Y41978810D01*
X4935715Y41978810D01*
X4864286Y42002619D01*
X4816667Y42050238D01*
X4792858Y42097857D01*
X4769048Y42193095D01*
X4769048Y42264524D01*
X4792858Y42359762D01*
X4816667Y42407381D01*
X4864286Y42455000D01*
X4935715Y42478810D01*
X4983334Y42478810D01*
X5054762Y42455000D01*
X5078572Y42431190D01*
X5507143Y42312143D02*
X5507143Y41978810D01*
X5388096Y42502619D02*
X5269048Y42145476D01*
X5578572Y42145476D01*
X5983333Y42478810D02*
X5888095Y42478810D01*
X5840476Y42455000D01*
X5816667Y42431190D01*
X5769048Y42359762D01*
X5745238Y42264524D01*
X5745238Y42074048D01*
X5769048Y42026429D01*
X5792857Y42002619D01*
X5840476Y41978810D01*
X5935714Y41978810D01*
X5983333Y42002619D01*
X6007143Y42026429D01*
X6030952Y42074048D01*
X6030952Y42193095D01*
X6007143Y42240714D01*
X5983333Y42264524D01*
X5935714Y42288333D01*
X5840476Y42288333D01*
X5792857Y42264524D01*
X5769048Y42240714D01*
X5745238Y42193095D01*
X13378572Y39401429D02*
X13354762Y39377619D01*
X13283334Y39353810D01*
X13235715Y39353810D01*
X13164286Y39377619D01*
X13116667Y39425238D01*
X13092858Y39472857D01*
X13069048Y39568095D01*
X13069048Y39639524D01*
X13092858Y39734762D01*
X13116667Y39782381D01*
X13164286Y39830000D01*
X13235715Y39853810D01*
X13283334Y39853810D01*
X13354762Y39830000D01*
X13378572Y39806190D01*
X13830953Y39853810D02*
X13592858Y39853810D01*
X13569048Y39615714D01*
X13592858Y39639524D01*
X13640477Y39663333D01*
X13759524Y39663333D01*
X13807143Y39639524D01*
X13830953Y39615714D01*
X13854762Y39568095D01*
X13854762Y39449048D01*
X13830953Y39401429D01*
X13807143Y39377619D01*
X13759524Y39353810D01*
X13640477Y39353810D01*
X13592858Y39377619D01*
X13569048Y39401429D01*
X14164286Y39853810D02*
X14211905Y39853810D01*
X14259524Y39830000D01*
X14283333Y39806190D01*
X14307143Y39758571D01*
X14330952Y39663333D01*
X14330952Y39544286D01*
X14307143Y39449048D01*
X14283333Y39401429D01*
X14259524Y39377619D01*
X14211905Y39353810D01*
X14164286Y39353810D01*
X14116667Y39377619D01*
X14092857Y39401429D01*
X14069048Y39449048D01*
X14045238Y39544286D01*
X14045238Y39663333D01*
X14069048Y39758571D01*
X14092857Y39806190D01*
X14116667Y39830000D01*
X14164286Y39853810D01*
X21578572Y36051429D02*
X21554762Y36027619D01*
X21483334Y36003810D01*
X21435715Y36003810D01*
X21364286Y36027619D01*
X21316667Y36075238D01*
X21292858Y36122857D01*
X21269048Y36218095D01*
X21269048Y36289524D01*
X21292858Y36384762D01*
X21316667Y36432381D01*
X21364286Y36480000D01*
X21435715Y36503810D01*
X21483334Y36503810D01*
X21554762Y36480000D01*
X21578572Y36456190D01*
X22030953Y36503810D02*
X21792858Y36503810D01*
X21769048Y36265714D01*
X21792858Y36289524D01*
X21840477Y36313333D01*
X21959524Y36313333D01*
X22007143Y36289524D01*
X22030953Y36265714D01*
X22054762Y36218095D01*
X22054762Y36099048D01*
X22030953Y36051429D01*
X22007143Y36027619D01*
X21959524Y36003810D01*
X21840477Y36003810D01*
X21792858Y36027619D01*
X21769048Y36051429D01*
X22530952Y36003810D02*
X22245238Y36003810D01*
X22388095Y36003810D02*
X22388095Y36503810D01*
X22340476Y36432381D01*
X22292857Y36384762D01*
X22245238Y36360952D01*
X15278572Y46001429D02*
X15254762Y45977619D01*
X15183334Y45953810D01*
X15135715Y45953810D01*
X15064286Y45977619D01*
X15016667Y46025238D01*
X14992858Y46072857D01*
X14969048Y46168095D01*
X14969048Y46239524D01*
X14992858Y46334762D01*
X15016667Y46382381D01*
X15064286Y46430000D01*
X15135715Y46453810D01*
X15183334Y46453810D01*
X15254762Y46430000D01*
X15278572Y46406190D01*
X15730953Y46453810D02*
X15492858Y46453810D01*
X15469048Y46215714D01*
X15492858Y46239524D01*
X15540477Y46263333D01*
X15659524Y46263333D01*
X15707143Y46239524D01*
X15730953Y46215714D01*
X15754762Y46168095D01*
X15754762Y46049048D01*
X15730953Y46001429D01*
X15707143Y45977619D01*
X15659524Y45953810D01*
X15540477Y45953810D01*
X15492858Y45977619D01*
X15469048Y46001429D01*
X15921429Y46453810D02*
X16230952Y46453810D01*
X16064286Y46263333D01*
X16135714Y46263333D01*
X16183333Y46239524D01*
X16207143Y46215714D01*
X16230952Y46168095D01*
X16230952Y46049048D01*
X16207143Y46001429D01*
X16183333Y45977619D01*
X16135714Y45953810D01*
X15992857Y45953810D01*
X15945238Y45977619D01*
X15921429Y46001429D01*
X27428572Y23426429D02*
X27404762Y23402619D01*
X27333334Y23378810D01*
X27285715Y23378810D01*
X27214286Y23402619D01*
X27166667Y23450238D01*
X27142858Y23497857D01*
X27119048Y23593095D01*
X27119048Y23664524D01*
X27142858Y23759762D01*
X27166667Y23807381D01*
X27214286Y23855000D01*
X27285715Y23878810D01*
X27333334Y23878810D01*
X27404762Y23855000D01*
X27428572Y23831190D01*
X27880953Y23878810D02*
X27642858Y23878810D01*
X27619048Y23640714D01*
X27642858Y23664524D01*
X27690477Y23688333D01*
X27809524Y23688333D01*
X27857143Y23664524D01*
X27880953Y23640714D01*
X27904762Y23593095D01*
X27904762Y23474048D01*
X27880953Y23426429D01*
X27857143Y23402619D01*
X27809524Y23378810D01*
X27690477Y23378810D01*
X27642858Y23402619D01*
X27619048Y23426429D01*
X28071429Y23878810D02*
X28404762Y23878810D01*
X28190476Y23378810D01*
X13503572Y50951429D02*
X13479762Y50927619D01*
X13408334Y50903810D01*
X13360715Y50903810D01*
X13289286Y50927619D01*
X13241667Y50975238D01*
X13217858Y51022857D01*
X13194048Y51118095D01*
X13194048Y51189524D01*
X13217858Y51284762D01*
X13241667Y51332381D01*
X13289286Y51380000D01*
X13360715Y51403810D01*
X13408334Y51403810D01*
X13479762Y51380000D01*
X13503572Y51356190D01*
X13932143Y51403810D02*
X13836905Y51403810D01*
X13789286Y51380000D01*
X13765477Y51356190D01*
X13717858Y51284762D01*
X13694048Y51189524D01*
X13694048Y50999048D01*
X13717858Y50951429D01*
X13741667Y50927619D01*
X13789286Y50903810D01*
X13884524Y50903810D01*
X13932143Y50927619D01*
X13955953Y50951429D01*
X13979762Y50999048D01*
X13979762Y51118095D01*
X13955953Y51165714D01*
X13932143Y51189524D01*
X13884524Y51213333D01*
X13789286Y51213333D01*
X13741667Y51189524D01*
X13717858Y51165714D01*
X13694048Y51118095D01*
X14170238Y51356190D02*
X14194048Y51380000D01*
X14241667Y51403810D01*
X14360714Y51403810D01*
X14408333Y51380000D01*
X14432143Y51356190D01*
X14455952Y51308571D01*
X14455952Y51260952D01*
X14432143Y51189524D01*
X14146429Y50903810D01*
X14455952Y50903810D01*
X17588572Y45591429D02*
X17564762Y45567619D01*
X17493334Y45543810D01*
X17445715Y45543810D01*
X17374286Y45567619D01*
X17326667Y45615238D01*
X17302858Y45662857D01*
X17279048Y45758095D01*
X17279048Y45829524D01*
X17302858Y45924762D01*
X17326667Y45972381D01*
X17374286Y46020000D01*
X17445715Y46043810D01*
X17493334Y46043810D01*
X17564762Y46020000D01*
X17588572Y45996190D01*
X18017143Y46043810D02*
X17921905Y46043810D01*
X17874286Y46020000D01*
X17850477Y45996190D01*
X17802858Y45924762D01*
X17779048Y45829524D01*
X17779048Y45639048D01*
X17802858Y45591429D01*
X17826667Y45567619D01*
X17874286Y45543810D01*
X17969524Y45543810D01*
X18017143Y45567619D01*
X18040953Y45591429D01*
X18064762Y45639048D01*
X18064762Y45758095D01*
X18040953Y45805714D01*
X18017143Y45829524D01*
X17969524Y45853333D01*
X17874286Y45853333D01*
X17826667Y45829524D01*
X17802858Y45805714D01*
X17779048Y45758095D01*
X18231429Y46043810D02*
X18540952Y46043810D01*
X18374286Y45853333D01*
X18445714Y45853333D01*
X18493333Y45829524D01*
X18517143Y45805714D01*
X18540952Y45758095D01*
X18540952Y45639048D01*
X18517143Y45591429D01*
X18493333Y45567619D01*
X18445714Y45543810D01*
X18302857Y45543810D01*
X18255238Y45567619D01*
X18231429Y45591429D01*
X27858572Y47446429D02*
X27834762Y47422619D01*
X27763334Y47398810D01*
X27715715Y47398810D01*
X27644286Y47422619D01*
X27596667Y47470238D01*
X27572858Y47517857D01*
X27549048Y47613095D01*
X27549048Y47684524D01*
X27572858Y47779762D01*
X27596667Y47827381D01*
X27644286Y47875000D01*
X27715715Y47898810D01*
X27763334Y47898810D01*
X27834762Y47875000D01*
X27858572Y47851190D01*
X28287143Y47898810D02*
X28191905Y47898810D01*
X28144286Y47875000D01*
X28120477Y47851190D01*
X28072858Y47779762D01*
X28049048Y47684524D01*
X28049048Y47494048D01*
X28072858Y47446429D01*
X28096667Y47422619D01*
X28144286Y47398810D01*
X28239524Y47398810D01*
X28287143Y47422619D01*
X28310953Y47446429D01*
X28334762Y47494048D01*
X28334762Y47613095D01*
X28310953Y47660714D01*
X28287143Y47684524D01*
X28239524Y47708333D01*
X28144286Y47708333D01*
X28096667Y47684524D01*
X28072858Y47660714D01*
X28049048Y47613095D01*
X28763333Y47898810D02*
X28668095Y47898810D01*
X28620476Y47875000D01*
X28596667Y47851190D01*
X28549048Y47779762D01*
X28525238Y47684524D01*
X28525238Y47494048D01*
X28549048Y47446429D01*
X28572857Y47422619D01*
X28620476Y47398810D01*
X28715714Y47398810D01*
X28763333Y47422619D01*
X28787143Y47446429D01*
X28810952Y47494048D01*
X28810952Y47613095D01*
X28787143Y47660714D01*
X28763333Y47684524D01*
X28715714Y47708333D01*
X28620476Y47708333D01*
X28572857Y47684524D01*
X28549048Y47660714D01*
X28525238Y47613095D01*
X19078572Y49701429D02*
X19054762Y49677619D01*
X18983334Y49653810D01*
X18935715Y49653810D01*
X18864286Y49677619D01*
X18816667Y49725238D01*
X18792858Y49772857D01*
X18769048Y49868095D01*
X18769048Y49939524D01*
X18792858Y50034762D01*
X18816667Y50082381D01*
X18864286Y50130000D01*
X18935715Y50153810D01*
X18983334Y50153810D01*
X19054762Y50130000D01*
X19078572Y50106190D01*
X19507143Y50153810D02*
X19411905Y50153810D01*
X19364286Y50130000D01*
X19340477Y50106190D01*
X19292858Y50034762D01*
X19269048Y49939524D01*
X19269048Y49749048D01*
X19292858Y49701429D01*
X19316667Y49677619D01*
X19364286Y49653810D01*
X19459524Y49653810D01*
X19507143Y49677619D01*
X19530953Y49701429D01*
X19554762Y49749048D01*
X19554762Y49868095D01*
X19530953Y49915714D01*
X19507143Y49939524D01*
X19459524Y49963333D01*
X19364286Y49963333D01*
X19316667Y49939524D01*
X19292858Y49915714D01*
X19269048Y49868095D01*
X19840476Y49939524D02*
X19792857Y49963333D01*
X19769048Y49987143D01*
X19745238Y50034762D01*
X19745238Y50058571D01*
X19769048Y50106190D01*
X19792857Y50130000D01*
X19840476Y50153810D01*
X19935714Y50153810D01*
X19983333Y50130000D01*
X20007143Y50106190D01*
X20030952Y50058571D01*
X20030952Y50034762D01*
X20007143Y49987143D01*
X19983333Y49963333D01*
X19935714Y49939524D01*
X19840476Y49939524D01*
X19792857Y49915714D01*
X19769048Y49891905D01*
X19745238Y49844286D01*
X19745238Y49749048D01*
X19769048Y49701429D01*
X19792857Y49677619D01*
X19840476Y49653810D01*
X19935714Y49653810D01*
X19983333Y49677619D01*
X20007143Y49701429D01*
X20030952Y49749048D01*
X20030952Y49844286D01*
X20007143Y49891905D01*
X19983333Y49915714D01*
X19935714Y49939524D01*
X29028572Y51151429D02*
X29004762Y51127619D01*
X28933334Y51103810D01*
X28885715Y51103810D01*
X28814286Y51127619D01*
X28766667Y51175238D01*
X28742858Y51222857D01*
X28719048Y51318095D01*
X28719048Y51389524D01*
X28742858Y51484762D01*
X28766667Y51532381D01*
X28814286Y51580000D01*
X28885715Y51603810D01*
X28933334Y51603810D01*
X29004762Y51580000D01*
X29028572Y51556190D01*
X29195239Y51603810D02*
X29528572Y51603810D01*
X29314286Y51103810D01*
X29814286Y51603810D02*
X29861905Y51603810D01*
X29909524Y51580000D01*
X29933333Y51556190D01*
X29957143Y51508571D01*
X29980952Y51413333D01*
X29980952Y51294286D01*
X29957143Y51199048D01*
X29933333Y51151429D01*
X29909524Y51127619D01*
X29861905Y51103810D01*
X29814286Y51103810D01*
X29766667Y51127619D01*
X29742857Y51151429D01*
X29719048Y51199048D01*
X29695238Y51294286D01*
X29695238Y51413333D01*
X29719048Y51508571D01*
X29742857Y51556190D01*
X29766667Y51580000D01*
X29814286Y51603810D01*
X13378572Y10126429D02*
X13354762Y10102619D01*
X13283334Y10078810D01*
X13235715Y10078810D01*
X13164286Y10102619D01*
X13116667Y10150238D01*
X13092858Y10197857D01*
X13069048Y10293095D01*
X13069048Y10364524D01*
X13092858Y10459762D01*
X13116667Y10507381D01*
X13164286Y10555000D01*
X13235715Y10578810D01*
X13283334Y10578810D01*
X13354762Y10555000D01*
X13378572Y10531190D01*
X13545239Y10578810D02*
X13878572Y10578810D01*
X13664286Y10078810D01*
X14330952Y10078810D02*
X14045238Y10078810D01*
X14188095Y10078810D02*
X14188095Y10578810D01*
X14140476Y10507381D01*
X14092857Y10459762D01*
X14045238Y10435952D01*
X28428572Y37326429D02*
X28404762Y37302619D01*
X28333334Y37278810D01*
X28285715Y37278810D01*
X28214286Y37302619D01*
X28166667Y37350238D01*
X28142858Y37397857D01*
X28119048Y37493095D01*
X28119048Y37564524D01*
X28142858Y37659762D01*
X28166667Y37707381D01*
X28214286Y37755000D01*
X28285715Y37778810D01*
X28333334Y37778810D01*
X28404762Y37755000D01*
X28428572Y37731190D01*
X28595239Y37778810D02*
X28928572Y37778810D01*
X28714286Y37278810D01*
X29095238Y37731190D02*
X29119048Y37755000D01*
X29166667Y37778810D01*
X29285714Y37778810D01*
X29333333Y37755000D01*
X29357143Y37731190D01*
X29380952Y37683571D01*
X29380952Y37635952D01*
X29357143Y37564524D01*
X29071429Y37278810D01*
X29380952Y37278810D01*
X10638572Y18771429D02*
X10614762Y18747619D01*
X10543334Y18723810D01*
X10495715Y18723810D01*
X10424286Y18747619D01*
X10376667Y18795238D01*
X10352858Y18842857D01*
X10329048Y18938095D01*
X10329048Y19009524D01*
X10352858Y19104762D01*
X10376667Y19152381D01*
X10424286Y19200000D01*
X10495715Y19223810D01*
X10543334Y19223810D01*
X10614762Y19200000D01*
X10638572Y19176190D01*
X10805239Y19223810D02*
X11138572Y19223810D01*
X10924286Y18723810D01*
X11567143Y19223810D02*
X11329048Y19223810D01*
X11305238Y18985714D01*
X11329048Y19009524D01*
X11376667Y19033333D01*
X11495714Y19033333D01*
X11543333Y19009524D01*
X11567143Y18985714D01*
X11590952Y18938095D01*
X11590952Y18819048D01*
X11567143Y18771429D01*
X11543333Y18747619D01*
X11495714Y18723810D01*
X11376667Y18723810D01*
X11329048Y18747619D01*
X11305238Y18771429D01*
X7153572Y14801429D02*
X7129762Y14777619D01*
X7058334Y14753810D01*
X7010715Y14753810D01*
X6939286Y14777619D01*
X6891667Y14825238D01*
X6867858Y14872857D01*
X6844048Y14968095D01*
X6844048Y15039524D01*
X6867858Y15134762D01*
X6891667Y15182381D01*
X6939286Y15230000D01*
X7010715Y15253810D01*
X7058334Y15253810D01*
X7129762Y15230000D01*
X7153572Y15206190D01*
X7320239Y15253810D02*
X7653572Y15253810D01*
X7439286Y14753810D01*
X8058333Y15253810D02*
X7963095Y15253810D01*
X7915476Y15230000D01*
X7891667Y15206190D01*
X7844048Y15134762D01*
X7820238Y15039524D01*
X7820238Y14849048D01*
X7844048Y14801429D01*
X7867857Y14777619D01*
X7915476Y14753810D01*
X8010714Y14753810D01*
X8058333Y14777619D01*
X8082143Y14801429D01*
X8105952Y14849048D01*
X8105952Y14968095D01*
X8082143Y15015714D01*
X8058333Y15039524D01*
X8010714Y15063333D01*
X7915476Y15063333D01*
X7867857Y15039524D01*
X7844048Y15015714D01*
X7820238Y14968095D01*
X9441667Y31928810D02*
X9203572Y31928810D01*
X9203572Y32428810D01*
X9870238Y31928810D02*
X9584524Y31928810D01*
X9727381Y31928810D02*
X9727381Y32428810D01*
X9679762Y32357381D01*
X9632143Y32309762D01*
X9584524Y32285952D01*
X18991667Y26853810D02*
X18753572Y26853810D01*
X18753572Y27353810D01*
X19372619Y27187143D02*
X19372619Y26853810D01*
X19253572Y27377619D02*
X19134524Y27020476D01*
X19444048Y27020476D01*
X16641667Y29553810D02*
X16403572Y29553810D01*
X16403572Y30053810D01*
X17046429Y30053810D02*
X16808334Y30053810D01*
X16784524Y29815714D01*
X16808334Y29839524D01*
X16855953Y29863333D01*
X16975000Y29863333D01*
X17022619Y29839524D01*
X17046429Y29815714D01*
X17070238Y29768095D01*
X17070238Y29649048D01*
X17046429Y29601429D01*
X17022619Y29577619D01*
X16975000Y29553810D01*
X16855953Y29553810D01*
X16808334Y29577619D01*
X16784524Y29601429D01*
X11776190Y38871667D02*
X11776190Y38633572D01*
X11276190Y38633572D01*
X11490476Y39109762D02*
X11466667Y39062143D01*
X11442857Y39038334D01*
X11395238Y39014524D01*
X11371429Y39014524D01*
X11323810Y39038334D01*
X11300000Y39062143D01*
X11276190Y39109762D01*
X11276190Y39205000D01*
X11300000Y39252619D01*
X11323810Y39276429D01*
X11371429Y39300238D01*
X11395238Y39300238D01*
X11442857Y39276429D01*
X11466667Y39252619D01*
X11490476Y39205000D01*
X11490476Y39109762D01*
X11514286Y39062143D01*
X11538095Y39038334D01*
X11585714Y39014524D01*
X11680952Y39014524D01*
X11728571Y39038334D01*
X11752381Y39062143D01*
X11776190Y39109762D01*
X11776190Y39205000D01*
X11752381Y39252619D01*
X11728571Y39276429D01*
X11680952Y39300238D01*
X11585714Y39300238D01*
X11538095Y39276429D01*
X11514286Y39252619D01*
X11490476Y39205000D01*
X27476190Y21521667D02*
X27476190Y21283572D01*
X26976190Y21283572D01*
X27476190Y21712143D02*
X27476190Y21807381D01*
X27452381Y21855000D01*
X27428571Y21878810D01*
X27357143Y21926429D01*
X27261905Y21950238D01*
X27071429Y21950238D01*
X27023810Y21926429D01*
X27000000Y21902619D01*
X26976190Y21855000D01*
X26976190Y21759762D01*
X27000000Y21712143D01*
X27023810Y21688334D01*
X27071429Y21664524D01*
X27190476Y21664524D01*
X27238095Y21688334D01*
X27261905Y21712143D01*
X27285714Y21759762D01*
X27285714Y21855000D01*
X27261905Y21902619D01*
X27238095Y21926429D01*
X27190476Y21950238D01*
X12553572Y41903810D02*
X12315477Y41903810D01*
X12315477Y42403810D01*
X12982143Y41903810D02*
X12696429Y41903810D01*
X12839286Y41903810D02*
X12839286Y42403810D01*
X12791667Y42332381D01*
X12744048Y42284762D01*
X12696429Y42260952D01*
X13172619Y42356190D02*
X13196429Y42380000D01*
X13244048Y42403810D01*
X13363095Y42403810D01*
X13410714Y42380000D01*
X13434524Y42356190D01*
X13458333Y42308571D01*
X13458333Y42260952D01*
X13434524Y42189524D01*
X13148810Y41903810D01*
X13458333Y41903810D01*
X23728572Y37428810D02*
X23490477Y37428810D01*
X23490477Y37928810D01*
X24157143Y37428810D02*
X23871429Y37428810D01*
X24014286Y37428810D02*
X24014286Y37928810D01*
X23966667Y37857381D01*
X23919048Y37809762D01*
X23871429Y37785952D01*
X24585714Y37762143D02*
X24585714Y37428810D01*
X24466667Y37952619D02*
X24347619Y37595476D01*
X24657143Y37595476D01*
X28378572Y32453810D02*
X28140477Y32453810D01*
X28140477Y32953810D01*
X28807143Y32453810D02*
X28521429Y32453810D01*
X28664286Y32453810D02*
X28664286Y32953810D01*
X28616667Y32882381D01*
X28569048Y32834762D01*
X28521429Y32810952D01*
X29235714Y32953810D02*
X29140476Y32953810D01*
X29092857Y32930000D01*
X29069048Y32906190D01*
X29021429Y32834762D01*
X28997619Y32739524D01*
X28997619Y32549048D01*
X29021429Y32501429D01*
X29045238Y32477619D01*
X29092857Y32453810D01*
X29188095Y32453810D01*
X29235714Y32477619D01*
X29259524Y32501429D01*
X29283333Y32549048D01*
X29283333Y32668095D01*
X29259524Y32715714D01*
X29235714Y32739524D01*
X29188095Y32763333D01*
X29092857Y32763333D01*
X29045238Y32739524D01*
X29021429Y32715714D01*
X28997619Y32668095D01*
X18228572Y40328810D02*
X17990477Y40328810D01*
X17990477Y40828810D01*
X18371429Y40781190D02*
X18395239Y40805000D01*
X18442858Y40828810D01*
X18561905Y40828810D01*
X18609524Y40805000D01*
X18633334Y40781190D01*
X18657143Y40733571D01*
X18657143Y40685952D01*
X18633334Y40614524D01*
X18347620Y40328810D01*
X18657143Y40328810D01*
X18847619Y40781190D02*
X18871429Y40805000D01*
X18919048Y40828810D01*
X19038095Y40828810D01*
X19085714Y40805000D01*
X19109524Y40781190D01*
X19133333Y40733571D01*
X19133333Y40685952D01*
X19109524Y40614524D01*
X18823810Y40328810D01*
X19133333Y40328810D01*
X30171190Y41938572D02*
X30171190Y41700477D01*
X29671190Y41700477D01*
X29718810Y42081429D02*
X29695000Y42105239D01*
X29671190Y42152858D01*
X29671190Y42271905D01*
X29695000Y42319524D01*
X29718810Y42343334D01*
X29766429Y42367143D01*
X29814048Y42367143D01*
X29885476Y42343334D01*
X30171190Y42057620D01*
X30171190Y42367143D01*
X29671190Y42533810D02*
X29671190Y42843333D01*
X29861667Y42676667D01*
X29861667Y42748095D01*
X29885476Y42795714D01*
X29909286Y42819524D01*
X29956905Y42843333D01*
X30075952Y42843333D01*
X30123571Y42819524D01*
X30147381Y42795714D01*
X30171190Y42748095D01*
X30171190Y42605238D01*
X30147381Y42557619D01*
X30123571Y42533810D01*
X20526190Y43358572D02*
X20526190Y43120477D01*
X20026190Y43120477D01*
X20073810Y43501429D02*
X20050000Y43525239D01*
X20026190Y43572858D01*
X20026190Y43691905D01*
X20050000Y43739524D01*
X20073810Y43763334D01*
X20121429Y43787143D01*
X20169048Y43787143D01*
X20240476Y43763334D01*
X20526190Y43477620D01*
X20526190Y43787143D01*
X20026190Y44239524D02*
X20026190Y44001429D01*
X20264286Y43977619D01*
X20240476Y44001429D01*
X20216667Y44049048D01*
X20216667Y44168095D01*
X20240476Y44215714D01*
X20264286Y44239524D01*
X20311905Y44263333D01*
X20430952Y44263333D01*
X20478571Y44239524D01*
X20502381Y44215714D01*
X20526190Y44168095D01*
X20526190Y44049048D01*
X20502381Y44001429D01*
X20478571Y43977619D01*
X31768572Y45993810D02*
X31530477Y45993810D01*
X31530477Y46493810D01*
X31911429Y46446190D02*
X31935239Y46470000D01*
X31982858Y46493810D01*
X32101905Y46493810D01*
X32149524Y46470000D01*
X32173334Y46446190D01*
X32197143Y46398571D01*
X32197143Y46350952D01*
X32173334Y46279524D01*
X31887620Y45993810D01*
X32197143Y45993810D01*
X32625714Y46493810D02*
X32530476Y46493810D01*
X32482857Y46470000D01*
X32459048Y46446190D01*
X32411429Y46374762D01*
X32387619Y46279524D01*
X32387619Y46089048D01*
X32411429Y46041429D01*
X32435238Y46017619D01*
X32482857Y45993810D01*
X32578095Y45993810D01*
X32625714Y46017619D01*
X32649524Y46041429D01*
X32673333Y46089048D01*
X32673333Y46208095D01*
X32649524Y46255714D01*
X32625714Y46279524D01*
X32578095Y46303333D01*
X32482857Y46303333D01*
X32435238Y46279524D01*
X32411429Y46255714D01*
X32387619Y46208095D01*
X11703571Y11658572D02*
X11727381Y11634762D01*
X11751190Y11563334D01*
X11751190Y11515715D01*
X11727381Y11444286D01*
X11679762Y11396667D01*
X11632143Y11372858D01*
X11536905Y11349048D01*
X11465476Y11349048D01*
X11370238Y11372858D01*
X11322619Y11396667D01*
X11275000Y11444286D01*
X11251190Y11515715D01*
X11251190Y11563334D01*
X11275000Y11634762D01*
X11298810Y11658572D01*
X11251190Y11825239D02*
X11251190Y12158572D01*
X11751190Y11944286D01*
X11417857Y12563333D02*
X11751190Y12563333D01*
X11227381Y12444286D02*
X11584524Y12325238D01*
X11584524Y12634762D01*
X9076190Y16521667D02*
X8838095Y16355000D01*
X9076190Y16235953D02*
X8576190Y16235953D01*
X8576190Y16426429D01*
X8600000Y16474048D01*
X8623810Y16497857D01*
X8671429Y16521667D01*
X8742857Y16521667D01*
X8790476Y16497857D01*
X8814286Y16474048D01*
X8838095Y16426429D01*
X8838095Y16235953D01*
X8790476Y16807381D02*
X8766667Y16759762D01*
X8742857Y16735953D01*
X8695238Y16712143D01*
X8671429Y16712143D01*
X8623810Y16735953D01*
X8600000Y16759762D01*
X8576190Y16807381D01*
X8576190Y16902619D01*
X8600000Y16950238D01*
X8623810Y16974048D01*
X8671429Y16997857D01*
X8695238Y16997857D01*
X8742857Y16974048D01*
X8766667Y16950238D01*
X8790476Y16902619D01*
X8790476Y16807381D01*
X8814286Y16759762D01*
X8838095Y16735953D01*
X8885714Y16712143D01*
X8980952Y16712143D01*
X9028571Y16735953D01*
X9052381Y16759762D01*
X9076190Y16807381D01*
X9076190Y16902619D01*
X9052381Y16950238D01*
X9028571Y16974048D01*
X8980952Y16997857D01*
X8885714Y16997857D01*
X8838095Y16974048D01*
X8814286Y16950238D01*
X8790476Y16902619D01*
X28348572Y17751429D02*
X28324762Y17727619D01*
X28253334Y17703810D01*
X28205715Y17703810D01*
X28134286Y17727619D01*
X28086667Y17775238D01*
X28062858Y17822857D01*
X28039048Y17918095D01*
X28039048Y17989524D01*
X28062858Y18084762D01*
X28086667Y18132381D01*
X28134286Y18180000D01*
X28205715Y18203810D01*
X28253334Y18203810D01*
X28324762Y18180000D01*
X28348572Y18156190D01*
X28824762Y17703810D02*
X28539048Y17703810D01*
X28681905Y17703810D02*
X28681905Y18203810D01*
X28634286Y18132381D01*
X28586667Y18084762D01*
X28539048Y18060952D01*
X29300952Y17703810D02*
X29015238Y17703810D01*
X29158095Y17703810D02*
X29158095Y18203810D01*
X29110476Y18132381D01*
X29062857Y18084762D01*
X29015238Y18060952D01*
X15094048Y15403810D02*
X15094048Y14999048D01*
X15117857Y14951429D01*
X15141667Y14927619D01*
X15189286Y14903810D01*
X15284524Y14903810D01*
X15332143Y14927619D01*
X15355952Y14951429D01*
X15379762Y14999048D01*
X15379762Y15403810D01*
X15832143Y15237143D02*
X15832143Y14903810D01*
X15713096Y15427619D02*
X15594048Y15070476D01*
X15903572Y15070476D01*
X33758571Y45208572D02*
X33782381Y45184762D01*
X33806190Y45113334D01*
X33806190Y45065715D01*
X33782381Y44994286D01*
X33734762Y44946667D01*
X33687143Y44922858D01*
X33591905Y44899048D01*
X33520476Y44899048D01*
X33425238Y44922858D01*
X33377619Y44946667D01*
X33330000Y44994286D01*
X33306190Y45065715D01*
X33306190Y45113334D01*
X33330000Y45184762D01*
X33353810Y45208572D01*
X33306190Y45375239D02*
X33306190Y45708572D01*
X33806190Y45494286D01*
X33306190Y45851429D02*
X33306190Y46184762D01*
X33806190Y45970476D01*
X37308572Y47593810D02*
X37070477Y47593810D01*
X37070477Y48093810D01*
X37427620Y48093810D02*
X37737143Y48093810D01*
X37570477Y47903333D01*
X37641905Y47903333D01*
X37689524Y47879524D01*
X37713334Y47855714D01*
X37737143Y47808095D01*
X37737143Y47689048D01*
X37713334Y47641429D01*
X37689524Y47617619D01*
X37641905Y47593810D01*
X37499048Y47593810D01*
X37451429Y47617619D01*
X37427620Y47641429D01*
X38046667Y48093810D02*
X38094286Y48093810D01*
X38141905Y48070000D01*
X38165714Y48046190D01*
X38189524Y47998571D01*
X38213333Y47903333D01*
X38213333Y47784286D01*
X38189524Y47689048D01*
X38165714Y47641429D01*
X38141905Y47617619D01*
X38094286Y47593810D01*
X38046667Y47593810D01*
X37999048Y47617619D01*
X37975238Y47641429D01*
X37951429Y47689048D01*
X37927619Y47784286D01*
X37927619Y47903333D01*
X37951429Y47998571D01*
X37975238Y48046190D01*
X37999048Y48070000D01*
X38046667Y48093810D01*
X36488572Y43553810D02*
X36250477Y43553810D01*
X36250477Y44053810D01*
X36607620Y44053810D02*
X36917143Y44053810D01*
X36750477Y43863333D01*
X36821905Y43863333D01*
X36869524Y43839524D01*
X36893334Y43815714D01*
X36917143Y43768095D01*
X36917143Y43649048D01*
X36893334Y43601429D01*
X36869524Y43577619D01*
X36821905Y43553810D01*
X36679048Y43553810D01*
X36631429Y43577619D01*
X36607620Y43601429D01*
X37393333Y43553810D02*
X37107619Y43553810D01*
X37250476Y43553810D02*
X37250476Y44053810D01*
X37202857Y43982381D01*
X37155238Y43934762D01*
X37107619Y43910952D01*
X28468572Y52483810D02*
X28230477Y52483810D01*
X28230477Y52983810D01*
X28587620Y52983810D02*
X28897143Y52983810D01*
X28730477Y52793333D01*
X28801905Y52793333D01*
X28849524Y52769524D01*
X28873334Y52745714D01*
X28897143Y52698095D01*
X28897143Y52579048D01*
X28873334Y52531429D01*
X28849524Y52507619D01*
X28801905Y52483810D01*
X28659048Y52483810D01*
X28611429Y52507619D01*
X28587620Y52531429D01*
X29087619Y52936190D02*
X29111429Y52960000D01*
X29159048Y52983810D01*
X29278095Y52983810D01*
X29325714Y52960000D01*
X29349524Y52936190D01*
X29373333Y52888571D01*
X29373333Y52840952D01*
X29349524Y52769524D01*
X29063810Y52483810D01*
X29373333Y52483810D01*
X17101190Y17158572D02*
X17101190Y16920477D01*
X16601190Y16920477D01*
X16601190Y17277620D02*
X16601190Y17587143D01*
X16791667Y17420477D01*
X16791667Y17491905D01*
X16815476Y17539524D01*
X16839286Y17563334D01*
X16886905Y17587143D01*
X17005952Y17587143D01*
X17053571Y17563334D01*
X17077381Y17539524D01*
X17101190Y17491905D01*
X17101190Y17349048D01*
X17077381Y17301429D01*
X17053571Y17277620D01*
X16601190Y17753810D02*
X16601190Y18063333D01*
X16791667Y17896667D01*
X16791667Y17968095D01*
X16815476Y18015714D01*
X16839286Y18039524D01*
X16886905Y18063333D01*
X17005952Y18063333D01*
X17053571Y18039524D01*
X17077381Y18015714D01*
X17101190Y17968095D01*
X17101190Y17825238D01*
X17077381Y17777619D01*
X17053571Y17753810D01*
X27716667Y53983810D02*
X27550000Y54221905D01*
X27430953Y53983810D02*
X27430953Y54483810D01*
X27621429Y54483810D01*
X27669048Y54460000D01*
X27692857Y54436190D01*
X27716667Y54388571D01*
X27716667Y54317143D01*
X27692857Y54269524D01*
X27669048Y54245714D01*
X27621429Y54221905D01*
X27430953Y54221905D01*
X27954762Y53983810D02*
X28050000Y53983810D01*
X28097619Y54007619D01*
X28121429Y54031429D01*
X28169048Y54102857D01*
X28192857Y54198095D01*
X28192857Y54388571D01*
X28169048Y54436190D01*
X28145238Y54460000D01*
X28097619Y54483810D01*
X28002381Y54483810D01*
X27954762Y54460000D01*
X27930953Y54436190D01*
X27907143Y54388571D01*
X27907143Y54269524D01*
X27930953Y54221905D01*
X27954762Y54198095D01*
X28002381Y54174286D01*
X28097619Y54174286D01*
X28145238Y54198095D01*
X28169048Y54221905D01*
X28192857Y54269524D01*
X45738571Y30038572D02*
X45762381Y30014762D01*
X45786190Y29943334D01*
X45786190Y29895715D01*
X45762381Y29824286D01*
X45714762Y29776667D01*
X45667143Y29752858D01*
X45571905Y29729048D01*
X45500476Y29729048D01*
X45405238Y29752858D01*
X45357619Y29776667D01*
X45310000Y29824286D01*
X45286190Y29895715D01*
X45286190Y29943334D01*
X45310000Y30014762D01*
X45333810Y30038572D01*
X45333810Y30229048D02*
X45310000Y30252858D01*
X45286190Y30300477D01*
X45286190Y30419524D01*
X45310000Y30467143D01*
X45333810Y30490953D01*
X45381429Y30514762D01*
X45429048Y30514762D01*
X45500476Y30490953D01*
X45786190Y30205239D01*
X45786190Y30514762D01*
X45500476Y30800476D02*
X45476667Y30752857D01*
X45452857Y30729048D01*
X45405238Y30705238D01*
X45381429Y30705238D01*
X45333810Y30729048D01*
X45310000Y30752857D01*
X45286190Y30800476D01*
X45286190Y30895714D01*
X45310000Y30943333D01*
X45333810Y30967143D01*
X45381429Y30990952D01*
X45405238Y30990952D01*
X45452857Y30967143D01*
X45476667Y30943333D01*
X45500476Y30895714D01*
X45500476Y30800476D01*
X45524286Y30752857D01*
X45548095Y30729048D01*
X45595714Y30705238D01*
X45690952Y30705238D01*
X45738571Y30729048D01*
X45762381Y30752857D01*
X45786190Y30800476D01*
X45786190Y30895714D01*
X45762381Y30943333D01*
X45738571Y30967143D01*
X45690952Y30990952D01*
X45595714Y30990952D01*
X45548095Y30967143D01*
X45524286Y30943333D01*
X45500476Y30895714D01*
X45378572Y28101429D02*
X45354762Y28077619D01*
X45283334Y28053810D01*
X45235715Y28053810D01*
X45164286Y28077619D01*
X45116667Y28125238D01*
X45092858Y28172857D01*
X45069048Y28268095D01*
X45069048Y28339524D01*
X45092858Y28434762D01*
X45116667Y28482381D01*
X45164286Y28530000D01*
X45235715Y28553810D01*
X45283334Y28553810D01*
X45354762Y28530000D01*
X45378572Y28506190D01*
X45569048Y28506190D02*
X45592858Y28530000D01*
X45640477Y28553810D01*
X45759524Y28553810D01*
X45807143Y28530000D01*
X45830953Y28506190D01*
X45854762Y28458571D01*
X45854762Y28410952D01*
X45830953Y28339524D01*
X45545239Y28053810D01*
X45854762Y28053810D01*
X46092857Y28053810D02*
X46188095Y28053810D01*
X46235714Y28077619D01*
X46259524Y28101429D01*
X46307143Y28172857D01*
X46330952Y28268095D01*
X46330952Y28458571D01*
X46307143Y28506190D01*
X46283333Y28530000D01*
X46235714Y28553810D01*
X46140476Y28553810D01*
X46092857Y28530000D01*
X46069048Y28506190D01*
X46045238Y28458571D01*
X46045238Y28339524D01*
X46069048Y28291905D01*
X46092857Y28268095D01*
X46140476Y28244286D01*
X46235714Y28244286D01*
X46283333Y28268095D01*
X46307143Y28291905D01*
X46330952Y28339524D01*
X34188571Y28153572D02*
X34212381Y28129762D01*
X34236190Y28058334D01*
X34236190Y28010715D01*
X34212381Y27939286D01*
X34164762Y27891667D01*
X34117143Y27867858D01*
X34021905Y27844048D01*
X33950476Y27844048D01*
X33855238Y27867858D01*
X33807619Y27891667D01*
X33760000Y27939286D01*
X33736190Y28010715D01*
X33736190Y28058334D01*
X33760000Y28129762D01*
X33783810Y28153572D01*
X33736190Y28320239D02*
X33736190Y28653572D01*
X34236190Y28439286D01*
X34236190Y28867857D02*
X34236190Y28963095D01*
X34212381Y29010714D01*
X34188571Y29034524D01*
X34117143Y29082143D01*
X34021905Y29105952D01*
X33831429Y29105952D01*
X33783810Y29082143D01*
X33760000Y29058333D01*
X33736190Y29010714D01*
X33736190Y28915476D01*
X33760000Y28867857D01*
X33783810Y28844048D01*
X33831429Y28820238D01*
X33950476Y28820238D01*
X33998095Y28844048D01*
X34021905Y28867857D01*
X34045714Y28915476D01*
X34045714Y29010714D01*
X34021905Y29058333D01*
X33998095Y29082143D01*
X33950476Y29105952D01*
X41808572Y29273810D02*
X41641905Y29511905D01*
X41522858Y29273810D02*
X41522858Y29773810D01*
X41713334Y29773810D01*
X41760953Y29750000D01*
X41784762Y29726190D01*
X41808572Y29678571D01*
X41808572Y29607143D01*
X41784762Y29559524D01*
X41760953Y29535714D01*
X41713334Y29511905D01*
X41522858Y29511905D01*
X42284762Y29273810D02*
X41999048Y29273810D01*
X42141905Y29273810D02*
X42141905Y29773810D01*
X42094286Y29702381D01*
X42046667Y29654762D01*
X41999048Y29630952D01*
X42594286Y29773810D02*
X42641905Y29773810D01*
X42689524Y29750000D01*
X42713333Y29726190D01*
X42737143Y29678571D01*
X42760952Y29583333D01*
X42760952Y29464286D01*
X42737143Y29369048D01*
X42713333Y29321429D01*
X42689524Y29297619D01*
X42641905Y29273810D01*
X42594286Y29273810D01*
X42546667Y29297619D01*
X42522857Y29321429D01*
X42499048Y29369048D01*
X42475238Y29464286D01*
X42475238Y29583333D01*
X42499048Y29678571D01*
X42522857Y29726190D01*
X42546667Y29750000D01*
X42594286Y29773810D01*
X41938572Y30583810D02*
X41771905Y30821905D01*
X41652858Y30583810D02*
X41652858Y31083810D01*
X41843334Y31083810D01*
X41890953Y31060000D01*
X41914762Y31036190D01*
X41938572Y30988571D01*
X41938572Y30917143D01*
X41914762Y30869524D01*
X41890953Y30845714D01*
X41843334Y30821905D01*
X41652858Y30821905D01*
X42414762Y30583810D02*
X42129048Y30583810D01*
X42271905Y30583810D02*
X42271905Y31083810D01*
X42224286Y31012381D01*
X42176667Y30964762D01*
X42129048Y30940952D01*
X42890952Y30583810D02*
X42605238Y30583810D01*
X42748095Y30583810D02*
X42748095Y31083810D01*
X42700476Y31012381D01*
X42652857Y30964762D01*
X42605238Y30940952D01*
X45988572Y39671429D02*
X45964762Y39647619D01*
X45893334Y39623810D01*
X45845715Y39623810D01*
X45774286Y39647619D01*
X45726667Y39695238D01*
X45702858Y39742857D01*
X45679048Y39838095D01*
X45679048Y39909524D01*
X45702858Y40004762D01*
X45726667Y40052381D01*
X45774286Y40100000D01*
X45845715Y40123810D01*
X45893334Y40123810D01*
X45964762Y40100000D01*
X45988572Y40076190D01*
X46464762Y39623810D02*
X46179048Y39623810D01*
X46321905Y39623810D02*
X46321905Y40123810D01*
X46274286Y40052381D01*
X46226667Y40004762D01*
X46179048Y39980952D01*
X46750476Y39909524D02*
X46702857Y39933333D01*
X46679048Y39957143D01*
X46655238Y40004762D01*
X46655238Y40028571D01*
X46679048Y40076190D01*
X46702857Y40100000D01*
X46750476Y40123810D01*
X46845714Y40123810D01*
X46893333Y40100000D01*
X46917143Y40076190D01*
X46940952Y40028571D01*
X46940952Y40004762D01*
X46917143Y39957143D01*
X46893333Y39933333D01*
X46845714Y39909524D01*
X46750476Y39909524D01*
X46702857Y39885714D01*
X46679048Y39861905D01*
X46655238Y39814286D01*
X46655238Y39719048D01*
X46679048Y39671429D01*
X46702857Y39647619D01*
X46750476Y39623810D01*
X46845714Y39623810D01*
X46893333Y39647619D01*
X46917143Y39671429D01*
X46940952Y39719048D01*
X46940952Y39814286D01*
X46917143Y39861905D01*
X46893333Y39885714D01*
X46845714Y39909524D01*
X43958572Y39661429D02*
X43934762Y39637619D01*
X43863334Y39613810D01*
X43815715Y39613810D01*
X43744286Y39637619D01*
X43696667Y39685238D01*
X43672858Y39732857D01*
X43649048Y39828095D01*
X43649048Y39899524D01*
X43672858Y39994762D01*
X43696667Y40042381D01*
X43744286Y40090000D01*
X43815715Y40113810D01*
X43863334Y40113810D01*
X43934762Y40090000D01*
X43958572Y40066190D01*
X44149048Y40066190D02*
X44172858Y40090000D01*
X44220477Y40113810D01*
X44339524Y40113810D01*
X44387143Y40090000D01*
X44410953Y40066190D01*
X44434762Y40018571D01*
X44434762Y39970952D01*
X44410953Y39899524D01*
X44125239Y39613810D01*
X44434762Y39613810D01*
X44910952Y39613810D02*
X44625238Y39613810D01*
X44768095Y39613810D02*
X44768095Y40113810D01*
X44720476Y40042381D01*
X44672857Y39994762D01*
X44625238Y39970952D01*
X37058572Y33321429D02*
X37034762Y33297619D01*
X36963334Y33273810D01*
X36915715Y33273810D01*
X36844286Y33297619D01*
X36796667Y33345238D01*
X36772858Y33392857D01*
X36749048Y33488095D01*
X36749048Y33559524D01*
X36772858Y33654762D01*
X36796667Y33702381D01*
X36844286Y33750000D01*
X36915715Y33773810D01*
X36963334Y33773810D01*
X37034762Y33750000D01*
X37058572Y33726190D01*
X37225239Y33773810D02*
X37558572Y33773810D01*
X37344286Y33273810D01*
X37820476Y33559524D02*
X37772857Y33583333D01*
X37749048Y33607143D01*
X37725238Y33654762D01*
X37725238Y33678571D01*
X37749048Y33726190D01*
X37772857Y33750000D01*
X37820476Y33773810D01*
X37915714Y33773810D01*
X37963333Y33750000D01*
X37987143Y33726190D01*
X38010952Y33678571D01*
X38010952Y33654762D01*
X37987143Y33607143D01*
X37963333Y33583333D01*
X37915714Y33559524D01*
X37820476Y33559524D01*
X37772857Y33535714D01*
X37749048Y33511905D01*
X37725238Y33464286D01*
X37725238Y33369048D01*
X37749048Y33321429D01*
X37772857Y33297619D01*
X37820476Y33273810D01*
X37915714Y33273810D01*
X37963333Y33297619D01*
X37987143Y33321429D01*
X38010952Y33369048D01*
X38010952Y33464286D01*
X37987143Y33511905D01*
X37963333Y33535714D01*
X37915714Y33559524D01*
X41626190Y38396667D02*
X41626190Y38158572D01*
X41126190Y38158572D01*
X41173810Y38539524D02*
X41150000Y38563334D01*
X41126190Y38610953D01*
X41126190Y38730000D01*
X41150000Y38777619D01*
X41173810Y38801429D01*
X41221429Y38825238D01*
X41269048Y38825238D01*
X41340476Y38801429D01*
X41626190Y38515715D01*
X41626190Y38825238D01*
X36068572Y19001429D02*
X36044762Y18977619D01*
X35973334Y18953810D01*
X35925715Y18953810D01*
X35854286Y18977619D01*
X35806667Y19025238D01*
X35782858Y19072857D01*
X35759048Y19168095D01*
X35759048Y19239524D01*
X35782858Y19334762D01*
X35806667Y19382381D01*
X35854286Y19430000D01*
X35925715Y19453810D01*
X35973334Y19453810D01*
X36044762Y19430000D01*
X36068572Y19406190D01*
X36259048Y19406190D02*
X36282858Y19430000D01*
X36330477Y19453810D01*
X36449524Y19453810D01*
X36497143Y19430000D01*
X36520953Y19406190D01*
X36544762Y19358571D01*
X36544762Y19310952D01*
X36520953Y19239524D01*
X36235239Y18953810D01*
X36544762Y18953810D01*
X36735238Y19406190D02*
X36759048Y19430000D01*
X36806667Y19453810D01*
X36925714Y19453810D01*
X36973333Y19430000D01*
X36997143Y19406190D01*
X37020952Y19358571D01*
X37020952Y19310952D01*
X36997143Y19239524D01*
X36711429Y18953810D01*
X37020952Y18953810D01*
X12256667Y17893810D02*
X12018572Y17893810D01*
X12018572Y18393810D01*
X12375715Y18393810D02*
X12685238Y18393810D01*
X12518572Y18203333D01*
X12590000Y18203333D01*
X12637619Y18179524D01*
X12661429Y18155714D01*
X12685238Y18108095D01*
X12685238Y17989048D01*
X12661429Y17941429D01*
X12637619Y17917619D01*
X12590000Y17893810D01*
X12447143Y17893810D01*
X12399524Y17917619D01*
X12375715Y17941429D01*
X28706190Y35488572D02*
X28706190Y35250477D01*
X28206190Y35250477D01*
X28706190Y35917143D02*
X28706190Y35631429D01*
X28706190Y35774286D02*
X28206190Y35774286D01*
X28277619Y35726667D01*
X28325238Y35679048D01*
X28349048Y35631429D01*
X28206190Y36083810D02*
X28206190Y36417143D01*
X28706190Y36202857D01*
X29758572Y38433810D02*
X29520477Y38433810D01*
X29520477Y38933810D01*
X29901429Y38886190D02*
X29925239Y38910000D01*
X29972858Y38933810D01*
X30091905Y38933810D01*
X30139524Y38910000D01*
X30163334Y38886190D01*
X30187143Y38838571D01*
X30187143Y38790952D01*
X30163334Y38719524D01*
X29877620Y38433810D01*
X30187143Y38433810D01*
X30496667Y38933810D02*
X30544286Y38933810D01*
X30591905Y38910000D01*
X30615714Y38886190D01*
X30639524Y38838571D01*
X30663333Y38743333D01*
X30663333Y38624286D01*
X30639524Y38529048D01*
X30615714Y38481429D01*
X30591905Y38457619D01*
X30544286Y38433810D01*
X30496667Y38433810D01*
X30449048Y38457619D01*
X30425238Y38481429D01*
X30401429Y38529048D01*
X30377619Y38624286D01*
X30377619Y38743333D01*
X30401429Y38838571D01*
X30425238Y38886190D01*
X30449048Y38910000D01*
X30496667Y38933810D01*
X32036190Y49418572D02*
X32036190Y49180477D01*
X31536190Y49180477D01*
X31583810Y49561429D02*
X31560000Y49585239D01*
X31536190Y49632858D01*
X31536190Y49751905D01*
X31560000Y49799524D01*
X31583810Y49823334D01*
X31631429Y49847143D01*
X31679048Y49847143D01*
X31750476Y49823334D01*
X32036190Y49537620D01*
X32036190Y49847143D01*
X32036190Y50085238D02*
X32036190Y50180476D01*
X32012381Y50228095D01*
X31988571Y50251905D01*
X31917143Y50299524D01*
X31821905Y50323333D01*
X31631429Y50323333D01*
X31583810Y50299524D01*
X31560000Y50275714D01*
X31536190Y50228095D01*
X31536190Y50132857D01*
X31560000Y50085238D01*
X31583810Y50061429D01*
X31631429Y50037619D01*
X31750476Y50037619D01*
X31798095Y50061429D01*
X31821905Y50085238D01*
X31845714Y50132857D01*
X31845714Y50228095D01*
X31821905Y50275714D01*
X31798095Y50299524D01*
X31750476Y50323333D01*
X29758572Y4131429D02*
X29734762Y4107619D01*
X29663334Y4083810D01*
X29615715Y4083810D01*
X29544286Y4107619D01*
X29496667Y4155238D01*
X29472858Y4202857D01*
X29449048Y4298095D01*
X29449048Y4369524D01*
X29472858Y4464762D01*
X29496667Y4512381D01*
X29544286Y4560000D01*
X29615715Y4583810D01*
X29663334Y4583810D01*
X29734762Y4560000D01*
X29758572Y4536190D01*
X30044286Y4369524D02*
X29996667Y4393333D01*
X29972858Y4417143D01*
X29949048Y4464762D01*
X29949048Y4488571D01*
X29972858Y4536190D01*
X29996667Y4560000D01*
X30044286Y4583810D01*
X30139524Y4583810D01*
X30187143Y4560000D01*
X30210953Y4536190D01*
X30234762Y4488571D01*
X30234762Y4464762D01*
X30210953Y4417143D01*
X30187143Y4393333D01*
X30139524Y4369524D01*
X30044286Y4369524D01*
X29996667Y4345714D01*
X29972858Y4321905D01*
X29949048Y4274286D01*
X29949048Y4179048D01*
X29972858Y4131429D01*
X29996667Y4107619D01*
X30044286Y4083810D01*
X30139524Y4083810D01*
X30187143Y4107619D01*
X30210953Y4131429D01*
X30234762Y4179048D01*
X30234762Y4274286D01*
X30210953Y4321905D01*
X30187143Y4345714D01*
X30139524Y4369524D01*
X30544286Y4583810D02*
X30591905Y4583810D01*
X30639524Y4560000D01*
X30663333Y4536190D01*
X30687143Y4488571D01*
X30710952Y4393333D01*
X30710952Y4274286D01*
X30687143Y4179048D01*
X30663333Y4131429D01*
X30639524Y4107619D01*
X30591905Y4083810D01*
X30544286Y4083810D01*
X30496667Y4107619D01*
X30472857Y4131429D01*
X30449048Y4179048D01*
X30425238Y4274286D01*
X30425238Y4393333D01*
X30449048Y4488571D01*
X30472857Y4536190D01*
X30496667Y4560000D01*
X30544286Y4583810D01*
X24878572Y-6418571D02*
X24854762Y-6442381D01*
X24783334Y-6466190D01*
X24735715Y-6466190D01*
X24664286Y-6442381D01*
X24616667Y-6394762D01*
X24592858Y-6347143D01*
X24569048Y-6251905D01*
X24569048Y-6180476D01*
X24592858Y-6085238D01*
X24616667Y-6037619D01*
X24664286Y-5990000D01*
X24735715Y-5966190D01*
X24783334Y-5966190D01*
X24854762Y-5990000D01*
X24878572Y-6013810D01*
X25164286Y-6180476D02*
X25116667Y-6156667D01*
X25092858Y-6132857D01*
X25069048Y-6085238D01*
X25069048Y-6061429D01*
X25092858Y-6013810D01*
X25116667Y-5990000D01*
X25164286Y-5966190D01*
X25259524Y-5966190D01*
X25307143Y-5990000D01*
X25330953Y-6013810D01*
X25354762Y-6061429D01*
X25354762Y-6085238D01*
X25330953Y-6132857D01*
X25307143Y-6156667D01*
X25259524Y-6180476D01*
X25164286Y-6180476D01*
X25116667Y-6204286D01*
X25092858Y-6228095D01*
X25069048Y-6275714D01*
X25069048Y-6370952D01*
X25092858Y-6418571D01*
X25116667Y-6442381D01*
X25164286Y-6466190D01*
X25259524Y-6466190D01*
X25307143Y-6442381D01*
X25330953Y-6418571D01*
X25354762Y-6370952D01*
X25354762Y-6275714D01*
X25330953Y-6228095D01*
X25307143Y-6204286D01*
X25259524Y-6180476D01*
X25830952Y-6466190D02*
X25545238Y-6466190D01*
X25688095Y-6466190D02*
X25688095Y-5966190D01*
X25640476Y-6037619D01*
X25592857Y-6085238D01*
X25545238Y-6109048D01*
X41859048Y34893810D02*
X41859048Y34489048D01*
X41882857Y34441429D01*
X41906667Y34417619D01*
X41954286Y34393810D01*
X42049524Y34393810D01*
X42097143Y34417619D01*
X42120952Y34441429D01*
X42144762Y34489048D01*
X42144762Y34893810D01*
X42359048Y34846190D02*
X42382858Y34870000D01*
X42430477Y34893810D01*
X42549524Y34893810D01*
X42597143Y34870000D01*
X42620953Y34846190D01*
X42644762Y34798571D01*
X42644762Y34750952D01*
X42620953Y34679524D01*
X42335239Y34393810D01*
X42644762Y34393810D01*
X33526190Y23799048D02*
X33930952Y23799048D01*
X33978571Y23822857D01*
X34002381Y23846667D01*
X34026190Y23894286D01*
X34026190Y23989524D01*
X34002381Y24037143D01*
X33978571Y24060952D01*
X33930952Y24084762D01*
X33526190Y24084762D01*
X33526190Y24537143D02*
X33526190Y24441905D01*
X33550000Y24394286D01*
X33573810Y24370477D01*
X33645238Y24322858D01*
X33740476Y24299048D01*
X33930952Y24299048D01*
X33978571Y24322858D01*
X34002381Y24346667D01*
X34026190Y24394286D01*
X34026190Y24489524D01*
X34002381Y24537143D01*
X33978571Y24560953D01*
X33930952Y24584762D01*
X33811905Y24584762D01*
X33764286Y24560953D01*
X33740476Y24537143D01*
X33716667Y24489524D01*
X33716667Y24394286D01*
X33740476Y24346667D01*
X33764286Y24322858D01*
X33811905Y24299048D01*
X28526190Y57073334D02*
X28883333Y57073334D01*
X28954762Y57049524D01*
X29002381Y57001905D01*
X29026190Y56930477D01*
X29026190Y56882858D01*
X29026190Y57573333D02*
X29026190Y57287619D01*
X29026190Y57430476D02*
X28526190Y57430476D01*
X28597619Y57382857D01*
X28645238Y57335238D01*
X28669048Y57287619D01*
X17040477Y10151429D02*
X17016667Y10127619D01*
X16945239Y10103810D01*
X16897620Y10103810D01*
X16826191Y10127619D01*
X16778572Y10175238D01*
X16754763Y10222857D01*
X16730953Y10318095D01*
X16730953Y10389524D01*
X16754763Y10484762D01*
X16778572Y10532381D01*
X16826191Y10580000D01*
X16897620Y10603810D01*
X16945239Y10603810D01*
X17016667Y10580000D01*
X17040477Y10556190D01*
X17207144Y10603810D02*
X17516667Y10603810D01*
X17350001Y10413333D01*
X17421429Y10413333D01*
X17469048Y10389524D01*
X17492858Y10365714D01*
X17516667Y10318095D01*
X17516667Y10199048D01*
X17492858Y10151429D01*
X17469048Y10127619D01*
X17421429Y10103810D01*
X17278572Y10103810D01*
X17230953Y10127619D01*
X17207144Y10151429D01*
X17826191Y10603810D02*
X17873810Y10603810D01*
X17921429Y10580000D01*
X17945238Y10556190D01*
X17969048Y10508571D01*
X17992857Y10413333D01*
X17992857Y10294286D01*
X17969048Y10199048D01*
X17945238Y10151429D01*
X17921429Y10127619D01*
X17873810Y10103810D01*
X17826191Y10103810D01*
X17778572Y10127619D01*
X17754762Y10151429D01*
X17730953Y10199048D01*
X17707143Y10294286D01*
X17707143Y10413333D01*
X17730953Y10508571D01*
X17754762Y10556190D01*
X17778572Y10580000D01*
X17826191Y10603810D01*
X18469047Y10103810D02*
X18183333Y10103810D01*
X18326190Y10103810D02*
X18326190Y10603810D01*
X18278571Y10532381D01*
X18230952Y10484762D01*
X18183333Y10460952D01*
X13640477Y9403810D02*
X13402382Y9403810D01*
X13402382Y9903810D01*
X13759525Y9903810D02*
X14069048Y9903810D01*
X13902382Y9713333D01*
X13973810Y9713333D01*
X14021429Y9689524D01*
X14045239Y9665714D01*
X14069048Y9618095D01*
X14069048Y9499048D01*
X14045239Y9451429D01*
X14021429Y9427619D01*
X13973810Y9403810D01*
X13830953Y9403810D01*
X13783334Y9427619D01*
X13759525Y9451429D01*
X14378572Y9903810D02*
X14426191Y9903810D01*
X14473810Y9880000D01*
X14497619Y9856190D01*
X14521429Y9808571D01*
X14545238Y9713333D01*
X14545238Y9594286D01*
X14521429Y9499048D01*
X14497619Y9451429D01*
X14473810Y9427619D01*
X14426191Y9403810D01*
X14378572Y9403810D01*
X14330953Y9427619D01*
X14307143Y9451429D01*
X14283334Y9499048D01*
X14259524Y9594286D01*
X14259524Y9713333D01*
X14283334Y9808571D01*
X14307143Y9856190D01*
X14330953Y9880000D01*
X14378572Y9903810D01*
X15021428Y9403810D02*
X14735714Y9403810D01*
X14878571Y9403810D02*
X14878571Y9903810D01*
X14830952Y9832381D01*
X14783333Y9784762D01*
X14735714Y9760952D01*
X40952381Y45931190D02*
X40904762Y45955000D01*
X40857143Y46002619D01*
X40785714Y46074048D01*
X40738095Y46097857D01*
X40690476Y46097857D01*
X40714286Y45978810D02*
X40666667Y46002619D01*
X40619048Y46050238D01*
X40595238Y46145476D01*
X40595238Y46312143D01*
X40619048Y46407381D01*
X40666667Y46455000D01*
X40714286Y46478810D01*
X40809524Y46478810D01*
X40857143Y46455000D01*
X40904762Y46407381D01*
X40928571Y46312143D01*
X40928571Y46145476D01*
X40904762Y46050238D01*
X40857143Y46002619D01*
X40809524Y45978810D01*
X40714286Y45978810D01*
X41380953Y46478810D02*
X41142858Y46478810D01*
X41119048Y46240714D01*
X41142858Y46264524D01*
X41190477Y46288333D01*
X41309524Y46288333D01*
X41357143Y46264524D01*
X41380953Y46240714D01*
X41404762Y46193095D01*
X41404762Y46074048D01*
X41380953Y46026429D01*
X41357143Y46002619D01*
X41309524Y45978810D01*
X41190477Y45978810D01*
X41142858Y46002619D01*
X41119048Y46026429D01*
X41052381Y47806190D02*
X41004762Y47830000D01*
X40957143Y47877619D01*
X40885714Y47949048D01*
X40838095Y47972857D01*
X40790476Y47972857D01*
X40814286Y47853810D02*
X40766667Y47877619D01*
X40719048Y47925238D01*
X40695238Y48020476D01*
X40695238Y48187143D01*
X40719048Y48282381D01*
X40766667Y48330000D01*
X40814286Y48353810D01*
X40909524Y48353810D01*
X40957143Y48330000D01*
X41004762Y48282381D01*
X41028571Y48187143D01*
X41028571Y48020476D01*
X41004762Y47925238D01*
X40957143Y47877619D01*
X40909524Y47853810D01*
X40814286Y47853810D01*
X41457143Y48353810D02*
X41361905Y48353810D01*
X41314286Y48330000D01*
X41290477Y48306190D01*
X41242858Y48234762D01*
X41219048Y48139524D01*
X41219048Y47949048D01*
X41242858Y47901429D01*
X41266667Y47877619D01*
X41314286Y47853810D01*
X41409524Y47853810D01*
X41457143Y47877619D01*
X41480953Y47901429D01*
X41504762Y47949048D01*
X41504762Y48068095D01*
X41480953Y48115714D01*
X41457143Y48139524D01*
X41409524Y48163333D01*
X41314286Y48163333D01*
X41266667Y48139524D01*
X41242858Y48115714D01*
X41219048Y48068095D01*
X37677381Y50556190D02*
X37629762Y50580000D01*
X37582143Y50627619D01*
X37510714Y50699048D01*
X37463095Y50722857D01*
X37415476Y50722857D01*
X37439286Y50603810D02*
X37391667Y50627619D01*
X37344048Y50675238D01*
X37320238Y50770476D01*
X37320238Y50937143D01*
X37344048Y51032381D01*
X37391667Y51080000D01*
X37439286Y51103810D01*
X37534524Y51103810D01*
X37582143Y51080000D01*
X37629762Y51032381D01*
X37653571Y50937143D01*
X37653571Y50770476D01*
X37629762Y50675238D01*
X37582143Y50627619D01*
X37534524Y50603810D01*
X37439286Y50603810D01*
X37820239Y51103810D02*
X38153572Y51103810D01*
X37939286Y50603810D01*
X40951190Y42521667D02*
X40713095Y42355000D01*
X40951190Y42235953D02*
X40451190Y42235953D01*
X40451190Y42426429D01*
X40475000Y42474048D01*
X40498810Y42497857D01*
X40546429Y42521667D01*
X40617857Y42521667D01*
X40665476Y42497857D01*
X40689286Y42474048D01*
X40713095Y42426429D01*
X40713095Y42235953D01*
X40951190Y42997857D02*
X40951190Y42712143D01*
X40951190Y42855000D02*
X40451190Y42855000D01*
X40522619Y42807381D01*
X40570238Y42759762D01*
X40594048Y42712143D01*
X28101190Y11571667D02*
X27863095Y11405000D01*
X28101190Y11285953D02*
X27601190Y11285953D01*
X27601190Y11476429D01*
X27625000Y11524048D01*
X27648810Y11547857D01*
X27696429Y11571667D01*
X27767857Y11571667D01*
X27815476Y11547857D01*
X27839286Y11524048D01*
X27863095Y11476429D01*
X27863095Y11285953D01*
X27648810Y11762143D02*
X27625000Y11785953D01*
X27601190Y11833572D01*
X27601190Y11952619D01*
X27625000Y12000238D01*
X27648810Y12024048D01*
X27696429Y12047857D01*
X27744048Y12047857D01*
X27815476Y12024048D01*
X28101190Y11738334D01*
X28101190Y12047857D01*
X41878572Y46978810D02*
X41711905Y47216905D01*
X41592858Y46978810D02*
X41592858Y47478810D01*
X41783334Y47478810D01*
X41830953Y47455000D01*
X41854762Y47431190D01*
X41878572Y47383571D01*
X41878572Y47312143D01*
X41854762Y47264524D01*
X41830953Y47240714D01*
X41783334Y47216905D01*
X41592858Y47216905D01*
X42354762Y46978810D02*
X42069048Y46978810D01*
X42211905Y46978810D02*
X42211905Y47478810D01*
X42164286Y47407381D01*
X42116667Y47359762D01*
X42069048Y47335952D01*
X42783333Y47312143D02*
X42783333Y46978810D01*
X42664286Y47502619D02*
X42545238Y47145476D01*
X42854762Y47145476D01*
X40026190Y49233572D02*
X39788095Y49066905D01*
X40026190Y48947858D02*
X39526190Y48947858D01*
X39526190Y49138334D01*
X39550000Y49185953D01*
X39573810Y49209762D01*
X39621429Y49233572D01*
X39692857Y49233572D01*
X39740476Y49209762D01*
X39764286Y49185953D01*
X39788095Y49138334D01*
X39788095Y48947858D01*
X40026190Y49709762D02*
X40026190Y49424048D01*
X40026190Y49566905D02*
X39526190Y49566905D01*
X39597619Y49519286D01*
X39645238Y49471667D01*
X39669048Y49424048D01*
X39526190Y50162143D02*
X39526190Y49924048D01*
X39764286Y49900238D01*
X39740476Y49924048D01*
X39716667Y49971667D01*
X39716667Y50090714D01*
X39740476Y50138333D01*
X39764286Y50162143D01*
X39811905Y50185952D01*
X39930952Y50185952D01*
X39978571Y50162143D01*
X40002381Y50138333D01*
X40026190Y50090714D01*
X40026190Y49971667D01*
X40002381Y49924048D01*
X39978571Y49900238D01*
X46753572Y45478810D02*
X46586905Y45716905D01*
X46467858Y45478810D02*
X46467858Y45978810D01*
X46658334Y45978810D01*
X46705953Y45955000D01*
X46729762Y45931190D01*
X46753572Y45883571D01*
X46753572Y45812143D01*
X46729762Y45764524D01*
X46705953Y45740714D01*
X46658334Y45716905D01*
X46467858Y45716905D01*
X47229762Y45478810D02*
X46944048Y45478810D01*
X47086905Y45478810D02*
X47086905Y45978810D01*
X47039286Y45907381D01*
X46991667Y45859762D01*
X46944048Y45835952D01*
X47658333Y45978810D02*
X47563095Y45978810D01*
X47515476Y45955000D01*
X47491667Y45931190D01*
X47444048Y45859762D01*
X47420238Y45764524D01*
X47420238Y45574048D01*
X47444048Y45526429D01*
X47467857Y45502619D01*
X47515476Y45478810D01*
X47610714Y45478810D01*
X47658333Y45502619D01*
X47682143Y45526429D01*
X47705952Y45574048D01*
X47705952Y45693095D01*
X47682143Y45740714D01*
X47658333Y45764524D01*
X47610714Y45788333D01*
X47515476Y45788333D01*
X47467857Y45764524D01*
X47444048Y45740714D01*
X47420238Y45693095D01*
X26976190Y11058572D02*
X26738095Y10891905D01*
X26976190Y10772858D02*
X26476190Y10772858D01*
X26476190Y10963334D01*
X26500000Y11010953D01*
X26523810Y11034762D01*
X26571429Y11058572D01*
X26642857Y11058572D01*
X26690476Y11034762D01*
X26714286Y11010953D01*
X26738095Y10963334D01*
X26738095Y10772858D01*
X26976190Y11534762D02*
X26976190Y11249048D01*
X26976190Y11391905D02*
X26476190Y11391905D01*
X26547619Y11344286D01*
X26595238Y11296667D01*
X26619048Y11249048D01*
X26476190Y11701429D02*
X26476190Y12034762D01*
X26976190Y11820476D01*
%LPC*%
D21*
X39500000Y-3095000D03*
X39500000Y-295000D03*
D22*
X46700000Y-2195000D03*
X46700000Y-4995000D03*
D23*
X46700000Y7205000D03*
X42350000Y11305000D03*
D24*
X43100000Y-1095000D03*
X43100000Y5905000D03*
D25*
X35470000Y1625000D03*
X35470000Y-915000D03*
X35470000Y-3455000D03*
X35470000Y4165000D03*
D26*
X23349680Y7680640D03*
X22849300Y7680640D03*
X22348920Y7680640D03*
X23850060Y7680640D03*
D27*
X24599360Y8429940D03*
X24599360Y8930320D03*
X24599360Y9430700D03*
X24599360Y9931080D03*
X24599360Y10428920D03*
X24599360Y10929300D03*
X24599360Y11429680D03*
X24599360Y11930060D03*
D26*
X20349940Y12679360D03*
X23850060Y12679360D03*
X23349680Y12679360D03*
X22849300Y12679360D03*
X22348920Y12679360D03*
X21851080Y12679360D03*
X21350700Y12679360D03*
X20850320Y12679360D03*
D27*
X19600640Y11930060D03*
X19600640Y11429680D03*
X19600640Y10929300D03*
X19600640Y10428920D03*
X19600640Y9931080D03*
X19600640Y9430700D03*
X19600640Y8930320D03*
X19600640Y8429940D03*
D26*
X20349940Y7680640D03*
X20850320Y7680640D03*
X21350700Y7680640D03*
X21851080Y7680640D03*
D28*
X22100000Y10180000D03*
D10*
G36*
X31301412Y9033315D02*
X30346945Y9987782D01*
X31867168Y11508005D01*
X32821635Y10553538D01*
X31301412Y9033315D01*
X31301412Y9033315D01*
G37*
G36*
X33916462Y11648365D02*
X32961995Y12602832D01*
X34482218Y14123055D01*
X35436685Y13168588D01*
X33916462Y11648365D01*
X33916462Y11648365D01*
G37*
G36*
X32292832Y13271995D02*
X31338365Y14226462D01*
X32858588Y15746685D01*
X33813055Y14792218D01*
X32292832Y13271995D01*
X32292832Y13271995D01*
G37*
G36*
X29677782Y10656945D02*
X28723315Y11611412D01*
X30243538Y13131635D01*
X31198005Y12177168D01*
X29677782Y10656945D01*
X29677782Y10656945D01*
G37*
D29*
X42510040Y18777940D03*
X43460000Y18777940D03*
X44409960Y18777940D03*
X44409960Y16182060D03*
X43460000Y16182060D03*
X42510040Y16182060D03*
D30*
X13545000Y53500000D03*
X5595000Y53500000D03*
X5595000Y58000000D03*
X13545000Y58000000D03*
D31*
X11660000Y30940000D03*
X10160000Y30940000D03*
X17870000Y28470000D03*
X16370000Y28470000D03*
D32*
X24930000Y21010000D03*
X24930000Y19510000D03*
D31*
X10550000Y40790000D03*
X12050000Y40790000D03*
D32*
X20380000Y37590000D03*
X20380000Y39090000D03*
D31*
X7750000Y38400000D03*
X9250000Y38400000D03*
X16060000Y36090000D03*
X17560000Y36090000D03*
D32*
X11660000Y27600000D03*
X11660000Y29100000D03*
X18950000Y37600000D03*
X18950000Y36100000D03*
X26320000Y25260000D03*
X26320000Y26760000D03*
D31*
X23110000Y32670000D03*
X24610000Y32670000D03*
D33*
X25480000Y1780000D03*
D34*
X22940000Y1780000D03*
X20400000Y1780000D03*
X17860000Y1780000D03*
X15320000Y1780000D03*
X12780000Y1780000D03*
X10240000Y1780000D03*
X7700000Y1780000D03*
X5160000Y1780000D03*
X2620000Y1780000D03*
D31*
X38400000Y25930000D03*
X36900000Y25930000D03*
D35*
X10561660Y33618860D03*
X10561660Y35120000D03*
X10561660Y36621140D03*
D36*
X7610180Y35120000D03*
D10*
G36*
X8959650Y36245760D02*
X9958950Y35745380D01*
X9958950Y34494620D01*
X8959650Y33994240D01*
X8959650Y36245760D01*
X8959650Y36245760D01*
G37*
D35*
X18941660Y31498860D03*
X18941660Y33000000D03*
X18941660Y34501140D03*
D36*
X15990180Y33000000D03*
D10*
G36*
X17339650Y34125760D02*
X18338950Y33625380D01*
X18338950Y32374620D01*
X17339650Y31874240D01*
X17339650Y34125760D01*
X17339650Y34125760D01*
G37*
D35*
X26321660Y28268860D03*
X26321660Y29770000D03*
X26321660Y31271140D03*
D36*
X23370180Y29770000D03*
D10*
G36*
X24719650Y30895760D02*
X25718950Y30395380D01*
X25718950Y29144620D01*
X24719650Y28644240D01*
X24719650Y30895760D01*
X24719650Y30895760D01*
G37*
D37*
X25060000Y5190000D03*
X26160000Y5190000D03*
X25060000Y4040000D03*
X26160000Y4040000D03*
D38*
X16500000Y8430000D03*
X16500000Y7330000D03*
X15360000Y8430000D03*
X15360000Y7330000D03*
X29110000Y8280000D03*
X29110000Y7180000D03*
X30180000Y8280000D03*
X30180000Y7180000D03*
X14190000Y8430000D03*
X14190000Y7330000D03*
X12950000Y8430000D03*
X12950000Y7330000D03*
D10*
G36*
X32525736Y8735406D02*
X31995406Y9265736D01*
X32596446Y9866776D01*
X33126776Y9336446D01*
X32525736Y8735406D01*
X32525736Y8735406D01*
G37*
G36*
X33303554Y9513224D02*
X32773224Y10043554D01*
X33374264Y10644594D01*
X33904594Y10114264D01*
X33303554Y9513224D01*
X33303554Y9513224D01*
G37*
G36*
X31455736Y15035406D02*
X30925406Y15565736D01*
X31526446Y16166776D01*
X32056776Y15636446D01*
X31455736Y15035406D01*
X31455736Y15035406D01*
G37*
G36*
X32233554Y15813224D02*
X31703224Y16343554D01*
X32304264Y16944594D01*
X32834594Y16414264D01*
X32233554Y15813224D01*
X32233554Y15813224D01*
G37*
D37*
X21820000Y15510000D03*
X22920000Y15510000D03*
X21820000Y16460000D03*
X22920000Y16460000D03*
D38*
X18320000Y12680000D03*
X18320000Y13780000D03*
X17180000Y12680000D03*
X17180000Y13780000D03*
D37*
X20420000Y-510000D03*
X21520000Y-510000D03*
X29340000Y-6470000D03*
X28240000Y-6470000D03*
D32*
X24650000Y52720000D03*
X24650000Y54220000D03*
X11660000Y23080000D03*
X11660000Y24580000D03*
X16360000Y22640000D03*
X16360000Y24140000D03*
D31*
X22030000Y21010000D03*
X23530000Y21010000D03*
D37*
X24160000Y48075000D03*
X23060000Y48075000D03*
X7730000Y41070000D03*
X6630000Y41070000D03*
D38*
X20310000Y23520000D03*
X20310000Y24620000D03*
X39950000Y32120000D03*
X39950000Y33220000D03*
D37*
X23110000Y35180000D03*
X22010000Y35180000D03*
X47100000Y15120000D03*
X46000000Y15120000D03*
D32*
X8790000Y49560000D03*
X8790000Y51060000D03*
D37*
X11240000Y51050000D03*
X10140000Y51050000D03*
D38*
X46390000Y20260000D03*
X46390000Y19160000D03*
D37*
X37930000Y8450000D03*
X36830000Y8450000D03*
D38*
X21480000Y41450000D03*
X21480000Y42550000D03*
D37*
X14660000Y48440000D03*
X13560000Y48440000D03*
X19210000Y42570000D03*
X18110000Y42570000D03*
X41200000Y14180000D03*
X40100000Y14180000D03*
D32*
X35460000Y8000000D03*
X35460000Y6500000D03*
D39*
X18500000Y8430000D03*
X17600000Y8430000D03*
X43410000Y14640000D03*
X42510000Y14640000D03*
D40*
X41220000Y16190000D03*
X41220000Y15290000D03*
D39*
X44410000Y20260000D03*
X45310000Y20260000D03*
X7490000Y51050000D03*
X6590000Y51050000D03*
D40*
X46000000Y17080000D03*
X46000000Y16180000D03*
X47430000Y17090000D03*
X47430000Y17990000D03*
X36830000Y7410000D03*
X36830000Y6510000D03*
X42275000Y54605000D03*
X42275000Y53705000D03*
X45075000Y52105000D03*
X45075000Y53005000D03*
D41*
X23720000Y50820000D03*
X23720000Y50320000D03*
X23720000Y49820000D03*
D42*
X24150000Y49390000D03*
X24650000Y49390000D03*
X25150000Y49390000D03*
D41*
X25580000Y49820000D03*
X25580000Y50320000D03*
X25580000Y50820000D03*
D42*
X25150000Y51250000D03*
X24650000Y51250000D03*
X24150000Y51250000D03*
D43*
X24840000Y50130000D03*
X24840000Y50510000D03*
X24460000Y50130000D03*
X24460000Y50510000D03*
D41*
X20310000Y20660000D03*
X20310000Y21160000D03*
X20310000Y21660000D03*
D42*
X19880000Y22090000D03*
X19380000Y22090000D03*
X18880000Y22090000D03*
D41*
X18450000Y21660000D03*
X18450000Y21160000D03*
X18450000Y20660000D03*
D42*
X18880000Y20230000D03*
X19380000Y20230000D03*
X19880000Y20230000D03*
D43*
X19190000Y21350000D03*
X19190000Y20970000D03*
X19570000Y21350000D03*
X19570000Y20970000D03*
D37*
X9285000Y-515000D03*
X10385000Y-515000D03*
X14885000Y-515000D03*
X15985000Y-515000D03*
X3610000Y-515000D03*
X4710000Y-515000D03*
X11660000Y43330000D03*
X10560000Y43330000D03*
X22740000Y38730000D03*
X23840000Y38730000D03*
D31*
X27410000Y33960000D03*
X25910000Y33960000D03*
D44*
X21370000Y-1880000D03*
X20420000Y-1880000D03*
X19470000Y-1880000D03*
X19470000Y-4080000D03*
X20420000Y-4080000D03*
X21370000Y-4080000D03*
X15835000Y-1890000D03*
X14885000Y-1890000D03*
X13935000Y-1890000D03*
X13935000Y-4090000D03*
X14885000Y-4090000D03*
X15835000Y-4090000D03*
X10235000Y-1890000D03*
X9285000Y-1890000D03*
X8335000Y-1890000D03*
X8335000Y-4090000D03*
X9285000Y-4090000D03*
X10235000Y-4090000D03*
X4560000Y-1890000D03*
X3610000Y-1890000D03*
X2660000Y-1890000D03*
X2660000Y-4090000D03*
X3610000Y-4090000D03*
X4560000Y-4090000D03*
D40*
X22970000Y-3180000D03*
X22970000Y-4080000D03*
D39*
X12460000Y-4090000D03*
X11560000Y-4090000D03*
X18040000Y-4090000D03*
X17140000Y-4090000D03*
X6785000Y-4090000D03*
X5885000Y-4090000D03*
D45*
X19770000Y-7450000D03*
X20420000Y-7450000D03*
X21070000Y-7450000D03*
X21070000Y-5550000D03*
X20420000Y-5550000D03*
X19770000Y-5550000D03*
D37*
X28630000Y39900000D03*
X27530000Y39900000D03*
D46*
X28890240Y-3290040D03*
X28240000Y-3290040D03*
X27589760Y-3290040D03*
X27589760Y-5189960D03*
X28240000Y-5189960D03*
X28890240Y-5189960D03*
D47*
X7969600Y-7506000D03*
X9290400Y-7506000D03*
X8630000Y-7506000D03*
X9290400Y-5474000D03*
X7969600Y-5474000D03*
X13559600Y-7506000D03*
X14880400Y-7506000D03*
X14220000Y-7506000D03*
X14880400Y-5474000D03*
X13559600Y-5474000D03*
X2289600Y-7506000D03*
X3610400Y-7506000D03*
X2950000Y-7506000D03*
X3610400Y-5474000D03*
X2289600Y-5474000D03*
D31*
X28630000Y44610000D03*
X27130000Y44610000D03*
X20560000Y52290000D03*
X19060000Y52290000D03*
X15000000Y18805000D03*
X13500000Y18805000D03*
X13160000Y44580000D03*
X11660000Y44580000D03*
D32*
X22740000Y41460000D03*
X22740000Y39960000D03*
D31*
X14670000Y47160000D03*
X13170000Y47160000D03*
X16160000Y49750000D03*
X14660000Y49750000D03*
X17680000Y52300000D03*
X16180000Y52300000D03*
X20760000Y46990000D03*
X19260000Y46990000D03*
D37*
X7720000Y39880000D03*
X6620000Y39880000D03*
X16060000Y37270000D03*
X14960000Y37270000D03*
X23110000Y34030000D03*
X22010000Y34030000D03*
X16060000Y38420000D03*
X14960000Y38420000D03*
D31*
X16360000Y25540000D03*
X14860000Y25540000D03*
D37*
X11660000Y26220000D03*
X10560000Y26220000D03*
X7730000Y42200000D03*
X6630000Y42200000D03*
X16060000Y39540000D03*
X14960000Y39540000D03*
X23100000Y36180000D03*
X24200000Y36180000D03*
X13170000Y45860000D03*
X14270000Y45860000D03*
D48*
X26320000Y23590000D03*
X24320000Y23590000D03*
D37*
X16160000Y51050000D03*
X15060000Y51050000D03*
X19210000Y45770000D03*
X20310000Y45770000D03*
X30620000Y47650000D03*
X29520000Y47650000D03*
D32*
X20770000Y49910000D03*
X20770000Y48410000D03*
D31*
X27680000Y50320000D03*
X29180000Y50320000D03*
X12950000Y11430000D03*
X14450000Y11430000D03*
D37*
X27400000Y37490000D03*
X26300000Y37490000D03*
D38*
X10950000Y17030000D03*
X10950000Y18130000D03*
D37*
X9900000Y15005000D03*
X8800000Y15005000D03*
X11660000Y32150000D03*
X10560000Y32150000D03*
D31*
X16360000Y27050000D03*
X17860000Y27050000D03*
D37*
X17860000Y29820000D03*
X18960000Y29820000D03*
D38*
X10560000Y39510000D03*
X10560000Y38410000D03*
X26320000Y21010000D03*
X26320000Y22110000D03*
D37*
X11660000Y42130000D03*
X10560000Y42130000D03*
X22740000Y37600000D03*
X21640000Y37600000D03*
X27420000Y32670000D03*
X26320000Y32670000D03*
X19230000Y41450000D03*
X20330000Y41450000D03*
D49*
X28630000Y43220000D03*
X28630000Y41220000D03*
D38*
X19220000Y44720000D03*
X19220000Y43620000D03*
D48*
X30630000Y46160000D03*
X28630000Y46160000D03*
D38*
X11475000Y13305000D03*
X11475000Y14405000D03*
D40*
X9900000Y17030000D03*
X9900000Y16130000D03*
D50*
X51960000Y-6190000D03*
X2050000Y58160000D03*
D51*
X28090000Y15940000D03*
X25170000Y15940000D03*
D52*
X13000000Y13305000D03*
X13500000Y13305000D03*
X14000000Y13305000D03*
X14500000Y13305000D03*
X14500000Y15205000D03*
X14000000Y15205000D03*
X13500000Y15205000D03*
X13000000Y15205000D03*
D53*
X14190000Y14255000D03*
X13310000Y14255000D03*
D32*
X34700000Y44160000D03*
X34700000Y45660000D03*
D31*
X34700000Y47820000D03*
X36200000Y47820000D03*
X34700000Y42740000D03*
X36200000Y42740000D03*
X27500000Y52730000D03*
X26000000Y52730000D03*
D32*
X17860000Y17310000D03*
X17860000Y18810000D03*
D39*
X26010000Y54220000D03*
X26910000Y54220000D03*
D38*
X45560000Y32720000D03*
X45560000Y31620000D03*
D37*
X44480000Y28230000D03*
X43380000Y28230000D03*
D51*
X35490000Y28505000D03*
X38410000Y28505000D03*
D39*
X43380000Y29470000D03*
X44280000Y29470000D03*
X44280000Y30810000D03*
X43380000Y30810000D03*
D49*
X46360000Y36810000D03*
X46360000Y38810000D03*
X44280000Y36810000D03*
X44280000Y38810000D03*
D48*
X36400000Y32260000D03*
X38400000Y32260000D03*
D54*
X39950000Y36480000D03*
X36350000Y36480000D03*
D48*
X37400000Y20580000D03*
X35400000Y20580000D03*
D31*
X13500000Y17030000D03*
X12000000Y17030000D03*
D32*
X27400000Y36550000D03*
X27400000Y35050000D03*
D31*
X28730000Y38660000D03*
X27230000Y38660000D03*
D32*
X30620000Y50320000D03*
X30620000Y48820000D03*
D48*
X31080000Y3090000D03*
X29080000Y3090000D03*
D49*
X25200000Y-5180000D03*
X25200000Y-3180000D03*
D55*
X44280000Y32220000D03*
X44280000Y32720000D03*
X44280000Y33220000D03*
X44280000Y33720000D03*
X41380000Y33720000D03*
X41380000Y33220000D03*
X41380000Y32720000D03*
X41380000Y32220000D03*
D56*
X42392500Y33332500D03*
X42392500Y32607500D03*
X43267500Y33332500D03*
X43267500Y32607500D03*
D57*
X35398860Y24180000D03*
X35398860Y22280000D03*
X38401140Y23230000D03*
D58*
X21878000Y57240000D03*
X27402000Y57240000D03*
D59*
X24640000Y57240000D03*
D31*
X16850000Y11430000D03*
X18350000Y11430000D03*
D32*
X15650000Y9930000D03*
X15650000Y11430000D03*
D57*
X42698860Y45405000D03*
X42698860Y43505000D03*
X45701140Y44455000D03*
D60*
X42450000Y49103860D03*
X44350000Y49103860D03*
X43400000Y52106140D03*
X38975000Y51603860D03*
X40875000Y51603860D03*
X39925000Y54606140D03*
D40*
X40725000Y43505000D03*
X40725000Y44405000D03*
X27875000Y12530000D03*
X27875000Y13430000D03*
D39*
X44350000Y47230000D03*
X43450000Y47230000D03*
D40*
X40875000Y50005000D03*
X40875000Y49105000D03*
X45700000Y45605000D03*
X45700000Y46505000D03*
D25*
X50830000Y26680000D03*
X50830000Y29220000D03*
X50830000Y41920000D03*
X50830000Y44460000D03*
X50830000Y47000000D03*
X50830000Y49540000D03*
X50830000Y52080000D03*
X50830000Y54620000D03*
X2570000Y15250000D03*
X2570000Y49540000D03*
X2570000Y47000000D03*
X2570000Y44460000D03*
X2570000Y41920000D03*
X2570000Y39380000D03*
X2570000Y36840000D03*
X2570000Y33030000D03*
X2570000Y30490000D03*
X2570000Y27950000D03*
X2570000Y25410000D03*
X2570000Y22870000D03*
X2570000Y20330000D03*
X50830000Y31760000D03*
X50830000Y34300000D03*
X2570000Y17790000D03*
X50830000Y24140000D03*
X2570000Y54620000D03*
X2570000Y52080000D03*
X50830000Y36840000D03*
D61*
X2570000Y6360000D03*
X45755000Y57165000D03*
X17815000Y57160000D03*
X50830000Y5095000D03*
D25*
X2570000Y12710000D03*
X2570000Y10170000D03*
X50830000Y21600000D03*
X50830000Y19060000D03*
D40*
X26750000Y12530000D03*
X26750000Y13430000D03*
M02*
