G04 #@! TF.FileFunction,Soldermask,Top*
%FSLAX46Y46*%
G04 Gerber Fmt 4.6, Leading zero omitted, Abs format (unit mm)*
G04 Created by KiCad (PCBNEW 4.0.6) date 10/15/17 15:06:52*
%MOMM*%
%LPD*%
G01*
G04 APERTURE LIST*
%ADD10C,0.150000*%
%ADD11R,0.650000X0.850000*%
%ADD12R,0.450000X0.690000*%
%ADD13R,0.690000X0.450000*%
%ADD14R,0.630000X0.630000*%
%ADD15R,3.050000X2.250000*%
%ADD16R,3.050000X2.450000*%
%ADD17R,3.050000X3.050000*%
%ADD18C,1.950000*%
%ADD19R,0.504000X1.012000*%
%ADD20R,1.012000X0.504000*%
%ADD21R,3.249740X3.249740*%
%ADD22R,0.798640X1.448880*%
%ADD23R,1.800000X1.550000*%
%ADD24R,1.977200X2.282000*%
%ADD25O,1.977200X2.282000*%
%ADD26R,1.050000X1.000000*%
%ADD27R,1.250760X1.751140*%
%ADD28R,2.248980X3.249740*%
%ADD29R,0.850000X0.750000*%
%ADD30R,0.750000X0.850000*%
%ADD31R,1.000000X1.050000*%
%ADD32R,0.850000X0.650000*%
%ADD33R,1.250000X0.850000*%
%ADD34R,0.950000X0.670000*%
%ADD35R,0.999300X0.648780*%
%ADD36R,1.500000X1.250000*%
%ADD37R,1.250000X1.500000*%
%ADD38C,1.248220*%
%ADD39R,2.480000X2.050000*%
%ADD40R,0.750000X0.550000*%
%ADD41R,1.050000X1.130000*%
%ADD42R,2.050000X2.480000*%
%ADD43R,1.750000X4.250000*%
%ADD44R,1.000000X0.550000*%
%ADD45R,1.125000X0.975000*%
%ADD46R,1.050000X0.850000*%
%ADD47R,1.950000X1.950000*%
%ADD48O,1.950000X1.950000*%
%ADD49R,1.050000X1.150000*%
%ADD50R,1.150000X1.050000*%
%ADD51R,1.349820X2.149920*%
%ADD52R,2.450000X1.250000*%
%ADD53C,2.129600*%
%ADD54C,3.750000*%
%ADD55R,2.250000X4.314000*%
%ADD56R,1.774000X4.314000*%
G04 APERTURE END LIST*
D10*
D11*
X43600000Y46280000D03*
X42700000Y46280000D03*
D12*
X16100000Y41010000D03*
X15600000Y41010000D03*
X15100000Y41010000D03*
D13*
X14670000Y40580000D03*
X14670000Y40080000D03*
X14670000Y39580000D03*
D12*
X15100000Y39150000D03*
X15600000Y39150000D03*
X16100000Y39150000D03*
D13*
X16530000Y39580000D03*
X16530000Y40080000D03*
X16530000Y40580000D03*
D14*
X15410000Y39890000D03*
X15790000Y39890000D03*
X15410000Y40270000D03*
X15790000Y40270000D03*
D15*
X39600000Y-5220000D03*
X39600000Y-2420000D03*
D16*
X46800000Y-4320000D03*
X46800000Y-7120000D03*
D17*
X46800000Y5080000D03*
X42450000Y9180000D03*
D18*
X43200000Y-3220000D03*
X43200000Y3780000D03*
D19*
X23349680Y7680640D03*
X22849300Y7680640D03*
X22348920Y7680640D03*
X23850060Y7680640D03*
D20*
X24599360Y8429940D03*
X24599360Y8930320D03*
X24599360Y9430700D03*
X24599360Y9931080D03*
X24599360Y10428920D03*
X24599360Y10929300D03*
X24599360Y11429680D03*
X24599360Y11930060D03*
D19*
X20349940Y12679360D03*
X23850060Y12679360D03*
X23349680Y12679360D03*
X22849300Y12679360D03*
X22348920Y12679360D03*
X21851080Y12679360D03*
X21350700Y12679360D03*
X20850320Y12679360D03*
D20*
X19600640Y11930060D03*
X19600640Y11429680D03*
X19600640Y10929300D03*
X19600640Y10428920D03*
X19600640Y9931080D03*
X19600640Y9430700D03*
X19600640Y8930320D03*
X19600640Y8429940D03*
D19*
X20349940Y7680640D03*
X20850320Y7680640D03*
X21350700Y7680640D03*
X21851080Y7680640D03*
D21*
X22100000Y10180000D03*
D22*
X42510040Y18777940D03*
X43460000Y18777940D03*
X44409960Y18777940D03*
X44409960Y16182060D03*
X43460000Y16182060D03*
X42510040Y16182060D03*
D23*
X41175000Y52730000D03*
X33225000Y52730000D03*
X33225000Y57230000D03*
X41175000Y57230000D03*
D24*
X25480000Y1780000D03*
D25*
X22940000Y1780000D03*
X20400000Y1780000D03*
X17860000Y1780000D03*
X15320000Y1780000D03*
X12780000Y1780000D03*
X10240000Y1780000D03*
X7700000Y1780000D03*
X5160000Y1780000D03*
X2620000Y1780000D03*
D26*
X36400000Y27980000D03*
X34900000Y27980000D03*
D27*
X12648860Y28678340D03*
X14150000Y28678340D03*
X15651140Y28678340D03*
D28*
X14150000Y31629820D03*
D10*
G36*
X15275760Y30280350D02*
X14775380Y29281050D01*
X13524620Y29281050D01*
X13024240Y30280350D01*
X15275760Y30280350D01*
X15275760Y30280350D01*
G37*
D29*
X25060000Y5190000D03*
X26160000Y5190000D03*
X25060000Y4040000D03*
X26160000Y4040000D03*
D30*
X16500000Y8430000D03*
X16500000Y7330000D03*
X15360000Y8430000D03*
X15360000Y7330000D03*
D29*
X29100000Y8280000D03*
X30200000Y8280000D03*
X29100000Y7280000D03*
X30200000Y7280000D03*
D30*
X14190000Y8430000D03*
X14190000Y7330000D03*
X12950000Y8430000D03*
X12950000Y7330000D03*
D29*
X32000000Y9180000D03*
X33100000Y9180000D03*
X29700000Y16380000D03*
X30800000Y16380000D03*
X21820000Y15510000D03*
X22920000Y15510000D03*
X21820000Y16460000D03*
X22920000Y16460000D03*
D30*
X18320000Y12680000D03*
X18320000Y13780000D03*
X17180000Y12680000D03*
X17180000Y13780000D03*
X28750000Y-4220000D03*
X28750000Y-5320000D03*
D29*
X17400000Y-6170000D03*
X16300000Y-6170000D03*
D31*
X11610000Y52280000D03*
X11610000Y53780000D03*
D26*
X16100000Y35030000D03*
X14600000Y35030000D03*
X15100000Y36430000D03*
X13600000Y36430000D03*
X15600000Y42530000D03*
X17100000Y42530000D03*
D29*
X12950000Y46780000D03*
X14050000Y46780000D03*
D30*
X13850000Y42230000D03*
X13850000Y43330000D03*
X39950000Y32120000D03*
X39950000Y33220000D03*
X21050000Y30980000D03*
X21050000Y32080000D03*
D29*
X47100000Y15120000D03*
X46000000Y15120000D03*
D26*
X41100000Y21780000D03*
X42600000Y21780000D03*
D29*
X43700000Y23180000D03*
X42600000Y23180000D03*
X37930000Y8450000D03*
X36830000Y8450000D03*
X12250000Y39080000D03*
X11150000Y39080000D03*
X8900000Y42580000D03*
X7800000Y42580000D03*
X12250000Y42180000D03*
X11150000Y42180000D03*
D31*
X35460000Y8000000D03*
X35460000Y6500000D03*
D11*
X18500000Y8430000D03*
X17600000Y8430000D03*
D32*
X41180000Y19690000D03*
X41180000Y18790000D03*
X41100000Y16180000D03*
X41100000Y17080000D03*
D11*
X44410000Y20260000D03*
X45310000Y20260000D03*
D32*
X42600000Y24380000D03*
X42600000Y25280000D03*
X46000000Y17080000D03*
X46000000Y16180000D03*
X47430000Y17090000D03*
X47430000Y17990000D03*
X36830000Y7410000D03*
X36830000Y6510000D03*
D11*
X39600000Y46280000D03*
X38700000Y46280000D03*
D13*
X12920000Y50280000D03*
X12920000Y49780000D03*
X12920000Y49280000D03*
D12*
X13350000Y48850000D03*
X13850000Y48850000D03*
X14350000Y48850000D03*
D13*
X14780000Y49280000D03*
X14780000Y49780000D03*
X14780000Y50280000D03*
D12*
X14350000Y50710000D03*
X13850000Y50710000D03*
X13350000Y50710000D03*
D14*
X14040000Y49590000D03*
X14040000Y49970000D03*
X13660000Y49590000D03*
X13660000Y49970000D03*
D33*
X27200000Y-5170000D03*
X27200000Y-4220000D03*
X27200000Y-3270000D03*
X25000000Y-3270000D03*
X25000000Y-4220000D03*
X25000000Y-5170000D03*
D11*
X25900000Y-6570000D03*
X25000000Y-6570000D03*
X18600000Y41430000D03*
X17700000Y41430000D03*
D32*
X42520000Y13850000D03*
X42520000Y14750000D03*
D11*
X42500000Y20230000D03*
X43400000Y20230000D03*
D34*
X20600000Y-3570000D03*
X20600000Y-4220000D03*
X20600000Y-4870000D03*
X22500000Y-4870000D03*
X22500000Y-4220000D03*
X22500000Y-3570000D03*
D30*
X21050000Y42530000D03*
X21050000Y43630000D03*
D35*
X17349960Y-4770240D03*
X17349960Y-4120000D03*
X17349960Y-3469760D03*
X15450040Y-3469760D03*
X15450040Y-4120000D03*
X15450040Y-4770240D03*
D26*
X22600000Y45780000D03*
X21100000Y45780000D03*
X10400000Y51130000D03*
X8900000Y51130000D03*
D31*
X8200000Y12930000D03*
X8200000Y11430000D03*
X8950000Y36930000D03*
X8950000Y35430000D03*
X12300000Y37980000D03*
X12300000Y36480000D03*
X8950000Y41080000D03*
X8950000Y39580000D03*
X8900000Y45530000D03*
X8900000Y44030000D03*
X8900000Y49780000D03*
X8900000Y48280000D03*
X11150000Y46780000D03*
X11150000Y45280000D03*
D30*
X19950000Y30980000D03*
X19950000Y32080000D03*
X20700000Y40080000D03*
X20700000Y38980000D03*
X22150000Y30980000D03*
X22150000Y32080000D03*
D29*
X8950000Y38180000D03*
X7850000Y38180000D03*
X8900000Y46880000D03*
X7800000Y46880000D03*
X11150000Y44180000D03*
X12250000Y44180000D03*
X20650000Y48530000D03*
X19550000Y48530000D03*
D31*
X11150000Y49430000D03*
X11150000Y47930000D03*
D26*
X16350000Y49780000D03*
X17850000Y49780000D03*
X12950000Y11430000D03*
X14450000Y11430000D03*
D29*
X24900000Y29880000D03*
X26000000Y29880000D03*
X6850000Y8680000D03*
X5750000Y8680000D03*
D30*
X9850000Y8680000D03*
X9850000Y7580000D03*
X12250000Y41180000D03*
X12250000Y40080000D03*
D36*
X22600000Y44530000D03*
X22600000Y42530000D03*
D29*
X11150000Y43180000D03*
X12250000Y43180000D03*
D37*
X20600000Y47280000D03*
X22600000Y47280000D03*
D29*
X11050000Y9880000D03*
X9950000Y9880000D03*
D11*
X7900000Y8680000D03*
X8800000Y8680000D03*
D38*
X51960000Y-6190000D03*
X2050000Y58160000D03*
D39*
X25200000Y18790000D03*
X25200000Y15870000D03*
D40*
X11450000Y10930000D03*
X11450000Y11430000D03*
X11450000Y11930000D03*
X11450000Y12430000D03*
X9550000Y12430000D03*
X9550000Y11930000D03*
X9550000Y11430000D03*
X9550000Y10930000D03*
D41*
X10500000Y12120000D03*
X10500000Y11240000D03*
D31*
X27700000Y46680000D03*
X27700000Y48180000D03*
D26*
X27700000Y49680000D03*
X29200000Y49680000D03*
X27700000Y45080000D03*
X29200000Y45080000D03*
X15350000Y52280000D03*
X13850000Y52280000D03*
X9700000Y14980000D03*
X8200000Y14980000D03*
D11*
X12910000Y53780000D03*
X13810000Y53780000D03*
D30*
X45560000Y32720000D03*
X45560000Y31620000D03*
D29*
X44480000Y28230000D03*
X43380000Y28230000D03*
D42*
X33440000Y30330000D03*
X36360000Y30330000D03*
D11*
X43380000Y29470000D03*
X44280000Y29470000D03*
X44280000Y30810000D03*
X43380000Y30810000D03*
D36*
X46360000Y36810000D03*
X46360000Y38810000D03*
X44280000Y36810000D03*
X44280000Y38810000D03*
D37*
X34400000Y33080000D03*
X36400000Y33080000D03*
D43*
X39950000Y36480000D03*
X36350000Y36480000D03*
D36*
X32650000Y26330000D03*
X32650000Y24330000D03*
D31*
X6850000Y11430000D03*
X6850000Y9930000D03*
D26*
X19900000Y42530000D03*
X18400000Y42530000D03*
X19100000Y49780000D03*
X20600000Y49780000D03*
D37*
X31100000Y5830000D03*
X29100000Y5830000D03*
X23000000Y-1570000D03*
X25000000Y-1570000D03*
D44*
X44280000Y32220000D03*
X44280000Y32720000D03*
X44280000Y33220000D03*
X44280000Y33720000D03*
X41380000Y33720000D03*
X41380000Y33220000D03*
X41380000Y32720000D03*
X41380000Y32220000D03*
D45*
X42392500Y33332500D03*
X42392500Y32607500D03*
X43267500Y33332500D03*
X43267500Y32607500D03*
D26*
X16850000Y11430000D03*
X18350000Y11430000D03*
D31*
X15650000Y9930000D03*
X15650000Y11430000D03*
D11*
X36550000Y41280000D03*
X35650000Y41280000D03*
D32*
X27875000Y12530000D03*
X27875000Y13430000D03*
D11*
X40550000Y41280000D03*
X39650000Y41280000D03*
X44550000Y41280000D03*
X43650000Y41280000D03*
X35600000Y46280000D03*
X34700000Y46280000D03*
D32*
X26750000Y12530000D03*
X26750000Y13430000D03*
D46*
X10600000Y-6070000D03*
X10600000Y-4370000D03*
X7100000Y-6070000D03*
X7100000Y-4370000D03*
D32*
X10600000Y-1770000D03*
X10600000Y-2670000D03*
X7100000Y-1770000D03*
X7100000Y-2670000D03*
D26*
X14150000Y22580000D03*
X12650000Y22580000D03*
D29*
X24900000Y36180000D03*
X26000000Y36180000D03*
D30*
X15650000Y17730000D03*
X15650000Y18830000D03*
X24900000Y32080000D03*
X24900000Y30980000D03*
X12650000Y26080000D03*
X12650000Y27180000D03*
D26*
X21900000Y40080000D03*
X23400000Y40080000D03*
D30*
X10950000Y17730000D03*
X10950000Y16630000D03*
D29*
X15650000Y20080000D03*
X16750000Y20080000D03*
D47*
X35470000Y4165000D03*
D48*
X35470000Y1625000D03*
X35470000Y-915000D03*
X35470000Y-3455000D03*
D49*
X34650000Y42780000D03*
X36550000Y42780000D03*
X35600000Y44780000D03*
X38650000Y42780000D03*
X40550000Y42780000D03*
X39600000Y44780000D03*
X42650000Y42780000D03*
X44550000Y42780000D03*
X43600000Y44780000D03*
D50*
X34400000Y26230000D03*
X34400000Y24330000D03*
X36400000Y25280000D03*
D51*
X31998080Y10880880D03*
X31998080Y14579120D03*
X29701920Y14579120D03*
X29701920Y10880880D03*
D30*
X14650000Y17730000D03*
X14650000Y16630000D03*
D29*
X24900000Y33080000D03*
X26000000Y33080000D03*
D31*
X46390000Y20460000D03*
X46390000Y18960000D03*
D29*
X12650000Y24980000D03*
X11550000Y24980000D03*
D26*
X41020000Y12680000D03*
X42520000Y12680000D03*
D29*
X8200000Y16330000D03*
X9300000Y16330000D03*
D30*
X22700000Y28780000D03*
X22700000Y27680000D03*
D39*
X38680000Y14190000D03*
X38680000Y17110000D03*
D26*
X12050000Y17730000D03*
X13550000Y17730000D03*
X15650000Y21330000D03*
X14150000Y21330000D03*
X14150000Y23830000D03*
X12650000Y23830000D03*
D30*
X24900000Y35180000D03*
X24900000Y34080000D03*
D26*
X8200000Y17730000D03*
X9700000Y17730000D03*
X23400000Y37380000D03*
X24900000Y37380000D03*
D52*
X17900000Y28780000D03*
X17900000Y30980000D03*
D26*
X21450000Y28780000D03*
X19950000Y28780000D03*
D29*
X24900000Y28780000D03*
X23800000Y28780000D03*
D38*
X2050000Y-6190000D03*
D26*
X19400000Y40080000D03*
X17900000Y40080000D03*
D53*
X50830000Y26680000D03*
X50830000Y29220000D03*
X50830000Y41920000D03*
X50830000Y44460000D03*
X50830000Y47000000D03*
X50830000Y49540000D03*
X50830000Y52080000D03*
X50830000Y54620000D03*
X2570000Y15250000D03*
X2570000Y49540000D03*
X2570000Y47000000D03*
X2570000Y44460000D03*
X2570000Y41920000D03*
X2570000Y39380000D03*
X2570000Y36840000D03*
X2570000Y33030000D03*
X2570000Y30490000D03*
X2570000Y27950000D03*
X2570000Y25410000D03*
X2570000Y22870000D03*
X2570000Y20330000D03*
X50830000Y31760000D03*
X50830000Y34300000D03*
X2570000Y17790000D03*
X50830000Y24140000D03*
X2570000Y54620000D03*
X2570000Y52080000D03*
X50830000Y36840000D03*
D54*
X2570000Y6360000D03*
X45755000Y57165000D03*
X17815000Y57160000D03*
X50830000Y5095000D03*
D53*
X2570000Y12710000D03*
X2570000Y10170000D03*
X50830000Y21600000D03*
X50830000Y19060000D03*
D55*
X8838000Y57240000D03*
X14362000Y57240000D03*
D56*
X11600000Y57240000D03*
D29*
X23400000Y38760000D03*
X24500000Y38760000D03*
M02*
