G04 #@! TF.FileFunction,Other,Comment*
%FSLAX46Y46*%
G04 Gerber Fmt 4.6, Leading zero omitted, Abs format (unit mm)*
G04 Created by KiCad (PCBNEW 4.0.6) date 10/15/17 15:06:52*
%MOMM*%
%LPD*%
G01*
G04 APERTURE LIST*
%ADD10C,0.150000*%
%ADD11C,0.304800*%
G04 APERTURE END LIST*
D10*
D11*
X90399145Y47962743D02*
X89891145Y47962743D01*
X89891145Y46898362D02*
X89891145Y48930362D01*
X90616859Y48930362D01*
X91415145Y46898362D02*
X91270003Y46995124D01*
X91197431Y47091886D01*
X91124860Y47285410D01*
X91124860Y47865981D01*
X91197431Y48059505D01*
X91270003Y48156267D01*
X91415145Y48253029D01*
X91632860Y48253029D01*
X91778003Y48156267D01*
X91850574Y48059505D01*
X91923145Y47865981D01*
X91923145Y47285410D01*
X91850574Y47091886D01*
X91778003Y46995124D01*
X91632860Y46898362D01*
X91415145Y46898362D01*
X93229431Y48253029D02*
X93229431Y46898362D01*
X92576288Y48253029D02*
X92576288Y47188648D01*
X92648860Y46995124D01*
X92794002Y46898362D01*
X93011717Y46898362D01*
X93156860Y46995124D01*
X93229431Y47091886D01*
X93955145Y46898362D02*
X93955145Y48253029D01*
X93955145Y47865981D02*
X94027717Y48059505D01*
X94100288Y48156267D01*
X94245431Y48253029D01*
X94390574Y48253029D01*
X96785431Y46898362D02*
X96059717Y46898362D01*
X96059717Y48930362D01*
X97946574Y46898362D02*
X97946574Y47962743D01*
X97874003Y48156267D01*
X97728860Y48253029D01*
X97438574Y48253029D01*
X97293431Y48156267D01*
X97946574Y46995124D02*
X97801431Y46898362D01*
X97438574Y46898362D01*
X97293431Y46995124D01*
X97220860Y47188648D01*
X97220860Y47382171D01*
X97293431Y47575695D01*
X97438574Y47672457D01*
X97801431Y47672457D01*
X97946574Y47769219D01*
X98527145Y48253029D02*
X98890002Y46898362D01*
X99252860Y48253029D02*
X98890002Y46898362D01*
X98744860Y46414552D01*
X98672288Y46317790D01*
X98527145Y46221029D01*
X100414003Y46995124D02*
X100268860Y46898362D01*
X99978574Y46898362D01*
X99833431Y46995124D01*
X99760860Y47188648D01*
X99760860Y47962743D01*
X99833431Y48156267D01*
X99978574Y48253029D01*
X100268860Y48253029D01*
X100414003Y48156267D01*
X100486574Y47962743D01*
X100486574Y47769219D01*
X99760860Y47575695D01*
X101139717Y46898362D02*
X101139717Y48253029D01*
X101139717Y47865981D02*
X101212289Y48059505D01*
X101284860Y48156267D01*
X101430003Y48253029D01*
X101575146Y48253029D01*
X103244289Y46898362D02*
X103244289Y48930362D01*
X103824861Y48930362D01*
X103970003Y48833600D01*
X104042575Y48736838D01*
X104115146Y48543314D01*
X104115146Y48253029D01*
X104042575Y48059505D01*
X103970003Y47962743D01*
X103824861Y47865981D01*
X103244289Y47865981D01*
X105639146Y47091886D02*
X105566575Y46995124D01*
X105348861Y46898362D01*
X105203718Y46898362D01*
X104986003Y46995124D01*
X104840861Y47188648D01*
X104768289Y47382171D01*
X104695718Y47769219D01*
X104695718Y48059505D01*
X104768289Y48446552D01*
X104840861Y48640076D01*
X104986003Y48833600D01*
X105203718Y48930362D01*
X105348861Y48930362D01*
X105566575Y48833600D01*
X105639146Y48736838D01*
X106800289Y47962743D02*
X107018003Y47865981D01*
X107090575Y47769219D01*
X107163146Y47575695D01*
X107163146Y47285410D01*
X107090575Y47091886D01*
X107018003Y46995124D01*
X106872861Y46898362D01*
X106292289Y46898362D01*
X106292289Y48930362D01*
X106800289Y48930362D01*
X106945432Y48833600D01*
X107018003Y48736838D01*
X107090575Y48543314D01*
X107090575Y48349790D01*
X107018003Y48156267D01*
X106945432Y48059505D01*
X106800289Y47962743D01*
X106292289Y47962743D01*
X72474000Y43545562D02*
X72474000Y44900229D01*
X72474000Y44706705D02*
X72546572Y44803467D01*
X72691714Y44900229D01*
X72909429Y44900229D01*
X73054572Y44803467D01*
X73127143Y44609943D01*
X73127143Y43545562D01*
X73127143Y44609943D02*
X73199714Y44803467D01*
X73344857Y44900229D01*
X73562572Y44900229D01*
X73707714Y44803467D01*
X73780286Y44609943D01*
X73780286Y43545562D01*
X74506000Y43545562D02*
X74506000Y44900229D01*
X74506000Y45577562D02*
X74433429Y45480800D01*
X74506000Y45384038D01*
X74578572Y45480800D01*
X74506000Y45577562D01*
X74506000Y45384038D01*
X75449428Y43545562D02*
X75304286Y43642324D01*
X75231714Y43835848D01*
X75231714Y45577562D01*
X88730002Y43642324D02*
X88875145Y43545562D01*
X89165430Y43545562D01*
X89310573Y43642324D01*
X89383145Y43835848D01*
X89383145Y43932610D01*
X89310573Y44126133D01*
X89165430Y44222895D01*
X88947716Y44222895D01*
X88802573Y44319657D01*
X88730002Y44513181D01*
X88730002Y44609943D01*
X88802573Y44803467D01*
X88947716Y44900229D01*
X89165430Y44900229D01*
X89310573Y44803467D01*
X90254001Y43545562D02*
X90108859Y43642324D01*
X90036287Y43739086D01*
X89963716Y43932610D01*
X89963716Y44513181D01*
X90036287Y44706705D01*
X90108859Y44803467D01*
X90254001Y44900229D01*
X90471716Y44900229D01*
X90616859Y44803467D01*
X90689430Y44706705D01*
X90762001Y44513181D01*
X90762001Y43932610D01*
X90689430Y43739086D01*
X90616859Y43642324D01*
X90471716Y43545562D01*
X90254001Y43545562D01*
X91632858Y43545562D02*
X91487716Y43642324D01*
X91415144Y43835848D01*
X91415144Y45577562D01*
X92866573Y43545562D02*
X92866573Y45577562D01*
X92866573Y43642324D02*
X92721430Y43545562D01*
X92431144Y43545562D01*
X92286002Y43642324D01*
X92213430Y43739086D01*
X92140859Y43932610D01*
X92140859Y44513181D01*
X92213430Y44706705D01*
X92286002Y44803467D01*
X92431144Y44900229D01*
X92721430Y44900229D01*
X92866573Y44803467D01*
X94172859Y43642324D02*
X94027716Y43545562D01*
X93737430Y43545562D01*
X93592287Y43642324D01*
X93519716Y43835848D01*
X93519716Y44609943D01*
X93592287Y44803467D01*
X93737430Y44900229D01*
X94027716Y44900229D01*
X94172859Y44803467D01*
X94245430Y44609943D01*
X94245430Y44416419D01*
X93519716Y44222895D01*
X94898573Y43545562D02*
X94898573Y44900229D01*
X94898573Y44513181D02*
X94971145Y44706705D01*
X95043716Y44803467D01*
X95188859Y44900229D01*
X95334002Y44900229D01*
X97003145Y43545562D02*
X97003145Y44900229D01*
X97003145Y44513181D02*
X97075717Y44706705D01*
X97148288Y44803467D01*
X97293431Y44900229D01*
X97438574Y44900229D01*
X98527146Y43642324D02*
X98382003Y43545562D01*
X98091717Y43545562D01*
X97946574Y43642324D01*
X97874003Y43835848D01*
X97874003Y44609943D01*
X97946574Y44803467D01*
X98091717Y44900229D01*
X98382003Y44900229D01*
X98527146Y44803467D01*
X98599717Y44609943D01*
X98599717Y44416419D01*
X97874003Y44222895D01*
X99180289Y43642324D02*
X99325432Y43545562D01*
X99615717Y43545562D01*
X99760860Y43642324D01*
X99833432Y43835848D01*
X99833432Y43932610D01*
X99760860Y44126133D01*
X99615717Y44222895D01*
X99398003Y44222895D01*
X99252860Y44319657D01*
X99180289Y44513181D01*
X99180289Y44609943D01*
X99252860Y44803467D01*
X99398003Y44900229D01*
X99615717Y44900229D01*
X99760860Y44803467D01*
X100486574Y43545562D02*
X100486574Y44900229D01*
X100486574Y45577562D02*
X100414003Y45480800D01*
X100486574Y45384038D01*
X100559146Y45480800D01*
X100486574Y45577562D01*
X100486574Y45384038D01*
X101139717Y43642324D02*
X101284860Y43545562D01*
X101575145Y43545562D01*
X101720288Y43642324D01*
X101792860Y43835848D01*
X101792860Y43932610D01*
X101720288Y44126133D01*
X101575145Y44222895D01*
X101357431Y44222895D01*
X101212288Y44319657D01*
X101139717Y44513181D01*
X101139717Y44609943D01*
X101212288Y44803467D01*
X101357431Y44900229D01*
X101575145Y44900229D01*
X101720288Y44803467D01*
X102228288Y44900229D02*
X102808859Y44900229D01*
X102446002Y45577562D02*
X102446002Y43835848D01*
X102518574Y43642324D01*
X102663716Y43545562D01*
X102808859Y43545562D01*
X114928289Y44319657D02*
X116089432Y44319657D01*
X115508861Y43545562D02*
X115508861Y45093752D01*
X117903718Y45674324D02*
X116597432Y43061752D01*
X118411717Y44319657D02*
X119572860Y44319657D01*
X120588860Y45577562D02*
X120734003Y45577562D01*
X120879146Y45480800D01*
X120951717Y45384038D01*
X121024288Y45190514D01*
X121096860Y44803467D01*
X121096860Y44319657D01*
X121024288Y43932610D01*
X120951717Y43739086D01*
X120879146Y43642324D01*
X120734003Y43545562D01*
X120588860Y43545562D01*
X120443717Y43642324D01*
X120371146Y43739086D01*
X120298574Y43932610D01*
X120226003Y44319657D01*
X120226003Y44803467D01*
X120298574Y45190514D01*
X120371146Y45384038D01*
X120443717Y45480800D01*
X120588860Y45577562D01*
X121750003Y43739086D02*
X121822575Y43642324D01*
X121750003Y43545562D01*
X121677432Y43642324D01*
X121750003Y43739086D01*
X121750003Y43545562D01*
X122403146Y45384038D02*
X122475717Y45480800D01*
X122620860Y45577562D01*
X122983717Y45577562D01*
X123128860Y45480800D01*
X123201431Y45384038D01*
X123274003Y45190514D01*
X123274003Y44996990D01*
X123201431Y44706705D01*
X122330574Y43545562D01*
X123274003Y43545562D01*
X123927146Y43545562D02*
X123927146Y44900229D01*
X123927146Y44706705D02*
X123999718Y44803467D01*
X124144860Y44900229D01*
X124362575Y44900229D01*
X124507718Y44803467D01*
X124580289Y44609943D01*
X124580289Y43545562D01*
X124580289Y44609943D02*
X124652860Y44803467D01*
X124798003Y44900229D01*
X125015718Y44900229D01*
X125160860Y44803467D01*
X125233432Y44609943D01*
X125233432Y43545562D01*
X125959146Y43545562D02*
X125959146Y44900229D01*
X125959146Y45577562D02*
X125886575Y45480800D01*
X125959146Y45384038D01*
X126031718Y45480800D01*
X125959146Y45577562D01*
X125959146Y45384038D01*
X126902574Y43545562D02*
X126757432Y43642324D01*
X126684860Y43835848D01*
X126684860Y45577562D01*
X72111143Y40192762D02*
X71240286Y40192762D01*
X71675714Y40192762D02*
X71675714Y42224762D01*
X71530571Y41934476D01*
X71385429Y41740952D01*
X71240286Y41644190D01*
X72764286Y40386286D02*
X72836858Y40289524D01*
X72764286Y40192762D01*
X72691715Y40289524D01*
X72764286Y40386286D01*
X72764286Y40192762D01*
X74143143Y41547429D02*
X74143143Y40192762D01*
X73780286Y42321524D02*
X73417429Y40870095D01*
X74360857Y40870095D01*
X76102572Y40192762D02*
X76102572Y41547429D01*
X76102572Y41353905D02*
X76175144Y41450667D01*
X76320286Y41547429D01*
X76538001Y41547429D01*
X76683144Y41450667D01*
X76755715Y41257143D01*
X76755715Y40192762D01*
X76755715Y41257143D02*
X76828286Y41450667D01*
X76973429Y41547429D01*
X77191144Y41547429D01*
X77336286Y41450667D01*
X77408858Y41257143D01*
X77408858Y40192762D01*
X78134572Y40192762D02*
X78134572Y41547429D01*
X78134572Y42224762D02*
X78062001Y42128000D01*
X78134572Y42031238D01*
X78207144Y42128000D01*
X78134572Y42224762D01*
X78134572Y42031238D01*
X79078000Y40192762D02*
X78932858Y40289524D01*
X78860286Y40483048D01*
X78860286Y42224762D01*
X86262573Y40192762D02*
X85391716Y40192762D01*
X85827144Y40192762D02*
X85827144Y42224762D01*
X85682001Y41934476D01*
X85536859Y41740952D01*
X85391716Y41644190D01*
X88294573Y40192762D02*
X88149431Y40289524D01*
X88076859Y40386286D01*
X88004288Y40579810D01*
X88004288Y41160381D01*
X88076859Y41353905D01*
X88149431Y41450667D01*
X88294573Y41547429D01*
X88512288Y41547429D01*
X88657431Y41450667D01*
X88730002Y41353905D01*
X88802573Y41160381D01*
X88802573Y40579810D01*
X88730002Y40386286D01*
X88657431Y40289524D01*
X88512288Y40192762D01*
X88294573Y40192762D01*
X89310573Y41547429D02*
X90108859Y41547429D01*
X89310573Y40192762D01*
X90108859Y40192762D01*
X92503716Y40289524D02*
X92358573Y40192762D01*
X92068287Y40192762D01*
X91923145Y40289524D01*
X91850573Y40386286D01*
X91778002Y40579810D01*
X91778002Y41160381D01*
X91850573Y41353905D01*
X91923145Y41450667D01*
X92068287Y41547429D01*
X92358573Y41547429D01*
X92503716Y41450667D01*
X93374573Y40192762D02*
X93229431Y40289524D01*
X93156859Y40386286D01*
X93084288Y40579810D01*
X93084288Y41160381D01*
X93156859Y41353905D01*
X93229431Y41450667D01*
X93374573Y41547429D01*
X93592288Y41547429D01*
X93737431Y41450667D01*
X93810002Y41353905D01*
X93882573Y41160381D01*
X93882573Y40579810D01*
X93810002Y40386286D01*
X93737431Y40289524D01*
X93592288Y40192762D01*
X93374573Y40192762D01*
X94535716Y41547429D02*
X94535716Y39515429D01*
X94535716Y41450667D02*
X94680859Y41547429D01*
X94971145Y41547429D01*
X95116288Y41450667D01*
X95188859Y41353905D01*
X95261430Y41160381D01*
X95261430Y40579810D01*
X95188859Y40386286D01*
X95116288Y40289524D01*
X94971145Y40192762D01*
X94680859Y40192762D01*
X94535716Y40289524D01*
X95914573Y41547429D02*
X95914573Y39515429D01*
X95914573Y41450667D02*
X96059716Y41547429D01*
X96350002Y41547429D01*
X96495145Y41450667D01*
X96567716Y41353905D01*
X96640287Y41160381D01*
X96640287Y40579810D01*
X96567716Y40386286D01*
X96495145Y40289524D01*
X96350002Y40192762D01*
X96059716Y40192762D01*
X95914573Y40289524D01*
X97874002Y40289524D02*
X97728859Y40192762D01*
X97438573Y40192762D01*
X97293430Y40289524D01*
X97220859Y40483048D01*
X97220859Y41257143D01*
X97293430Y41450667D01*
X97438573Y41547429D01*
X97728859Y41547429D01*
X97874002Y41450667D01*
X97946573Y41257143D01*
X97946573Y41063619D01*
X97220859Y40870095D01*
X98599716Y40192762D02*
X98599716Y41547429D01*
X98599716Y41160381D02*
X98672288Y41353905D01*
X98744859Y41450667D01*
X98890002Y41547429D01*
X99035145Y41547429D01*
X71966000Y38871962D02*
X71675714Y38871962D01*
X71530571Y38775200D01*
X71458000Y38678438D01*
X71312857Y38388152D01*
X71240286Y38001105D01*
X71240286Y37227010D01*
X71312857Y37033486D01*
X71385429Y36936724D01*
X71530571Y36839962D01*
X71820857Y36839962D01*
X71966000Y36936724D01*
X72038571Y37033486D01*
X72111143Y37227010D01*
X72111143Y37710819D01*
X72038571Y37904343D01*
X71966000Y38001105D01*
X71820857Y38097867D01*
X71530571Y38097867D01*
X71385429Y38001105D01*
X71312857Y37904343D01*
X71240286Y37710819D01*
X72764286Y37033486D02*
X72836858Y36936724D01*
X72764286Y36839962D01*
X72691715Y36936724D01*
X72764286Y37033486D01*
X72764286Y36839962D01*
X73344857Y38871962D02*
X74360857Y38871962D01*
X73707714Y36839962D01*
X76102572Y36839962D02*
X76102572Y38194629D01*
X76102572Y38001105D02*
X76175144Y38097867D01*
X76320286Y38194629D01*
X76538001Y38194629D01*
X76683144Y38097867D01*
X76755715Y37904343D01*
X76755715Y36839962D01*
X76755715Y37904343D02*
X76828286Y38097867D01*
X76973429Y38194629D01*
X77191144Y38194629D01*
X77336286Y38097867D01*
X77408858Y37904343D01*
X77408858Y36839962D01*
X78134572Y36839962D02*
X78134572Y38194629D01*
X78134572Y38871962D02*
X78062001Y38775200D01*
X78134572Y38678438D01*
X78207144Y38775200D01*
X78134572Y38871962D01*
X78134572Y38678438D01*
X79078000Y36839962D02*
X78932858Y36936724D01*
X78860286Y37130248D01*
X78860286Y38871962D01*
X85972287Y37904343D02*
X85464287Y37904343D01*
X85464287Y36839962D02*
X85464287Y38871962D01*
X86190001Y38871962D01*
X87641430Y36839962D02*
X87133430Y37807581D01*
X86770573Y36839962D02*
X86770573Y38871962D01*
X87351145Y38871962D01*
X87496287Y38775200D01*
X87568859Y38678438D01*
X87641430Y38484914D01*
X87641430Y38194629D01*
X87568859Y38001105D01*
X87496287Y37904343D01*
X87351145Y37807581D01*
X86770573Y37807581D01*
X88947716Y38194629D02*
X88947716Y36839962D01*
X88584859Y38968724D02*
X88222002Y37517295D01*
X89165430Y37517295D01*
X90907145Y38194629D02*
X90907145Y36162629D01*
X90907145Y38097867D02*
X91052288Y38194629D01*
X91342574Y38194629D01*
X91487717Y38097867D01*
X91560288Y38001105D01*
X91632859Y37807581D01*
X91632859Y37227010D01*
X91560288Y37033486D01*
X91487717Y36936724D01*
X91342574Y36839962D01*
X91052288Y36839962D01*
X90907145Y36936724D01*
X92286002Y36839962D02*
X92286002Y38194629D01*
X92286002Y37807581D02*
X92358574Y38001105D01*
X92431145Y38097867D01*
X92576288Y38194629D01*
X92721431Y38194629D01*
X93810003Y36936724D02*
X93664860Y36839962D01*
X93374574Y36839962D01*
X93229431Y36936724D01*
X93156860Y37130248D01*
X93156860Y37904343D01*
X93229431Y38097867D01*
X93374574Y38194629D01*
X93664860Y38194629D01*
X93810003Y38097867D01*
X93882574Y37904343D01*
X93882574Y37710819D01*
X93156860Y37517295D01*
X94535717Y38194629D02*
X94535717Y36162629D01*
X94535717Y38097867D02*
X94680860Y38194629D01*
X94971146Y38194629D01*
X95116289Y38097867D01*
X95188860Y38001105D01*
X95261431Y37807581D01*
X95261431Y37227010D01*
X95188860Y37033486D01*
X95116289Y36936724D01*
X94971146Y36839962D01*
X94680860Y36839962D01*
X94535717Y36936724D01*
X95914574Y36839962D02*
X95914574Y38194629D01*
X95914574Y37807581D02*
X95987146Y38001105D01*
X96059717Y38097867D01*
X96204860Y38194629D01*
X96350003Y38194629D01*
X97438575Y36936724D02*
X97293432Y36839962D01*
X97003146Y36839962D01*
X96858003Y36936724D01*
X96785432Y37130248D01*
X96785432Y37904343D01*
X96858003Y38097867D01*
X97003146Y38194629D01*
X97293432Y38194629D01*
X97438575Y38097867D01*
X97511146Y37904343D01*
X97511146Y37710819D01*
X96785432Y37517295D01*
X98817432Y38194629D02*
X98817432Y36549676D01*
X98744861Y36356152D01*
X98672289Y36259390D01*
X98527146Y36162629D01*
X98309432Y36162629D01*
X98164289Y36259390D01*
X98817432Y36936724D02*
X98672289Y36839962D01*
X98382003Y36839962D01*
X98236861Y36936724D01*
X98164289Y37033486D01*
X98091718Y37227010D01*
X98091718Y37807581D01*
X98164289Y38001105D01*
X98236861Y38097867D01*
X98382003Y38194629D01*
X98672289Y38194629D01*
X98817432Y38097867D01*
X111154576Y37614057D02*
X112315719Y37614057D01*
X111735148Y36839962D02*
X111735148Y38388152D01*
X114130005Y38968724D02*
X112823719Y36356152D01*
X114638004Y37614057D02*
X115799147Y37614057D01*
X116524861Y37033486D02*
X116597433Y36936724D01*
X116524861Y36839962D01*
X116452290Y36936724D01*
X116524861Y37033486D01*
X116524861Y36839962D01*
X117903718Y38871962D02*
X117613432Y38871962D01*
X117468289Y38775200D01*
X117395718Y38678438D01*
X117250575Y38388152D01*
X117178004Y38001105D01*
X117178004Y37227010D01*
X117250575Y37033486D01*
X117323147Y36936724D01*
X117468289Y36839962D01*
X117758575Y36839962D01*
X117903718Y36936724D01*
X117976289Y37033486D01*
X118048861Y37227010D01*
X118048861Y37710819D01*
X117976289Y37904343D01*
X117903718Y38001105D01*
X117758575Y38097867D01*
X117468289Y38097867D01*
X117323147Y38001105D01*
X117250575Y37904343D01*
X117178004Y37710819D01*
X118556861Y38871962D02*
X119572861Y38871962D01*
X118919718Y36839962D01*
X120153433Y36839962D02*
X120153433Y38194629D01*
X120153433Y38001105D02*
X120226005Y38097867D01*
X120371147Y38194629D01*
X120588862Y38194629D01*
X120734005Y38097867D01*
X120806576Y37904343D01*
X120806576Y36839962D01*
X120806576Y37904343D02*
X120879147Y38097867D01*
X121024290Y38194629D01*
X121242005Y38194629D01*
X121387147Y38097867D01*
X121459719Y37904343D01*
X121459719Y36839962D01*
X122185433Y36839962D02*
X122185433Y38194629D01*
X122185433Y38871962D02*
X122112862Y38775200D01*
X122185433Y38678438D01*
X122258005Y38775200D01*
X122185433Y38871962D01*
X122185433Y38678438D01*
X123128861Y36839962D02*
X122983719Y36936724D01*
X122911147Y37130248D01*
X122911147Y38871962D01*
X71603143Y35519162D02*
X71748286Y35519162D01*
X71893429Y35422400D01*
X71966000Y35325638D01*
X72038571Y35132114D01*
X72111143Y34745067D01*
X72111143Y34261257D01*
X72038571Y33874210D01*
X71966000Y33680686D01*
X71893429Y33583924D01*
X71748286Y33487162D01*
X71603143Y33487162D01*
X71458000Y33583924D01*
X71385429Y33680686D01*
X71312857Y33874210D01*
X71240286Y34261257D01*
X71240286Y34745067D01*
X71312857Y35132114D01*
X71385429Y35325638D01*
X71458000Y35422400D01*
X71603143Y35519162D01*
X72764286Y33680686D02*
X72836858Y33583924D01*
X72764286Y33487162D01*
X72691715Y33583924D01*
X72764286Y33680686D01*
X72764286Y33487162D01*
X73344857Y35519162D02*
X74360857Y35519162D01*
X73707714Y33487162D01*
X76102572Y33487162D02*
X76102572Y34841829D01*
X76102572Y34648305D02*
X76175144Y34745067D01*
X76320286Y34841829D01*
X76538001Y34841829D01*
X76683144Y34745067D01*
X76755715Y34551543D01*
X76755715Y33487162D01*
X76755715Y34551543D02*
X76828286Y34745067D01*
X76973429Y34841829D01*
X77191144Y34841829D01*
X77336286Y34745067D01*
X77408858Y34551543D01*
X77408858Y33487162D01*
X78134572Y33487162D02*
X78134572Y34841829D01*
X78134572Y35519162D02*
X78062001Y35422400D01*
X78134572Y35325638D01*
X78207144Y35422400D01*
X78134572Y35519162D01*
X78134572Y35325638D01*
X79078000Y33487162D02*
X78932858Y33583924D01*
X78860286Y33777448D01*
X78860286Y35519162D01*
X85754573Y35519162D02*
X85899716Y35519162D01*
X86044859Y35422400D01*
X86117430Y35325638D01*
X86190001Y35132114D01*
X86262573Y34745067D01*
X86262573Y34261257D01*
X86190001Y33874210D01*
X86117430Y33680686D01*
X86044859Y33583924D01*
X85899716Y33487162D01*
X85754573Y33487162D01*
X85609430Y33583924D01*
X85536859Y33680686D01*
X85464287Y33874210D01*
X85391716Y34261257D01*
X85391716Y34745067D01*
X85464287Y35132114D01*
X85536859Y35325638D01*
X85609430Y35422400D01*
X85754573Y35519162D01*
X86915716Y33680686D02*
X86988288Y33583924D01*
X86915716Y33487162D01*
X86843145Y33583924D01*
X86915716Y33680686D01*
X86915716Y33487162D01*
X88367144Y35519162D02*
X87641430Y35519162D01*
X87568859Y34551543D01*
X87641430Y34648305D01*
X87786573Y34745067D01*
X88149430Y34745067D01*
X88294573Y34648305D01*
X88367144Y34551543D01*
X88439716Y34358019D01*
X88439716Y33874210D01*
X88367144Y33680686D01*
X88294573Y33583924D01*
X88149430Y33487162D01*
X87786573Y33487162D01*
X87641430Y33583924D01*
X87568859Y33680686D01*
X90471716Y33487162D02*
X90326574Y33583924D01*
X90254002Y33680686D01*
X90181431Y33874210D01*
X90181431Y34454781D01*
X90254002Y34648305D01*
X90326574Y34745067D01*
X90471716Y34841829D01*
X90689431Y34841829D01*
X90834574Y34745067D01*
X90907145Y34648305D01*
X90979716Y34454781D01*
X90979716Y33874210D01*
X90907145Y33680686D01*
X90834574Y33583924D01*
X90689431Y33487162D01*
X90471716Y33487162D01*
X91487716Y34841829D02*
X92286002Y34841829D01*
X91487716Y33487162D01*
X92286002Y33487162D01*
X94680859Y33583924D02*
X94535716Y33487162D01*
X94245430Y33487162D01*
X94100288Y33583924D01*
X94027716Y33680686D01*
X93955145Y33874210D01*
X93955145Y34454781D01*
X94027716Y34648305D01*
X94100288Y34745067D01*
X94245430Y34841829D01*
X94535716Y34841829D01*
X94680859Y34745067D01*
X95551716Y33487162D02*
X95406574Y33583924D01*
X95334002Y33680686D01*
X95261431Y33874210D01*
X95261431Y34454781D01*
X95334002Y34648305D01*
X95406574Y34745067D01*
X95551716Y34841829D01*
X95769431Y34841829D01*
X95914574Y34745067D01*
X95987145Y34648305D01*
X96059716Y34454781D01*
X96059716Y33874210D01*
X95987145Y33680686D01*
X95914574Y33583924D01*
X95769431Y33487162D01*
X95551716Y33487162D01*
X96712859Y34841829D02*
X96712859Y32809829D01*
X96712859Y34745067D02*
X96858002Y34841829D01*
X97148288Y34841829D01*
X97293431Y34745067D01*
X97366002Y34648305D01*
X97438573Y34454781D01*
X97438573Y33874210D01*
X97366002Y33680686D01*
X97293431Y33583924D01*
X97148288Y33487162D01*
X96858002Y33487162D01*
X96712859Y33583924D01*
X98091716Y34841829D02*
X98091716Y32809829D01*
X98091716Y34745067D02*
X98236859Y34841829D01*
X98527145Y34841829D01*
X98672288Y34745067D01*
X98744859Y34648305D01*
X98817430Y34454781D01*
X98817430Y33874210D01*
X98744859Y33680686D01*
X98672288Y33583924D01*
X98527145Y33487162D01*
X98236859Y33487162D01*
X98091716Y33583924D01*
X100051145Y33583924D02*
X99906002Y33487162D01*
X99615716Y33487162D01*
X99470573Y33583924D01*
X99398002Y33777448D01*
X99398002Y34551543D01*
X99470573Y34745067D01*
X99615716Y34841829D01*
X99906002Y34841829D01*
X100051145Y34745067D01*
X100123716Y34551543D01*
X100123716Y34358019D01*
X99398002Y34164495D01*
X100776859Y33487162D02*
X100776859Y34841829D01*
X100776859Y34454781D02*
X100849431Y34648305D01*
X100922002Y34745067D01*
X101067145Y34841829D01*
X101212288Y34841829D01*
X71966000Y31489029D02*
X71966000Y30134362D01*
X71603143Y32263124D02*
X71240286Y30811695D01*
X72183714Y30811695D01*
X72619143Y32166362D02*
X73635143Y32166362D01*
X72982000Y30134362D01*
X75376858Y30134362D02*
X75376858Y31489029D01*
X75376858Y31295505D02*
X75449430Y31392267D01*
X75594572Y31489029D01*
X75812287Y31489029D01*
X75957430Y31392267D01*
X76030001Y31198743D01*
X76030001Y30134362D01*
X76030001Y31198743D02*
X76102572Y31392267D01*
X76247715Y31489029D01*
X76465430Y31489029D01*
X76610572Y31392267D01*
X76683144Y31198743D01*
X76683144Y30134362D01*
X77408858Y30134362D02*
X77408858Y31489029D01*
X77408858Y32166362D02*
X77336287Y32069600D01*
X77408858Y31972838D01*
X77481430Y32069600D01*
X77408858Y32166362D01*
X77408858Y31972838D01*
X78352286Y30134362D02*
X78207144Y30231124D01*
X78134572Y30424648D01*
X78134572Y32166362D01*
X86407716Y31198743D02*
X85899716Y31198743D01*
X85899716Y30134362D02*
X85899716Y32166362D01*
X86625430Y32166362D01*
X88076859Y30134362D02*
X87568859Y31101981D01*
X87206002Y30134362D02*
X87206002Y32166362D01*
X87786574Y32166362D01*
X87931716Y32069600D01*
X88004288Y31972838D01*
X88076859Y31779314D01*
X88076859Y31489029D01*
X88004288Y31295505D01*
X87931716Y31198743D01*
X87786574Y31101981D01*
X87206002Y31101981D01*
X89383145Y31489029D02*
X89383145Y30134362D01*
X89020288Y32263124D02*
X88657431Y30811695D01*
X89600859Y30811695D01*
X91995717Y30231124D02*
X91850574Y30134362D01*
X91560288Y30134362D01*
X91415146Y30231124D01*
X91342574Y30327886D01*
X91270003Y30521410D01*
X91270003Y31101981D01*
X91342574Y31295505D01*
X91415146Y31392267D01*
X91560288Y31489029D01*
X91850574Y31489029D01*
X91995717Y31392267D01*
X92866574Y30134362D02*
X92721432Y30231124D01*
X92648860Y30327886D01*
X92576289Y30521410D01*
X92576289Y31101981D01*
X92648860Y31295505D01*
X92721432Y31392267D01*
X92866574Y31489029D01*
X93084289Y31489029D01*
X93229432Y31392267D01*
X93302003Y31295505D01*
X93374574Y31101981D01*
X93374574Y30521410D01*
X93302003Y30327886D01*
X93229432Y30231124D01*
X93084289Y30134362D01*
X92866574Y30134362D01*
X94027717Y30134362D02*
X94027717Y31489029D01*
X94027717Y31101981D02*
X94100289Y31295505D01*
X94172860Y31392267D01*
X94318003Y31489029D01*
X94463146Y31489029D01*
X95551718Y30231124D02*
X95406575Y30134362D01*
X95116289Y30134362D01*
X94971146Y30231124D01*
X94898575Y30424648D01*
X94898575Y31198743D01*
X94971146Y31392267D01*
X95116289Y31489029D01*
X95406575Y31489029D01*
X95551718Y31392267D01*
X95624289Y31198743D01*
X95624289Y31005219D01*
X94898575Y30811695D01*
X114855720Y30908457D02*
X116016863Y30908457D01*
X115436292Y30134362D02*
X115436292Y31682552D01*
X117831149Y32263124D02*
X116524863Y29650552D01*
X118339148Y30908457D02*
X119500291Y30908457D01*
X120879148Y31489029D02*
X120879148Y30134362D01*
X120516291Y32263124D02*
X120153434Y30811695D01*
X121096862Y30811695D01*
X121677434Y30327886D02*
X121750006Y30231124D01*
X121677434Y30134362D01*
X121604863Y30231124D01*
X121677434Y30327886D01*
X121677434Y30134362D01*
X122258005Y32166362D02*
X123274005Y32166362D01*
X122620862Y30134362D01*
X123854577Y30134362D02*
X123854577Y31489029D01*
X123854577Y31295505D02*
X123927149Y31392267D01*
X124072291Y31489029D01*
X124290006Y31489029D01*
X124435149Y31392267D01*
X124507720Y31198743D01*
X124507720Y30134362D01*
X124507720Y31198743D02*
X124580291Y31392267D01*
X124725434Y31489029D01*
X124943149Y31489029D01*
X125088291Y31392267D01*
X125160863Y31198743D01*
X125160863Y30134362D01*
X125886577Y30134362D02*
X125886577Y31489029D01*
X125886577Y32166362D02*
X125814006Y32069600D01*
X125886577Y31972838D01*
X125959149Y32069600D01*
X125886577Y32166362D01*
X125886577Y31972838D01*
X126830005Y30134362D02*
X126684863Y30231124D01*
X126612291Y30424648D01*
X126612291Y32166362D01*
X71603143Y28813562D02*
X71748286Y28813562D01*
X71893429Y28716800D01*
X71966000Y28620038D01*
X72038571Y28426514D01*
X72111143Y28039467D01*
X72111143Y27555657D01*
X72038571Y27168610D01*
X71966000Y26975086D01*
X71893429Y26878324D01*
X71748286Y26781562D01*
X71603143Y26781562D01*
X71458000Y26878324D01*
X71385429Y26975086D01*
X71312857Y27168610D01*
X71240286Y27555657D01*
X71240286Y28039467D01*
X71312857Y28426514D01*
X71385429Y28620038D01*
X71458000Y28716800D01*
X71603143Y28813562D01*
X72764286Y26975086D02*
X72836858Y26878324D01*
X72764286Y26781562D01*
X72691715Y26878324D01*
X72764286Y26975086D01*
X72764286Y26781562D01*
X73344857Y28813562D02*
X74360857Y28813562D01*
X73707714Y26781562D01*
X76102572Y26781562D02*
X76102572Y28136229D01*
X76102572Y27942705D02*
X76175144Y28039467D01*
X76320286Y28136229D01*
X76538001Y28136229D01*
X76683144Y28039467D01*
X76755715Y27845943D01*
X76755715Y26781562D01*
X76755715Y27845943D02*
X76828286Y28039467D01*
X76973429Y28136229D01*
X77191144Y28136229D01*
X77336286Y28039467D01*
X77408858Y27845943D01*
X77408858Y26781562D01*
X78134572Y26781562D02*
X78134572Y28136229D01*
X78134572Y28813562D02*
X78062001Y28716800D01*
X78134572Y28620038D01*
X78207144Y28716800D01*
X78134572Y28813562D01*
X78134572Y28620038D01*
X79078000Y26781562D02*
X78932858Y26878324D01*
X78860286Y27071848D01*
X78860286Y28813562D01*
X85754573Y28813562D02*
X85899716Y28813562D01*
X86044859Y28716800D01*
X86117430Y28620038D01*
X86190001Y28426514D01*
X86262573Y28039467D01*
X86262573Y27555657D01*
X86190001Y27168610D01*
X86117430Y26975086D01*
X86044859Y26878324D01*
X85899716Y26781562D01*
X85754573Y26781562D01*
X85609430Y26878324D01*
X85536859Y26975086D01*
X85464287Y27168610D01*
X85391716Y27555657D01*
X85391716Y28039467D01*
X85464287Y28426514D01*
X85536859Y28620038D01*
X85609430Y28716800D01*
X85754573Y28813562D01*
X86915716Y26975086D02*
X86988288Y26878324D01*
X86915716Y26781562D01*
X86843145Y26878324D01*
X86915716Y26975086D01*
X86915716Y26781562D01*
X88367144Y28813562D02*
X87641430Y28813562D01*
X87568859Y27845943D01*
X87641430Y27942705D01*
X87786573Y28039467D01*
X88149430Y28039467D01*
X88294573Y27942705D01*
X88367144Y27845943D01*
X88439716Y27652419D01*
X88439716Y27168610D01*
X88367144Y26975086D01*
X88294573Y26878324D01*
X88149430Y26781562D01*
X87786573Y26781562D01*
X87641430Y26878324D01*
X87568859Y26975086D01*
X90471716Y26781562D02*
X90326574Y26878324D01*
X90254002Y26975086D01*
X90181431Y27168610D01*
X90181431Y27749181D01*
X90254002Y27942705D01*
X90326574Y28039467D01*
X90471716Y28136229D01*
X90689431Y28136229D01*
X90834574Y28039467D01*
X90907145Y27942705D01*
X90979716Y27749181D01*
X90979716Y27168610D01*
X90907145Y26975086D01*
X90834574Y26878324D01*
X90689431Y26781562D01*
X90471716Y26781562D01*
X91487716Y28136229D02*
X92286002Y28136229D01*
X91487716Y26781562D01*
X92286002Y26781562D01*
X94680859Y26878324D02*
X94535716Y26781562D01*
X94245430Y26781562D01*
X94100288Y26878324D01*
X94027716Y26975086D01*
X93955145Y27168610D01*
X93955145Y27749181D01*
X94027716Y27942705D01*
X94100288Y28039467D01*
X94245430Y28136229D01*
X94535716Y28136229D01*
X94680859Y28039467D01*
X95551716Y26781562D02*
X95406574Y26878324D01*
X95334002Y26975086D01*
X95261431Y27168610D01*
X95261431Y27749181D01*
X95334002Y27942705D01*
X95406574Y28039467D01*
X95551716Y28136229D01*
X95769431Y28136229D01*
X95914574Y28039467D01*
X95987145Y27942705D01*
X96059716Y27749181D01*
X96059716Y27168610D01*
X95987145Y26975086D01*
X95914574Y26878324D01*
X95769431Y26781562D01*
X95551716Y26781562D01*
X96712859Y28136229D02*
X96712859Y26104229D01*
X96712859Y28039467D02*
X96858002Y28136229D01*
X97148288Y28136229D01*
X97293431Y28039467D01*
X97366002Y27942705D01*
X97438573Y27749181D01*
X97438573Y27168610D01*
X97366002Y26975086D01*
X97293431Y26878324D01*
X97148288Y26781562D01*
X96858002Y26781562D01*
X96712859Y26878324D01*
X98091716Y28136229D02*
X98091716Y26104229D01*
X98091716Y28039467D02*
X98236859Y28136229D01*
X98527145Y28136229D01*
X98672288Y28039467D01*
X98744859Y27942705D01*
X98817430Y27749181D01*
X98817430Y27168610D01*
X98744859Y26975086D01*
X98672288Y26878324D01*
X98527145Y26781562D01*
X98236859Y26781562D01*
X98091716Y26878324D01*
X100051145Y26878324D02*
X99906002Y26781562D01*
X99615716Y26781562D01*
X99470573Y26878324D01*
X99398002Y27071848D01*
X99398002Y27845943D01*
X99470573Y28039467D01*
X99615716Y28136229D01*
X99906002Y28136229D01*
X100051145Y28039467D01*
X100123716Y27845943D01*
X100123716Y27652419D01*
X99398002Y27458895D01*
X100776859Y26781562D02*
X100776859Y28136229D01*
X100776859Y27749181D02*
X100849431Y27942705D01*
X100922002Y28039467D01*
X101067145Y28136229D01*
X101212288Y28136229D01*
X71966000Y25460762D02*
X71675714Y25460762D01*
X71530571Y25364000D01*
X71458000Y25267238D01*
X71312857Y24976952D01*
X71240286Y24589905D01*
X71240286Y23815810D01*
X71312857Y23622286D01*
X71385429Y23525524D01*
X71530571Y23428762D01*
X71820857Y23428762D01*
X71966000Y23525524D01*
X72038571Y23622286D01*
X72111143Y23815810D01*
X72111143Y24299619D01*
X72038571Y24493143D01*
X71966000Y24589905D01*
X71820857Y24686667D01*
X71530571Y24686667D01*
X71385429Y24589905D01*
X71312857Y24493143D01*
X71240286Y24299619D01*
X72764286Y23622286D02*
X72836858Y23525524D01*
X72764286Y23428762D01*
X72691715Y23525524D01*
X72764286Y23622286D01*
X72764286Y23428762D01*
X73344857Y25460762D02*
X74360857Y25460762D01*
X73707714Y23428762D01*
X76102572Y23428762D02*
X76102572Y24783429D01*
X76102572Y24589905D02*
X76175144Y24686667D01*
X76320286Y24783429D01*
X76538001Y24783429D01*
X76683144Y24686667D01*
X76755715Y24493143D01*
X76755715Y23428762D01*
X76755715Y24493143D02*
X76828286Y24686667D01*
X76973429Y24783429D01*
X77191144Y24783429D01*
X77336286Y24686667D01*
X77408858Y24493143D01*
X77408858Y23428762D01*
X78134572Y23428762D02*
X78134572Y24783429D01*
X78134572Y25460762D02*
X78062001Y25364000D01*
X78134572Y25267238D01*
X78207144Y25364000D01*
X78134572Y25460762D01*
X78134572Y25267238D01*
X79078000Y23428762D02*
X78932858Y23525524D01*
X78860286Y23719048D01*
X78860286Y25460762D01*
X85972287Y24493143D02*
X85464287Y24493143D01*
X85464287Y23428762D02*
X85464287Y25460762D01*
X86190001Y25460762D01*
X87641430Y23428762D02*
X87133430Y24396381D01*
X86770573Y23428762D02*
X86770573Y25460762D01*
X87351145Y25460762D01*
X87496287Y25364000D01*
X87568859Y25267238D01*
X87641430Y25073714D01*
X87641430Y24783429D01*
X87568859Y24589905D01*
X87496287Y24493143D01*
X87351145Y24396381D01*
X86770573Y24396381D01*
X88947716Y24783429D02*
X88947716Y23428762D01*
X88584859Y25557524D02*
X88222002Y24106095D01*
X89165430Y24106095D01*
X90907145Y24783429D02*
X90907145Y22751429D01*
X90907145Y24686667D02*
X91052288Y24783429D01*
X91342574Y24783429D01*
X91487717Y24686667D01*
X91560288Y24589905D01*
X91632859Y24396381D01*
X91632859Y23815810D01*
X91560288Y23622286D01*
X91487717Y23525524D01*
X91342574Y23428762D01*
X91052288Y23428762D01*
X90907145Y23525524D01*
X92286002Y23428762D02*
X92286002Y24783429D01*
X92286002Y24396381D02*
X92358574Y24589905D01*
X92431145Y24686667D01*
X92576288Y24783429D01*
X92721431Y24783429D01*
X93810003Y23525524D02*
X93664860Y23428762D01*
X93374574Y23428762D01*
X93229431Y23525524D01*
X93156860Y23719048D01*
X93156860Y24493143D01*
X93229431Y24686667D01*
X93374574Y24783429D01*
X93664860Y24783429D01*
X93810003Y24686667D01*
X93882574Y24493143D01*
X93882574Y24299619D01*
X93156860Y24106095D01*
X94535717Y24783429D02*
X94535717Y22751429D01*
X94535717Y24686667D02*
X94680860Y24783429D01*
X94971146Y24783429D01*
X95116289Y24686667D01*
X95188860Y24589905D01*
X95261431Y24396381D01*
X95261431Y23815810D01*
X95188860Y23622286D01*
X95116289Y23525524D01*
X94971146Y23428762D01*
X94680860Y23428762D01*
X94535717Y23525524D01*
X95914574Y23428762D02*
X95914574Y24783429D01*
X95914574Y24396381D02*
X95987146Y24589905D01*
X96059717Y24686667D01*
X96204860Y24783429D01*
X96350003Y24783429D01*
X97438575Y23525524D02*
X97293432Y23428762D01*
X97003146Y23428762D01*
X96858003Y23525524D01*
X96785432Y23719048D01*
X96785432Y24493143D01*
X96858003Y24686667D01*
X97003146Y24783429D01*
X97293432Y24783429D01*
X97438575Y24686667D01*
X97511146Y24493143D01*
X97511146Y24299619D01*
X96785432Y24106095D01*
X98817432Y24783429D02*
X98817432Y23138476D01*
X98744861Y22944952D01*
X98672289Y22848190D01*
X98527146Y22751429D01*
X98309432Y22751429D01*
X98164289Y22848190D01*
X98817432Y23525524D02*
X98672289Y23428762D01*
X98382003Y23428762D01*
X98236861Y23525524D01*
X98164289Y23622286D01*
X98091718Y23815810D01*
X98091718Y24396381D01*
X98164289Y24589905D01*
X98236861Y24686667D01*
X98382003Y24783429D01*
X98672289Y24783429D01*
X98817432Y24686667D01*
X111154576Y24202857D02*
X112315719Y24202857D01*
X111735148Y23428762D02*
X111735148Y24976952D01*
X114130005Y25557524D02*
X112823719Y22944952D01*
X114638004Y24202857D02*
X115799147Y24202857D01*
X116524861Y23622286D02*
X116597433Y23525524D01*
X116524861Y23428762D01*
X116452290Y23525524D01*
X116524861Y23622286D01*
X116524861Y23428762D01*
X117903718Y25460762D02*
X117613432Y25460762D01*
X117468289Y25364000D01*
X117395718Y25267238D01*
X117250575Y24976952D01*
X117178004Y24589905D01*
X117178004Y23815810D01*
X117250575Y23622286D01*
X117323147Y23525524D01*
X117468289Y23428762D01*
X117758575Y23428762D01*
X117903718Y23525524D01*
X117976289Y23622286D01*
X118048861Y23815810D01*
X118048861Y24299619D01*
X117976289Y24493143D01*
X117903718Y24589905D01*
X117758575Y24686667D01*
X117468289Y24686667D01*
X117323147Y24589905D01*
X117250575Y24493143D01*
X117178004Y24299619D01*
X118556861Y25460762D02*
X119572861Y25460762D01*
X118919718Y23428762D01*
X120153433Y23428762D02*
X120153433Y24783429D01*
X120153433Y24589905D02*
X120226005Y24686667D01*
X120371147Y24783429D01*
X120588862Y24783429D01*
X120734005Y24686667D01*
X120806576Y24493143D01*
X120806576Y23428762D01*
X120806576Y24493143D02*
X120879147Y24686667D01*
X121024290Y24783429D01*
X121242005Y24783429D01*
X121387147Y24686667D01*
X121459719Y24493143D01*
X121459719Y23428762D01*
X122185433Y23428762D02*
X122185433Y24783429D01*
X122185433Y25460762D02*
X122112862Y25364000D01*
X122185433Y25267238D01*
X122258005Y25364000D01*
X122185433Y25460762D01*
X122185433Y25267238D01*
X123128861Y23428762D02*
X122983719Y23525524D01*
X122911147Y23719048D01*
X122911147Y25460762D01*
X72111143Y20075962D02*
X71240286Y20075962D01*
X71675714Y20075962D02*
X71675714Y22107962D01*
X71530571Y21817676D01*
X71385429Y21624152D01*
X71240286Y21527390D01*
X72764286Y20269486D02*
X72836858Y20172724D01*
X72764286Y20075962D01*
X72691715Y20172724D01*
X72764286Y20269486D01*
X72764286Y20075962D01*
X74143143Y21430629D02*
X74143143Y20075962D01*
X73780286Y22204724D02*
X73417429Y20753295D01*
X74360857Y20753295D01*
X76102572Y20075962D02*
X76102572Y21430629D01*
X76102572Y21237105D02*
X76175144Y21333867D01*
X76320286Y21430629D01*
X76538001Y21430629D01*
X76683144Y21333867D01*
X76755715Y21140343D01*
X76755715Y20075962D01*
X76755715Y21140343D02*
X76828286Y21333867D01*
X76973429Y21430629D01*
X77191144Y21430629D01*
X77336286Y21333867D01*
X77408858Y21140343D01*
X77408858Y20075962D01*
X78134572Y20075962D02*
X78134572Y21430629D01*
X78134572Y22107962D02*
X78062001Y22011200D01*
X78134572Y21914438D01*
X78207144Y22011200D01*
X78134572Y22107962D01*
X78134572Y21914438D01*
X79078000Y20075962D02*
X78932858Y20172724D01*
X78860286Y20366248D01*
X78860286Y22107962D01*
X86262573Y20075962D02*
X85391716Y20075962D01*
X85827144Y20075962D02*
X85827144Y22107962D01*
X85682001Y21817676D01*
X85536859Y21624152D01*
X85391716Y21527390D01*
X88294573Y20075962D02*
X88149431Y20172724D01*
X88076859Y20269486D01*
X88004288Y20463010D01*
X88004288Y21043581D01*
X88076859Y21237105D01*
X88149431Y21333867D01*
X88294573Y21430629D01*
X88512288Y21430629D01*
X88657431Y21333867D01*
X88730002Y21237105D01*
X88802573Y21043581D01*
X88802573Y20463010D01*
X88730002Y20269486D01*
X88657431Y20172724D01*
X88512288Y20075962D01*
X88294573Y20075962D01*
X89310573Y21430629D02*
X90108859Y21430629D01*
X89310573Y20075962D01*
X90108859Y20075962D01*
X92503716Y20172724D02*
X92358573Y20075962D01*
X92068287Y20075962D01*
X91923145Y20172724D01*
X91850573Y20269486D01*
X91778002Y20463010D01*
X91778002Y21043581D01*
X91850573Y21237105D01*
X91923145Y21333867D01*
X92068287Y21430629D01*
X92358573Y21430629D01*
X92503716Y21333867D01*
X93374573Y20075962D02*
X93229431Y20172724D01*
X93156859Y20269486D01*
X93084288Y20463010D01*
X93084288Y21043581D01*
X93156859Y21237105D01*
X93229431Y21333867D01*
X93374573Y21430629D01*
X93592288Y21430629D01*
X93737431Y21333867D01*
X93810002Y21237105D01*
X93882573Y21043581D01*
X93882573Y20463010D01*
X93810002Y20269486D01*
X93737431Y20172724D01*
X93592288Y20075962D01*
X93374573Y20075962D01*
X94535716Y21430629D02*
X94535716Y19398629D01*
X94535716Y21333867D02*
X94680859Y21430629D01*
X94971145Y21430629D01*
X95116288Y21333867D01*
X95188859Y21237105D01*
X95261430Y21043581D01*
X95261430Y20463010D01*
X95188859Y20269486D01*
X95116288Y20172724D01*
X94971145Y20075962D01*
X94680859Y20075962D01*
X94535716Y20172724D01*
X95914573Y21430629D02*
X95914573Y19398629D01*
X95914573Y21333867D02*
X96059716Y21430629D01*
X96350002Y21430629D01*
X96495145Y21333867D01*
X96567716Y21237105D01*
X96640287Y21043581D01*
X96640287Y20463010D01*
X96567716Y20269486D01*
X96495145Y20172724D01*
X96350002Y20075962D01*
X96059716Y20075962D01*
X95914573Y20172724D01*
X97874002Y20172724D02*
X97728859Y20075962D01*
X97438573Y20075962D01*
X97293430Y20172724D01*
X97220859Y20366248D01*
X97220859Y21140343D01*
X97293430Y21333867D01*
X97438573Y21430629D01*
X97728859Y21430629D01*
X97874002Y21333867D01*
X97946573Y21140343D01*
X97946573Y20946819D01*
X97220859Y20753295D01*
X98599716Y20075962D02*
X98599716Y21430629D01*
X98599716Y21043581D02*
X98672288Y21237105D01*
X98744859Y21333867D01*
X98890002Y21430629D01*
X99035145Y21430629D01*
X72111143Y16723162D02*
X71240286Y16723162D01*
X71675714Y16723162D02*
X71675714Y18755162D01*
X71530571Y18464876D01*
X71385429Y18271352D01*
X71240286Y18174590D01*
X73925429Y16723162D02*
X73925429Y18077829D01*
X73925429Y17884305D02*
X73998001Y17981067D01*
X74143143Y18077829D01*
X74360858Y18077829D01*
X74506001Y17981067D01*
X74578572Y17787543D01*
X74578572Y16723162D01*
X74578572Y17787543D02*
X74651143Y17981067D01*
X74796286Y18077829D01*
X75014001Y18077829D01*
X75159143Y17981067D01*
X75231715Y17787543D01*
X75231715Y16723162D01*
X75957429Y16723162D02*
X75957429Y18077829D01*
X75957429Y18755162D02*
X75884858Y18658400D01*
X75957429Y18561638D01*
X76030001Y18658400D01*
X75957429Y18755162D01*
X75957429Y18561638D01*
X76900857Y16723162D02*
X76755715Y16819924D01*
X76683143Y17013448D01*
X76683143Y18755162D01*
X86698002Y16819924D02*
X86843145Y16723162D01*
X87133430Y16723162D01*
X87278573Y16819924D01*
X87351145Y17013448D01*
X87351145Y17110210D01*
X87278573Y17303733D01*
X87133430Y17400495D01*
X86915716Y17400495D01*
X86770573Y17497257D01*
X86698002Y17690781D01*
X86698002Y17787543D01*
X86770573Y17981067D01*
X86915716Y18077829D01*
X87133430Y18077829D01*
X87278573Y17981067D01*
X88222001Y16723162D02*
X88076859Y16819924D01*
X88004287Y16916686D01*
X87931716Y17110210D01*
X87931716Y17690781D01*
X88004287Y17884305D01*
X88076859Y17981067D01*
X88222001Y18077829D01*
X88439716Y18077829D01*
X88584859Y17981067D01*
X88657430Y17884305D01*
X88730001Y17690781D01*
X88730001Y17110210D01*
X88657430Y16916686D01*
X88584859Y16819924D01*
X88439716Y16723162D01*
X88222001Y16723162D01*
X89600858Y16723162D02*
X89455716Y16819924D01*
X89383144Y17013448D01*
X89383144Y18755162D01*
X90834573Y16723162D02*
X90834573Y18755162D01*
X90834573Y16819924D02*
X90689430Y16723162D01*
X90399144Y16723162D01*
X90254002Y16819924D01*
X90181430Y16916686D01*
X90108859Y17110210D01*
X90108859Y17690781D01*
X90181430Y17884305D01*
X90254002Y17981067D01*
X90399144Y18077829D01*
X90689430Y18077829D01*
X90834573Y17981067D01*
X92140859Y16819924D02*
X91995716Y16723162D01*
X91705430Y16723162D01*
X91560287Y16819924D01*
X91487716Y17013448D01*
X91487716Y17787543D01*
X91560287Y17981067D01*
X91705430Y18077829D01*
X91995716Y18077829D01*
X92140859Y17981067D01*
X92213430Y17787543D01*
X92213430Y17594019D01*
X91487716Y17400495D01*
X92866573Y16723162D02*
X92866573Y18077829D01*
X92866573Y17690781D02*
X92939145Y17884305D01*
X93011716Y17981067D01*
X93156859Y18077829D01*
X93302002Y18077829D01*
X94971145Y16723162D02*
X94971145Y18077829D01*
X94971145Y17690781D02*
X95043717Y17884305D01*
X95116288Y17981067D01*
X95261431Y18077829D01*
X95406574Y18077829D01*
X96495146Y16819924D02*
X96350003Y16723162D01*
X96059717Y16723162D01*
X95914574Y16819924D01*
X95842003Y17013448D01*
X95842003Y17787543D01*
X95914574Y17981067D01*
X96059717Y18077829D01*
X96350003Y18077829D01*
X96495146Y17981067D01*
X96567717Y17787543D01*
X96567717Y17594019D01*
X95842003Y17400495D01*
X97148289Y16819924D02*
X97293432Y16723162D01*
X97583717Y16723162D01*
X97728860Y16819924D01*
X97801432Y17013448D01*
X97801432Y17110210D01*
X97728860Y17303733D01*
X97583717Y17400495D01*
X97366003Y17400495D01*
X97220860Y17497257D01*
X97148289Y17690781D01*
X97148289Y17787543D01*
X97220860Y17981067D01*
X97366003Y18077829D01*
X97583717Y18077829D01*
X97728860Y17981067D01*
X98454574Y16723162D02*
X98454574Y18077829D01*
X98454574Y18755162D02*
X98382003Y18658400D01*
X98454574Y18561638D01*
X98527146Y18658400D01*
X98454574Y18755162D01*
X98454574Y18561638D01*
X99107717Y16819924D02*
X99252860Y16723162D01*
X99543145Y16723162D01*
X99688288Y16819924D01*
X99760860Y17013448D01*
X99760860Y17110210D01*
X99688288Y17303733D01*
X99543145Y17400495D01*
X99325431Y17400495D01*
X99180288Y17497257D01*
X99107717Y17690781D01*
X99107717Y17787543D01*
X99180288Y17981067D01*
X99325431Y18077829D01*
X99543145Y18077829D01*
X99688288Y17981067D01*
X100196288Y18077829D02*
X100776859Y18077829D01*
X100414002Y18755162D02*
X100414002Y17013448D01*
X100486574Y16819924D01*
X100631716Y16723162D01*
X100776859Y16723162D01*
X114057432Y17497257D02*
X115218575Y17497257D01*
X114638004Y16723162D02*
X114638004Y18271352D01*
X117032861Y18851924D02*
X115726575Y16239352D01*
X117540860Y17497257D02*
X118702003Y17497257D01*
X119718003Y18755162D02*
X119863146Y18755162D01*
X120008289Y18658400D01*
X120080860Y18561638D01*
X120153431Y18368114D01*
X120226003Y17981067D01*
X120226003Y17497257D01*
X120153431Y17110210D01*
X120080860Y16916686D01*
X120008289Y16819924D01*
X119863146Y16723162D01*
X119718003Y16723162D01*
X119572860Y16819924D01*
X119500289Y16916686D01*
X119427717Y17110210D01*
X119355146Y17497257D01*
X119355146Y17981067D01*
X119427717Y18368114D01*
X119500289Y18561638D01*
X119572860Y18658400D01*
X119718003Y18755162D01*
X120879146Y16916686D02*
X120951718Y16819924D01*
X120879146Y16723162D01*
X120806575Y16819924D01*
X120879146Y16916686D01*
X120879146Y16723162D01*
X121532289Y18561638D02*
X121604860Y18658400D01*
X121750003Y18755162D01*
X122112860Y18755162D01*
X122258003Y18658400D01*
X122330574Y18561638D01*
X122403146Y18368114D01*
X122403146Y18174590D01*
X122330574Y17884305D01*
X121459717Y16723162D01*
X122403146Y16723162D01*
X123056289Y16723162D02*
X123056289Y18077829D01*
X123056289Y17884305D02*
X123128861Y17981067D01*
X123274003Y18077829D01*
X123491718Y18077829D01*
X123636861Y17981067D01*
X123709432Y17787543D01*
X123709432Y16723162D01*
X123709432Y17787543D02*
X123782003Y17981067D01*
X123927146Y18077829D01*
X124144861Y18077829D01*
X124290003Y17981067D01*
X124362575Y17787543D01*
X124362575Y16723162D01*
X125088289Y16723162D02*
X125088289Y18077829D01*
X125088289Y18755162D02*
X125015718Y18658400D01*
X125088289Y18561638D01*
X125160861Y18658400D01*
X125088289Y18755162D01*
X125088289Y18561638D01*
X126031717Y16723162D02*
X125886575Y16819924D01*
X125814003Y17013448D01*
X125814003Y18755162D01*
X-5038362Y19791999D02*
X-5038362Y19501713D01*
X-4941600Y19356570D01*
X-4844838Y19283999D01*
X-4554552Y19138856D01*
X-4167505Y19066285D01*
X-3393410Y19066285D01*
X-3199886Y19138856D01*
X-3103124Y19211428D01*
X-3006362Y19356570D01*
X-3006362Y19646856D01*
X-3103124Y19791999D01*
X-3199886Y19864570D01*
X-3393410Y19937142D01*
X-3877219Y19937142D01*
X-4070743Y19864570D01*
X-4167505Y19791999D01*
X-4264267Y19646856D01*
X-4264267Y19356570D01*
X-4167505Y19211428D01*
X-4070743Y19138856D01*
X-3877219Y19066285D01*
X-4167505Y20807999D02*
X-4264267Y20662857D01*
X-4361029Y20590285D01*
X-4554552Y20517714D01*
X-4651314Y20517714D01*
X-4844838Y20590285D01*
X-4941600Y20662857D01*
X-5038362Y20807999D01*
X-5038362Y21098285D01*
X-4941600Y21243428D01*
X-4844838Y21315999D01*
X-4651314Y21388571D01*
X-4554552Y21388571D01*
X-4361029Y21315999D01*
X-4264267Y21243428D01*
X-4167505Y21098285D01*
X-4167505Y20807999D01*
X-4070743Y20662857D01*
X-3973981Y20590285D01*
X-3780457Y20517714D01*
X-3393410Y20517714D01*
X-3199886Y20590285D01*
X-3103124Y20662857D01*
X-3006362Y20807999D01*
X-3006362Y21098285D01*
X-3103124Y21243428D01*
X-3199886Y21315999D01*
X-3393410Y21388571D01*
X-3780457Y21388571D01*
X-3973981Y21315999D01*
X-4070743Y21243428D01*
X-4167505Y21098285D01*
X-3199886Y22041714D02*
X-3103124Y22114286D01*
X-3006362Y22041714D01*
X-3103124Y21969143D01*
X-3199886Y22041714D01*
X-3006362Y22041714D01*
X-5038362Y23493142D02*
X-5038362Y22767428D01*
X-4070743Y22694857D01*
X-4167505Y22767428D01*
X-4264267Y22912571D01*
X-4264267Y23275428D01*
X-4167505Y23420571D01*
X-4070743Y23493142D01*
X-3877219Y23565714D01*
X-3393410Y23565714D01*
X-3199886Y23493142D01*
X-3103124Y23420571D01*
X-3006362Y23275428D01*
X-3006362Y22912571D01*
X-3103124Y22767428D01*
X-3199886Y22694857D01*
X-5038362Y24509143D02*
X-5038362Y24654286D01*
X-4941600Y24799429D01*
X-4844838Y24872000D01*
X-4651314Y24944571D01*
X-4264267Y25017143D01*
X-3780457Y25017143D01*
X-3393410Y24944571D01*
X-3199886Y24872000D01*
X-3103124Y24799429D01*
X-3006362Y24654286D01*
X-3006362Y24509143D01*
X-3103124Y24364000D01*
X-3199886Y24291429D01*
X-3393410Y24218857D01*
X-3780457Y24146286D01*
X-4264267Y24146286D01*
X-4651314Y24218857D01*
X-4844838Y24291429D01*
X-4941600Y24364000D01*
X-5038362Y24509143D01*
X-5038362Y25960572D02*
X-5038362Y26105715D01*
X-4941600Y26250858D01*
X-4844838Y26323429D01*
X-4651314Y26396000D01*
X-4264267Y26468572D01*
X-3780457Y26468572D01*
X-3393410Y26396000D01*
X-3199886Y26323429D01*
X-3103124Y26250858D01*
X-3006362Y26105715D01*
X-3006362Y25960572D01*
X-3103124Y25815429D01*
X-3199886Y25742858D01*
X-3393410Y25670286D01*
X-3780457Y25597715D01*
X-4264267Y25597715D01*
X-4651314Y25670286D01*
X-4844838Y25742858D01*
X-4941600Y25815429D01*
X-5038362Y25960572D01*
X-3006362Y28282858D02*
X-4361029Y28282858D01*
X-4167505Y28282858D02*
X-4264267Y28355430D01*
X-4361029Y28500572D01*
X-4361029Y28718287D01*
X-4264267Y28863430D01*
X-4070743Y28936001D01*
X-3006362Y28936001D01*
X-4070743Y28936001D02*
X-4264267Y29008572D01*
X-4361029Y29153715D01*
X-4361029Y29371430D01*
X-4264267Y29516572D01*
X-4070743Y29589144D01*
X-3006362Y29589144D01*
X-3006362Y30314858D02*
X-4361029Y30314858D01*
X-4167505Y30314858D02*
X-4264267Y30387430D01*
X-4361029Y30532572D01*
X-4361029Y30750287D01*
X-4264267Y30895430D01*
X-4070743Y30968001D01*
X-3006362Y30968001D01*
X-4070743Y30968001D02*
X-4264267Y31040572D01*
X-4361029Y31185715D01*
X-4361029Y31403430D01*
X-4264267Y31548572D01*
X-4070743Y31621144D01*
X-3006362Y31621144D01*
X-2300000Y-8870000D02*
X-2300000Y59630000D01*
X150000Y-8870000D02*
X-5551200Y-8870000D01*
X150000Y59630000D02*
X-5551200Y59630000D01*
X-2300000Y59630000D02*
X-1713579Y58503496D01*
X-2300000Y59630000D02*
X-2886421Y58503496D01*
X-2300000Y-8870000D02*
X-1713579Y-7743496D01*
X-2300000Y-8870000D02*
X-2886421Y-7743496D01*
X21134570Y-12332838D02*
X20408856Y-12332838D01*
X20336285Y-13300457D01*
X20408856Y-13203695D01*
X20553999Y-13106933D01*
X20916856Y-13106933D01*
X21061999Y-13203695D01*
X21134570Y-13300457D01*
X21207142Y-13493981D01*
X21207142Y-13977790D01*
X21134570Y-14171314D01*
X21061999Y-14268076D01*
X20916856Y-14364838D01*
X20553999Y-14364838D01*
X20408856Y-14268076D01*
X20336285Y-14171314D01*
X21715142Y-12332838D02*
X22658571Y-12332838D01*
X22150571Y-13106933D01*
X22368285Y-13106933D01*
X22513428Y-13203695D01*
X22585999Y-13300457D01*
X22658571Y-13493981D01*
X22658571Y-13977790D01*
X22585999Y-14171314D01*
X22513428Y-14268076D01*
X22368285Y-14364838D01*
X21932857Y-14364838D01*
X21787714Y-14268076D01*
X21715142Y-14171314D01*
X23311714Y-14171314D02*
X23384286Y-14268076D01*
X23311714Y-14364838D01*
X23239143Y-14268076D01*
X23311714Y-14171314D01*
X23311714Y-14364838D01*
X24327714Y-12332838D02*
X24472857Y-12332838D01*
X24618000Y-12429600D01*
X24690571Y-12526362D01*
X24763142Y-12719886D01*
X24835714Y-13106933D01*
X24835714Y-13590743D01*
X24763142Y-13977790D01*
X24690571Y-14171314D01*
X24618000Y-14268076D01*
X24472857Y-14364838D01*
X24327714Y-14364838D01*
X24182571Y-14268076D01*
X24110000Y-14171314D01*
X24037428Y-13977790D01*
X23964857Y-13590743D01*
X23964857Y-13106933D01*
X24037428Y-12719886D01*
X24110000Y-12526362D01*
X24182571Y-12429600D01*
X24327714Y-12332838D01*
X25779143Y-12332838D02*
X25924286Y-12332838D01*
X26069429Y-12429600D01*
X26142000Y-12526362D01*
X26214571Y-12719886D01*
X26287143Y-13106933D01*
X26287143Y-13590743D01*
X26214571Y-13977790D01*
X26142000Y-14171314D01*
X26069429Y-14268076D01*
X25924286Y-14364838D01*
X25779143Y-14364838D01*
X25634000Y-14268076D01*
X25561429Y-14171314D01*
X25488857Y-13977790D01*
X25416286Y-13590743D01*
X25416286Y-13106933D01*
X25488857Y-12719886D01*
X25561429Y-12526362D01*
X25634000Y-12429600D01*
X25779143Y-12332838D01*
X27230572Y-12332838D02*
X27375715Y-12332838D01*
X27520858Y-12429600D01*
X27593429Y-12526362D01*
X27666000Y-12719886D01*
X27738572Y-13106933D01*
X27738572Y-13590743D01*
X27666000Y-13977790D01*
X27593429Y-14171314D01*
X27520858Y-14268076D01*
X27375715Y-14364838D01*
X27230572Y-14364838D01*
X27085429Y-14268076D01*
X27012858Y-14171314D01*
X26940286Y-13977790D01*
X26867715Y-13590743D01*
X26867715Y-13106933D01*
X26940286Y-12719886D01*
X27012858Y-12526362D01*
X27085429Y-12429600D01*
X27230572Y-12332838D01*
X29552858Y-14364838D02*
X29552858Y-13010171D01*
X29552858Y-13203695D02*
X29625430Y-13106933D01*
X29770572Y-13010171D01*
X29988287Y-13010171D01*
X30133430Y-13106933D01*
X30206001Y-13300457D01*
X30206001Y-14364838D01*
X30206001Y-13300457D02*
X30278572Y-13106933D01*
X30423715Y-13010171D01*
X30641430Y-13010171D01*
X30786572Y-13106933D01*
X30859144Y-13300457D01*
X30859144Y-14364838D01*
X31584858Y-14364838D02*
X31584858Y-13010171D01*
X31584858Y-13203695D02*
X31657430Y-13106933D01*
X31802572Y-13010171D01*
X32020287Y-13010171D01*
X32165430Y-13106933D01*
X32238001Y-13300457D01*
X32238001Y-14364838D01*
X32238001Y-13300457D02*
X32310572Y-13106933D01*
X32455715Y-13010171D01*
X32673430Y-13010171D01*
X32818572Y-13106933D01*
X32891144Y-13300457D01*
X32891144Y-14364838D01*
X150000Y-11820000D02*
X53150000Y-11820000D01*
X150000Y-8870000D02*
X150000Y-15071200D01*
X53150000Y-8870000D02*
X53150000Y-15071200D01*
X53150000Y-11820000D02*
X52023496Y-12406421D01*
X53150000Y-11820000D02*
X52023496Y-11233579D01*
X150000Y-11820000D02*
X1276504Y-12406421D01*
X150000Y-11820000D02*
X1276504Y-11233579D01*
M02*
