M48
;DRILL file {KiCad 4.0.6} date 10/15/17 15:06:54
;FORMAT={2:4/ absolute / inch / keep zeros}
FMAT,2
INCH,TZ
T1C0.010
T2C0.013
T3C0.039
T4C0.040
%
G90
G05
M72
T1
X004134Y004772
X004134Y004425
X004173Y-000362
X004350Y003417
X005098Y003713
X005394Y015406
X005413Y018831
X005433Y015031
X005453Y019598
X005551Y-001366
X005551Y-001878
X005669Y017650
X005728Y018791
X006142Y015780
X006378Y004992
X006417Y-002803
X008413Y004280
X008413Y003709
X008591Y005484
X008933Y005728
X009008Y004319
X009012Y003732
X009134Y012197
X009390Y005366
X009941Y005071
X010157Y004756
X010295Y002906
X010531Y003220
X010965Y006370
X010965Y002295
X011319Y-001287
X012382Y020760
X013661Y018654
X013957Y007177
X014508Y003811
X014783Y016252
X015217Y011114
X015236Y018673
X015650Y004953
X015669Y007748
X016264Y012031
X016339Y016252
X016339Y009953
X016734Y013123
X016734Y012838
X016811Y018673
X016990Y013123
X016990Y012838
X017165Y018634
X017480Y005770
X017972Y016252
X018425Y000209
X018882Y018972
X018882Y013972
X019193Y007472
X019764Y001016
T2
X001102Y-000500
X001102Y-001681
X001689Y005504
X001693Y016035
X001693Y014854
X001693Y013280
X001693Y012098
X001693Y010327
X001693Y009146
X001693Y007571
X001693Y006390
X001701Y004488
X002205Y022748
X002205Y021567
X002205Y018024
X002598Y015071
X002795Y020189
X002795Y019008
X002795Y017236
X002795Y016055
X002874Y013476
X002874Y012295
X002874Y010917
X002874Y009736
X002874Y008555
X002874Y007374
X003268Y004028
X003465Y002846
X003465Y-000106
X003583Y021173
X003661Y005406
X003957Y019697
X003976Y018614
X003976Y017433
X003976Y016646
X003976Y015858
X003976Y014874
X003976Y014283
X004055Y013476
X004055Y012295
X004055Y010917
X004055Y009736
X004055Y008555
X004055Y007374
X004252Y005996
X004449Y002650
X004783Y018811
X004843Y013181
X004843Y012394
X004843Y-002272
X004969Y020209
X005039Y008358
X005039Y005012
X005138Y-001071
X005236Y006193
X005256Y017512
X005295Y016114
X005571Y012394
X005571Y011744
X005571Y011173
X005591Y013201
X005630Y014736
X005630Y010524
X005630Y007768
X005630Y-003059
X006142Y017236
X006220Y006587
X006299Y005406
X006319Y018043
X006319Y013181
X006319Y012394
X006339Y018614
X006358Y-001071
X006417Y002453
X006417Y000091
X006535Y021173
X006614Y010524
X006614Y009736
X006614Y008949
X006614Y003831
X006732Y014874
X006811Y007374
X006831Y013791
X006969Y012827
X007008Y008358
X007008Y002846
X007126Y018614
X007126Y017827
X007244Y014441
X007402Y-000894
X007441Y012846
X007598Y005996
X007697Y008063
X007717Y017433
X007717Y015287
X007795Y010524
X007795Y009736
X007795Y008949
X007795Y006783
X007835Y013909
X007874Y011783
X008150Y016272
X008346Y013437
X008445Y014480
X008504Y022748
X008504Y021567
X008583Y007177
X008583Y000091
X008583Y-003059
X008661Y015189
X008681Y010327
X008681Y009539
X008701Y019598
X008740Y011783
X008976Y016252
X008996Y008043
X009213Y012709
X009331Y013240
X009350Y014047
X009567Y010228
X009665Y009146
X009685Y019598
X009685Y018417
X009685Y017630
X009685Y016449
X009764Y008161
X010374Y019205
X010374Y018122
X010453Y011016
X010472Y022748
X010472Y021567
X010472Y016744
X010551Y012728
X010551Y012138
X010551Y009933
X010551Y002650
X010571Y015563
X010571Y014579
X010748Y008752
X010827Y001862
X010886Y-002508
X011339Y014854
X011339Y014165
X011339Y012984
X011339Y012000
X011339Y010819
X011437Y015839
X011457Y020189
X011457Y019008
X011457Y018220
X011457Y017039
X011535Y008161
X011535Y006980
X011732Y009736
X011732Y000878
X012126Y-001287
X012126Y-002469
X012224Y001567
X012323Y015740
X012323Y000287
X012539Y008929
X012618Y019579
X012618Y018594
X012618Y017413
X012717Y014165
X012717Y012787
X012913Y011016
X012913Y008161
X012913Y006980
X013110Y016232
X013110Y015051
X013110Y004618
X013504Y013772
X013661Y008949
X014016Y-002488
X014291Y007965
X014291Y006783
X014291Y005602
X014291Y004224
X014409Y022748
X014409Y021567
X014724Y018102
X014882Y010425
X015079Y014953
X015079Y013772
X015079Y-002823
X015118Y019835
X015177Y013083
X015177Y011902
X015256Y007768
X015276Y009343
X015965Y010425
X016063Y011606
X016063Y002256
X016063Y001075
X016260Y018083
X016260Y009343
X016555Y014657
X016654Y013969
X016969Y-002843
X017047Y010425
X017087Y019835
X017441Y009933
X017441Y008752
X017835Y015740
X017835Y005406
X017992Y021331
X017992Y020150
X018031Y010524
X018287Y018043
X018346Y016350
X019213Y004421
X019213Y003240
X019409Y000484
X019409Y-000697
X020000Y005209
X020000Y004028
X020020Y015465
X020394Y000484
X020394Y-000697
T3
X013965Y001640
X013965Y000640
X013965Y-000360
X013965Y-001360
T4
X001012Y021504
X001012Y020504
X001012Y019504
X001012Y018504
X001012Y017504
X001012Y016504
X001012Y015504
X001012Y014504
X001012Y013004
X001012Y012004
X001012Y011004
X001012Y010004
X001012Y009004
X001012Y008004
X001012Y007004
X001012Y006004
X001012Y005004
X001012Y004004
X001031Y000701
X002031Y000701
X003031Y000701
X004031Y000701
X005031Y000701
X006031Y000701
X007031Y000701
X008031Y000701
X009031Y000701
X010031Y000701
X020012Y021504
X020012Y020504
X020012Y019504
X020012Y018504
X020012Y017504
X020012Y016504
X020012Y014504
X020012Y013504
X020012Y012504
X020012Y011504
X020012Y010504
X020012Y009504
X020012Y008504
X020012Y007504
T0
M30
