G04 #@! TF.FileFunction,Copper,L4,Bot,Signal*
%FSLAX46Y46*%
G04 Gerber Fmt 4.6, Leading zero omitted, Abs format (unit mm)*
G04 Created by KiCad (PCBNEW 4.0.6) date 10/15/17 15:06:51*
%MOMM*%
%LPD*%
G01*
G04 APERTURE LIST*
%ADD10C,0.150000*%
%ADD11C,0.838200*%
%ADD12R,1.727200X2.032000*%
%ADD13O,1.727200X2.032000*%
%ADD14R,1.700000X1.700000*%
%ADD15O,1.700000X1.700000*%
%ADD16C,1.879600*%
%ADD17R,2.000000X4.064000*%
%ADD18C,0.558800*%
%ADD19C,0.750000*%
%ADD20C,0.175260*%
%ADD21C,0.203200*%
%ADD22C,0.248920*%
%ADD23C,0.398780*%
%ADD24C,0.200000*%
G04 APERTURE END LIST*
D10*
D11*
X27650000Y-6370000D03*
X16150000Y-2720000D03*
X13050000Y-2720000D03*
X22850000Y20430000D03*
X31850000Y22680000D03*
X34700000Y22730000D03*
X50850000Y39280000D03*
X46450000Y45830000D03*
X41300000Y45930000D03*
X37400000Y45980000D03*
X45700000Y51180000D03*
X45700000Y54180000D03*
X38400000Y50380000D03*
X43400000Y50380000D03*
X14300000Y37430000D03*
X12620000Y51330000D03*
X38300000Y-7170000D03*
X43100000Y-7220000D03*
X35600000Y-6320000D03*
X22800000Y41280000D03*
X20700000Y41330000D03*
X21450000Y36780000D03*
X23750000Y35680000D03*
X22000000Y38580000D03*
X19600000Y38830000D03*
X21200000Y34130000D03*
X19900000Y35330000D03*
X17350000Y35030000D03*
X18400000Y36680000D03*
X23700000Y33630000D03*
X23400000Y32280000D03*
X18900000Y32630000D03*
X17700000Y32580000D03*
X22200000Y29930000D03*
X20000000Y29930000D03*
X14150000Y28380000D03*
X14150000Y29830000D03*
X14150000Y31480000D03*
X14200000Y33530000D03*
X16050000Y31480000D03*
X12300000Y31480000D03*
X16050000Y33480000D03*
X12300000Y33480000D03*
X19550000Y20480000D03*
X24800000Y20730000D03*
X27300000Y22230000D03*
X29800000Y24730000D03*
X31050000Y3980000D03*
X36300000Y10730000D03*
X45300000Y13730000D03*
X48800000Y11230000D03*
X48800000Y8230000D03*
X42050000Y37230000D03*
X45300000Y39980000D03*
X42300000Y35480000D03*
X40800000Y29480000D03*
X43300000Y26480000D03*
X40550000Y26480000D03*
X37800000Y26480000D03*
X32300000Y32480000D03*
X32800000Y27980000D03*
X34300000Y34980000D03*
X38550000Y33230000D03*
X38550000Y30230000D03*
X38300000Y37980000D03*
X38300000Y34980000D03*
X32300000Y35980000D03*
X31300000Y39980000D03*
X33300000Y41230000D03*
X33300000Y38230000D03*
X26350000Y48780000D03*
X26350000Y46030000D03*
X26600000Y42530000D03*
X29050000Y40230000D03*
X32050000Y44230000D03*
X32050000Y47230000D03*
X32050000Y49730000D03*
X26850000Y39530000D03*
X28800000Y37730000D03*
X26800000Y30830000D03*
X26850000Y37030000D03*
X26800000Y32330000D03*
X28800000Y32980000D03*
X28800000Y35980000D03*
X28800000Y30480000D03*
X28800000Y27480000D03*
X24300000Y25980000D03*
X26550000Y27980000D03*
X26800000Y25230000D03*
X24550000Y23230000D03*
X22050000Y26230000D03*
X22050000Y24230000D03*
X19800000Y17230000D03*
X21800000Y18230000D03*
X19300000Y15230000D03*
X15800000Y16730000D03*
X16000000Y13730000D03*
X16800000Y9730000D03*
X16300000Y6230000D03*
X17800000Y7230000D03*
X8800000Y-270000D03*
X21800000Y230000D03*
X16300000Y230000D03*
X26800000Y6730000D03*
X29800000Y2230000D03*
X31300000Y730000D03*
X27500000Y4730000D03*
X33300000Y11730000D03*
X36300000Y14230000D03*
X36300000Y17230000D03*
X38750000Y19730000D03*
X36300000Y20230000D03*
X41300000Y23730000D03*
X38800000Y23730000D03*
X29300000Y17730000D03*
X29300000Y20730000D03*
X45800000Y26730000D03*
X44300000Y22230000D03*
X44300000Y25230000D03*
X32800000Y20730000D03*
X32800000Y17730000D03*
X50800000Y10230000D03*
X50800000Y13230000D03*
X40800000Y2730000D03*
X40800000Y5730000D03*
X51800000Y1230000D03*
X51800000Y-1770000D03*
X49300000Y-1770000D03*
X49300000Y1230000D03*
X21800000Y-7770000D03*
X14300000Y-7770000D03*
X12300000Y-5770000D03*
X18800000Y-2270000D03*
X30800000Y-3270000D03*
X30800000Y-6270000D03*
X2800000Y-4270000D03*
X2800000Y-1270000D03*
X4290000Y13980000D03*
X4320000Y11400000D03*
X4300000Y26230000D03*
X4300000Y23230000D03*
X4300000Y16230000D03*
X4300000Y19230000D03*
X4300000Y33730000D03*
X4300000Y30730000D03*
X4300000Y37730000D03*
X4300000Y40730000D03*
X11300000Y6730000D03*
X8800000Y7230000D03*
X8300000Y10230000D03*
X12800000Y12730000D03*
X9300000Y13730000D03*
X10800000Y15230000D03*
X13300000Y15730000D03*
X17300000Y18730000D03*
X17800000Y21230000D03*
X19800000Y22730000D03*
X16800000Y22730000D03*
X16800000Y24730000D03*
X19800000Y24730000D03*
X19800000Y26730000D03*
X16800000Y26730000D03*
X14300000Y26730000D03*
X12800000Y21230000D03*
X14300000Y19730000D03*
X10300000Y31230000D03*
X10300000Y34230000D03*
X10300000Y27730000D03*
X10300000Y24730000D03*
X10300000Y18730000D03*
X10300000Y21730000D03*
X7300000Y21730000D03*
X7300000Y18730000D03*
X7300000Y24730000D03*
X7300000Y27730000D03*
X7300000Y34230000D03*
X7300000Y31230000D03*
X10050000Y50030000D03*
X12150000Y47780000D03*
X13350000Y44480000D03*
X13450000Y40930000D03*
X15600000Y43780000D03*
X17100000Y37780000D03*
X10100000Y42280000D03*
X10100000Y40280000D03*
X10100000Y37780000D03*
X10100000Y36280000D03*
X6600000Y38280000D03*
X7100000Y43780000D03*
X7100000Y40780000D03*
X5600000Y45780000D03*
X10100000Y44280000D03*
X10100000Y47280000D03*
X7100000Y51280000D03*
X7100000Y48280000D03*
X18100000Y45280000D03*
X19600000Y44280000D03*
X16050000Y45830000D03*
X18100000Y47280000D03*
X16100000Y47280000D03*
X22100000Y49780000D03*
X9100000Y53780000D03*
X16600000Y53780000D03*
X24600000Y44780000D03*
X24600000Y41780000D03*
X29100000Y46280000D03*
X29100000Y43280000D03*
X29100000Y51280000D03*
X29100000Y48280000D03*
X24600000Y49780000D03*
X24600000Y46780000D03*
X36600000Y57780000D03*
X36600000Y54780000D03*
X26600000Y54780000D03*
X26600000Y57780000D03*
X21600000Y57780000D03*
X21600000Y54780000D03*
X5600000Y54780000D03*
X5600000Y57780000D03*
D12*
X25480000Y1780000D03*
D13*
X22940000Y1780000D03*
X20400000Y1780000D03*
X17860000Y1780000D03*
X15320000Y1780000D03*
X12780000Y1780000D03*
X10240000Y1780000D03*
X7700000Y1780000D03*
X5160000Y1780000D03*
X2620000Y1780000D03*
D14*
X35470000Y4165000D03*
D15*
X35470000Y1625000D03*
X35470000Y-915000D03*
X35470000Y-3455000D03*
D11*
X46600000Y41530000D03*
D16*
X50830000Y26680000D03*
X50830000Y29220000D03*
X50830000Y41920000D03*
X50830000Y44460000D03*
X50830000Y47000000D03*
X50830000Y49540000D03*
X50830000Y52080000D03*
X50830000Y54620000D03*
X2570000Y15250000D03*
X2570000Y49540000D03*
X2570000Y47000000D03*
X2570000Y44460000D03*
X2570000Y41920000D03*
X2570000Y39380000D03*
X2570000Y36840000D03*
X2570000Y33030000D03*
X2570000Y30490000D03*
X2570000Y27950000D03*
X2570000Y25410000D03*
X2570000Y22870000D03*
X2570000Y20330000D03*
X50830000Y31760000D03*
X50830000Y34300000D03*
X2570000Y17790000D03*
X50830000Y24140000D03*
X2570000Y54620000D03*
X2570000Y52080000D03*
X50830000Y36840000D03*
X2570000Y12710000D03*
X2570000Y10170000D03*
X50830000Y21600000D03*
X50830000Y19060000D03*
D17*
X8838000Y57240000D03*
X14362000Y57240000D03*
D18*
X10500000Y11240000D03*
X10500000Y12120000D03*
X13850000Y49780000D03*
X15600000Y40080000D03*
X22890000Y9480000D03*
X22690000Y14550000D03*
X43155000Y33332500D03*
X43155000Y32607500D03*
X42505000Y33332500D03*
X41310000Y30560000D03*
X42505000Y32607500D03*
X22880000Y10970000D03*
X21370000Y10870000D03*
X21370000Y9420000D03*
D19*
X39800000Y19680000D03*
X27850000Y5830000D03*
X16300000Y-7120000D03*
X27850000Y16180000D03*
X44400000Y14655000D03*
X12950000Y9430000D03*
X21820000Y13930000D03*
X16200000Y12680000D03*
X36850000Y9680000D03*
X10600000Y-920000D03*
X23200000Y30980000D03*
X11050000Y8680000D03*
X28750000Y-3270000D03*
D18*
X50200000Y2580000D03*
X46800000Y530000D03*
X31450000Y52730000D03*
X48750000Y18980000D03*
X41500000Y25280000D03*
D19*
X38650000Y28230000D03*
X14400000Y44830000D03*
D18*
X43600000Y47330000D03*
X42700000Y47430000D03*
X38700000Y47430000D03*
X34700000Y47380000D03*
X23850000Y13630000D03*
X35450000Y18230000D03*
X39750000Y12580000D03*
X25250000Y12880000D03*
X13800000Y38180000D03*
X13700000Y39130000D03*
X37550000Y41280000D03*
X25800000Y12080000D03*
X41500000Y41280000D03*
X26750000Y8180000D03*
X26150000Y7380000D03*
X45650000Y41280000D03*
X47960000Y48190000D03*
X47960000Y35490000D03*
X14100000Y-4770000D03*
X13750000Y47830000D03*
X14100000Y-3470000D03*
X14550000Y47730000D03*
D20*
X10500000Y11240000D02*
X9490000Y10230000D01*
X9490000Y10230000D02*
X8300000Y10230000D01*
X10500000Y12120000D02*
X10800000Y12420000D01*
X10800000Y12420000D02*
X10800000Y15230000D01*
D21*
X22690000Y14550000D02*
X22730000Y14590000D01*
X43155000Y33332500D02*
X42505000Y33332500D01*
X43155000Y32607500D02*
X42505000Y32607500D01*
X42505000Y33332500D02*
X42505000Y32607500D01*
X41310000Y32250000D02*
X41310000Y30560000D01*
X42392500Y33332500D02*
X41310000Y32250000D01*
X42505000Y32607500D02*
X43972500Y32607500D01*
X43972500Y32607500D02*
X44370000Y32210000D01*
X44370000Y32230000D02*
X44370000Y32210000D01*
X21370000Y9520000D02*
X21370000Y9420000D01*
D22*
X16300000Y-7120000D02*
X23650000Y230000D01*
X23650000Y230000D02*
X25200000Y230000D01*
X25200000Y230000D02*
X25480000Y510000D01*
X25480000Y510000D02*
X25480000Y1780000D01*
D23*
X42550000Y2580000D02*
X43020000Y2110000D01*
X40965000Y4165000D02*
X42550000Y2580000D01*
X40965000Y4165000D02*
X35470000Y4165000D01*
X47560000Y2580000D02*
X50200000Y2580000D01*
X47090000Y2110000D02*
X47560000Y2580000D01*
X43020000Y2110000D02*
X47090000Y2110000D01*
X41445000Y530000D02*
X40000000Y-915000D01*
X46800000Y530000D02*
X41445000Y530000D01*
D21*
X40055000Y-915000D02*
X40000000Y-915000D01*
D23*
X40000000Y-915000D02*
X35470000Y-915000D01*
D22*
X2570000Y49540000D02*
X3910000Y49540000D01*
X7100000Y52730000D02*
X31450000Y52730000D01*
X3910000Y49540000D02*
X7100000Y52730000D01*
D21*
X48750000Y44940000D02*
X48750000Y18980000D01*
X50800000Y46990000D02*
X48750000Y44940000D01*
D22*
X2570000Y47000000D02*
X4270000Y47000000D01*
X32600000Y25280000D02*
X41500000Y25280000D01*
X29550000Y28330000D02*
X32600000Y25280000D01*
X29550000Y38130000D02*
X29550000Y28330000D01*
X19150000Y48530000D02*
X29550000Y38130000D01*
X12700000Y48530000D02*
X19150000Y48530000D01*
X12200000Y49030000D02*
X12700000Y48530000D01*
X6300000Y49030000D02*
X12200000Y49030000D01*
X4270000Y47000000D02*
X6300000Y49030000D01*
D21*
X43600000Y47390000D02*
X50830000Y54620000D01*
X43600000Y47330000D02*
X43600000Y47390000D01*
X23850000Y13630000D02*
X30975000Y13630000D01*
X30975000Y13630000D02*
X31005000Y13660000D01*
X31005000Y13660000D02*
X35450000Y18105000D01*
X35450000Y18105000D02*
X35450000Y18230000D01*
X39450000Y12880000D02*
X39750000Y12580000D01*
X25250000Y12880000D02*
X39450000Y12880000D01*
X12780000Y1780000D02*
X6403862Y8156138D01*
X13400000Y38580000D02*
X13800000Y38180000D01*
X8971148Y38580000D02*
X13400000Y38580000D01*
X6403862Y36012714D02*
X8971148Y38580000D01*
X6403862Y8156138D02*
X6403862Y36012714D01*
X6000000Y6020000D02*
X10240000Y1780000D01*
X6000000Y36180000D02*
X6000000Y6020000D01*
X8950000Y39130000D02*
X6000000Y36180000D01*
X13700000Y39130000D02*
X8950000Y39130000D01*
X39150000Y41280000D02*
X37550000Y41280000D01*
X46750000Y33680000D02*
X39150000Y41280000D01*
X46750000Y12730000D02*
X46750000Y33680000D01*
X42750000Y8730000D02*
X46750000Y12730000D01*
X29150000Y8730000D02*
X42750000Y8730000D01*
X25800000Y12080000D02*
X29150000Y8730000D01*
X41500000Y39880000D02*
X41500000Y41280000D01*
X47250000Y34130000D02*
X41500000Y39880000D01*
X47250000Y12380000D02*
X47250000Y34130000D01*
X43050000Y8180000D02*
X47250000Y12380000D01*
X26750000Y8180000D02*
X43050000Y8180000D01*
X47700000Y12030000D02*
X47700000Y34430000D01*
X26150000Y7380000D02*
X26300000Y7530000D01*
X26300000Y7530000D02*
X43200000Y7530000D01*
X43200000Y7530000D02*
X47700000Y12030000D01*
X47000000Y39930000D02*
X45650000Y41280000D01*
X47000000Y35130000D02*
X47000000Y39930000D01*
X47700000Y34430000D02*
X47000000Y35130000D01*
X8750000Y-4770000D02*
X14100000Y-4770000D01*
X3900000Y80000D02*
X8750000Y-4770000D01*
X3900000Y3080000D02*
X3900000Y80000D01*
X5192276Y4372276D02*
X3900000Y3080000D01*
X5192276Y43793424D02*
X5192276Y4372276D01*
X7532714Y46133862D02*
X5192276Y43793424D01*
X12053862Y46133862D02*
X7532714Y46133862D01*
X13750000Y47830000D02*
X12053862Y46133862D01*
X9900000Y-3470000D02*
X14100000Y-3470000D01*
X6400000Y30000D02*
X9900000Y-3470000D01*
X6400000Y2730000D02*
X6400000Y30000D01*
X5596138Y3533862D02*
X6400000Y2730000D01*
X5596138Y43626138D02*
X5596138Y3533862D01*
X7700000Y45730000D02*
X5596138Y43626138D01*
X12550000Y45730000D02*
X7700000Y45730000D01*
X14550000Y47730000D02*
X12550000Y45730000D01*
D24*
G36*
X7230000Y57546000D02*
X7382000Y57394000D01*
X8684000Y57394000D01*
X8684000Y57414000D01*
X8992000Y57414000D01*
X8992000Y57394000D01*
X10294000Y57394000D01*
X10446000Y57546000D01*
X10446000Y59139500D01*
X12754000Y59139500D01*
X12754000Y57546000D01*
X12906000Y57394000D01*
X14208000Y57394000D01*
X14208000Y57414000D01*
X14516000Y57414000D01*
X14516000Y57394000D01*
X14536000Y57394000D01*
X14536000Y57086000D01*
X14516000Y57086000D01*
X14516000Y54752000D01*
X14668000Y54600000D01*
X15482939Y54600000D01*
X15706405Y54692563D01*
X15877438Y54863596D01*
X15970000Y55087062D01*
X15970000Y56126091D01*
X16033669Y55972000D01*
X16623893Y55380745D01*
X17395452Y55060366D01*
X18230883Y55059637D01*
X19003000Y55378669D01*
X19594255Y55968893D01*
X19914634Y56740452D01*
X19915363Y57575883D01*
X19596331Y58348000D01*
X19006107Y58939255D01*
X18523863Y59139500D01*
X45034505Y59139500D01*
X44567000Y58946331D01*
X43975745Y58356107D01*
X43655366Y57584548D01*
X43654637Y56749117D01*
X43973669Y55977000D01*
X44563893Y55385745D01*
X45335452Y55065366D01*
X46170883Y55064637D01*
X46943000Y55383669D01*
X47534255Y55973893D01*
X47854634Y56745452D01*
X47855363Y57580883D01*
X47536331Y58353000D01*
X46946107Y58944255D01*
X46475904Y59139500D01*
X48076118Y59139500D01*
X50467809Y56747808D01*
X50643160Y56630643D01*
X50850000Y56589500D01*
X52809500Y56589500D01*
X52809500Y5803394D01*
X52611331Y6283000D01*
X52021107Y6874255D01*
X51249548Y7194634D01*
X50414117Y7195363D01*
X49642000Y6876331D01*
X49050745Y6286107D01*
X48730366Y5514548D01*
X48729637Y4679117D01*
X49048669Y3907000D01*
X49638893Y3315745D01*
X49984823Y3172103D01*
X49881450Y3129390D01*
X47560000Y3129390D01*
X47349758Y3087570D01*
X47338429Y3080000D01*
X47171522Y2968477D01*
X46862436Y2659390D01*
X43630287Y2659390D01*
X43878857Y2762097D01*
X44216717Y3099367D01*
X44399791Y3540258D01*
X44400207Y4017647D01*
X44217903Y4458857D01*
X43880633Y4796717D01*
X43439742Y4979791D01*
X42962353Y4980207D01*
X42521143Y4797903D01*
X42183283Y4460633D01*
X42000209Y4019742D01*
X42000111Y3906844D01*
X41353477Y4553477D01*
X41175243Y4672570D01*
X41140361Y4679508D01*
X40965000Y4714390D01*
X36676856Y4714390D01*
X36676856Y5015000D01*
X36652451Y5144702D01*
X36575797Y5263825D01*
X36458837Y5343741D01*
X36320000Y5371856D01*
X34620000Y5371856D01*
X34490298Y5347451D01*
X34371175Y5270797D01*
X34291259Y5153837D01*
X34263144Y5015000D01*
X34263144Y3315000D01*
X34287549Y3185298D01*
X34364203Y3066175D01*
X34481163Y2986259D01*
X34620000Y2958144D01*
X36320000Y2958144D01*
X36449702Y2982549D01*
X36568825Y3059203D01*
X36648741Y3176163D01*
X36676856Y3315000D01*
X36676856Y3615610D01*
X40737436Y3615610D01*
X42161522Y2191523D01*
X42161525Y2191521D01*
X42631522Y1721523D01*
X42750615Y1641948D01*
X42809758Y1602430D01*
X43020000Y1560610D01*
X47090000Y1560610D01*
X47292239Y1600838D01*
X47300243Y1602430D01*
X47478477Y1721523D01*
X47787565Y2030610D01*
X49881834Y2030610D01*
X50074255Y1950709D01*
X50324646Y1950491D01*
X50556061Y2046109D01*
X50733268Y2223008D01*
X50829291Y2454255D01*
X50829509Y2704646D01*
X50733891Y2936061D01*
X50674919Y2995135D01*
X51245883Y2994637D01*
X52018000Y3313669D01*
X52609255Y3903893D01*
X52809500Y4386137D01*
X52809500Y-8354500D01*
X590500Y-8354500D01*
X590500Y-7264371D01*
X15570874Y-7264371D01*
X15681623Y-7532406D01*
X15886515Y-7737656D01*
X16154357Y-7848873D01*
X16444371Y-7849126D01*
X16712406Y-7738377D01*
X16917656Y-7533485D01*
X17028873Y-7265643D01*
X17029046Y-7067598D01*
X20682273Y-3414371D01*
X28020874Y-3414371D01*
X28131623Y-3682406D01*
X28336515Y-3887656D01*
X28604357Y-3998873D01*
X28894371Y-3999126D01*
X29162406Y-3888377D01*
X29216968Y-3833910D01*
X34062097Y-3833910D01*
X34206523Y-4182616D01*
X34581146Y-4610741D01*
X35091089Y-4862915D01*
X35316000Y-4752856D01*
X35316000Y-3609000D01*
X35624000Y-3609000D01*
X35624000Y-4752856D01*
X35848911Y-4862915D01*
X36358854Y-4610741D01*
X36733477Y-4182616D01*
X36877903Y-3833910D01*
X36766889Y-3609000D01*
X35624000Y-3609000D01*
X35316000Y-3609000D01*
X34173111Y-3609000D01*
X34062097Y-3833910D01*
X29216968Y-3833910D01*
X29367656Y-3683485D01*
X29461431Y-3457647D01*
X41999793Y-3457647D01*
X42182097Y-3898857D01*
X42519367Y-4236717D01*
X42960258Y-4419791D01*
X43437647Y-4420207D01*
X43878857Y-4237903D01*
X44216717Y-3900633D01*
X44399791Y-3459742D01*
X44400207Y-2982353D01*
X44217903Y-2541143D01*
X43880633Y-2203283D01*
X43439742Y-2020209D01*
X42962353Y-2019793D01*
X42521143Y-2202097D01*
X42183283Y-2539367D01*
X42000209Y-2980258D01*
X41999793Y-3457647D01*
X29461431Y-3457647D01*
X29478873Y-3415643D01*
X29479126Y-3125629D01*
X29458658Y-3076090D01*
X34062097Y-3076090D01*
X34173111Y-3301000D01*
X35316000Y-3301000D01*
X35316000Y-3281000D01*
X35624000Y-3281000D01*
X35624000Y-3301000D01*
X36766889Y-3301000D01*
X36877903Y-3076090D01*
X36733477Y-2727384D01*
X36358854Y-2299259D01*
X35848911Y-2047085D01*
X35624002Y-2157143D01*
X35624002Y-2089043D01*
X35952729Y-2023655D01*
X36342037Y-1763528D01*
X36541914Y-1464390D01*
X40000000Y-1464390D01*
X40175361Y-1429508D01*
X40210243Y-1422570D01*
X40388477Y-1303477D01*
X41672565Y-19390D01*
X46481834Y-19390D01*
X46674255Y-99291D01*
X46924646Y-99509D01*
X47156061Y-3891D01*
X47333268Y173008D01*
X47429291Y404255D01*
X47429509Y654646D01*
X47333891Y886061D01*
X47156992Y1063268D01*
X46925745Y1159291D01*
X46675354Y1159509D01*
X46481450Y1079390D01*
X41445000Y1079390D01*
X41234758Y1037570D01*
X41056523Y918478D01*
X39772436Y-365610D01*
X36541914Y-365610D01*
X36342037Y-66472D01*
X35952729Y193655D01*
X35493509Y285000D01*
X35446491Y285000D01*
X34987271Y193655D01*
X34597963Y-66472D01*
X34337836Y-455780D01*
X34246491Y-915000D01*
X34337836Y-1374220D01*
X34597963Y-1763528D01*
X34987271Y-2023655D01*
X35315998Y-2089043D01*
X35315998Y-2157143D01*
X35091089Y-2047085D01*
X34581146Y-2299259D01*
X34206523Y-2727384D01*
X34062097Y-3076090D01*
X29458658Y-3076090D01*
X29368377Y-2857594D01*
X29163485Y-2652344D01*
X28895643Y-2541127D01*
X28605629Y-2540874D01*
X28337594Y-2651623D01*
X28132344Y-2856515D01*
X28021127Y-3124357D01*
X28020874Y-3414371D01*
X20682273Y-3414371D01*
X23848185Y-248460D01*
X25200000Y-248460D01*
X25383099Y-212039D01*
X25538322Y-108322D01*
X25818322Y171678D01*
X25839130Y202820D01*
X25922039Y326901D01*
X25937189Y403065D01*
X26343600Y403065D01*
X26474784Y427749D01*
X26595269Y505279D01*
X26676098Y623576D01*
X26704535Y764000D01*
X26704535Y1625000D01*
X34246491Y1625000D01*
X34337836Y1165780D01*
X34597963Y776472D01*
X34987271Y516345D01*
X35446491Y425000D01*
X35493509Y425000D01*
X35952729Y516345D01*
X36342037Y776472D01*
X36602164Y1165780D01*
X36693509Y1625000D01*
X36602164Y2084220D01*
X36342037Y2473528D01*
X35952729Y2733655D01*
X35493509Y2825000D01*
X35446491Y2825000D01*
X34987271Y2733655D01*
X34597963Y2473528D01*
X34337836Y2084220D01*
X34246491Y1625000D01*
X26704535Y1625000D01*
X26704535Y2796000D01*
X26679851Y2927184D01*
X26602321Y3047669D01*
X26484024Y3128498D01*
X26343600Y3156935D01*
X24616400Y3156935D01*
X24485216Y3132251D01*
X24364731Y3054721D01*
X24283902Y2936424D01*
X24255465Y2796000D01*
X24255465Y764000D01*
X24265916Y708460D01*
X23746912Y708460D01*
X23798145Y742693D01*
X24061220Y1136413D01*
X24153600Y1600838D01*
X24153600Y1959162D01*
X24061220Y2423587D01*
X23798145Y2817307D01*
X23404425Y3080382D01*
X22940000Y3172762D01*
X22475575Y3080382D01*
X22081855Y2817307D01*
X21818780Y2423587D01*
X21726400Y1959162D01*
X21726400Y1600838D01*
X21818780Y1136413D01*
X22081855Y742693D01*
X22475575Y479618D01*
X22940000Y387238D01*
X23177918Y434563D01*
X16352310Y-6391046D01*
X16155629Y-6390874D01*
X15887594Y-6501623D01*
X15682344Y-6706515D01*
X15571127Y-6974357D01*
X15570874Y-7264371D01*
X590500Y-7264371D01*
X590500Y1395824D01*
X1166851Y1395824D01*
X1366162Y857371D01*
X1756359Y436178D01*
X2238951Y206189D01*
X2466000Y317017D01*
X2466000Y1626000D01*
X1300484Y1626000D01*
X1166851Y1395824D01*
X590500Y1395824D01*
X590500Y2164176D01*
X1166851Y2164176D01*
X1300484Y1934000D01*
X2466000Y1934000D01*
X2466000Y3242983D01*
X2238951Y3353811D01*
X1756359Y3123822D01*
X1366162Y2702629D01*
X1166851Y2164176D01*
X590500Y2164176D01*
X590500Y5651606D01*
X788669Y5172000D01*
X1378893Y4580745D01*
X2150452Y4260366D01*
X2985883Y4259637D01*
X3758000Y4578669D01*
X4349255Y5168893D01*
X4669634Y5940452D01*
X4670363Y6775883D01*
X4351331Y7548000D01*
X3761107Y8139255D01*
X2989548Y8459634D01*
X2154117Y8460363D01*
X1382000Y8141331D01*
X790745Y7551107D01*
X590500Y7068863D01*
X590500Y32774568D01*
X1279976Y32774568D01*
X1475923Y32300341D01*
X1838433Y31937198D01*
X2265638Y31759807D01*
X1840341Y31584077D01*
X1477198Y31221567D01*
X1280424Y30747683D01*
X1279976Y30234568D01*
X1475923Y29760341D01*
X1838433Y29397198D01*
X2265638Y29219807D01*
X1840341Y29044077D01*
X1477198Y28681567D01*
X1280424Y28207683D01*
X1279976Y27694568D01*
X1475923Y27220341D01*
X1838433Y26857198D01*
X2265638Y26679807D01*
X1840341Y26504077D01*
X1477198Y26141567D01*
X1280424Y25667683D01*
X1279976Y25154568D01*
X1475923Y24680341D01*
X1838433Y24317198D01*
X2265638Y24139807D01*
X1840341Y23964077D01*
X1477198Y23601567D01*
X1280424Y23127683D01*
X1279976Y22614568D01*
X1475923Y22140341D01*
X1838433Y21777198D01*
X2265638Y21599807D01*
X1840341Y21424077D01*
X1477198Y21061567D01*
X1280424Y20587683D01*
X1279976Y20074568D01*
X1475923Y19600341D01*
X1838433Y19237198D01*
X2265638Y19059807D01*
X1840341Y18884077D01*
X1477198Y18521567D01*
X1280424Y18047683D01*
X1279976Y17534568D01*
X1475923Y17060341D01*
X1838433Y16697198D01*
X2265638Y16519807D01*
X1840341Y16344077D01*
X1477198Y15981567D01*
X1280424Y15507683D01*
X1279976Y14994568D01*
X1475923Y14520341D01*
X1838433Y14157198D01*
X2265638Y13979807D01*
X1840341Y13804077D01*
X1477198Y13441567D01*
X1280424Y12967683D01*
X1279976Y12454568D01*
X1475923Y11980341D01*
X1838433Y11617198D01*
X2265638Y11439807D01*
X1840341Y11264077D01*
X1477198Y10901567D01*
X1280424Y10427683D01*
X1279976Y9914568D01*
X1475923Y9440341D01*
X1838433Y9077198D01*
X2312317Y8880424D01*
X2825432Y8879976D01*
X3299659Y9075923D01*
X3662802Y9438433D01*
X3859576Y9912317D01*
X3860024Y10425432D01*
X3664077Y10899659D01*
X3301567Y11262802D01*
X2874362Y11440193D01*
X3299659Y11615923D01*
X3662802Y11978433D01*
X3859576Y12452317D01*
X3860024Y12965432D01*
X3664077Y13439659D01*
X3301567Y13802802D01*
X2874362Y13980193D01*
X3299659Y14155923D01*
X3662802Y14518433D01*
X3859576Y14992317D01*
X3860024Y15505432D01*
X3664077Y15979659D01*
X3301567Y16342802D01*
X2874362Y16520193D01*
X3299659Y16695923D01*
X3662802Y17058433D01*
X3859576Y17532317D01*
X3860024Y18045432D01*
X3664077Y18519659D01*
X3301567Y18882802D01*
X2874362Y19060193D01*
X3299659Y19235923D01*
X3662802Y19598433D01*
X3859576Y20072317D01*
X3860024Y20585432D01*
X3664077Y21059659D01*
X3301567Y21422802D01*
X2874362Y21600193D01*
X3299659Y21775923D01*
X3662802Y22138433D01*
X3859576Y22612317D01*
X3860024Y23125432D01*
X3664077Y23599659D01*
X3301567Y23962802D01*
X2874362Y24140193D01*
X3299659Y24315923D01*
X3662802Y24678433D01*
X3859576Y25152317D01*
X3860024Y25665432D01*
X3664077Y26139659D01*
X3301567Y26502802D01*
X2874362Y26680193D01*
X3299659Y26855923D01*
X3662802Y27218433D01*
X3859576Y27692317D01*
X3860024Y28205432D01*
X3664077Y28679659D01*
X3301567Y29042802D01*
X2874362Y29220193D01*
X3299659Y29395923D01*
X3662802Y29758433D01*
X3859576Y30232317D01*
X3860024Y30745432D01*
X3664077Y31219659D01*
X3301567Y31582802D01*
X2874362Y31760193D01*
X3299659Y31935923D01*
X3662802Y32298433D01*
X3859576Y32772317D01*
X3860024Y33285432D01*
X3664077Y33759659D01*
X3301567Y34122802D01*
X2827683Y34319576D01*
X2314568Y34320024D01*
X1840341Y34124077D01*
X1477198Y33761567D01*
X1280424Y33287683D01*
X1279976Y32774568D01*
X590500Y32774568D01*
X590500Y54364568D01*
X1279976Y54364568D01*
X1475923Y53890341D01*
X1838433Y53527198D01*
X2265638Y53349807D01*
X1840341Y53174077D01*
X1477198Y52811567D01*
X1280424Y52337683D01*
X1279976Y51824568D01*
X1475923Y51350341D01*
X1838433Y50987198D01*
X2265638Y50809807D01*
X1840341Y50634077D01*
X1477198Y50271567D01*
X1280424Y49797683D01*
X1279976Y49284568D01*
X1475923Y48810341D01*
X1838433Y48447198D01*
X2265638Y48269807D01*
X1840341Y48094077D01*
X1477198Y47731567D01*
X1280424Y47257683D01*
X1279976Y46744568D01*
X1475923Y46270341D01*
X1838433Y45907198D01*
X2265638Y45729807D01*
X1840341Y45554077D01*
X1477198Y45191567D01*
X1280424Y44717683D01*
X1279976Y44204568D01*
X1475923Y43730341D01*
X1838433Y43367198D01*
X2265638Y43189807D01*
X1840341Y43014077D01*
X1477198Y42651567D01*
X1280424Y42177683D01*
X1279976Y41664568D01*
X1475923Y41190341D01*
X1838433Y40827198D01*
X2265638Y40649807D01*
X1840341Y40474077D01*
X1477198Y40111567D01*
X1280424Y39637683D01*
X1279976Y39124568D01*
X1475923Y38650341D01*
X1838433Y38287198D01*
X2265638Y38109807D01*
X1840341Y37934077D01*
X1477198Y37571567D01*
X1280424Y37097683D01*
X1279976Y36584568D01*
X1475923Y36110341D01*
X1838433Y35747198D01*
X2312317Y35550424D01*
X2825432Y35549976D01*
X3299659Y35745923D01*
X3662802Y36108433D01*
X3859576Y36582317D01*
X3860024Y37095432D01*
X3664077Y37569659D01*
X3301567Y37932802D01*
X2874362Y38110193D01*
X3299659Y38285923D01*
X3662802Y38648433D01*
X3859576Y39122317D01*
X3860024Y39635432D01*
X3664077Y40109659D01*
X3301567Y40472802D01*
X2874362Y40650193D01*
X3299659Y40825923D01*
X3662802Y41188433D01*
X3859576Y41662317D01*
X3860024Y42175432D01*
X3664077Y42649659D01*
X3301567Y43012802D01*
X2874362Y43190193D01*
X3299659Y43365923D01*
X3662802Y43728433D01*
X3859576Y44202317D01*
X3860024Y44715432D01*
X3664077Y45189659D01*
X3301567Y45552802D01*
X2874362Y45730193D01*
X3299659Y45905923D01*
X3662802Y46268433D01*
X3769562Y46525540D01*
X4270000Y46525540D01*
X4451568Y46561656D01*
X4605494Y46664506D01*
X6496528Y48555540D01*
X12003472Y48555540D01*
X12364506Y48194506D01*
X12518432Y48091656D01*
X12700000Y48055540D01*
X13162148Y48055540D01*
X13120709Y47955745D01*
X13120608Y47839266D01*
X11866804Y46585462D01*
X7532714Y46585462D01*
X7359894Y46551086D01*
X7213384Y46453191D01*
X4872947Y44112753D01*
X4775052Y43966244D01*
X4740676Y43793424D01*
X4740676Y4559335D01*
X3580671Y3399329D01*
X3482776Y3252820D01*
X3459413Y3135368D01*
X3001049Y3353811D01*
X2774000Y3242983D01*
X2774000Y1934000D01*
X2794000Y1934000D01*
X2794000Y1626000D01*
X2774000Y1626000D01*
X2774000Y317017D01*
X3001049Y206189D01*
X3448400Y419383D01*
X3448400Y80000D01*
X3465087Y-3891D01*
X3482776Y-92820D01*
X3580671Y-239329D01*
X8430671Y-5089330D01*
X8577180Y-5187224D01*
X8750000Y-5221600D01*
X13661482Y-5221600D01*
X13743008Y-5303268D01*
X13974255Y-5399291D01*
X14224646Y-5399509D01*
X14456061Y-5303891D01*
X14633268Y-5126992D01*
X14729291Y-4895745D01*
X14729509Y-4645354D01*
X14633891Y-4413939D01*
X14456992Y-4236732D01*
X14225745Y-4140709D01*
X13975354Y-4140491D01*
X13743939Y-4236109D01*
X13661505Y-4318400D01*
X8937059Y-4318400D01*
X4351600Y267058D01*
X4351600Y709454D01*
X4695575Y479618D01*
X5160000Y387238D01*
X5624425Y479618D01*
X5948400Y696091D01*
X5948400Y30000D01*
X5974118Y-99291D01*
X5982776Y-142820D01*
X6080671Y-289329D01*
X9580670Y-3789329D01*
X9727180Y-3887224D01*
X9900000Y-3921600D01*
X13661482Y-3921600D01*
X13743008Y-4003268D01*
X13974255Y-4099291D01*
X14224646Y-4099509D01*
X14456061Y-4003891D01*
X14633268Y-3826992D01*
X14729291Y-3595745D01*
X14729509Y-3345354D01*
X14633891Y-3113939D01*
X14456992Y-2936732D01*
X14225745Y-2840709D01*
X13975354Y-2840491D01*
X13743939Y-2936109D01*
X13661505Y-3018400D01*
X10087059Y-3018400D01*
X8133030Y-1064371D01*
X9870874Y-1064371D01*
X9981623Y-1332406D01*
X10186515Y-1537656D01*
X10454357Y-1648873D01*
X10744371Y-1649126D01*
X11012406Y-1538377D01*
X11217656Y-1333485D01*
X11328873Y-1065643D01*
X11329126Y-775629D01*
X11218377Y-507594D01*
X11013485Y-302344D01*
X10745643Y-191127D01*
X10455629Y-190874D01*
X10187594Y-301623D01*
X9982344Y-506515D01*
X9871127Y-774357D01*
X9870874Y-1064371D01*
X8133030Y-1064371D01*
X6851600Y217058D01*
X6851600Y736182D01*
X7235575Y479618D01*
X7700000Y387238D01*
X8164425Y479618D01*
X8558145Y742693D01*
X8821220Y1136413D01*
X8913600Y1600838D01*
X8913600Y1959162D01*
X8821220Y2423587D01*
X8558145Y2817307D01*
X8164425Y3080382D01*
X7700000Y3172762D01*
X7235575Y3080382D01*
X6841855Y2817307D01*
X6835982Y2808517D01*
X6817224Y2902820D01*
X6773352Y2968478D01*
X6719330Y3049329D01*
X6047738Y3720920D01*
X6047738Y5333604D01*
X9092064Y2289277D01*
X9026400Y1959162D01*
X9026400Y1600838D01*
X9118780Y1136413D01*
X9381855Y742693D01*
X9775575Y479618D01*
X10240000Y387238D01*
X10704425Y479618D01*
X11098145Y742693D01*
X11361220Y1136413D01*
X11453600Y1600838D01*
X11453600Y1959162D01*
X11361220Y2423587D01*
X11098145Y2817307D01*
X10704425Y3080382D01*
X10240000Y3172762D01*
X9775575Y3080382D01*
X9657303Y3001355D01*
X6451600Y6207058D01*
X6451600Y7469742D01*
X11632064Y2289277D01*
X11566400Y1959162D01*
X11566400Y1600838D01*
X11658780Y1136413D01*
X11921855Y742693D01*
X12315575Y479618D01*
X12780000Y387238D01*
X13244425Y479618D01*
X13638145Y742693D01*
X13901220Y1136413D01*
X13993600Y1600838D01*
X13993600Y1959162D01*
X14106400Y1959162D01*
X14106400Y1600838D01*
X14198780Y1136413D01*
X14461855Y742693D01*
X14855575Y479618D01*
X15320000Y387238D01*
X15784425Y479618D01*
X16178145Y742693D01*
X16441220Y1136413D01*
X16533600Y1600838D01*
X16533600Y1959162D01*
X16646400Y1959162D01*
X16646400Y1600838D01*
X16738780Y1136413D01*
X17001855Y742693D01*
X17395575Y479618D01*
X17860000Y387238D01*
X18324425Y479618D01*
X18718145Y742693D01*
X18981220Y1136413D01*
X19073600Y1600838D01*
X19073600Y1959162D01*
X19186400Y1959162D01*
X19186400Y1600838D01*
X19278780Y1136413D01*
X19541855Y742693D01*
X19935575Y479618D01*
X20400000Y387238D01*
X20864425Y479618D01*
X21258145Y742693D01*
X21521220Y1136413D01*
X21613600Y1600838D01*
X21613600Y1959162D01*
X21521220Y2423587D01*
X21258145Y2817307D01*
X20864425Y3080382D01*
X20400000Y3172762D01*
X19935575Y3080382D01*
X19541855Y2817307D01*
X19278780Y2423587D01*
X19186400Y1959162D01*
X19073600Y1959162D01*
X18981220Y2423587D01*
X18718145Y2817307D01*
X18324425Y3080382D01*
X17860000Y3172762D01*
X17395575Y3080382D01*
X17001855Y2817307D01*
X16738780Y2423587D01*
X16646400Y1959162D01*
X16533600Y1959162D01*
X16441220Y2423587D01*
X16178145Y2817307D01*
X15784425Y3080382D01*
X15320000Y3172762D01*
X14855575Y3080382D01*
X14461855Y2817307D01*
X14198780Y2423587D01*
X14106400Y1959162D01*
X13993600Y1959162D01*
X13901220Y2423587D01*
X13638145Y2817307D01*
X13244425Y3080382D01*
X12780000Y3172762D01*
X12315575Y3080382D01*
X12197303Y3001356D01*
X9513030Y5685629D01*
X27120874Y5685629D01*
X27231623Y5417594D01*
X27436515Y5212344D01*
X27704357Y5101127D01*
X27994371Y5100874D01*
X28262406Y5211623D01*
X28467656Y5416515D01*
X28578873Y5684357D01*
X28579126Y5974371D01*
X28468377Y6242406D01*
X28263485Y6447656D01*
X27995643Y6558873D01*
X27705629Y6559126D01*
X27437594Y6448377D01*
X27232344Y6243485D01*
X27121127Y5975643D01*
X27120874Y5685629D01*
X9513030Y5685629D01*
X6855462Y8343196D01*
X6855462Y8535629D01*
X10320874Y8535629D01*
X10431623Y8267594D01*
X10636515Y8062344D01*
X10904357Y7951127D01*
X11194371Y7950874D01*
X11462406Y8061623D01*
X11667656Y8266515D01*
X11778873Y8534357D01*
X11779126Y8824371D01*
X11668377Y9092406D01*
X11475492Y9285629D01*
X12220874Y9285629D01*
X12331623Y9017594D01*
X12536515Y8812344D01*
X12804357Y8701127D01*
X13094371Y8700874D01*
X13362406Y8811623D01*
X13567656Y9016515D01*
X13678873Y9284357D01*
X13679126Y9574371D01*
X13568377Y9842406D01*
X13363485Y10047656D01*
X13095643Y10158873D01*
X12805629Y10159126D01*
X12537594Y10048377D01*
X12332344Y9843485D01*
X12221127Y9575643D01*
X12220874Y9285629D01*
X11475492Y9285629D01*
X11463485Y9297656D01*
X11195643Y9408873D01*
X10905629Y9409126D01*
X10637594Y9298377D01*
X10432344Y9093485D01*
X10321127Y8825643D01*
X10320874Y8535629D01*
X6855462Y8535629D01*
X6855462Y12535629D01*
X15470874Y12535629D01*
X15581623Y12267594D01*
X15786515Y12062344D01*
X16054357Y11951127D01*
X16344371Y11950874D01*
X16612406Y12061623D01*
X16817656Y12266515D01*
X16928873Y12534357D01*
X16929126Y12824371D01*
X16818377Y13092406D01*
X16613485Y13297656D01*
X16345643Y13408873D01*
X16055629Y13409126D01*
X15787594Y13298377D01*
X15582344Y13093485D01*
X15471127Y12825643D01*
X15470874Y12535629D01*
X6855462Y12535629D01*
X6855462Y13785629D01*
X21090874Y13785629D01*
X21201623Y13517594D01*
X21406515Y13312344D01*
X21674357Y13201127D01*
X21964371Y13200874D01*
X22232406Y13311623D01*
X22426475Y13505354D01*
X23220491Y13505354D01*
X23316109Y13273939D01*
X23493008Y13096732D01*
X23724255Y13000709D01*
X23974646Y13000491D01*
X24206061Y13096109D01*
X24288495Y13178400D01*
X24692402Y13178400D01*
X24620709Y13005745D01*
X24620491Y12755354D01*
X24716109Y12523939D01*
X24893008Y12346732D01*
X25124255Y12250709D01*
X25189356Y12250652D01*
X25170709Y12205745D01*
X25170491Y11955354D01*
X25266109Y11723939D01*
X25443008Y11546732D01*
X25674255Y11450709D01*
X25790734Y11450608D01*
X28609741Y8631600D01*
X27188518Y8631600D01*
X27106992Y8713268D01*
X26875745Y8809291D01*
X26625354Y8809509D01*
X26393939Y8713891D01*
X26216732Y8536992D01*
X26120709Y8305745D01*
X26120491Y8055354D01*
X26139475Y8009410D01*
X26025354Y8009509D01*
X25793939Y7913891D01*
X25616732Y7736992D01*
X25520709Y7505745D01*
X25520491Y7255354D01*
X25616109Y7023939D01*
X25793008Y6846732D01*
X26024255Y6750709D01*
X26274646Y6750491D01*
X26506061Y6846109D01*
X26683268Y7023008D01*
X26706269Y7078400D01*
X43200000Y7078400D01*
X43372820Y7112776D01*
X43519329Y7210671D01*
X48019329Y11710671D01*
X48117224Y11857180D01*
X48151600Y12030000D01*
X48151600Y18780064D01*
X48216109Y18623939D01*
X48393008Y18446732D01*
X48624255Y18350709D01*
X48874646Y18350491D01*
X49106061Y18446109D01*
X49283268Y18623008D01*
X49379291Y18854255D01*
X49379509Y19104646D01*
X49283891Y19336061D01*
X49201600Y19418495D01*
X49201600Y28964568D01*
X49539976Y28964568D01*
X49735923Y28490341D01*
X50098433Y28127198D01*
X50525638Y27949807D01*
X50100341Y27774077D01*
X49737198Y27411567D01*
X49540424Y26937683D01*
X49539976Y26424568D01*
X49735923Y25950341D01*
X50098433Y25587198D01*
X50525638Y25409807D01*
X50100341Y25234077D01*
X49737198Y24871567D01*
X49540424Y24397683D01*
X49539976Y23884568D01*
X49735923Y23410341D01*
X50098433Y23047198D01*
X50525638Y22869807D01*
X50100341Y22694077D01*
X49737198Y22331567D01*
X49540424Y21857683D01*
X49539976Y21344568D01*
X49735923Y20870341D01*
X50098433Y20507198D01*
X50525638Y20329807D01*
X50100341Y20154077D01*
X49737198Y19791567D01*
X49540424Y19317683D01*
X49539976Y18804568D01*
X49735923Y18330341D01*
X50098433Y17967198D01*
X50572317Y17770424D01*
X51085432Y17769976D01*
X51559659Y17965923D01*
X51922802Y18328433D01*
X52119576Y18802317D01*
X52120024Y19315432D01*
X51924077Y19789659D01*
X51561567Y20152802D01*
X51134362Y20330193D01*
X51559659Y20505923D01*
X51922802Y20868433D01*
X52119576Y21342317D01*
X52120024Y21855432D01*
X51924077Y22329659D01*
X51561567Y22692802D01*
X51134362Y22870193D01*
X51559659Y23045923D01*
X51922802Y23408433D01*
X52119576Y23882317D01*
X52120024Y24395432D01*
X51924077Y24869659D01*
X51561567Y25232802D01*
X51134362Y25410193D01*
X51559659Y25585923D01*
X51922802Y25948433D01*
X52119576Y26422317D01*
X52120024Y26935432D01*
X51924077Y27409659D01*
X51561567Y27772802D01*
X51134362Y27950193D01*
X51559659Y28125923D01*
X51922802Y28488433D01*
X52119576Y28962317D01*
X52120024Y29475432D01*
X51924077Y29949659D01*
X51561567Y30312802D01*
X51491297Y30341981D01*
X51628582Y30398846D01*
X51723630Y30648581D01*
X50830000Y31542211D01*
X49936370Y30648581D01*
X50031418Y30398846D01*
X50180340Y30347132D01*
X50100341Y30314077D01*
X49737198Y29951567D01*
X49540424Y29477683D01*
X49539976Y28964568D01*
X49201600Y28964568D01*
X49201600Y31976901D01*
X49266853Y31976901D01*
X49302837Y31362201D01*
X49468846Y30961418D01*
X49718581Y30866370D01*
X50612211Y31760000D01*
X51047789Y31760000D01*
X51941419Y30866370D01*
X52191154Y30961418D01*
X52393147Y31543099D01*
X52357163Y32157799D01*
X52191154Y32558582D01*
X51941419Y32653630D01*
X51047789Y31760000D01*
X50612211Y31760000D01*
X49718581Y32653630D01*
X49468846Y32558582D01*
X49266853Y31976901D01*
X49201600Y31976901D01*
X49201600Y33188581D01*
X49936370Y33188581D01*
X49996725Y33030000D01*
X49936370Y32871419D01*
X50830000Y31977789D01*
X51723630Y32871419D01*
X51663275Y33030000D01*
X51723630Y33188581D01*
X50830000Y34082211D01*
X49936370Y33188581D01*
X49201600Y33188581D01*
X49201600Y34516901D01*
X49266853Y34516901D01*
X49302837Y33902201D01*
X49468846Y33501418D01*
X49718581Y33406370D01*
X50612211Y34300000D01*
X51047789Y34300000D01*
X51941419Y33406370D01*
X52191154Y33501418D01*
X52393147Y34083099D01*
X52357163Y34697799D01*
X52191154Y35098582D01*
X51941419Y35193630D01*
X51047789Y34300000D01*
X50612211Y34300000D01*
X49718581Y35193630D01*
X49468846Y35098582D01*
X49266853Y34516901D01*
X49201600Y34516901D01*
X49201600Y36583776D01*
X49535976Y36583776D01*
X49732530Y36108079D01*
X50096164Y35743809D01*
X50163482Y35715856D01*
X50031418Y35661154D01*
X49936370Y35411419D01*
X50830000Y34517789D01*
X51723630Y35411419D01*
X51628582Y35661154D01*
X51485351Y35710892D01*
X51561921Y35742530D01*
X51926191Y36106164D01*
X52123575Y36581518D01*
X52124024Y37096224D01*
X51927470Y37571921D01*
X51563836Y37936191D01*
X51088482Y38133575D01*
X50573776Y38134024D01*
X50098079Y37937470D01*
X49733809Y37573836D01*
X49536425Y37098482D01*
X49535976Y36583776D01*
X49201600Y36583776D01*
X49201600Y44752942D01*
X50280327Y45831669D01*
X50525638Y45729807D01*
X50100341Y45554077D01*
X49737198Y45191567D01*
X49540424Y44717683D01*
X49539976Y44204568D01*
X49735923Y43730341D01*
X50098433Y43367198D01*
X50525638Y43189807D01*
X50100341Y43014077D01*
X49737198Y42651567D01*
X49540424Y42177683D01*
X49539976Y41664568D01*
X49735923Y41190341D01*
X50098433Y40827198D01*
X50572317Y40630424D01*
X51085432Y40629976D01*
X51559659Y40825923D01*
X51922802Y41188433D01*
X52119576Y41662317D01*
X52120024Y42175432D01*
X51924077Y42649659D01*
X51561567Y43012802D01*
X51134362Y43190193D01*
X51559659Y43365923D01*
X51922802Y43728433D01*
X52119576Y44202317D01*
X52120024Y44715432D01*
X51924077Y45189659D01*
X51561567Y45552802D01*
X51134362Y45730193D01*
X51559659Y45905923D01*
X51922802Y46268433D01*
X52119576Y46742317D01*
X52120024Y47255432D01*
X51924077Y47729659D01*
X51561567Y48092802D01*
X51134362Y48270193D01*
X51559659Y48445923D01*
X51922802Y48808433D01*
X52119576Y49282317D01*
X52120024Y49795432D01*
X51924077Y50269659D01*
X51561567Y50632802D01*
X51134362Y50810193D01*
X51559659Y50985923D01*
X51922802Y51348433D01*
X52119576Y51822317D01*
X52120024Y52335432D01*
X51924077Y52809659D01*
X51561567Y53172802D01*
X51134362Y53350193D01*
X51559659Y53525923D01*
X51922802Y53888433D01*
X52119576Y54362317D01*
X52120024Y54875432D01*
X51924077Y55349659D01*
X51561567Y55712802D01*
X51087683Y55909576D01*
X50574568Y55910024D01*
X50100341Y55714077D01*
X49737198Y55351567D01*
X49540424Y54877683D01*
X49539976Y54364568D01*
X49655740Y54084398D01*
X43530803Y47959461D01*
X43475354Y47959509D01*
X43243939Y47863891D01*
X43199991Y47820020D01*
X43056992Y47963268D01*
X42825745Y48059291D01*
X42575354Y48059509D01*
X42343939Y47963891D01*
X42166732Y47786992D01*
X42070709Y47555745D01*
X42070491Y47305354D01*
X42166109Y47073939D01*
X42343008Y46896732D01*
X42574255Y46800709D01*
X42824646Y46800491D01*
X43056061Y46896109D01*
X43100009Y46939980D01*
X43243008Y46796732D01*
X43474255Y46700709D01*
X43724646Y46700491D01*
X43956061Y46796109D01*
X44133268Y46973008D01*
X44229291Y47204255D01*
X44229445Y47380787D01*
X44914012Y48065354D01*
X47330491Y48065354D01*
X47426109Y47833939D01*
X47603008Y47656732D01*
X47834255Y47560709D01*
X48084646Y47560491D01*
X48316061Y47656109D01*
X48493268Y47833008D01*
X48589291Y48064255D01*
X48589509Y48314646D01*
X48493891Y48546061D01*
X48316992Y48723268D01*
X48085745Y48819291D01*
X47835354Y48819509D01*
X47603939Y48723891D01*
X47426732Y48546992D01*
X47330709Y48315745D01*
X47330491Y48065354D01*
X44914012Y48065354D01*
X50294459Y53445801D01*
X50525638Y53349807D01*
X50100341Y53174077D01*
X49737198Y52811567D01*
X49540424Y52337683D01*
X49539976Y51824568D01*
X49735923Y51350341D01*
X50098433Y50987198D01*
X50525638Y50809807D01*
X50100341Y50634077D01*
X49737198Y50271567D01*
X49540424Y49797683D01*
X49539976Y49284568D01*
X49735923Y48810341D01*
X50098433Y48447198D01*
X50525638Y48269807D01*
X50100341Y48094077D01*
X49737198Y47731567D01*
X49540424Y47257683D01*
X49539976Y46744568D01*
X49649892Y46478551D01*
X48430671Y45259329D01*
X48332776Y45112820D01*
X48298400Y44940000D01*
X48298400Y36030988D01*
X48085745Y36119291D01*
X47835354Y36119509D01*
X47603939Y36023891D01*
X47451600Y35871817D01*
X47451600Y39930000D01*
X47417224Y40102820D01*
X47411379Y40111567D01*
X47319329Y40249330D01*
X46279409Y41289250D01*
X46279509Y41404646D01*
X46183891Y41636061D01*
X46006992Y41813268D01*
X45775745Y41909291D01*
X45525354Y41909509D01*
X45293939Y41813891D01*
X45116732Y41636992D01*
X45020709Y41405745D01*
X45020491Y41155354D01*
X45116109Y40923939D01*
X45293008Y40746732D01*
X45524255Y40650709D01*
X45640734Y40650608D01*
X46548400Y39742941D01*
X46548400Y35470258D01*
X41951600Y40067058D01*
X41951600Y40841482D01*
X42033268Y40923008D01*
X42129291Y41154255D01*
X42129509Y41404646D01*
X42033891Y41636061D01*
X41856992Y41813268D01*
X41625745Y41909291D01*
X41375354Y41909509D01*
X41143939Y41813891D01*
X40966732Y41636992D01*
X40870709Y41405745D01*
X40870491Y41155354D01*
X40966109Y40923939D01*
X41048400Y40841505D01*
X41048400Y40020258D01*
X39469329Y41599329D01*
X39322820Y41697224D01*
X39150000Y41731600D01*
X37988518Y41731600D01*
X37906992Y41813268D01*
X37675745Y41909291D01*
X37425354Y41909509D01*
X37193939Y41813891D01*
X37016732Y41636992D01*
X36920709Y41405745D01*
X36920491Y41155354D01*
X37016109Y40923939D01*
X37193008Y40746732D01*
X37424255Y40650709D01*
X37674646Y40650491D01*
X37906061Y40746109D01*
X37988495Y40828400D01*
X38962942Y40828400D01*
X46298400Y33492942D01*
X46298400Y12917059D01*
X42562942Y9181600D01*
X37382593Y9181600D01*
X37467656Y9266515D01*
X37578873Y9534357D01*
X37579126Y9824371D01*
X37468377Y10092406D01*
X37263485Y10297656D01*
X36995643Y10408873D01*
X36705629Y10409126D01*
X36437594Y10298377D01*
X36232344Y10093485D01*
X36121127Y9825643D01*
X36120874Y9535629D01*
X36231623Y9267594D01*
X36317467Y9181600D01*
X29337059Y9181600D01*
X26429409Y12089250D01*
X26429509Y12204646D01*
X26337056Y12428400D01*
X39131628Y12428400D01*
X39216109Y12223939D01*
X39393008Y12046732D01*
X39624255Y11950709D01*
X39874646Y11950491D01*
X40106061Y12046109D01*
X40283268Y12223008D01*
X40379291Y12454255D01*
X40379509Y12704646D01*
X40283891Y12936061D01*
X40106992Y13113268D01*
X39875745Y13209291D01*
X39754262Y13209397D01*
X39622820Y13297224D01*
X39617023Y13298377D01*
X39450000Y13331600D01*
X31315259Y13331600D01*
X31324329Y13340670D01*
X31324331Y13340673D01*
X32494287Y14510629D01*
X43670874Y14510629D01*
X43781623Y14242594D01*
X43986515Y14037344D01*
X44254357Y13926127D01*
X44544371Y13925874D01*
X44812406Y14036623D01*
X45017656Y14241515D01*
X45128873Y14509357D01*
X45129126Y14799371D01*
X45018377Y15067406D01*
X44813485Y15272656D01*
X44545643Y15383873D01*
X44255629Y15384126D01*
X43987594Y15273377D01*
X43782344Y15068485D01*
X43671127Y14800643D01*
X43670874Y14510629D01*
X32494287Y14510629D01*
X35590842Y17607183D01*
X35806061Y17696109D01*
X35983268Y17873008D01*
X36079291Y18104255D01*
X36079509Y18354646D01*
X35983891Y18586061D01*
X35806992Y18763268D01*
X35575745Y18859291D01*
X35325354Y18859509D01*
X35093939Y18763891D01*
X34916732Y18586992D01*
X34820709Y18355745D01*
X34820499Y18114158D01*
X30787942Y14081600D01*
X24288518Y14081600D01*
X24206992Y14163268D01*
X23975745Y14259291D01*
X23725354Y14259509D01*
X23493939Y14163891D01*
X23316732Y13986992D01*
X23220709Y13755745D01*
X23220491Y13505354D01*
X22426475Y13505354D01*
X22437656Y13516515D01*
X22548873Y13784357D01*
X22549126Y14074371D01*
X22438377Y14342406D01*
X22233485Y14547656D01*
X21965643Y14658873D01*
X21675629Y14659126D01*
X21407594Y14548377D01*
X21202344Y14343485D01*
X21091127Y14075643D01*
X21090874Y13785629D01*
X6855462Y13785629D01*
X6855462Y16035629D01*
X27120874Y16035629D01*
X27231623Y15767594D01*
X27436515Y15562344D01*
X27704357Y15451127D01*
X27994371Y15450874D01*
X28262406Y15561623D01*
X28467656Y15766515D01*
X28578873Y16034357D01*
X28579126Y16324371D01*
X28468377Y16592406D01*
X28263485Y16797656D01*
X27995643Y16908873D01*
X27705629Y16909126D01*
X27437594Y16798377D01*
X27232344Y16593485D01*
X27121127Y16325643D01*
X27120874Y16035629D01*
X6855462Y16035629D01*
X6855462Y19535629D01*
X39070874Y19535629D01*
X39181623Y19267594D01*
X39386515Y19062344D01*
X39654357Y18951127D01*
X39944371Y18950874D01*
X40212406Y19061623D01*
X40417656Y19266515D01*
X40528873Y19534357D01*
X40529126Y19824371D01*
X40418377Y20092406D01*
X40213485Y20297656D01*
X39945643Y20408873D01*
X39655629Y20409126D01*
X39387594Y20298377D01*
X39182344Y20093485D01*
X39071127Y19825643D01*
X39070874Y19535629D01*
X6855462Y19535629D01*
X6855462Y30835629D01*
X22470874Y30835629D01*
X22581623Y30567594D01*
X22786515Y30362344D01*
X23054357Y30251127D01*
X23344371Y30250874D01*
X23612406Y30361623D01*
X23817656Y30566515D01*
X23928873Y30834357D01*
X23929126Y31124371D01*
X23818377Y31392406D01*
X23613485Y31597656D01*
X23345643Y31708873D01*
X23055629Y31709126D01*
X22787594Y31598377D01*
X22582344Y31393485D01*
X22471127Y31125643D01*
X22470874Y30835629D01*
X6855462Y30835629D01*
X6855462Y35825656D01*
X9158207Y38128400D01*
X13170555Y38128400D01*
X13170491Y38055354D01*
X13266109Y37823939D01*
X13443008Y37646732D01*
X13674255Y37550709D01*
X13924646Y37550491D01*
X14156061Y37646109D01*
X14333268Y37823008D01*
X14429291Y38054255D01*
X14429509Y38304646D01*
X14333891Y38536061D01*
X14165194Y38705052D01*
X14233268Y38773008D01*
X14329291Y39004255D01*
X14329509Y39254646D01*
X14233891Y39486061D01*
X14056992Y39663268D01*
X13825745Y39759291D01*
X13575354Y39759509D01*
X13343939Y39663891D01*
X13261505Y39581600D01*
X8950000Y39581600D01*
X8777180Y39547224D01*
X8630671Y39449329D01*
X6047738Y36866396D01*
X6047738Y43439080D01*
X7294287Y44685629D01*
X13670874Y44685629D01*
X13781623Y44417594D01*
X13986515Y44212344D01*
X14254357Y44101127D01*
X14544371Y44100874D01*
X14812406Y44211623D01*
X15017656Y44416515D01*
X15128873Y44684357D01*
X15129126Y44974371D01*
X15018377Y45242406D01*
X14813485Y45447656D01*
X14545643Y45558873D01*
X14255629Y45559126D01*
X13987594Y45448377D01*
X13782344Y45243485D01*
X13671127Y44975643D01*
X13670874Y44685629D01*
X7294287Y44685629D01*
X7887059Y45278400D01*
X12550000Y45278400D01*
X12722820Y45312776D01*
X12869329Y45410671D01*
X14559250Y47100591D01*
X14674646Y47100491D01*
X14906061Y47196109D01*
X15083268Y47373008D01*
X15179291Y47604255D01*
X15179509Y47854646D01*
X15096502Y48055540D01*
X18953472Y48055540D01*
X29075540Y37933472D01*
X29075540Y28330000D01*
X29111656Y28148432D01*
X29214506Y27994506D01*
X32264506Y24944506D01*
X32418432Y24841656D01*
X32600000Y24805540D01*
X41084302Y24805540D01*
X41143008Y24746732D01*
X41374255Y24650709D01*
X41624646Y24650491D01*
X41856061Y24746109D01*
X42033268Y24923008D01*
X42129291Y25154255D01*
X42129509Y25404646D01*
X42033891Y25636061D01*
X41856992Y25813268D01*
X41625745Y25909291D01*
X41375354Y25909509D01*
X41143939Y25813891D01*
X41084405Y25754460D01*
X32796528Y25754460D01*
X30465359Y28085629D01*
X37920874Y28085629D01*
X38031623Y27817594D01*
X38236515Y27612344D01*
X38504357Y27501127D01*
X38794371Y27500874D01*
X39062406Y27611623D01*
X39267656Y27816515D01*
X39378873Y28084357D01*
X39379126Y28374371D01*
X39268377Y28642406D01*
X39063485Y28847656D01*
X38795643Y28958873D01*
X38505629Y28959126D01*
X38237594Y28848377D01*
X38032344Y28643485D01*
X37921127Y28375643D01*
X37920874Y28085629D01*
X30465359Y28085629D01*
X30024460Y28526528D01*
X30024460Y38130000D01*
X29988344Y38311568D01*
X29885494Y38465494D01*
X21095634Y47255354D01*
X34070491Y47255354D01*
X34166109Y47023939D01*
X34343008Y46846732D01*
X34574255Y46750709D01*
X34824646Y46750491D01*
X35056061Y46846109D01*
X35233268Y47023008D01*
X35329291Y47254255D01*
X35329335Y47305354D01*
X38070491Y47305354D01*
X38166109Y47073939D01*
X38343008Y46896732D01*
X38574255Y46800709D01*
X38824646Y46800491D01*
X39056061Y46896109D01*
X39233268Y47073008D01*
X39329291Y47304255D01*
X39329509Y47554646D01*
X39233891Y47786061D01*
X39056992Y47963268D01*
X38825745Y48059291D01*
X38575354Y48059509D01*
X38343939Y47963891D01*
X38166732Y47786992D01*
X38070709Y47555745D01*
X38070491Y47305354D01*
X35329335Y47305354D01*
X35329509Y47504646D01*
X35233891Y47736061D01*
X35056992Y47913268D01*
X34825745Y48009291D01*
X34575354Y48009509D01*
X34343939Y47913891D01*
X34166732Y47736992D01*
X34070709Y47505745D01*
X34070491Y47255354D01*
X21095634Y47255354D01*
X19485494Y48865494D01*
X19331568Y48968344D01*
X19150000Y49004460D01*
X12896528Y49004460D01*
X12535494Y49365494D01*
X12381568Y49468344D01*
X12200000Y49504460D01*
X6300000Y49504460D01*
X6118432Y49468344D01*
X5964506Y49365494D01*
X4073472Y47474460D01*
X3769523Y47474460D01*
X3664077Y47729659D01*
X3301567Y48092802D01*
X2874362Y48270193D01*
X3299659Y48445923D01*
X3662802Y48808433D01*
X3769562Y49065540D01*
X3910000Y49065540D01*
X4091568Y49101656D01*
X4245494Y49204506D01*
X7296528Y52255540D01*
X31034302Y52255540D01*
X31093008Y52196732D01*
X31324255Y52100709D01*
X31574646Y52100491D01*
X31806061Y52196109D01*
X31983268Y52373008D01*
X32079291Y52604255D01*
X32079509Y52854646D01*
X31983891Y53086061D01*
X31806992Y53263268D01*
X31575745Y53359291D01*
X31325354Y53359509D01*
X31093939Y53263891D01*
X31034405Y53204460D01*
X7100000Y53204460D01*
X6918432Y53168344D01*
X6764506Y53065494D01*
X3753135Y50054123D01*
X3664077Y50269659D01*
X3301567Y50632802D01*
X2874362Y50810193D01*
X3299659Y50985923D01*
X3662802Y51348433D01*
X3859576Y51822317D01*
X3860024Y52335432D01*
X3664077Y52809659D01*
X3301567Y53172802D01*
X2874362Y53350193D01*
X3299659Y53525923D01*
X3662802Y53888433D01*
X3859576Y54362317D01*
X3860024Y54875432D01*
X3664077Y55349659D01*
X3301567Y55712802D01*
X2827683Y55909576D01*
X2314568Y55910024D01*
X1840341Y55714077D01*
X1477198Y55351567D01*
X1280424Y54877683D01*
X1279976Y54364568D01*
X590500Y54364568D01*
X590500Y56934000D01*
X7230000Y56934000D01*
X7230000Y55087062D01*
X7322562Y54863596D01*
X7493595Y54692563D01*
X7717061Y54600000D01*
X8532000Y54600000D01*
X8684000Y54752000D01*
X8684000Y57086000D01*
X8992000Y57086000D01*
X8992000Y54752000D01*
X9144000Y54600000D01*
X9958939Y54600000D01*
X10182405Y54692563D01*
X10353438Y54863596D01*
X10446000Y55087062D01*
X10446000Y56934000D01*
X12754000Y56934000D01*
X12754000Y55087062D01*
X12846562Y54863596D01*
X13017595Y54692563D01*
X13241061Y54600000D01*
X14056000Y54600000D01*
X14208000Y54752000D01*
X14208000Y57086000D01*
X12906000Y57086000D01*
X12754000Y56934000D01*
X10446000Y56934000D01*
X10294000Y57086000D01*
X8992000Y57086000D01*
X8684000Y57086000D01*
X7382000Y57086000D01*
X7230000Y56934000D01*
X590500Y56934000D01*
X590500Y59139500D01*
X7230000Y59139500D01*
X7230000Y57546000D01*
X7230000Y57546000D01*
G37*
X7230000Y57546000D02*
X7382000Y57394000D01*
X8684000Y57394000D01*
X8684000Y57414000D01*
X8992000Y57414000D01*
X8992000Y57394000D01*
X10294000Y57394000D01*
X10446000Y57546000D01*
X10446000Y59139500D01*
X12754000Y59139500D01*
X12754000Y57546000D01*
X12906000Y57394000D01*
X14208000Y57394000D01*
X14208000Y57414000D01*
X14516000Y57414000D01*
X14516000Y57394000D01*
X14536000Y57394000D01*
X14536000Y57086000D01*
X14516000Y57086000D01*
X14516000Y54752000D01*
X14668000Y54600000D01*
X15482939Y54600000D01*
X15706405Y54692563D01*
X15877438Y54863596D01*
X15970000Y55087062D01*
X15970000Y56126091D01*
X16033669Y55972000D01*
X16623893Y55380745D01*
X17395452Y55060366D01*
X18230883Y55059637D01*
X19003000Y55378669D01*
X19594255Y55968893D01*
X19914634Y56740452D01*
X19915363Y57575883D01*
X19596331Y58348000D01*
X19006107Y58939255D01*
X18523863Y59139500D01*
X45034505Y59139500D01*
X44567000Y58946331D01*
X43975745Y58356107D01*
X43655366Y57584548D01*
X43654637Y56749117D01*
X43973669Y55977000D01*
X44563893Y55385745D01*
X45335452Y55065366D01*
X46170883Y55064637D01*
X46943000Y55383669D01*
X47534255Y55973893D01*
X47854634Y56745452D01*
X47855363Y57580883D01*
X47536331Y58353000D01*
X46946107Y58944255D01*
X46475904Y59139500D01*
X48076118Y59139500D01*
X50467809Y56747808D01*
X50643160Y56630643D01*
X50850000Y56589500D01*
X52809500Y56589500D01*
X52809500Y5803394D01*
X52611331Y6283000D01*
X52021107Y6874255D01*
X51249548Y7194634D01*
X50414117Y7195363D01*
X49642000Y6876331D01*
X49050745Y6286107D01*
X48730366Y5514548D01*
X48729637Y4679117D01*
X49048669Y3907000D01*
X49638893Y3315745D01*
X49984823Y3172103D01*
X49881450Y3129390D01*
X47560000Y3129390D01*
X47349758Y3087570D01*
X47338429Y3080000D01*
X47171522Y2968477D01*
X46862436Y2659390D01*
X43630287Y2659390D01*
X43878857Y2762097D01*
X44216717Y3099367D01*
X44399791Y3540258D01*
X44400207Y4017647D01*
X44217903Y4458857D01*
X43880633Y4796717D01*
X43439742Y4979791D01*
X42962353Y4980207D01*
X42521143Y4797903D01*
X42183283Y4460633D01*
X42000209Y4019742D01*
X42000111Y3906844D01*
X41353477Y4553477D01*
X41175243Y4672570D01*
X41140361Y4679508D01*
X40965000Y4714390D01*
X36676856Y4714390D01*
X36676856Y5015000D01*
X36652451Y5144702D01*
X36575797Y5263825D01*
X36458837Y5343741D01*
X36320000Y5371856D01*
X34620000Y5371856D01*
X34490298Y5347451D01*
X34371175Y5270797D01*
X34291259Y5153837D01*
X34263144Y5015000D01*
X34263144Y3315000D01*
X34287549Y3185298D01*
X34364203Y3066175D01*
X34481163Y2986259D01*
X34620000Y2958144D01*
X36320000Y2958144D01*
X36449702Y2982549D01*
X36568825Y3059203D01*
X36648741Y3176163D01*
X36676856Y3315000D01*
X36676856Y3615610D01*
X40737436Y3615610D01*
X42161522Y2191523D01*
X42161525Y2191521D01*
X42631522Y1721523D01*
X42750615Y1641948D01*
X42809758Y1602430D01*
X43020000Y1560610D01*
X47090000Y1560610D01*
X47292239Y1600838D01*
X47300243Y1602430D01*
X47478477Y1721523D01*
X47787565Y2030610D01*
X49881834Y2030610D01*
X50074255Y1950709D01*
X50324646Y1950491D01*
X50556061Y2046109D01*
X50733268Y2223008D01*
X50829291Y2454255D01*
X50829509Y2704646D01*
X50733891Y2936061D01*
X50674919Y2995135D01*
X51245883Y2994637D01*
X52018000Y3313669D01*
X52609255Y3903893D01*
X52809500Y4386137D01*
X52809500Y-8354500D01*
X590500Y-8354500D01*
X590500Y-7264371D01*
X15570874Y-7264371D01*
X15681623Y-7532406D01*
X15886515Y-7737656D01*
X16154357Y-7848873D01*
X16444371Y-7849126D01*
X16712406Y-7738377D01*
X16917656Y-7533485D01*
X17028873Y-7265643D01*
X17029046Y-7067598D01*
X20682273Y-3414371D01*
X28020874Y-3414371D01*
X28131623Y-3682406D01*
X28336515Y-3887656D01*
X28604357Y-3998873D01*
X28894371Y-3999126D01*
X29162406Y-3888377D01*
X29216968Y-3833910D01*
X34062097Y-3833910D01*
X34206523Y-4182616D01*
X34581146Y-4610741D01*
X35091089Y-4862915D01*
X35316000Y-4752856D01*
X35316000Y-3609000D01*
X35624000Y-3609000D01*
X35624000Y-4752856D01*
X35848911Y-4862915D01*
X36358854Y-4610741D01*
X36733477Y-4182616D01*
X36877903Y-3833910D01*
X36766889Y-3609000D01*
X35624000Y-3609000D01*
X35316000Y-3609000D01*
X34173111Y-3609000D01*
X34062097Y-3833910D01*
X29216968Y-3833910D01*
X29367656Y-3683485D01*
X29461431Y-3457647D01*
X41999793Y-3457647D01*
X42182097Y-3898857D01*
X42519367Y-4236717D01*
X42960258Y-4419791D01*
X43437647Y-4420207D01*
X43878857Y-4237903D01*
X44216717Y-3900633D01*
X44399791Y-3459742D01*
X44400207Y-2982353D01*
X44217903Y-2541143D01*
X43880633Y-2203283D01*
X43439742Y-2020209D01*
X42962353Y-2019793D01*
X42521143Y-2202097D01*
X42183283Y-2539367D01*
X42000209Y-2980258D01*
X41999793Y-3457647D01*
X29461431Y-3457647D01*
X29478873Y-3415643D01*
X29479126Y-3125629D01*
X29458658Y-3076090D01*
X34062097Y-3076090D01*
X34173111Y-3301000D01*
X35316000Y-3301000D01*
X35316000Y-3281000D01*
X35624000Y-3281000D01*
X35624000Y-3301000D01*
X36766889Y-3301000D01*
X36877903Y-3076090D01*
X36733477Y-2727384D01*
X36358854Y-2299259D01*
X35848911Y-2047085D01*
X35624002Y-2157143D01*
X35624002Y-2089043D01*
X35952729Y-2023655D01*
X36342037Y-1763528D01*
X36541914Y-1464390D01*
X40000000Y-1464390D01*
X40175361Y-1429508D01*
X40210243Y-1422570D01*
X40388477Y-1303477D01*
X41672565Y-19390D01*
X46481834Y-19390D01*
X46674255Y-99291D01*
X46924646Y-99509D01*
X47156061Y-3891D01*
X47333268Y173008D01*
X47429291Y404255D01*
X47429509Y654646D01*
X47333891Y886061D01*
X47156992Y1063268D01*
X46925745Y1159291D01*
X46675354Y1159509D01*
X46481450Y1079390D01*
X41445000Y1079390D01*
X41234758Y1037570D01*
X41056523Y918478D01*
X39772436Y-365610D01*
X36541914Y-365610D01*
X36342037Y-66472D01*
X35952729Y193655D01*
X35493509Y285000D01*
X35446491Y285000D01*
X34987271Y193655D01*
X34597963Y-66472D01*
X34337836Y-455780D01*
X34246491Y-915000D01*
X34337836Y-1374220D01*
X34597963Y-1763528D01*
X34987271Y-2023655D01*
X35315998Y-2089043D01*
X35315998Y-2157143D01*
X35091089Y-2047085D01*
X34581146Y-2299259D01*
X34206523Y-2727384D01*
X34062097Y-3076090D01*
X29458658Y-3076090D01*
X29368377Y-2857594D01*
X29163485Y-2652344D01*
X28895643Y-2541127D01*
X28605629Y-2540874D01*
X28337594Y-2651623D01*
X28132344Y-2856515D01*
X28021127Y-3124357D01*
X28020874Y-3414371D01*
X20682273Y-3414371D01*
X23848185Y-248460D01*
X25200000Y-248460D01*
X25383099Y-212039D01*
X25538322Y-108322D01*
X25818322Y171678D01*
X25839130Y202820D01*
X25922039Y326901D01*
X25937189Y403065D01*
X26343600Y403065D01*
X26474784Y427749D01*
X26595269Y505279D01*
X26676098Y623576D01*
X26704535Y764000D01*
X26704535Y1625000D01*
X34246491Y1625000D01*
X34337836Y1165780D01*
X34597963Y776472D01*
X34987271Y516345D01*
X35446491Y425000D01*
X35493509Y425000D01*
X35952729Y516345D01*
X36342037Y776472D01*
X36602164Y1165780D01*
X36693509Y1625000D01*
X36602164Y2084220D01*
X36342037Y2473528D01*
X35952729Y2733655D01*
X35493509Y2825000D01*
X35446491Y2825000D01*
X34987271Y2733655D01*
X34597963Y2473528D01*
X34337836Y2084220D01*
X34246491Y1625000D01*
X26704535Y1625000D01*
X26704535Y2796000D01*
X26679851Y2927184D01*
X26602321Y3047669D01*
X26484024Y3128498D01*
X26343600Y3156935D01*
X24616400Y3156935D01*
X24485216Y3132251D01*
X24364731Y3054721D01*
X24283902Y2936424D01*
X24255465Y2796000D01*
X24255465Y764000D01*
X24265916Y708460D01*
X23746912Y708460D01*
X23798145Y742693D01*
X24061220Y1136413D01*
X24153600Y1600838D01*
X24153600Y1959162D01*
X24061220Y2423587D01*
X23798145Y2817307D01*
X23404425Y3080382D01*
X22940000Y3172762D01*
X22475575Y3080382D01*
X22081855Y2817307D01*
X21818780Y2423587D01*
X21726400Y1959162D01*
X21726400Y1600838D01*
X21818780Y1136413D01*
X22081855Y742693D01*
X22475575Y479618D01*
X22940000Y387238D01*
X23177918Y434563D01*
X16352310Y-6391046D01*
X16155629Y-6390874D01*
X15887594Y-6501623D01*
X15682344Y-6706515D01*
X15571127Y-6974357D01*
X15570874Y-7264371D01*
X590500Y-7264371D01*
X590500Y1395824D01*
X1166851Y1395824D01*
X1366162Y857371D01*
X1756359Y436178D01*
X2238951Y206189D01*
X2466000Y317017D01*
X2466000Y1626000D01*
X1300484Y1626000D01*
X1166851Y1395824D01*
X590500Y1395824D01*
X590500Y2164176D01*
X1166851Y2164176D01*
X1300484Y1934000D01*
X2466000Y1934000D01*
X2466000Y3242983D01*
X2238951Y3353811D01*
X1756359Y3123822D01*
X1366162Y2702629D01*
X1166851Y2164176D01*
X590500Y2164176D01*
X590500Y5651606D01*
X788669Y5172000D01*
X1378893Y4580745D01*
X2150452Y4260366D01*
X2985883Y4259637D01*
X3758000Y4578669D01*
X4349255Y5168893D01*
X4669634Y5940452D01*
X4670363Y6775883D01*
X4351331Y7548000D01*
X3761107Y8139255D01*
X2989548Y8459634D01*
X2154117Y8460363D01*
X1382000Y8141331D01*
X790745Y7551107D01*
X590500Y7068863D01*
X590500Y32774568D01*
X1279976Y32774568D01*
X1475923Y32300341D01*
X1838433Y31937198D01*
X2265638Y31759807D01*
X1840341Y31584077D01*
X1477198Y31221567D01*
X1280424Y30747683D01*
X1279976Y30234568D01*
X1475923Y29760341D01*
X1838433Y29397198D01*
X2265638Y29219807D01*
X1840341Y29044077D01*
X1477198Y28681567D01*
X1280424Y28207683D01*
X1279976Y27694568D01*
X1475923Y27220341D01*
X1838433Y26857198D01*
X2265638Y26679807D01*
X1840341Y26504077D01*
X1477198Y26141567D01*
X1280424Y25667683D01*
X1279976Y25154568D01*
X1475923Y24680341D01*
X1838433Y24317198D01*
X2265638Y24139807D01*
X1840341Y23964077D01*
X1477198Y23601567D01*
X1280424Y23127683D01*
X1279976Y22614568D01*
X1475923Y22140341D01*
X1838433Y21777198D01*
X2265638Y21599807D01*
X1840341Y21424077D01*
X1477198Y21061567D01*
X1280424Y20587683D01*
X1279976Y20074568D01*
X1475923Y19600341D01*
X1838433Y19237198D01*
X2265638Y19059807D01*
X1840341Y18884077D01*
X1477198Y18521567D01*
X1280424Y18047683D01*
X1279976Y17534568D01*
X1475923Y17060341D01*
X1838433Y16697198D01*
X2265638Y16519807D01*
X1840341Y16344077D01*
X1477198Y15981567D01*
X1280424Y15507683D01*
X1279976Y14994568D01*
X1475923Y14520341D01*
X1838433Y14157198D01*
X2265638Y13979807D01*
X1840341Y13804077D01*
X1477198Y13441567D01*
X1280424Y12967683D01*
X1279976Y12454568D01*
X1475923Y11980341D01*
X1838433Y11617198D01*
X2265638Y11439807D01*
X1840341Y11264077D01*
X1477198Y10901567D01*
X1280424Y10427683D01*
X1279976Y9914568D01*
X1475923Y9440341D01*
X1838433Y9077198D01*
X2312317Y8880424D01*
X2825432Y8879976D01*
X3299659Y9075923D01*
X3662802Y9438433D01*
X3859576Y9912317D01*
X3860024Y10425432D01*
X3664077Y10899659D01*
X3301567Y11262802D01*
X2874362Y11440193D01*
X3299659Y11615923D01*
X3662802Y11978433D01*
X3859576Y12452317D01*
X3860024Y12965432D01*
X3664077Y13439659D01*
X3301567Y13802802D01*
X2874362Y13980193D01*
X3299659Y14155923D01*
X3662802Y14518433D01*
X3859576Y14992317D01*
X3860024Y15505432D01*
X3664077Y15979659D01*
X3301567Y16342802D01*
X2874362Y16520193D01*
X3299659Y16695923D01*
X3662802Y17058433D01*
X3859576Y17532317D01*
X3860024Y18045432D01*
X3664077Y18519659D01*
X3301567Y18882802D01*
X2874362Y19060193D01*
X3299659Y19235923D01*
X3662802Y19598433D01*
X3859576Y20072317D01*
X3860024Y20585432D01*
X3664077Y21059659D01*
X3301567Y21422802D01*
X2874362Y21600193D01*
X3299659Y21775923D01*
X3662802Y22138433D01*
X3859576Y22612317D01*
X3860024Y23125432D01*
X3664077Y23599659D01*
X3301567Y23962802D01*
X2874362Y24140193D01*
X3299659Y24315923D01*
X3662802Y24678433D01*
X3859576Y25152317D01*
X3860024Y25665432D01*
X3664077Y26139659D01*
X3301567Y26502802D01*
X2874362Y26680193D01*
X3299659Y26855923D01*
X3662802Y27218433D01*
X3859576Y27692317D01*
X3860024Y28205432D01*
X3664077Y28679659D01*
X3301567Y29042802D01*
X2874362Y29220193D01*
X3299659Y29395923D01*
X3662802Y29758433D01*
X3859576Y30232317D01*
X3860024Y30745432D01*
X3664077Y31219659D01*
X3301567Y31582802D01*
X2874362Y31760193D01*
X3299659Y31935923D01*
X3662802Y32298433D01*
X3859576Y32772317D01*
X3860024Y33285432D01*
X3664077Y33759659D01*
X3301567Y34122802D01*
X2827683Y34319576D01*
X2314568Y34320024D01*
X1840341Y34124077D01*
X1477198Y33761567D01*
X1280424Y33287683D01*
X1279976Y32774568D01*
X590500Y32774568D01*
X590500Y54364568D01*
X1279976Y54364568D01*
X1475923Y53890341D01*
X1838433Y53527198D01*
X2265638Y53349807D01*
X1840341Y53174077D01*
X1477198Y52811567D01*
X1280424Y52337683D01*
X1279976Y51824568D01*
X1475923Y51350341D01*
X1838433Y50987198D01*
X2265638Y50809807D01*
X1840341Y50634077D01*
X1477198Y50271567D01*
X1280424Y49797683D01*
X1279976Y49284568D01*
X1475923Y48810341D01*
X1838433Y48447198D01*
X2265638Y48269807D01*
X1840341Y48094077D01*
X1477198Y47731567D01*
X1280424Y47257683D01*
X1279976Y46744568D01*
X1475923Y46270341D01*
X1838433Y45907198D01*
X2265638Y45729807D01*
X1840341Y45554077D01*
X1477198Y45191567D01*
X1280424Y44717683D01*
X1279976Y44204568D01*
X1475923Y43730341D01*
X1838433Y43367198D01*
X2265638Y43189807D01*
X1840341Y43014077D01*
X1477198Y42651567D01*
X1280424Y42177683D01*
X1279976Y41664568D01*
X1475923Y41190341D01*
X1838433Y40827198D01*
X2265638Y40649807D01*
X1840341Y40474077D01*
X1477198Y40111567D01*
X1280424Y39637683D01*
X1279976Y39124568D01*
X1475923Y38650341D01*
X1838433Y38287198D01*
X2265638Y38109807D01*
X1840341Y37934077D01*
X1477198Y37571567D01*
X1280424Y37097683D01*
X1279976Y36584568D01*
X1475923Y36110341D01*
X1838433Y35747198D01*
X2312317Y35550424D01*
X2825432Y35549976D01*
X3299659Y35745923D01*
X3662802Y36108433D01*
X3859576Y36582317D01*
X3860024Y37095432D01*
X3664077Y37569659D01*
X3301567Y37932802D01*
X2874362Y38110193D01*
X3299659Y38285923D01*
X3662802Y38648433D01*
X3859576Y39122317D01*
X3860024Y39635432D01*
X3664077Y40109659D01*
X3301567Y40472802D01*
X2874362Y40650193D01*
X3299659Y40825923D01*
X3662802Y41188433D01*
X3859576Y41662317D01*
X3860024Y42175432D01*
X3664077Y42649659D01*
X3301567Y43012802D01*
X2874362Y43190193D01*
X3299659Y43365923D01*
X3662802Y43728433D01*
X3859576Y44202317D01*
X3860024Y44715432D01*
X3664077Y45189659D01*
X3301567Y45552802D01*
X2874362Y45730193D01*
X3299659Y45905923D01*
X3662802Y46268433D01*
X3769562Y46525540D01*
X4270000Y46525540D01*
X4451568Y46561656D01*
X4605494Y46664506D01*
X6496528Y48555540D01*
X12003472Y48555540D01*
X12364506Y48194506D01*
X12518432Y48091656D01*
X12700000Y48055540D01*
X13162148Y48055540D01*
X13120709Y47955745D01*
X13120608Y47839266D01*
X11866804Y46585462D01*
X7532714Y46585462D01*
X7359894Y46551086D01*
X7213384Y46453191D01*
X4872947Y44112753D01*
X4775052Y43966244D01*
X4740676Y43793424D01*
X4740676Y4559335D01*
X3580671Y3399329D01*
X3482776Y3252820D01*
X3459413Y3135368D01*
X3001049Y3353811D01*
X2774000Y3242983D01*
X2774000Y1934000D01*
X2794000Y1934000D01*
X2794000Y1626000D01*
X2774000Y1626000D01*
X2774000Y317017D01*
X3001049Y206189D01*
X3448400Y419383D01*
X3448400Y80000D01*
X3465087Y-3891D01*
X3482776Y-92820D01*
X3580671Y-239329D01*
X8430671Y-5089330D01*
X8577180Y-5187224D01*
X8750000Y-5221600D01*
X13661482Y-5221600D01*
X13743008Y-5303268D01*
X13974255Y-5399291D01*
X14224646Y-5399509D01*
X14456061Y-5303891D01*
X14633268Y-5126992D01*
X14729291Y-4895745D01*
X14729509Y-4645354D01*
X14633891Y-4413939D01*
X14456992Y-4236732D01*
X14225745Y-4140709D01*
X13975354Y-4140491D01*
X13743939Y-4236109D01*
X13661505Y-4318400D01*
X8937059Y-4318400D01*
X4351600Y267058D01*
X4351600Y709454D01*
X4695575Y479618D01*
X5160000Y387238D01*
X5624425Y479618D01*
X5948400Y696091D01*
X5948400Y30000D01*
X5974118Y-99291D01*
X5982776Y-142820D01*
X6080671Y-289329D01*
X9580670Y-3789329D01*
X9727180Y-3887224D01*
X9900000Y-3921600D01*
X13661482Y-3921600D01*
X13743008Y-4003268D01*
X13974255Y-4099291D01*
X14224646Y-4099509D01*
X14456061Y-4003891D01*
X14633268Y-3826992D01*
X14729291Y-3595745D01*
X14729509Y-3345354D01*
X14633891Y-3113939D01*
X14456992Y-2936732D01*
X14225745Y-2840709D01*
X13975354Y-2840491D01*
X13743939Y-2936109D01*
X13661505Y-3018400D01*
X10087059Y-3018400D01*
X8133030Y-1064371D01*
X9870874Y-1064371D01*
X9981623Y-1332406D01*
X10186515Y-1537656D01*
X10454357Y-1648873D01*
X10744371Y-1649126D01*
X11012406Y-1538377D01*
X11217656Y-1333485D01*
X11328873Y-1065643D01*
X11329126Y-775629D01*
X11218377Y-507594D01*
X11013485Y-302344D01*
X10745643Y-191127D01*
X10455629Y-190874D01*
X10187594Y-301623D01*
X9982344Y-506515D01*
X9871127Y-774357D01*
X9870874Y-1064371D01*
X8133030Y-1064371D01*
X6851600Y217058D01*
X6851600Y736182D01*
X7235575Y479618D01*
X7700000Y387238D01*
X8164425Y479618D01*
X8558145Y742693D01*
X8821220Y1136413D01*
X8913600Y1600838D01*
X8913600Y1959162D01*
X8821220Y2423587D01*
X8558145Y2817307D01*
X8164425Y3080382D01*
X7700000Y3172762D01*
X7235575Y3080382D01*
X6841855Y2817307D01*
X6835982Y2808517D01*
X6817224Y2902820D01*
X6773352Y2968478D01*
X6719330Y3049329D01*
X6047738Y3720920D01*
X6047738Y5333604D01*
X9092064Y2289277D01*
X9026400Y1959162D01*
X9026400Y1600838D01*
X9118780Y1136413D01*
X9381855Y742693D01*
X9775575Y479618D01*
X10240000Y387238D01*
X10704425Y479618D01*
X11098145Y742693D01*
X11361220Y1136413D01*
X11453600Y1600838D01*
X11453600Y1959162D01*
X11361220Y2423587D01*
X11098145Y2817307D01*
X10704425Y3080382D01*
X10240000Y3172762D01*
X9775575Y3080382D01*
X9657303Y3001355D01*
X6451600Y6207058D01*
X6451600Y7469742D01*
X11632064Y2289277D01*
X11566400Y1959162D01*
X11566400Y1600838D01*
X11658780Y1136413D01*
X11921855Y742693D01*
X12315575Y479618D01*
X12780000Y387238D01*
X13244425Y479618D01*
X13638145Y742693D01*
X13901220Y1136413D01*
X13993600Y1600838D01*
X13993600Y1959162D01*
X14106400Y1959162D01*
X14106400Y1600838D01*
X14198780Y1136413D01*
X14461855Y742693D01*
X14855575Y479618D01*
X15320000Y387238D01*
X15784425Y479618D01*
X16178145Y742693D01*
X16441220Y1136413D01*
X16533600Y1600838D01*
X16533600Y1959162D01*
X16646400Y1959162D01*
X16646400Y1600838D01*
X16738780Y1136413D01*
X17001855Y742693D01*
X17395575Y479618D01*
X17860000Y387238D01*
X18324425Y479618D01*
X18718145Y742693D01*
X18981220Y1136413D01*
X19073600Y1600838D01*
X19073600Y1959162D01*
X19186400Y1959162D01*
X19186400Y1600838D01*
X19278780Y1136413D01*
X19541855Y742693D01*
X19935575Y479618D01*
X20400000Y387238D01*
X20864425Y479618D01*
X21258145Y742693D01*
X21521220Y1136413D01*
X21613600Y1600838D01*
X21613600Y1959162D01*
X21521220Y2423587D01*
X21258145Y2817307D01*
X20864425Y3080382D01*
X20400000Y3172762D01*
X19935575Y3080382D01*
X19541855Y2817307D01*
X19278780Y2423587D01*
X19186400Y1959162D01*
X19073600Y1959162D01*
X18981220Y2423587D01*
X18718145Y2817307D01*
X18324425Y3080382D01*
X17860000Y3172762D01*
X17395575Y3080382D01*
X17001855Y2817307D01*
X16738780Y2423587D01*
X16646400Y1959162D01*
X16533600Y1959162D01*
X16441220Y2423587D01*
X16178145Y2817307D01*
X15784425Y3080382D01*
X15320000Y3172762D01*
X14855575Y3080382D01*
X14461855Y2817307D01*
X14198780Y2423587D01*
X14106400Y1959162D01*
X13993600Y1959162D01*
X13901220Y2423587D01*
X13638145Y2817307D01*
X13244425Y3080382D01*
X12780000Y3172762D01*
X12315575Y3080382D01*
X12197303Y3001356D01*
X9513030Y5685629D01*
X27120874Y5685629D01*
X27231623Y5417594D01*
X27436515Y5212344D01*
X27704357Y5101127D01*
X27994371Y5100874D01*
X28262406Y5211623D01*
X28467656Y5416515D01*
X28578873Y5684357D01*
X28579126Y5974371D01*
X28468377Y6242406D01*
X28263485Y6447656D01*
X27995643Y6558873D01*
X27705629Y6559126D01*
X27437594Y6448377D01*
X27232344Y6243485D01*
X27121127Y5975643D01*
X27120874Y5685629D01*
X9513030Y5685629D01*
X6855462Y8343196D01*
X6855462Y8535629D01*
X10320874Y8535629D01*
X10431623Y8267594D01*
X10636515Y8062344D01*
X10904357Y7951127D01*
X11194371Y7950874D01*
X11462406Y8061623D01*
X11667656Y8266515D01*
X11778873Y8534357D01*
X11779126Y8824371D01*
X11668377Y9092406D01*
X11475492Y9285629D01*
X12220874Y9285629D01*
X12331623Y9017594D01*
X12536515Y8812344D01*
X12804357Y8701127D01*
X13094371Y8700874D01*
X13362406Y8811623D01*
X13567656Y9016515D01*
X13678873Y9284357D01*
X13679126Y9574371D01*
X13568377Y9842406D01*
X13363485Y10047656D01*
X13095643Y10158873D01*
X12805629Y10159126D01*
X12537594Y10048377D01*
X12332344Y9843485D01*
X12221127Y9575643D01*
X12220874Y9285629D01*
X11475492Y9285629D01*
X11463485Y9297656D01*
X11195643Y9408873D01*
X10905629Y9409126D01*
X10637594Y9298377D01*
X10432344Y9093485D01*
X10321127Y8825643D01*
X10320874Y8535629D01*
X6855462Y8535629D01*
X6855462Y12535629D01*
X15470874Y12535629D01*
X15581623Y12267594D01*
X15786515Y12062344D01*
X16054357Y11951127D01*
X16344371Y11950874D01*
X16612406Y12061623D01*
X16817656Y12266515D01*
X16928873Y12534357D01*
X16929126Y12824371D01*
X16818377Y13092406D01*
X16613485Y13297656D01*
X16345643Y13408873D01*
X16055629Y13409126D01*
X15787594Y13298377D01*
X15582344Y13093485D01*
X15471127Y12825643D01*
X15470874Y12535629D01*
X6855462Y12535629D01*
X6855462Y13785629D01*
X21090874Y13785629D01*
X21201623Y13517594D01*
X21406515Y13312344D01*
X21674357Y13201127D01*
X21964371Y13200874D01*
X22232406Y13311623D01*
X22426475Y13505354D01*
X23220491Y13505354D01*
X23316109Y13273939D01*
X23493008Y13096732D01*
X23724255Y13000709D01*
X23974646Y13000491D01*
X24206061Y13096109D01*
X24288495Y13178400D01*
X24692402Y13178400D01*
X24620709Y13005745D01*
X24620491Y12755354D01*
X24716109Y12523939D01*
X24893008Y12346732D01*
X25124255Y12250709D01*
X25189356Y12250652D01*
X25170709Y12205745D01*
X25170491Y11955354D01*
X25266109Y11723939D01*
X25443008Y11546732D01*
X25674255Y11450709D01*
X25790734Y11450608D01*
X28609741Y8631600D01*
X27188518Y8631600D01*
X27106992Y8713268D01*
X26875745Y8809291D01*
X26625354Y8809509D01*
X26393939Y8713891D01*
X26216732Y8536992D01*
X26120709Y8305745D01*
X26120491Y8055354D01*
X26139475Y8009410D01*
X26025354Y8009509D01*
X25793939Y7913891D01*
X25616732Y7736992D01*
X25520709Y7505745D01*
X25520491Y7255354D01*
X25616109Y7023939D01*
X25793008Y6846732D01*
X26024255Y6750709D01*
X26274646Y6750491D01*
X26506061Y6846109D01*
X26683268Y7023008D01*
X26706269Y7078400D01*
X43200000Y7078400D01*
X43372820Y7112776D01*
X43519329Y7210671D01*
X48019329Y11710671D01*
X48117224Y11857180D01*
X48151600Y12030000D01*
X48151600Y18780064D01*
X48216109Y18623939D01*
X48393008Y18446732D01*
X48624255Y18350709D01*
X48874646Y18350491D01*
X49106061Y18446109D01*
X49283268Y18623008D01*
X49379291Y18854255D01*
X49379509Y19104646D01*
X49283891Y19336061D01*
X49201600Y19418495D01*
X49201600Y28964568D01*
X49539976Y28964568D01*
X49735923Y28490341D01*
X50098433Y28127198D01*
X50525638Y27949807D01*
X50100341Y27774077D01*
X49737198Y27411567D01*
X49540424Y26937683D01*
X49539976Y26424568D01*
X49735923Y25950341D01*
X50098433Y25587198D01*
X50525638Y25409807D01*
X50100341Y25234077D01*
X49737198Y24871567D01*
X49540424Y24397683D01*
X49539976Y23884568D01*
X49735923Y23410341D01*
X50098433Y23047198D01*
X50525638Y22869807D01*
X50100341Y22694077D01*
X49737198Y22331567D01*
X49540424Y21857683D01*
X49539976Y21344568D01*
X49735923Y20870341D01*
X50098433Y20507198D01*
X50525638Y20329807D01*
X50100341Y20154077D01*
X49737198Y19791567D01*
X49540424Y19317683D01*
X49539976Y18804568D01*
X49735923Y18330341D01*
X50098433Y17967198D01*
X50572317Y17770424D01*
X51085432Y17769976D01*
X51559659Y17965923D01*
X51922802Y18328433D01*
X52119576Y18802317D01*
X52120024Y19315432D01*
X51924077Y19789659D01*
X51561567Y20152802D01*
X51134362Y20330193D01*
X51559659Y20505923D01*
X51922802Y20868433D01*
X52119576Y21342317D01*
X52120024Y21855432D01*
X51924077Y22329659D01*
X51561567Y22692802D01*
X51134362Y22870193D01*
X51559659Y23045923D01*
X51922802Y23408433D01*
X52119576Y23882317D01*
X52120024Y24395432D01*
X51924077Y24869659D01*
X51561567Y25232802D01*
X51134362Y25410193D01*
X51559659Y25585923D01*
X51922802Y25948433D01*
X52119576Y26422317D01*
X52120024Y26935432D01*
X51924077Y27409659D01*
X51561567Y27772802D01*
X51134362Y27950193D01*
X51559659Y28125923D01*
X51922802Y28488433D01*
X52119576Y28962317D01*
X52120024Y29475432D01*
X51924077Y29949659D01*
X51561567Y30312802D01*
X51491297Y30341981D01*
X51628582Y30398846D01*
X51723630Y30648581D01*
X50830000Y31542211D01*
X49936370Y30648581D01*
X50031418Y30398846D01*
X50180340Y30347132D01*
X50100341Y30314077D01*
X49737198Y29951567D01*
X49540424Y29477683D01*
X49539976Y28964568D01*
X49201600Y28964568D01*
X49201600Y31976901D01*
X49266853Y31976901D01*
X49302837Y31362201D01*
X49468846Y30961418D01*
X49718581Y30866370D01*
X50612211Y31760000D01*
X51047789Y31760000D01*
X51941419Y30866370D01*
X52191154Y30961418D01*
X52393147Y31543099D01*
X52357163Y32157799D01*
X52191154Y32558582D01*
X51941419Y32653630D01*
X51047789Y31760000D01*
X50612211Y31760000D01*
X49718581Y32653630D01*
X49468846Y32558582D01*
X49266853Y31976901D01*
X49201600Y31976901D01*
X49201600Y33188581D01*
X49936370Y33188581D01*
X49996725Y33030000D01*
X49936370Y32871419D01*
X50830000Y31977789D01*
X51723630Y32871419D01*
X51663275Y33030000D01*
X51723630Y33188581D01*
X50830000Y34082211D01*
X49936370Y33188581D01*
X49201600Y33188581D01*
X49201600Y34516901D01*
X49266853Y34516901D01*
X49302837Y33902201D01*
X49468846Y33501418D01*
X49718581Y33406370D01*
X50612211Y34300000D01*
X51047789Y34300000D01*
X51941419Y33406370D01*
X52191154Y33501418D01*
X52393147Y34083099D01*
X52357163Y34697799D01*
X52191154Y35098582D01*
X51941419Y35193630D01*
X51047789Y34300000D01*
X50612211Y34300000D01*
X49718581Y35193630D01*
X49468846Y35098582D01*
X49266853Y34516901D01*
X49201600Y34516901D01*
X49201600Y36583776D01*
X49535976Y36583776D01*
X49732530Y36108079D01*
X50096164Y35743809D01*
X50163482Y35715856D01*
X50031418Y35661154D01*
X49936370Y35411419D01*
X50830000Y34517789D01*
X51723630Y35411419D01*
X51628582Y35661154D01*
X51485351Y35710892D01*
X51561921Y35742530D01*
X51926191Y36106164D01*
X52123575Y36581518D01*
X52124024Y37096224D01*
X51927470Y37571921D01*
X51563836Y37936191D01*
X51088482Y38133575D01*
X50573776Y38134024D01*
X50098079Y37937470D01*
X49733809Y37573836D01*
X49536425Y37098482D01*
X49535976Y36583776D01*
X49201600Y36583776D01*
X49201600Y44752942D01*
X50280327Y45831669D01*
X50525638Y45729807D01*
X50100341Y45554077D01*
X49737198Y45191567D01*
X49540424Y44717683D01*
X49539976Y44204568D01*
X49735923Y43730341D01*
X50098433Y43367198D01*
X50525638Y43189807D01*
X50100341Y43014077D01*
X49737198Y42651567D01*
X49540424Y42177683D01*
X49539976Y41664568D01*
X49735923Y41190341D01*
X50098433Y40827198D01*
X50572317Y40630424D01*
X51085432Y40629976D01*
X51559659Y40825923D01*
X51922802Y41188433D01*
X52119576Y41662317D01*
X52120024Y42175432D01*
X51924077Y42649659D01*
X51561567Y43012802D01*
X51134362Y43190193D01*
X51559659Y43365923D01*
X51922802Y43728433D01*
X52119576Y44202317D01*
X52120024Y44715432D01*
X51924077Y45189659D01*
X51561567Y45552802D01*
X51134362Y45730193D01*
X51559659Y45905923D01*
X51922802Y46268433D01*
X52119576Y46742317D01*
X52120024Y47255432D01*
X51924077Y47729659D01*
X51561567Y48092802D01*
X51134362Y48270193D01*
X51559659Y48445923D01*
X51922802Y48808433D01*
X52119576Y49282317D01*
X52120024Y49795432D01*
X51924077Y50269659D01*
X51561567Y50632802D01*
X51134362Y50810193D01*
X51559659Y50985923D01*
X51922802Y51348433D01*
X52119576Y51822317D01*
X52120024Y52335432D01*
X51924077Y52809659D01*
X51561567Y53172802D01*
X51134362Y53350193D01*
X51559659Y53525923D01*
X51922802Y53888433D01*
X52119576Y54362317D01*
X52120024Y54875432D01*
X51924077Y55349659D01*
X51561567Y55712802D01*
X51087683Y55909576D01*
X50574568Y55910024D01*
X50100341Y55714077D01*
X49737198Y55351567D01*
X49540424Y54877683D01*
X49539976Y54364568D01*
X49655740Y54084398D01*
X43530803Y47959461D01*
X43475354Y47959509D01*
X43243939Y47863891D01*
X43199991Y47820020D01*
X43056992Y47963268D01*
X42825745Y48059291D01*
X42575354Y48059509D01*
X42343939Y47963891D01*
X42166732Y47786992D01*
X42070709Y47555745D01*
X42070491Y47305354D01*
X42166109Y47073939D01*
X42343008Y46896732D01*
X42574255Y46800709D01*
X42824646Y46800491D01*
X43056061Y46896109D01*
X43100009Y46939980D01*
X43243008Y46796732D01*
X43474255Y46700709D01*
X43724646Y46700491D01*
X43956061Y46796109D01*
X44133268Y46973008D01*
X44229291Y47204255D01*
X44229445Y47380787D01*
X44914012Y48065354D01*
X47330491Y48065354D01*
X47426109Y47833939D01*
X47603008Y47656732D01*
X47834255Y47560709D01*
X48084646Y47560491D01*
X48316061Y47656109D01*
X48493268Y47833008D01*
X48589291Y48064255D01*
X48589509Y48314646D01*
X48493891Y48546061D01*
X48316992Y48723268D01*
X48085745Y48819291D01*
X47835354Y48819509D01*
X47603939Y48723891D01*
X47426732Y48546992D01*
X47330709Y48315745D01*
X47330491Y48065354D01*
X44914012Y48065354D01*
X50294459Y53445801D01*
X50525638Y53349807D01*
X50100341Y53174077D01*
X49737198Y52811567D01*
X49540424Y52337683D01*
X49539976Y51824568D01*
X49735923Y51350341D01*
X50098433Y50987198D01*
X50525638Y50809807D01*
X50100341Y50634077D01*
X49737198Y50271567D01*
X49540424Y49797683D01*
X49539976Y49284568D01*
X49735923Y48810341D01*
X50098433Y48447198D01*
X50525638Y48269807D01*
X50100341Y48094077D01*
X49737198Y47731567D01*
X49540424Y47257683D01*
X49539976Y46744568D01*
X49649892Y46478551D01*
X48430671Y45259329D01*
X48332776Y45112820D01*
X48298400Y44940000D01*
X48298400Y36030988D01*
X48085745Y36119291D01*
X47835354Y36119509D01*
X47603939Y36023891D01*
X47451600Y35871817D01*
X47451600Y39930000D01*
X47417224Y40102820D01*
X47411379Y40111567D01*
X47319329Y40249330D01*
X46279409Y41289250D01*
X46279509Y41404646D01*
X46183891Y41636061D01*
X46006992Y41813268D01*
X45775745Y41909291D01*
X45525354Y41909509D01*
X45293939Y41813891D01*
X45116732Y41636992D01*
X45020709Y41405745D01*
X45020491Y41155354D01*
X45116109Y40923939D01*
X45293008Y40746732D01*
X45524255Y40650709D01*
X45640734Y40650608D01*
X46548400Y39742941D01*
X46548400Y35470258D01*
X41951600Y40067058D01*
X41951600Y40841482D01*
X42033268Y40923008D01*
X42129291Y41154255D01*
X42129509Y41404646D01*
X42033891Y41636061D01*
X41856992Y41813268D01*
X41625745Y41909291D01*
X41375354Y41909509D01*
X41143939Y41813891D01*
X40966732Y41636992D01*
X40870709Y41405745D01*
X40870491Y41155354D01*
X40966109Y40923939D01*
X41048400Y40841505D01*
X41048400Y40020258D01*
X39469329Y41599329D01*
X39322820Y41697224D01*
X39150000Y41731600D01*
X37988518Y41731600D01*
X37906992Y41813268D01*
X37675745Y41909291D01*
X37425354Y41909509D01*
X37193939Y41813891D01*
X37016732Y41636992D01*
X36920709Y41405745D01*
X36920491Y41155354D01*
X37016109Y40923939D01*
X37193008Y40746732D01*
X37424255Y40650709D01*
X37674646Y40650491D01*
X37906061Y40746109D01*
X37988495Y40828400D01*
X38962942Y40828400D01*
X46298400Y33492942D01*
X46298400Y12917059D01*
X42562942Y9181600D01*
X37382593Y9181600D01*
X37467656Y9266515D01*
X37578873Y9534357D01*
X37579126Y9824371D01*
X37468377Y10092406D01*
X37263485Y10297656D01*
X36995643Y10408873D01*
X36705629Y10409126D01*
X36437594Y10298377D01*
X36232344Y10093485D01*
X36121127Y9825643D01*
X36120874Y9535629D01*
X36231623Y9267594D01*
X36317467Y9181600D01*
X29337059Y9181600D01*
X26429409Y12089250D01*
X26429509Y12204646D01*
X26337056Y12428400D01*
X39131628Y12428400D01*
X39216109Y12223939D01*
X39393008Y12046732D01*
X39624255Y11950709D01*
X39874646Y11950491D01*
X40106061Y12046109D01*
X40283268Y12223008D01*
X40379291Y12454255D01*
X40379509Y12704646D01*
X40283891Y12936061D01*
X40106992Y13113268D01*
X39875745Y13209291D01*
X39754262Y13209397D01*
X39622820Y13297224D01*
X39617023Y13298377D01*
X39450000Y13331600D01*
X31315259Y13331600D01*
X31324329Y13340670D01*
X31324331Y13340673D01*
X32494287Y14510629D01*
X43670874Y14510629D01*
X43781623Y14242594D01*
X43986515Y14037344D01*
X44254357Y13926127D01*
X44544371Y13925874D01*
X44812406Y14036623D01*
X45017656Y14241515D01*
X45128873Y14509357D01*
X45129126Y14799371D01*
X45018377Y15067406D01*
X44813485Y15272656D01*
X44545643Y15383873D01*
X44255629Y15384126D01*
X43987594Y15273377D01*
X43782344Y15068485D01*
X43671127Y14800643D01*
X43670874Y14510629D01*
X32494287Y14510629D01*
X35590842Y17607183D01*
X35806061Y17696109D01*
X35983268Y17873008D01*
X36079291Y18104255D01*
X36079509Y18354646D01*
X35983891Y18586061D01*
X35806992Y18763268D01*
X35575745Y18859291D01*
X35325354Y18859509D01*
X35093939Y18763891D01*
X34916732Y18586992D01*
X34820709Y18355745D01*
X34820499Y18114158D01*
X30787942Y14081600D01*
X24288518Y14081600D01*
X24206992Y14163268D01*
X23975745Y14259291D01*
X23725354Y14259509D01*
X23493939Y14163891D01*
X23316732Y13986992D01*
X23220709Y13755745D01*
X23220491Y13505354D01*
X22426475Y13505354D01*
X22437656Y13516515D01*
X22548873Y13784357D01*
X22549126Y14074371D01*
X22438377Y14342406D01*
X22233485Y14547656D01*
X21965643Y14658873D01*
X21675629Y14659126D01*
X21407594Y14548377D01*
X21202344Y14343485D01*
X21091127Y14075643D01*
X21090874Y13785629D01*
X6855462Y13785629D01*
X6855462Y16035629D01*
X27120874Y16035629D01*
X27231623Y15767594D01*
X27436515Y15562344D01*
X27704357Y15451127D01*
X27994371Y15450874D01*
X28262406Y15561623D01*
X28467656Y15766515D01*
X28578873Y16034357D01*
X28579126Y16324371D01*
X28468377Y16592406D01*
X28263485Y16797656D01*
X27995643Y16908873D01*
X27705629Y16909126D01*
X27437594Y16798377D01*
X27232344Y16593485D01*
X27121127Y16325643D01*
X27120874Y16035629D01*
X6855462Y16035629D01*
X6855462Y19535629D01*
X39070874Y19535629D01*
X39181623Y19267594D01*
X39386515Y19062344D01*
X39654357Y18951127D01*
X39944371Y18950874D01*
X40212406Y19061623D01*
X40417656Y19266515D01*
X40528873Y19534357D01*
X40529126Y19824371D01*
X40418377Y20092406D01*
X40213485Y20297656D01*
X39945643Y20408873D01*
X39655629Y20409126D01*
X39387594Y20298377D01*
X39182344Y20093485D01*
X39071127Y19825643D01*
X39070874Y19535629D01*
X6855462Y19535629D01*
X6855462Y30835629D01*
X22470874Y30835629D01*
X22581623Y30567594D01*
X22786515Y30362344D01*
X23054357Y30251127D01*
X23344371Y30250874D01*
X23612406Y30361623D01*
X23817656Y30566515D01*
X23928873Y30834357D01*
X23929126Y31124371D01*
X23818377Y31392406D01*
X23613485Y31597656D01*
X23345643Y31708873D01*
X23055629Y31709126D01*
X22787594Y31598377D01*
X22582344Y31393485D01*
X22471127Y31125643D01*
X22470874Y30835629D01*
X6855462Y30835629D01*
X6855462Y35825656D01*
X9158207Y38128400D01*
X13170555Y38128400D01*
X13170491Y38055354D01*
X13266109Y37823939D01*
X13443008Y37646732D01*
X13674255Y37550709D01*
X13924646Y37550491D01*
X14156061Y37646109D01*
X14333268Y37823008D01*
X14429291Y38054255D01*
X14429509Y38304646D01*
X14333891Y38536061D01*
X14165194Y38705052D01*
X14233268Y38773008D01*
X14329291Y39004255D01*
X14329509Y39254646D01*
X14233891Y39486061D01*
X14056992Y39663268D01*
X13825745Y39759291D01*
X13575354Y39759509D01*
X13343939Y39663891D01*
X13261505Y39581600D01*
X8950000Y39581600D01*
X8777180Y39547224D01*
X8630671Y39449329D01*
X6047738Y36866396D01*
X6047738Y43439080D01*
X7294287Y44685629D01*
X13670874Y44685629D01*
X13781623Y44417594D01*
X13986515Y44212344D01*
X14254357Y44101127D01*
X14544371Y44100874D01*
X14812406Y44211623D01*
X15017656Y44416515D01*
X15128873Y44684357D01*
X15129126Y44974371D01*
X15018377Y45242406D01*
X14813485Y45447656D01*
X14545643Y45558873D01*
X14255629Y45559126D01*
X13987594Y45448377D01*
X13782344Y45243485D01*
X13671127Y44975643D01*
X13670874Y44685629D01*
X7294287Y44685629D01*
X7887059Y45278400D01*
X12550000Y45278400D01*
X12722820Y45312776D01*
X12869329Y45410671D01*
X14559250Y47100591D01*
X14674646Y47100491D01*
X14906061Y47196109D01*
X15083268Y47373008D01*
X15179291Y47604255D01*
X15179509Y47854646D01*
X15096502Y48055540D01*
X18953472Y48055540D01*
X29075540Y37933472D01*
X29075540Y28330000D01*
X29111656Y28148432D01*
X29214506Y27994506D01*
X32264506Y24944506D01*
X32418432Y24841656D01*
X32600000Y24805540D01*
X41084302Y24805540D01*
X41143008Y24746732D01*
X41374255Y24650709D01*
X41624646Y24650491D01*
X41856061Y24746109D01*
X42033268Y24923008D01*
X42129291Y25154255D01*
X42129509Y25404646D01*
X42033891Y25636061D01*
X41856992Y25813268D01*
X41625745Y25909291D01*
X41375354Y25909509D01*
X41143939Y25813891D01*
X41084405Y25754460D01*
X32796528Y25754460D01*
X30465359Y28085629D01*
X37920874Y28085629D01*
X38031623Y27817594D01*
X38236515Y27612344D01*
X38504357Y27501127D01*
X38794371Y27500874D01*
X39062406Y27611623D01*
X39267656Y27816515D01*
X39378873Y28084357D01*
X39379126Y28374371D01*
X39268377Y28642406D01*
X39063485Y28847656D01*
X38795643Y28958873D01*
X38505629Y28959126D01*
X38237594Y28848377D01*
X38032344Y28643485D01*
X37921127Y28375643D01*
X37920874Y28085629D01*
X30465359Y28085629D01*
X30024460Y28526528D01*
X30024460Y38130000D01*
X29988344Y38311568D01*
X29885494Y38465494D01*
X21095634Y47255354D01*
X34070491Y47255354D01*
X34166109Y47023939D01*
X34343008Y46846732D01*
X34574255Y46750709D01*
X34824646Y46750491D01*
X35056061Y46846109D01*
X35233268Y47023008D01*
X35329291Y47254255D01*
X35329335Y47305354D01*
X38070491Y47305354D01*
X38166109Y47073939D01*
X38343008Y46896732D01*
X38574255Y46800709D01*
X38824646Y46800491D01*
X39056061Y46896109D01*
X39233268Y47073008D01*
X39329291Y47304255D01*
X39329509Y47554646D01*
X39233891Y47786061D01*
X39056992Y47963268D01*
X38825745Y48059291D01*
X38575354Y48059509D01*
X38343939Y47963891D01*
X38166732Y47786992D01*
X38070709Y47555745D01*
X38070491Y47305354D01*
X35329335Y47305354D01*
X35329509Y47504646D01*
X35233891Y47736061D01*
X35056992Y47913268D01*
X34825745Y48009291D01*
X34575354Y48009509D01*
X34343939Y47913891D01*
X34166732Y47736992D01*
X34070709Y47505745D01*
X34070491Y47255354D01*
X21095634Y47255354D01*
X19485494Y48865494D01*
X19331568Y48968344D01*
X19150000Y49004460D01*
X12896528Y49004460D01*
X12535494Y49365494D01*
X12381568Y49468344D01*
X12200000Y49504460D01*
X6300000Y49504460D01*
X6118432Y49468344D01*
X5964506Y49365494D01*
X4073472Y47474460D01*
X3769523Y47474460D01*
X3664077Y47729659D01*
X3301567Y48092802D01*
X2874362Y48270193D01*
X3299659Y48445923D01*
X3662802Y48808433D01*
X3769562Y49065540D01*
X3910000Y49065540D01*
X4091568Y49101656D01*
X4245494Y49204506D01*
X7296528Y52255540D01*
X31034302Y52255540D01*
X31093008Y52196732D01*
X31324255Y52100709D01*
X31574646Y52100491D01*
X31806061Y52196109D01*
X31983268Y52373008D01*
X32079291Y52604255D01*
X32079509Y52854646D01*
X31983891Y53086061D01*
X31806992Y53263268D01*
X31575745Y53359291D01*
X31325354Y53359509D01*
X31093939Y53263891D01*
X31034405Y53204460D01*
X7100000Y53204460D01*
X6918432Y53168344D01*
X6764506Y53065494D01*
X3753135Y50054123D01*
X3664077Y50269659D01*
X3301567Y50632802D01*
X2874362Y50810193D01*
X3299659Y50985923D01*
X3662802Y51348433D01*
X3859576Y51822317D01*
X3860024Y52335432D01*
X3664077Y52809659D01*
X3301567Y53172802D01*
X2874362Y53350193D01*
X3299659Y53525923D01*
X3662802Y53888433D01*
X3859576Y54362317D01*
X3860024Y54875432D01*
X3664077Y55349659D01*
X3301567Y55712802D01*
X2827683Y55909576D01*
X2314568Y55910024D01*
X1840341Y55714077D01*
X1477198Y55351567D01*
X1280424Y54877683D01*
X1279976Y54364568D01*
X590500Y54364568D01*
X590500Y56934000D01*
X7230000Y56934000D01*
X7230000Y55087062D01*
X7322562Y54863596D01*
X7493595Y54692563D01*
X7717061Y54600000D01*
X8532000Y54600000D01*
X8684000Y54752000D01*
X8684000Y57086000D01*
X8992000Y57086000D01*
X8992000Y54752000D01*
X9144000Y54600000D01*
X9958939Y54600000D01*
X10182405Y54692563D01*
X10353438Y54863596D01*
X10446000Y55087062D01*
X10446000Y56934000D01*
X12754000Y56934000D01*
X12754000Y55087062D01*
X12846562Y54863596D01*
X13017595Y54692563D01*
X13241061Y54600000D01*
X14056000Y54600000D01*
X14208000Y54752000D01*
X14208000Y57086000D01*
X12906000Y57086000D01*
X12754000Y56934000D01*
X10446000Y56934000D01*
X10294000Y57086000D01*
X8992000Y57086000D01*
X8684000Y57086000D01*
X7382000Y57086000D01*
X7230000Y56934000D01*
X590500Y56934000D01*
X590500Y59139500D01*
X7230000Y59139500D01*
X7230000Y57546000D01*
M02*
