G04 #@! TF.FileFunction,Legend,Bot*
%FSLAX46Y46*%
G04 Gerber Fmt 4.6, Leading zero omitted, Abs format (unit mm)*
G04 Created by KiCad (PCBNEW 4.0.6) date 10/15/17 15:06:52*
%MOMM*%
%LPD*%
G01*
G04 APERTURE LIST*
%ADD10C,0.150000*%
%ADD11C,0.304800*%
%ADD12C,0.125000*%
%ADD13C,1.950000*%
%ADD14R,1.977200X2.282000*%
%ADD15O,1.977200X2.282000*%
%ADD16R,1.950000X1.950000*%
%ADD17O,1.950000X1.950000*%
%ADD18C,2.129600*%
%ADD19C,3.750000*%
%ADD20R,2.250000X4.314000*%
G04 APERTURE END LIST*
D10*
D11*
X50637143Y14623562D02*
X50637143Y16655562D01*
X50637143Y15687943D02*
X49766286Y15687943D01*
X49766286Y14623562D02*
X49766286Y16655562D01*
X48387429Y14623562D02*
X48387429Y15687943D01*
X48460000Y15881467D01*
X48605143Y15978229D01*
X48895429Y15978229D01*
X49040572Y15881467D01*
X48387429Y14720324D02*
X48532572Y14623562D01*
X48895429Y14623562D01*
X49040572Y14720324D01*
X49113143Y14913848D01*
X49113143Y15107371D01*
X49040572Y15300895D01*
X48895429Y15397657D01*
X48532572Y15397657D01*
X48387429Y15494419D01*
X47661715Y14623562D02*
X47661715Y15978229D01*
X47661715Y15784705D02*
X47589143Y15881467D01*
X47444001Y15978229D01*
X47226286Y15978229D01*
X47081143Y15881467D01*
X47008572Y15687943D01*
X47008572Y14623562D01*
X47008572Y15687943D02*
X46936001Y15881467D01*
X46790858Y15978229D01*
X46573143Y15978229D01*
X46428001Y15881467D01*
X46355429Y15687943D01*
X46355429Y14623562D01*
X45702286Y14720324D02*
X45484572Y14623562D01*
X45121715Y14623562D01*
X44976572Y14720324D01*
X44904001Y14817086D01*
X44831429Y15010610D01*
X44831429Y15204133D01*
X44904001Y15397657D01*
X44976572Y15494419D01*
X45121715Y15591181D01*
X45412001Y15687943D01*
X45557143Y15784705D01*
X45629715Y15881467D01*
X45702286Y16074990D01*
X45702286Y16268514D01*
X45629715Y16462038D01*
X45557143Y16558800D01*
X45412001Y16655562D01*
X45049143Y16655562D01*
X44831429Y16558800D01*
X44178286Y14623562D02*
X44178286Y16655562D01*
X43525143Y14623562D02*
X43525143Y15687943D01*
X43597714Y15881467D01*
X43742857Y15978229D01*
X43960572Y15978229D01*
X44105714Y15881467D01*
X44178286Y15784705D01*
X42799429Y14623562D02*
X42799429Y15978229D01*
X42799429Y16655562D02*
X42872000Y16558800D01*
X42799429Y16462038D01*
X42726857Y16558800D01*
X42799429Y16655562D01*
X42799429Y16462038D01*
X41493143Y14720324D02*
X41638286Y14623562D01*
X41928572Y14623562D01*
X42073715Y14720324D01*
X42146286Y14913848D01*
X42146286Y15687943D01*
X42073715Y15881467D01*
X41928572Y15978229D01*
X41638286Y15978229D01*
X41493143Y15881467D01*
X41420572Y15687943D01*
X41420572Y15494419D01*
X42146286Y15300895D01*
X40549715Y14623562D02*
X40694857Y14720324D01*
X40767429Y14913848D01*
X40767429Y16655562D01*
X39316000Y14623562D02*
X39316000Y16655562D01*
X39316000Y14720324D02*
X39461143Y14623562D01*
X39751429Y14623562D01*
X39896571Y14720324D01*
X39969143Y14817086D01*
X40041714Y15010610D01*
X40041714Y15591181D01*
X39969143Y15784705D01*
X39896571Y15881467D01*
X39751429Y15978229D01*
X39461143Y15978229D01*
X39316000Y15881467D01*
X37792000Y14623562D02*
X38662857Y14623562D01*
X38227429Y14623562D02*
X38227429Y16655562D01*
X38372572Y16365276D01*
X38517714Y16171752D01*
X38662857Y16074990D01*
X37138857Y14817086D02*
X37066285Y14720324D01*
X37138857Y14623562D01*
X37211428Y14720324D01*
X37138857Y14817086D01*
X37138857Y14623562D01*
X36122857Y16655562D02*
X35977714Y16655562D01*
X35832571Y16558800D01*
X35760000Y16462038D01*
X35687429Y16268514D01*
X35614857Y15881467D01*
X35614857Y15397657D01*
X35687429Y15010610D01*
X35760000Y14817086D01*
X35832571Y14720324D01*
X35977714Y14623562D01*
X36122857Y14623562D01*
X36268000Y14720324D01*
X36340571Y14817086D01*
X36413143Y15010610D01*
X36485714Y15397657D01*
X36485714Y15881467D01*
X36413143Y16268514D01*
X36340571Y16462038D01*
X36268000Y16558800D01*
X36122857Y16655562D01*
X34961714Y14623562D02*
X34961714Y16655562D01*
X34961714Y15881467D02*
X34816571Y15978229D01*
X34526285Y15978229D01*
X34381142Y15881467D01*
X34308571Y15784705D01*
X34236000Y15591181D01*
X34236000Y15010610D01*
X34308571Y14817086D01*
X34381142Y14720324D01*
X34526285Y14623562D01*
X34816571Y14623562D01*
X34961714Y14720324D01*
X50637143Y12335143D02*
X50129143Y12335143D01*
X49911429Y11270762D02*
X50637143Y11270762D01*
X50637143Y13302762D01*
X49911429Y13302762D01*
X49258286Y12625429D02*
X49258286Y11270762D01*
X49258286Y12431905D02*
X49185714Y12528667D01*
X49040572Y12625429D01*
X48822857Y12625429D01*
X48677714Y12528667D01*
X48605143Y12335143D01*
X48605143Y11270762D01*
X47879429Y11270762D02*
X47879429Y13302762D01*
X47226286Y11270762D02*
X47226286Y12335143D01*
X47298857Y12528667D01*
X47444000Y12625429D01*
X47661715Y12625429D01*
X47806857Y12528667D01*
X47879429Y12431905D01*
X45847429Y11270762D02*
X45847429Y12335143D01*
X45920000Y12528667D01*
X46065143Y12625429D01*
X46355429Y12625429D01*
X46500572Y12528667D01*
X45847429Y11367524D02*
X45992572Y11270762D01*
X46355429Y11270762D01*
X46500572Y11367524D01*
X46573143Y11561048D01*
X46573143Y11754571D01*
X46500572Y11948095D01*
X46355429Y12044857D01*
X45992572Y12044857D01*
X45847429Y12141619D01*
X45121715Y12625429D02*
X45121715Y11270762D01*
X45121715Y12431905D02*
X45049143Y12528667D01*
X44904001Y12625429D01*
X44686286Y12625429D01*
X44541143Y12528667D01*
X44468572Y12335143D01*
X44468572Y11270762D01*
X43089715Y11367524D02*
X43234858Y11270762D01*
X43525144Y11270762D01*
X43670286Y11367524D01*
X43742858Y11464286D01*
X43815429Y11657810D01*
X43815429Y12238381D01*
X43742858Y12431905D01*
X43670286Y12528667D01*
X43525144Y12625429D01*
X43234858Y12625429D01*
X43089715Y12528667D01*
X41856000Y11367524D02*
X42001143Y11270762D01*
X42291429Y11270762D01*
X42436572Y11367524D01*
X42509143Y11561048D01*
X42509143Y12335143D01*
X42436572Y12528667D01*
X42291429Y12625429D01*
X42001143Y12625429D01*
X41856000Y12528667D01*
X41783429Y12335143D01*
X41783429Y12141619D01*
X42509143Y11948095D01*
X40477143Y11270762D02*
X40477143Y13302762D01*
X40477143Y11367524D02*
X40622286Y11270762D01*
X40912572Y11270762D01*
X41057714Y11367524D01*
X41130286Y11464286D01*
X41202857Y11657810D01*
X41202857Y12238381D01*
X41130286Y12431905D01*
X41057714Y12528667D01*
X40912572Y12625429D01*
X40622286Y12625429D01*
X40477143Y12528667D01*
X37719429Y11270762D02*
X38227429Y12238381D01*
X38590286Y11270762D02*
X38590286Y13302762D01*
X38009714Y13302762D01*
X37864572Y13206000D01*
X37792000Y13109238D01*
X37719429Y12915714D01*
X37719429Y12625429D01*
X37792000Y12431905D01*
X37864572Y12335143D01*
X38009714Y12238381D01*
X38590286Y12238381D01*
X36413143Y11270762D02*
X36413143Y12335143D01*
X36485714Y12528667D01*
X36630857Y12625429D01*
X36921143Y12625429D01*
X37066286Y12528667D01*
X36413143Y11367524D02*
X36558286Y11270762D01*
X36921143Y11270762D01*
X37066286Y11367524D01*
X37138857Y11561048D01*
X37138857Y11754571D01*
X37066286Y11948095D01*
X36921143Y12044857D01*
X36558286Y12044857D01*
X36413143Y12141619D01*
X35034286Y11270762D02*
X35034286Y13302762D01*
X35034286Y11367524D02*
X35179429Y11270762D01*
X35469715Y11270762D01*
X35614857Y11367524D01*
X35687429Y11464286D01*
X35760000Y11657810D01*
X35760000Y12238381D01*
X35687429Y12431905D01*
X35614857Y12528667D01*
X35469715Y12625429D01*
X35179429Y12625429D01*
X35034286Y12528667D01*
X34308572Y11270762D02*
X34308572Y12625429D01*
X34308572Y13302762D02*
X34381143Y13206000D01*
X34308572Y13109238D01*
X34236000Y13206000D01*
X34308572Y13302762D01*
X34308572Y13109238D01*
X33365144Y11270762D02*
X33510286Y11367524D01*
X33582858Y11464286D01*
X33655429Y11657810D01*
X33655429Y12238381D01*
X33582858Y12431905D01*
X33510286Y12528667D01*
X33365144Y12625429D01*
X33147429Y12625429D01*
X33002286Y12528667D01*
X32929715Y12431905D01*
X32857144Y12238381D01*
X32857144Y11657810D01*
X32929715Y11464286D01*
X33002286Y11367524D01*
X33147429Y11270762D01*
X33365144Y11270762D01*
X31042858Y11270762D02*
X31042858Y13302762D01*
X30680001Y13302762D01*
X30462286Y13206000D01*
X30317144Y13012476D01*
X30244572Y12818952D01*
X30172001Y12431905D01*
X30172001Y12141619D01*
X30244572Y11754571D01*
X30317144Y11561048D01*
X30462286Y11367524D01*
X30680001Y11270762D01*
X31042858Y11270762D01*
X28938286Y11367524D02*
X29083429Y11270762D01*
X29373715Y11270762D01*
X29518858Y11367524D01*
X29591429Y11561048D01*
X29591429Y12335143D01*
X29518858Y12528667D01*
X29373715Y12625429D01*
X29083429Y12625429D01*
X28938286Y12528667D01*
X28865715Y12335143D01*
X28865715Y12141619D01*
X29591429Y11948095D01*
X28357715Y12625429D02*
X27994858Y11270762D01*
X27632000Y12625429D01*
X27051429Y11270762D02*
X27051429Y12625429D01*
X27051429Y13302762D02*
X27124000Y13206000D01*
X27051429Y13109238D01*
X26978857Y13206000D01*
X27051429Y13302762D01*
X27051429Y13109238D01*
X25672572Y11367524D02*
X25817715Y11270762D01*
X26108001Y11270762D01*
X26253143Y11367524D01*
X26325715Y11464286D01*
X26398286Y11657810D01*
X26398286Y12238381D01*
X26325715Y12431905D01*
X26253143Y12528667D01*
X26108001Y12625429D01*
X25817715Y12625429D01*
X25672572Y12528667D01*
X24438857Y11367524D02*
X24584000Y11270762D01*
X24874286Y11270762D01*
X25019429Y11367524D01*
X25092000Y11561048D01*
X25092000Y12335143D01*
X25019429Y12528667D01*
X24874286Y12625429D01*
X24584000Y12625429D01*
X24438857Y12528667D01*
X24366286Y12335143D01*
X24366286Y12141619D01*
X25092000Y11948095D01*
X23785714Y11367524D02*
X23640571Y11270762D01*
X23350286Y11270762D01*
X23205143Y11367524D01*
X23132571Y11561048D01*
X23132571Y11657810D01*
X23205143Y11851333D01*
X23350286Y11948095D01*
X23568000Y11948095D01*
X23713143Y12044857D01*
X23785714Y12238381D01*
X23785714Y12335143D01*
X23713143Y12528667D01*
X23568000Y12625429D01*
X23350286Y12625429D01*
X23205143Y12528667D01*
X50709714Y9756438D02*
X50637143Y9853200D01*
X50492000Y9949962D01*
X50129143Y9949962D01*
X49984000Y9853200D01*
X49911429Y9756438D01*
X49838857Y9562914D01*
X49838857Y9369390D01*
X49911429Y9079105D01*
X50782286Y7917962D01*
X49838857Y7917962D01*
X48895428Y9949962D02*
X48750285Y9949962D01*
X48605142Y9853200D01*
X48532571Y9756438D01*
X48460000Y9562914D01*
X48387428Y9175867D01*
X48387428Y8692057D01*
X48460000Y8305010D01*
X48532571Y8111486D01*
X48605142Y8014724D01*
X48750285Y7917962D01*
X48895428Y7917962D01*
X49040571Y8014724D01*
X49113142Y8111486D01*
X49185714Y8305010D01*
X49258285Y8692057D01*
X49258285Y9175867D01*
X49185714Y9562914D01*
X49113142Y9756438D01*
X49040571Y9853200D01*
X48895428Y9949962D01*
X46935999Y7917962D02*
X47806856Y7917962D01*
X47371428Y7917962D02*
X47371428Y9949962D01*
X47516571Y9659676D01*
X47661713Y9466152D01*
X47806856Y9369390D01*
X46427999Y9949962D02*
X45411999Y9949962D01*
X46065142Y7917962D01*
D12*
X49234762Y21187619D02*
X49234762Y22187619D01*
X48568096Y22187619D02*
X48377619Y22187619D01*
X48282381Y22140000D01*
X48187143Y22044762D01*
X48139524Y21854286D01*
X48139524Y21520952D01*
X48187143Y21330476D01*
X48282381Y21235238D01*
X48377619Y21187619D01*
X48568096Y21187619D01*
X48663334Y21235238D01*
X48758572Y21330476D01*
X48806191Y21520952D01*
X48806191Y21854286D01*
X48758572Y22044762D01*
X48663334Y22140000D01*
X48568096Y22187619D01*
X47139524Y21187619D02*
X47472858Y21663810D01*
X47710953Y21187619D02*
X47710953Y22187619D01*
X47330000Y22187619D01*
X47234762Y22140000D01*
X47187143Y22092381D01*
X47139524Y21997143D01*
X47139524Y21854286D01*
X47187143Y21759048D01*
X47234762Y21711429D01*
X47330000Y21663810D01*
X47710953Y21663810D01*
X46710953Y21711429D02*
X46377619Y21711429D01*
X46234762Y21187619D02*
X46710953Y21187619D01*
X46710953Y22187619D01*
X46234762Y22187619D01*
X45472857Y21711429D02*
X45806191Y21711429D01*
X45806191Y21187619D02*
X45806191Y22187619D01*
X45330000Y22187619D01*
X6500476Y9695238D02*
X6357619Y9647619D01*
X6119523Y9647619D01*
X6024285Y9695238D01*
X5976666Y9742857D01*
X5929047Y9838095D01*
X5929047Y9933333D01*
X5976666Y10028571D01*
X6024285Y10076190D01*
X6119523Y10123810D01*
X6310000Y10171429D01*
X6405238Y10219048D01*
X6452857Y10266667D01*
X6500476Y10361905D01*
X6500476Y10457143D01*
X6452857Y10552381D01*
X6405238Y10600000D01*
X6310000Y10647619D01*
X6071904Y10647619D01*
X5929047Y10600000D01*
X4929047Y9742857D02*
X4976666Y9695238D01*
X5119523Y9647619D01*
X5214761Y9647619D01*
X5357619Y9695238D01*
X5452857Y9790476D01*
X5500476Y9885714D01*
X5548095Y10076190D01*
X5548095Y10219048D01*
X5500476Y10409524D01*
X5452857Y10504762D01*
X5357619Y10600000D01*
X5214761Y10647619D01*
X5119523Y10647619D01*
X4976666Y10600000D01*
X4929047Y10552381D01*
X4024285Y9647619D02*
X4500476Y9647619D01*
X4500476Y10647619D01*
X6664286Y12375238D02*
X6521429Y12327619D01*
X6283333Y12327619D01*
X6188095Y12375238D01*
X6140476Y12422857D01*
X6092857Y12518095D01*
X6092857Y12613333D01*
X6140476Y12708571D01*
X6188095Y12756190D01*
X6283333Y12803810D01*
X6473810Y12851429D01*
X6569048Y12899048D01*
X6616667Y12946667D01*
X6664286Y13041905D01*
X6664286Y13137143D01*
X6616667Y13232381D01*
X6569048Y13280000D01*
X6473810Y13327619D01*
X6235714Y13327619D01*
X6092857Y13280000D01*
X5664286Y12327619D02*
X5664286Y13327619D01*
X5426191Y13327619D01*
X5283333Y13280000D01*
X5188095Y13184762D01*
X5140476Y13089524D01*
X5092857Y12899048D01*
X5092857Y12756190D01*
X5140476Y12565714D01*
X5188095Y12470476D01*
X5283333Y12375238D01*
X5426191Y12327619D01*
X5664286Y12327619D01*
X4711905Y12613333D02*
X4235714Y12613333D01*
X4807143Y12327619D02*
X4473810Y13327619D01*
X4140476Y12327619D01*
X48683604Y32140000D02*
X48778842Y32187619D01*
X48921699Y32187619D01*
X49064557Y32140000D01*
X49159795Y32044762D01*
X49207414Y31949524D01*
X49255033Y31759048D01*
X49255033Y31616190D01*
X49207414Y31425714D01*
X49159795Y31330476D01*
X49064557Y31235238D01*
X48921699Y31187619D01*
X48826461Y31187619D01*
X48683604Y31235238D01*
X48635985Y31282857D01*
X48635985Y31616190D01*
X48826461Y31616190D01*
X48207414Y31187619D02*
X48207414Y32187619D01*
X47635985Y31187619D01*
X47635985Y32187619D01*
X47159795Y31187619D02*
X47159795Y32187619D01*
X46921700Y32187619D01*
X46778842Y32140000D01*
X46683604Y32044762D01*
X46635985Y31949524D01*
X46588366Y31759048D01*
X46588366Y31616190D01*
X46635985Y31425714D01*
X46683604Y31330476D01*
X46778842Y31235238D01*
X46921700Y31187619D01*
X47159795Y31187619D01*
X48683604Y34540000D02*
X48778842Y34587619D01*
X48921699Y34587619D01*
X49064557Y34540000D01*
X49159795Y34444762D01*
X49207414Y34349524D01*
X49255033Y34159048D01*
X49255033Y34016190D01*
X49207414Y33825714D01*
X49159795Y33730476D01*
X49064557Y33635238D01*
X48921699Y33587619D01*
X48826461Y33587619D01*
X48683604Y33635238D01*
X48635985Y33682857D01*
X48635985Y34016190D01*
X48826461Y34016190D01*
X48207414Y33587619D02*
X48207414Y34587619D01*
X47635985Y33587619D01*
X47635985Y34587619D01*
X47159795Y33587619D02*
X47159795Y34587619D01*
X46921700Y34587619D01*
X46778842Y34540000D01*
X46683604Y34444762D01*
X46635985Y34349524D01*
X46588366Y34159048D01*
X46588366Y34016190D01*
X46635985Y33825714D01*
X46683604Y33730476D01*
X46778842Y33635238D01*
X46921700Y33587619D01*
X47159795Y33587619D01*
X49207414Y29148571D02*
X48445509Y29148571D01*
X48826461Y28767619D02*
X48826461Y29529524D01*
X47493128Y29767619D02*
X47969319Y29767619D01*
X48016938Y29291429D01*
X47969319Y29339048D01*
X47874081Y29386667D01*
X47635985Y29386667D01*
X47540747Y29339048D01*
X47493128Y29291429D01*
X47445509Y29196190D01*
X47445509Y28958095D01*
X47493128Y28862857D01*
X47540747Y28815238D01*
X47635985Y28767619D01*
X47874081Y28767619D01*
X47969319Y28815238D01*
X48016938Y28862857D01*
X47159795Y29767619D02*
X46826462Y28767619D01*
X46493128Y29767619D01*
X48469319Y23687619D02*
X48802653Y24163810D01*
X49040748Y23687619D02*
X49040748Y24687619D01*
X48659795Y24687619D01*
X48564557Y24640000D01*
X48516938Y24592381D01*
X48469319Y24497143D01*
X48469319Y24354286D01*
X48516938Y24259048D01*
X48564557Y24211429D01*
X48659795Y24163810D01*
X49040748Y24163810D01*
X48088367Y23735238D02*
X47945510Y23687619D01*
X47707414Y23687619D01*
X47612176Y23735238D01*
X47564557Y23782857D01*
X47516938Y23878095D01*
X47516938Y23973333D01*
X47564557Y24068571D01*
X47612176Y24116190D01*
X47707414Y24163810D01*
X47897891Y24211429D01*
X47993129Y24259048D01*
X48040748Y24306667D01*
X48088367Y24401905D01*
X48088367Y24497143D01*
X48040748Y24592381D01*
X47993129Y24640000D01*
X47897891Y24687619D01*
X47659795Y24687619D01*
X47516938Y24640000D01*
X47231224Y24687619D02*
X46659795Y24687619D01*
X46945510Y23687619D02*
X46945510Y24687619D01*
X49016938Y37387619D02*
X48683605Y36387619D01*
X48350271Y37387619D01*
X48016938Y36387619D02*
X48016938Y37387619D01*
X47540748Y36387619D02*
X47540748Y37387619D01*
X46969319Y36387619D01*
X46969319Y37387619D01*
X49570000Y26588571D02*
X48808095Y26588571D01*
X49189047Y26207619D02*
X49189047Y26969524D01*
X48427143Y27207619D02*
X47808095Y27207619D01*
X48141429Y26826667D01*
X47998571Y26826667D01*
X47903333Y26779048D01*
X47855714Y26731429D01*
X47808095Y26636190D01*
X47808095Y26398095D01*
X47855714Y26302857D01*
X47903333Y26255238D01*
X47998571Y26207619D01*
X48284286Y26207619D01*
X48379524Y26255238D01*
X48427143Y26302857D01*
X47379524Y26302857D02*
X47331905Y26255238D01*
X47379524Y26207619D01*
X47427143Y26255238D01*
X47379524Y26302857D01*
X47379524Y26207619D01*
X46998572Y27207619D02*
X46379524Y27207619D01*
X46712858Y26826667D01*
X46570000Y26826667D01*
X46474762Y26779048D01*
X46427143Y26731429D01*
X46379524Y26636190D01*
X46379524Y26398095D01*
X46427143Y26302857D01*
X46474762Y26255238D01*
X46570000Y26207619D01*
X46855715Y26207619D01*
X46950953Y26255238D01*
X46998572Y26302857D01*
X46093810Y27207619D02*
X45760477Y26207619D01*
X45427143Y27207619D01*
X48985319Y42467619D02*
X48890080Y42467619D01*
X48794842Y42420000D01*
X48747223Y42372381D01*
X48699604Y42277143D01*
X48651985Y42086667D01*
X48651985Y41848571D01*
X48699604Y41658095D01*
X48747223Y41562857D01*
X48794842Y41515238D01*
X48890080Y41467619D01*
X48985319Y41467619D01*
X49080557Y41515238D01*
X49128176Y41562857D01*
X49175795Y41658095D01*
X49223414Y41848571D01*
X49223414Y42086667D01*
X49175795Y42277143D01*
X49128176Y42372381D01*
X49080557Y42420000D01*
X48985319Y42467619D01*
X48651985Y44007619D02*
X49223414Y44007619D01*
X48937700Y44007619D02*
X48937700Y45007619D01*
X49032938Y44864762D01*
X49128176Y44769524D01*
X49223414Y44721905D01*
X49223414Y47452381D02*
X49175795Y47500000D01*
X49080557Y47547619D01*
X48842461Y47547619D01*
X48747223Y47500000D01*
X48699604Y47452381D01*
X48651985Y47357143D01*
X48651985Y47261905D01*
X48699604Y47119048D01*
X49271033Y46547619D01*
X48651985Y46547619D01*
X49271033Y50087619D02*
X48651985Y50087619D01*
X48985319Y49706667D01*
X48842461Y49706667D01*
X48747223Y49659048D01*
X48699604Y49611429D01*
X48651985Y49516190D01*
X48651985Y49278095D01*
X48699604Y49182857D01*
X48747223Y49135238D01*
X48842461Y49087619D01*
X49128176Y49087619D01*
X49223414Y49135238D01*
X49271033Y49182857D01*
X48747223Y52294286D02*
X48747223Y51627619D01*
X48985319Y52675238D02*
X49223414Y51960952D01*
X48604366Y51960952D01*
X48699604Y55167619D02*
X49175795Y55167619D01*
X49223414Y54691429D01*
X49175795Y54739048D01*
X49080557Y54786667D01*
X48842461Y54786667D01*
X48747223Y54739048D01*
X48699604Y54691429D01*
X48651985Y54596190D01*
X48651985Y54358095D01*
X48699604Y54262857D01*
X48747223Y54215238D01*
X48842461Y54167619D01*
X49080557Y54167619D01*
X49175795Y54215238D01*
X49223414Y54262857D01*
X47580367Y51036786D02*
X47580367Y50560595D01*
X47866081Y51167739D02*
X46866081Y50709406D01*
X47866081Y50501072D01*
X47199414Y50084405D02*
X47866081Y50167739D01*
X47294652Y50096310D02*
X47247033Y50042739D01*
X47199414Y49941548D01*
X47199414Y49798690D01*
X47247033Y49709405D01*
X47342271Y49673690D01*
X47866081Y49739167D01*
X47866081Y48834405D02*
X47342271Y48768928D01*
X47247033Y48804643D01*
X47199414Y48893928D01*
X47199414Y49084405D01*
X47247033Y49185596D01*
X47818462Y48828452D02*
X47866081Y48929643D01*
X47866081Y49167739D01*
X47818462Y49257024D01*
X47723224Y49292738D01*
X47627986Y49280834D01*
X47532748Y49221310D01*
X47485129Y49120120D01*
X47485129Y48882024D01*
X47437510Y48780833D01*
X47866081Y48215358D02*
X47818462Y48304643D01*
X47723224Y48340357D01*
X46866081Y48233215D01*
X47866081Y47691548D02*
X47818462Y47780833D01*
X47770843Y47822500D01*
X47675605Y47858214D01*
X47389890Y47822500D01*
X47294652Y47762976D01*
X47247033Y47709405D01*
X47199414Y47608214D01*
X47199414Y47465356D01*
X47247033Y47376071D01*
X47294652Y47334404D01*
X47389890Y47298690D01*
X47675605Y47334404D01*
X47770843Y47393928D01*
X47818462Y47447499D01*
X47866081Y47548690D01*
X47866081Y47691548D01*
X47199414Y46417737D02*
X48008938Y46518928D01*
X48104176Y46578452D01*
X48151795Y46632023D01*
X48199414Y46733214D01*
X48199414Y46876071D01*
X48151795Y46965357D01*
X47818462Y46495118D02*
X47866081Y46596309D01*
X47866081Y46786786D01*
X47818462Y46876071D01*
X47770843Y46917738D01*
X47675605Y46953452D01*
X47389890Y46917738D01*
X47294652Y46858214D01*
X47247033Y46804643D01*
X47199414Y46703452D01*
X47199414Y46512975D01*
X47247033Y46423690D01*
X47866081Y45262976D02*
X46866081Y45137976D01*
X47199414Y44703452D02*
X47866081Y44786786D01*
X47294652Y44715357D02*
X47247033Y44661786D01*
X47199414Y44560595D01*
X47199414Y44417737D01*
X47247033Y44328452D01*
X47342271Y44292737D01*
X47866081Y44358214D01*
X6291904Y18060000D02*
X6387142Y18107619D01*
X6529999Y18107619D01*
X6672857Y18060000D01*
X6768095Y17964762D01*
X6815714Y17869524D01*
X6863333Y17679048D01*
X6863333Y17536190D01*
X6815714Y17345714D01*
X6768095Y17250476D01*
X6672857Y17155238D01*
X6529999Y17107619D01*
X6434761Y17107619D01*
X6291904Y17155238D01*
X6244285Y17202857D01*
X6244285Y17536190D01*
X6434761Y17536190D01*
X5815714Y17107619D02*
X5815714Y18107619D01*
X5244285Y17107619D01*
X5244285Y18107619D01*
X4768095Y17107619D02*
X4768095Y18107619D01*
X4530000Y18107619D01*
X4387142Y18060000D01*
X4291904Y17964762D01*
X4244285Y17869524D01*
X4196666Y17679048D01*
X4196666Y17536190D01*
X4244285Y17345714D01*
X4291904Y17250476D01*
X4387142Y17155238D01*
X4530000Y17107619D01*
X4768095Y17107619D01*
X5046476Y19877619D02*
X5617905Y19877619D01*
X5332191Y19877619D02*
X5332191Y20877619D01*
X5427429Y20734762D01*
X5522667Y20639524D01*
X5617905Y20591905D01*
X4713143Y20877619D02*
X4094095Y20877619D01*
X4427429Y20496667D01*
X4284571Y20496667D01*
X4189333Y20449048D01*
X4141714Y20401429D01*
X4094095Y20306190D01*
X4094095Y20068095D01*
X4141714Y19972857D01*
X4189333Y19925238D01*
X4284571Y19877619D01*
X4570286Y19877619D01*
X4665524Y19925238D01*
X4713143Y19972857D01*
X5046476Y22417619D02*
X5617905Y22417619D01*
X5332191Y22417619D02*
X5332191Y23417619D01*
X5427429Y23274762D01*
X5522667Y23179524D01*
X5617905Y23131905D01*
X4665524Y23322381D02*
X4617905Y23370000D01*
X4522667Y23417619D01*
X4284571Y23417619D01*
X4189333Y23370000D01*
X4141714Y23322381D01*
X4094095Y23227143D01*
X4094095Y23131905D01*
X4141714Y22989048D01*
X4713143Y22417619D01*
X4094095Y22417619D01*
X5046476Y24957619D02*
X5617905Y24957619D01*
X5332191Y24957619D02*
X5332191Y25957619D01*
X5427429Y25814762D01*
X5522667Y25719524D01*
X5617905Y25671905D01*
X4094095Y24957619D02*
X4665524Y24957619D01*
X4379810Y24957619D02*
X4379810Y25957619D01*
X4475048Y25814762D01*
X4570286Y25719524D01*
X4665524Y25671905D01*
X7379048Y14993333D02*
X6902857Y14993333D01*
X7474286Y14707619D02*
X7140953Y15707619D01*
X6807619Y14707619D01*
X5902857Y14707619D02*
X6236191Y15183810D01*
X6474286Y14707619D02*
X6474286Y15707619D01*
X6093333Y15707619D01*
X5998095Y15660000D01*
X5950476Y15612381D01*
X5902857Y15517143D01*
X5902857Y15374286D01*
X5950476Y15279048D01*
X5998095Y15231429D01*
X6093333Y15183810D01*
X6474286Y15183810D01*
X5474286Y15231429D02*
X5140952Y15231429D01*
X4998095Y14707619D02*
X5474286Y14707619D01*
X5474286Y15707619D01*
X4998095Y15707619D01*
X4236190Y15231429D02*
X4569524Y15231429D01*
X4569524Y14707619D02*
X4569524Y15707619D01*
X4093333Y15707619D01*
X5046476Y27497619D02*
X5617905Y27497619D01*
X5332191Y27497619D02*
X5332191Y28497619D01*
X5427429Y28354762D01*
X5522667Y28259524D01*
X5617905Y28211905D01*
X4427429Y28497619D02*
X4332190Y28497619D01*
X4236952Y28450000D01*
X4189333Y28402381D01*
X4141714Y28307143D01*
X4094095Y28116667D01*
X4094095Y27878571D01*
X4141714Y27688095D01*
X4189333Y27592857D01*
X4236952Y27545238D01*
X4332190Y27497619D01*
X4427429Y27497619D01*
X4522667Y27545238D01*
X4570286Y27592857D01*
X4617905Y27688095D01*
X4665524Y27878571D01*
X4665524Y28116667D01*
X4617905Y28307143D01*
X4570286Y28402381D01*
X4522667Y28450000D01*
X4427429Y28497619D01*
X4538476Y30037619D02*
X4348000Y30037619D01*
X4252761Y30085238D01*
X4205142Y30132857D01*
X4109904Y30275714D01*
X4062285Y30466190D01*
X4062285Y30847143D01*
X4109904Y30942381D01*
X4157523Y30990000D01*
X4252761Y31037619D01*
X4443238Y31037619D01*
X4538476Y30990000D01*
X4586095Y30942381D01*
X4633714Y30847143D01*
X4633714Y30609048D01*
X4586095Y30513810D01*
X4538476Y30466190D01*
X4443238Y30418571D01*
X4252761Y30418571D01*
X4157523Y30466190D01*
X4109904Y30513810D01*
X4062285Y30609048D01*
X4443238Y33149048D02*
X4538476Y33196667D01*
X4586095Y33244286D01*
X4633714Y33339524D01*
X4633714Y33387143D01*
X4586095Y33482381D01*
X4538476Y33530000D01*
X4443238Y33577619D01*
X4252761Y33577619D01*
X4157523Y33530000D01*
X4109904Y33482381D01*
X4062285Y33387143D01*
X4062285Y33339524D01*
X4109904Y33244286D01*
X4157523Y33196667D01*
X4252761Y33149048D01*
X4443238Y33149048D01*
X4538476Y33101429D01*
X4586095Y33053810D01*
X4633714Y32958571D01*
X4633714Y32768095D01*
X4586095Y32672857D01*
X4538476Y32625238D01*
X4443238Y32577619D01*
X4252761Y32577619D01*
X4157523Y32625238D01*
X4109904Y32672857D01*
X4062285Y32768095D01*
X4062285Y32958571D01*
X4109904Y33053810D01*
X4157523Y33101429D01*
X4252761Y33149048D01*
X4681333Y37387619D02*
X4014666Y37387619D01*
X4443238Y36387619D01*
X4157523Y39927619D02*
X4348000Y39927619D01*
X4443238Y39880000D01*
X4490857Y39832381D01*
X4586095Y39689524D01*
X4633714Y39499048D01*
X4633714Y39118095D01*
X4586095Y39022857D01*
X4538476Y38975238D01*
X4443238Y38927619D01*
X4252761Y38927619D01*
X4157523Y38975238D01*
X4109904Y39022857D01*
X4062285Y39118095D01*
X4062285Y39356190D01*
X4109904Y39451429D01*
X4157523Y39499048D01*
X4252761Y39546667D01*
X4443238Y39546667D01*
X4538476Y39499048D01*
X4586095Y39451429D01*
X4633714Y39356190D01*
X4109904Y42467619D02*
X4586095Y42467619D01*
X4633714Y41991429D01*
X4586095Y42039048D01*
X4490857Y42086667D01*
X4252761Y42086667D01*
X4157523Y42039048D01*
X4109904Y41991429D01*
X4062285Y41896190D01*
X4062285Y41658095D01*
X4109904Y41562857D01*
X4157523Y41515238D01*
X4252761Y41467619D01*
X4490857Y41467619D01*
X4586095Y41515238D01*
X4633714Y41562857D01*
X4157523Y44674286D02*
X4157523Y44007619D01*
X4395619Y45055238D02*
X4633714Y44340952D01*
X4014666Y44340952D01*
X4681333Y47547619D02*
X4062285Y47547619D01*
X4395619Y47166667D01*
X4252761Y47166667D01*
X4157523Y47119048D01*
X4109904Y47071429D01*
X4062285Y46976190D01*
X4062285Y46738095D01*
X4109904Y46642857D01*
X4157523Y46595238D01*
X4252761Y46547619D01*
X4538476Y46547619D01*
X4633714Y46595238D01*
X4681333Y46642857D01*
X4633714Y49992381D02*
X4586095Y50040000D01*
X4490857Y50087619D01*
X4252761Y50087619D01*
X4157523Y50040000D01*
X4109904Y49992381D01*
X4062285Y49897143D01*
X4062285Y49801905D01*
X4109904Y49659048D01*
X4681333Y49087619D01*
X4062285Y49087619D01*
X5617905Y52627619D02*
X5046476Y52627619D01*
X5332191Y51627619D02*
X5332191Y52627619D01*
X4808381Y52627619D02*
X4141714Y51627619D01*
X4141714Y52627619D02*
X4808381Y51627619D01*
X5022666Y54167619D02*
X5356000Y54643810D01*
X5594095Y54167619D02*
X5594095Y55167619D01*
X5213142Y55167619D01*
X5117904Y55120000D01*
X5070285Y55072381D01*
X5022666Y54977143D01*
X5022666Y54834286D01*
X5070285Y54739048D01*
X5117904Y54691429D01*
X5213142Y54643810D01*
X5594095Y54643810D01*
X4689333Y55167619D02*
X4022666Y54167619D01*
X4022666Y55167619D02*
X4689333Y54167619D01*
%LPC*%
D13*
X43200000Y-3220000D03*
X43200000Y3780000D03*
D14*
X25480000Y1780000D03*
D15*
X22940000Y1780000D03*
X20400000Y1780000D03*
X17860000Y1780000D03*
X15320000Y1780000D03*
X12780000Y1780000D03*
X10240000Y1780000D03*
X7700000Y1780000D03*
X5160000Y1780000D03*
X2620000Y1780000D03*
D16*
X35470000Y4165000D03*
D17*
X35470000Y1625000D03*
X35470000Y-915000D03*
X35470000Y-3455000D03*
D18*
X50830000Y26680000D03*
X50830000Y29220000D03*
X50830000Y41920000D03*
X50830000Y44460000D03*
X50830000Y47000000D03*
X50830000Y49540000D03*
X50830000Y52080000D03*
X50830000Y54620000D03*
X2570000Y15250000D03*
X2570000Y49540000D03*
X2570000Y47000000D03*
X2570000Y44460000D03*
X2570000Y41920000D03*
X2570000Y39380000D03*
X2570000Y36840000D03*
X2570000Y33030000D03*
X2570000Y30490000D03*
X2570000Y27950000D03*
X2570000Y25410000D03*
X2570000Y22870000D03*
X2570000Y20330000D03*
X50830000Y31760000D03*
X50830000Y34300000D03*
X2570000Y17790000D03*
X50830000Y24140000D03*
X2570000Y54620000D03*
X2570000Y52080000D03*
X50830000Y36840000D03*
D19*
X2570000Y6360000D03*
X45755000Y57165000D03*
X17815000Y57160000D03*
X50830000Y5095000D03*
D18*
X2570000Y12710000D03*
X2570000Y10170000D03*
X50830000Y21600000D03*
X50830000Y19060000D03*
D20*
X8838000Y57240000D03*
X14362000Y57240000D03*
M02*
